<svg xmlns="http://www.w3.org/2000/svg" width="204" height="588" viewBox="0 0 204 588"><path fill-rule="evenodd" clip-rule="evenodd" fill="#8D8E8E" d="M48.5 74.7l16.2-28.1L83.5 14h-35v60.7zM20.6 14.1H8.2L27 46.7l16.2 28.1V53.3L20.6 14.1z"/><path fill-rule="evenodd" clip-rule="evenodd" fill="#C4C3C3" d="M43.2 14.1H26.7l16.5 28.6"/><g fill="#8D8E8E"><path d="M88.2 31.1h12v5.5h-4.8v5.2h4.5v5.3h-4.5v6.1h5.3v5.5H88.2V31.1zM119.8 31.1l-3.7 27.7h-10.9L101 31.1h7.6c.9 7.6 1.5 14.1 1.9 19.3.4-5.3.8-10.1 1.2-14.2l.5-5.1h7.6zM128.3 31.1v27.7h-7.2V31.1h7.2zM143.6 31.1l4.1 27.7h-7.4l-.4-5h-2.6l-.4 5h-7.4l3.7-27.7h10.4zm-3.8 17.8c-.4-3.1-.7-7-1.1-11.6-.7 5.3-1.2 9.2-1.4 11.6h2.5zM165 31.1v27.7h-6.3L155 46.2v12.6h-6V31.1h6l4 12.5V31.1h6zM184.7 43.2h-7.2v-4.8c0-1.4-.1-2.3-.2-2.6-.2-.3-.5-.5-1-.5-.6 0-1 .2-1.1.6-.2.4-.2 1.3-.2 2.7v12.9c0 1.3.1 2.2.2 2.6.2.4.5.6 1.1.6.5 0 .9-.2 1.1-.6s.2-1.4.2-2.9v-3.5h7.2v1.1c0 2.9-.2 4.9-.6 6.1-.4 1.2-1.3 2.2-2.7 3.1-1.4.9-3.1 1.4-5.1 1.4-2.1 0-3.8-.4-5.2-1.1s-2.3-1.8-2.7-3.2c-.4-1.3-.7-3.4-.7-6.1v-8.1c0-2 .1-3.5.2-4.5s.5-2 1.2-2.9 1.6-1.6 2.8-2.2c1.2-.5 2.6-.8 4.1-.8 2.1 0 3.9.4 5.2 1.2 1.4.8 2.3 1.8 2.7 3.1.4 1.2.6 3.1.6 5.7v2.7zM187.2 31.1h12v5.5h-4.8v5.2h4.5v5.3h-4.5v6.1h5.3v5.5h-12.5V31.1z"/></g><path fill-rule="evenodd" clip-rule="evenodd" fill="#AEAEAE" d="M109.7 114.1h-.5c-.1 0-.2 0-.3.1v3c.1.1.2.1.3.1h.6c17.4.1 17.3 26.4 0 26.4h-.9v3.2h.9c21.5-.1 21.5-32.8-.1-32.8zm-.9 28.9v-3.2h.9c12.4 0 12.4-18.7 0-18.7h-.9v-3.2h.9c16.6 0 16.6 25.1 0 25.1h-.9zm0-3.8V136h.9c7.3 0 7.3-11.1 0-11.1h-.9v-3.2h.9c11.5 0 11.5 17.5 0 17.5h-.9zm0-25c-.1.1-.2.2-.2.4v2.1c0 .2.1.3.2.4v-2.9zm0 29.4h-9c-.3 0-.5.2-.5.5v2.1c0 .3.2.5.5.5h9v-3.1zm0-25.7v3.2h-4.5c-.3 0-.5-.2-.5-.5v-2.1c0-.3.2-.5.5-.5h4.5v-.1zm0 3.8v3.2H98.3c-.3 0-.5-.2-.5-.5v-2.1c0-.3.2-.5.5-.5h10.5v-.1zm0 14.3v3.2h-15c-.3 0-.5-.2-.5-.5v-2.1c0-.3.2-.5.5-.5h15v-.1zm0 3.8v3.2H95.6c-.3 0-.5-.2-.5-.5v-2.1c0-.3.2-.5.5-.5h13.2z"/><path fill-rule="evenodd" clip-rule="evenodd" fill="#B7B7B7" d="M119 115.3c3-7 .1-16.6-8.6-18.5v-3.2c11.6 2 15.4 14.5 11.4 23.4-.1.2-.2.3-.5.4-.2 0-.4 0-.6-.1-.5-.4-.9-.7-1.5-1.1-.2-.3-.3-.6-.2-.9zm-8.6-10.3c2.4 1.7 2.8 5.2 1.4 7.6-.1.2-.1.4 0 .6.1.2.3.3.5.4.6.1 1.3.2 1.8.3.3.1.6-.1.8-.4 2-4.3.5-10.3-4.5-12.1v3.6zm0-4.3c5.4 1.8 7.2 8.1 5.2 12.8-.1.2-.1.4 0 .5.1.2.2.3.4.4.6.2 1.1.4 1.6.7.2.1.3.1.5 0s.3-.2.4-.4c2.7-6.6 0-15.5-8.1-17.4v3.4zm0-3.9c-1-.2-2.1-.3-3.3-.3h-12c-.3 0-.5-.2-.5-.5v-2.1c0-.3.2-.5.5-.5h12c1.2 0 2.3.1 3.3.3v3.1zm0 .6v3.3c-1-.3-2.1-.5-3.3-.5h-5.9c-.3 0-.5-.2-.5-.5v-2.1c0-.3.2-.5.5-.5h5.9c1.2-.1 2.3.1 3.3.3zm0 4v3.6c-.9-.6-1.9-1-3.3-1h-1.6c-.3 0-.5-.2-.5-.5v-2.1c0-.3.2-.5.5-.5h1.5c1.3 0 2.4.2 3.4.5z"/><path fill-rule="evenodd" clip-rule="evenodd" fill="#BBBBBA" d="M101.1 114.1h-6.3c-.3 0-.5.2-.5.5v2.1c0 .3.2.5.5.5h6.3c.3 0 .5-.2.5-.5v-2.1c0-.3-.2-.5-.5-.5zm-2.9 29.5H83.7c-.3 0-.5.2-.5.5v2.1c0 .3.2.5.5.5h14.5c.3 0 .5-.2.5-.5v-2.1c0-.2-.2-.5-.5-.5zm-8.1-4.4h2c.3 0 .5-.2.5-.5v-2.1c0-.3-.2-.5-.5-.5h-2c-.3 0-.5.2-.5.5v2.1c0 .2.2.5.5.5zm-3.2 3.8h.6c.3 0 .5-.2.5-.5v-2.1c0-.3-.2-.5-.5-.5h-.6c-.3 0-.5.2-.5.5v2.1c0 .3.2.5.5.5zm2.4 0h4.6c.3 0 .5-.2.5-.5v-2.1c0-.3-.2-.5-.5-.5h-4.6c-.3 0-.5.2-.5.5v2.1c-.1.3.2.5.5.5zm7.3-21.3h-.7c-.3 0-.5.2-.5.5v2.1c0 .3.2.5.5.5h.7c.3 0 .5-.2.5-.5v-2.1c.1-.3-.2-.5-.5-.5zm-2.4 0h-2.6c-.3 0-.5.2-.5.5v2.1c0 .3.2.5.5.5h2.6c.3 0 .5-.2.5-.5v-2.1c.1-.3-.2-.5-.5-.5zm8.5-3.8h-1.5c-.3 0-.5.2-.5.5v2.1c0 .3.2.5.5.5h1.5c.3 0 .5-.2.5-.5v-2.1c0-.3-.2-.5-.5-.5zm4.8-3.8h-4.6c-.3 0-.5.2-.5.5v2.1c0 .3.2.5.5.5h4.7c.3 0 .5-.2.5-.5v-2.1c-.1-.3-.3-.5-.6-.5z"/><path fill-rule="evenodd" clip-rule="evenodd" fill="#CECECD" d="M93.4 96.4h-1.2c-.3 0-.5-.2-.5-.5v-2.1c0-.3.2-.5.5-.5h1.2c.3 0 .5.2.5.5v2.1c0 .3-.2.5-.5.5zm5.1 4.5h5.3c.3 0 .5.2.5.5v2.1c0 .3-.2.5-.5.5h-5.3c-.3 0-.5-.2-.5-.5v-2.1c0-.3.2-.5.5-.5zm-5.8 0h4.2c.3 0 .5.2.5.5v2.1c0 .3-.2.5-.5.5h-4.2c-.3 0-.5-.2-.5-.5v-2.1c-.1-.3.2-.5.5-.5zm-2.2 0h.5c.3 0 .5.2.5.5v2.1c0 .3-.2.5-.5.5h-.5c-.3 0-.5-.2-.5-.5v-2.1c-.1-.3.2-.5.5-.5zm-4.7 0h2.9c.3 0 .5.2.5.5v2.1c0 .3-.2.5-.5.5h-2.9c-.3 0-.5-.2-.5-.5v-2.1c0-.3.3-.5.5-.5zm9.6-3.9h.5c.3 0 .5.2.5.5v2.1c0 .3-.2.5-.5.5h-.5c-.3 0-.5-.2-.5-.5v-2.1c-.1-.2.2-.5.5-.5zm2.1 0h2c.3 0 .5.2.5.5v2.1c0 .3-.2.5-.5.5h-2c-.3 0-.5-.2-.5-.5v-2.1c0-.2.2-.5.5-.5z"/><g fill="#AEAEAE"><path d="M65.6 153.3H70c2.1 0 2.9 1 2.9 2.3 0 1.2-.6 1.9-1.8 2.1 1.4.1 1.8.8 1.8 2v.8c0 .5 0 1 .1 1.2.1.1.1.2.3.3v.1h-3c-.3-.5-.3-1.3-.3-1.7v-.6c0-1-.2-1.3-.9-1.3h-.7v3.5h-2.8v-8.7zm2.8 3.7h.6c.8 0 1.2-.4 1.2-1 0-.7-.3-1-1.2-1h-.5v2zM78.7 153.3H85v1.9h-3.6v1.5h3.3v1.8h-3.3v1.7h3.7v1.9h-6.5v-8.8zM89.9 153.3h3l1.1 6.6 1.1-6.6h3l-2.3 8.8h-3.6l-2.3-8.8zM102.9 153.3h2.8v8.8h-2.8v-8.8zM110.6 153.3h3l1.1 6.6 1.1-6.6h3l-2.3 8.8h-3.6l-2.3-8.8zM124.9 153.3h3.5l2.6 8.8h-3l-.3-1.5h-2.2l-.3 1.5h-3l2.7-8.8zm1.8 1.8l-.8 3.7h1.6l-.8-3.7zM136 153.3h2.8v6.9h3.4v1.9H136v-8.8z"/></g><g><path fill-rule="evenodd" clip-rule="evenodd" fill="#B3B3B2" d="M97.8 195.4l-.1-2c0-1.3-.9-2.4-2.1-2.8-9.1-2.8-13.9-4.4-15.5-8.9-.4 1.8-.8 5 1.4 8.3l16.3 5.4z"/><path fill-rule="evenodd" clip-rule="evenodd" fill="#BBBBBA" d="M104.9 195.4l.1-2.1c0-1.3.8-2.3 2-2.7l26.1-9.3-1.7 5.8-26.5 8.3z"/><path fill-rule="evenodd" clip-rule="evenodd" fill="#BABABA" d="M79.6 217.9c8 2.8 16.6 2.9 20.3 10.8l-1.2-28.1c-.1-1.3-.9-2.3-2.1-2.7L67 188.6l8.3 24.9c.7 2.2 2.2 3.7 4.3 4.4z"/><path fill-rule="evenodd" clip-rule="evenodd" fill="#C3C2C2" d="M123.1 217.9c-8 2.8-16.6 2.9-20.3 10.8l1.2-28.1c.1-1.3.9-2.3 2.1-2.7l29.6-9.3-8.3 24.9c-.7 2.2-2.2 3.7-4.3 4.4z"/><path fill-rule="evenodd" clip-rule="evenodd" fill="#A8A8A8" d="M89.6 187.2c-1.7-2.8-2.5-5.5-1.3-8.1-5.2-2.5-8.9.1-6.1 3.5 1.7 2.1 3.9 3.6 7.4 4.6z"/><g fill="#8D8E8E"><path d="M63.9 230.7h4.7v2.9h-4.7v-2.9zm0 3.7h4.7v11.5h-4.7v-11.5zM70.7 230.7h4.7v5h.1c.5-1.2 1.6-1.6 2.9-1.6 2.7 0 4.3 1.4 4.3 5.8 0 4.3-1.1 6.3-4.2 6.3-1.7 0-2.6-.6-3.2-1.9h-.1v1.6h-4.5v-15.2zm5.9 12.6c1.1 0 1.3-.7 1.3-3.2s-.2-3.2-1.3-3.2-1.3.7-1.3 3.2.3 3.2 1.3 3.2zM89.7 246.2c-5.5 0-6-2.7-6-6.1 0-3 .7-6.1 6-6.1 5.5 0 6 2.7 6 6.1-.1 3.1-.8 6.1-6 6.1zm0-2.5c1.1 0 1.3-.7 1.3-3.6 0-2.9-.2-3.6-1.3-3.6-1 0-1.3.7-1.3 3.6 0 2.9.2 3.6 1.3 3.6zM102.7 246.2c-5.5 0-6-2.7-6-6.1 0-3 .7-6.1 6-6.1 5.5 0 6 2.7 6 6.1-.1 3.1-.8 6.1-6 6.1zm0-2.5c1.1 0 1.3-.7 1.3-3.6 0-2.9-.2-3.6-1.3-3.6-1 0-1.3.7-1.3 3.6 0 2.9.2 3.6 1.3 3.6zM110 230.7h4.7v7.7h.1l2.6-4h5l-3.9 4.8 4.4 6.8h-5l-2.4-4-.8 1v3H110v-15.3z"/><path d="M127.4 240.8v1.5c0 1.2.6 1.6 1.3 1.6.8 0 1.3-.4 1.3-2h4.2c-.1 2.8-1.6 4.3-5.5 4.3-4.5 0-6-1.7-6-6.1 0-4.4 1.8-6.1 6-6.1 3.7 0 5.6 1.4 5.6 5.5v1.2h-6.9zm2.5-2.6c0-1.2-.3-1.8-1.3-1.8s-1.3.6-1.3 1.8v.5h2.6v-.5zM135.5 234.4h4.5v1.8h.1c.5-1.4 1.8-2.1 3.1-2.1h.8v3.6c-.4-.1-.8-.1-1.2-.1-1.7 0-2.6.5-2.6 2v6.3h-4.7v-11.5z"/></g></g><g><path fill-rule="evenodd" clip-rule="evenodd" fill="#B2B2B2" d="M120 445.8c9.6 9.6 9.6 25.3 0 34.9-9.6 9.6-25.3 9.6-34.9 0-9.6-9.6-9.6-25.3 0-34.9 14.2-6.7 20.7-6.7 34.9 0z"/><path fill-rule="evenodd" clip-rule="evenodd" fill="#FFF" d="M99.3 438.4l3.2-10.9 3.2 10.9c5.2.7 9.9 3.1 13.6 6.8 9.3 9.3 9.3 24.4 0 33.7-9.3 9.3-24.4 9.3-33.7 0-9.3-9.3-9.3-24.4 0-33.7 3.8-3.7 8.6-6.1 13.7-6.8z"/><path fill-rule="evenodd" clip-rule="evenodd" fill="#A1A0A0" d="M100 439.2l2.5-8.5 2.5 8.5c5 .5 9.9 2.7 13.7 6.6 8.9 8.9 8.9 23.4 0 32.4-8.9 8.9-23.4 8.9-32.4 0-8.9-8.9-8.9-23.4 0-32.4 3.9-3.8 8.7-6 13.7-6.6z"/><circle fill-rule="evenodd" clip-rule="evenodd" fill="#B6B5B6" cx="102.5" cy="462" r="20.2"/><path fill-rule="evenodd" clip-rule="evenodd" fill="#A1A0A0" d="M95.2 454.7c1.6-1.6 3.7-2.6 5.8-2.9v5.7c-1.9.6-3.3 2.4-3.3 4.5s1.3 3.9 3.3 4.5v4.2h3v-4.2c1.9-.6 3.3-2.4 3.3-4.5s-1.3-3.9-3.3-4.5v-5.7c2.1.3 4.1 1.3 5.8 2.9 4 4 4 10.6 0 14.6s-10.6 4-14.6 0-4-10.6 0-14.6z"/><path fill-rule="evenodd" clip-rule="evenodd" fill="#FFF" d="M111.2 443.2c7.4 3.4 11.8 10.6 12 18.3v1c-.1 2.7-.7 5.5-1.9 8.2-3.5 7.5-11 12-18.8 12v-1.3c7.3 0 14.3-4.2 17.6-11.3 4.5-9.7.3-21.3-9.5-25.8-2.6-1.2-5.4-1.8-8.1-1.8v-1.3c2.9.1 5.9.7 8.7 2zm-8.7 39.5c-2.9 0-5.9-.6-8.7-1.9-7.4-3.4-11.8-10.6-12-18.3v-1c.1-2.7.7-5.5 1.9-8.2 3.5-7.5 11-12 18.8-12v1.3c-7.3 0-14.3 4.2-17.6 11.3-4.5 9.7-.3 21.3 9.5 25.8 2.6 1.2 5.4 1.8 8.1 1.8v1.2z"/><path fill-rule="evenodd" clip-rule="evenodd" fill="#A1A0A0" d="M118.9 467.8c-1.7 4.7-5.4 8.7-10.4 10.5-9 3.3-19-1.3-22.4-10.3-1.7-4.7-1.3-9.6.8-13.8-1.3 3.7-1.4 7.9.1 11.9 3.3 9 13.3 13.7 22.4 10.3 4.3-1.6 7.6-4.7 9.5-8.6z"/><path fill-rule="evenodd" clip-rule="evenodd" fill="#FFF" d="M97 446.9c.8-.3 1.7-.5 2.6-.7l3-10.2 3 10.2c5.4 1 10.1 4.8 12.1 10.3.2.5.3 1 .5 1.5-2.9-6.1-8.6-10.1-15-10.9v11.1c1.8.3 3.3 1.9 3.3 3.8s-1.4 3.5-3.3 3.8v4H102v-4c-1.8-.3-3.3-1.9-3.3-3.8s1.4-3.5 3.3-3.8v-11.3c-2.1-.1-4.3 0-6.4.6.4-.2.9-.4 1.4-.6zm-12.3 15.8v-1.4h2v1.4h-2zm33.6 0v-1.4h2v1.4h-2zm-16.4 15.1h1.4v2h-1.4v-2z"/><g fill="#A1A0A0"><path d="M63.3 493.9h1.6l3 4.3v-4.3h1.5v6.4h-1.6l-3-4.3v4.3h-1.5v-6.4zM72.6 493.9h1.6l2.7 6.4h-1.6l-.5-1.4h-2.7l-.6 1.4h-1.6l2.7-6.4zm-.1 3.9h1.8l-.9-2.3-.9 2.3zM80.4 500.2h-1.8l-2.3-6.4h1.6l1.6 4.5 1.6-4.5h1.6l-2.3 6.4zM83.4 493.9H85v6.4h-1.6v-6.4zM91.5 499.5c-.5.6-1.3.9-2 .9-2.2 0-3.5-1.5-3.5-3.3 0-1.9 1.3-3.4 3.5-3.4 1.5 0 2.8.8 3 2.2H91c-.2-.7-.8-1.1-1.5-1.1-1.4 0-1.9 1.1-1.9 2.2s.5 2.1 1.9 2.1c1 0 1.6-.5 1.7-1.4h-1.6v-1h3v3.4h-1l-.1-.6zM95.9 493.9h1.6l2.7 6.4h-1.6l-.5-1.4h-2.7l-.6 1.4h-1.6l2.7-6.4zm-.2 3.9h1.8l-.9-2.3-.9 2.3zM101.6 495.1h-2.1v-1.2h5.8v1.2h-2.1v5.2h-1.6v-5.2zM109.3 493.7c2.2 0 3.5 1.5 3.5 3.4 0 1.8-1.3 3.3-3.5 3.3s-3.5-1.5-3.5-3.3c0-1.9 1.3-3.4 3.5-3.4zm0 5.5c1.4 0 1.9-1.1 1.9-2.1 0-1.1-.5-2.2-1.9-2.2s-1.9 1.1-1.9 2.2.5 2.1 1.9 2.1zM113.9 493.9h3.8c1.3 0 2.1.8 2.1 1.8 0 .7-.3 1.3-1.1 1.6.8.2 1 .8 1 1.5 0 .4 0 1.1.3 1.5h-1.6c-.2-.4-.2-1-.3-1.5-.1-.7-.4-1-1.2-1h-1.6v2.5h-1.6v-6.4zm1.6 2.9h1.7c.7 0 1.1-.3 1.1-.9 0-.6-.4-.9-1.1-.9h-1.7v1.8zM123.8 493.9h3.7c1.9 0 2.6 1.3 2.6 2.2 0 1.5-1.2 2.3-2.8 2.3H126v1.9h-2.2v-6.4zm2.2 2.9h.8c.6 0 1.2 0 1.2-.7 0-.6-.5-.6-1-.6h-1v1.3zM130.8 493.9h4.2c1.2 0 2.3.6 2.3 1.8 0 .7-.3 1.4-1.1 1.6.6.2 1 .8 1 1.6 0 .3 0 1.1.2 1.4h-2.2c-.1-.3-.2-.6-.2-1-.1-.6-.1-1.2-1-1.2h-1v2.2h-2.2v-6.4zm2.2 2.8h1.1c.4 0 1-.1 1-.6 0-.4-.3-.6-1.1-.6h-1v1.2zM141.6 493.7c2.2 0 3.6 1.4 3.6 3.3s-1.4 3.3-3.6 3.3-3.6-1.4-3.6-3.3 1.5-3.3 3.6-3.3zm0 5.1c.6 0 1.4-.3 1.4-1.7s-.9-1.7-1.4-1.7-1.4.3-1.4 1.7.9 1.7 1.4 1.7z"/></g></g><g><path fill-rule="evenodd" clip-rule="evenodd" fill="#EDECEC" d="M94.9 556.9l4.7-.3c.4.4.9.8 1.3 1.2-2 .1-4 .2-5.9.4h-.2v-1.3h.1zm0 5.3v-2.7c1-.1 1.9-.1 2.9-.2 1.6-.1 3.1-.1 4.7-.2 2.2 1.7 4.7 3 7.4 3.8l.7.2c-.1.4-.2.8-.5 1.2-4.3-.2-8.5-.7-12.1-1.4-1.1-.2-2.1-.4-3.1-.7zm27.8-3.2c-.2.9-1.1 1.8-2.7 2.6s-3.8 1.6-6.6 2.2c1.4-.5 2.5-1 3.2-1.6.7-.6 1-1.2.8-1.8-.1-.4-.5-.9-1-1.2-.1-.1 0-.1.2-.2.2 0 .5-.1.8-.1 1.9.1 3.7.1 5.3.1zm-11.1-2.4l2 .1c-.1.3-.3.7-.5 1-.5-.1-1-.3-1.5-.4v-.7zm4.5.2l5.9.2c.2.2.3.3.4.5.1.3.3.6.3.9-1.2-.2-2.6-.3-4.1-.5-1-.1-2.1-.2-3.3-.2.4-.2.6-.6.8-.9zm-28.2 2.6c-.6-.4-1.1-.9-1.3-1.2-.2-.3-.3-.5-.4-.7 2.8-.2 5.6-.3 8.3-.5h.4v1.3c-2.8.2-5.3.6-7 1.1zm7 .1v2.7c-2.4-.6-4.5-1.4-6-2.2 1.8-.2 3.9-.4 6-.5z"/><path fill-rule="evenodd" clip-rule="evenodd" fill="#CCC" d="M87.9 532.7c-.6-2.3-1.1-5.3-1.3-7.1-.2-1.9-.3-2.7-.4-4 2.8-1 5.6-1.9 8.3-2.9 2.6-.9 5.1-1.8 7.6-2.7 1 1.6 2 3.4 2.9 5.4.2.4.1.7 0 1.1-.2.3-.4.5-.8.6-3.2.5-6.3 1.6-9.1 3.1-2.9 1.7-5.5 3.9-7.2 6.5z"/><path fill-rule="evenodd" clip-rule="evenodd" fill="#B6B5B6" d="M106.3 515.1c2.9.7 5.6 1.4 8.3 2.1 2.6.6 5.1 1.3 7.5 1.9.2 1.1.3 1.7.4 3.2.1 1.5.3 3.7.3 5.5-1.2-1.1-2.6-2-4.1-2.8-1.5-.7-3.2-1.3-4.9-1.7-.3-.1-.5-.2-.7-.5-1.9-3.3-4.2-6-6.8-7.7z"/><path fill-rule="evenodd" clip-rule="evenodd" fill="#ACACAC" d="M122.7 530.8c-.2 5.4-1.1 10.6-2.7 15.3-1.6 4.8-3.8 9.2-6.6 12.8 1.4-2.7 2.5-5.8 3.2-9.2.7-3.3 1-6.9.8-10.7-.1-2.5-.5-5-1-7.3-.1-.3 0-.7.2-1 .2-.3.5-.4.8-.4 1.9.1 3.7.3 5.3.5z"/><path fill-rule="evenodd" clip-rule="evenodd" fill="#D8D8D8" d="M110.2 562c-4.3-1.3-8.5-4.2-12.1-8.5-3.8-4.5-7-10.3-9.2-17.3 2.7-1.6 5.8-2.8 8.9-3.7 3.1-.9 6.3-1.5 9.4-1.8.5-.1 1 .3 1.1.9.6 2.4 1 4.9 1.4 7.5.4 2.6.6 5.3.8 8.1.1 2.6.2 5.1.1 7.6 0 2.5-.2 4.9-.4 7.2z"/><g><path fill="#ACACAC" d="M50.3 573.9h2.5l2.8 5.9 2.7-5.9h2.4v7.5H59v-5.8l-2.8 5.8h-1.4l-2.8-5.8v5.8h-1.7v-7.5zM63.1 573.9h7.2v1.1h-5.4v2h5v1.1h-5v2.2h5.5v1.1h-7.3v-7.5zM72.2 573.9h7.2v1.1H74v2h5v1.1h-5v2.2h5.5v1.1h-7.3v-7.5zM81.4 573.9h4.1c3.1 0 4.4 1.7 4.4 3.7s-1.3 3.7-4.4 3.7h-4.1v-7.4zm1.8 6.4h1.7c2.7 0 3.3-1.2 3.3-2.7 0-1.5-.6-2.7-3.3-2.7h-1.7v5.4zM91.9 573.9h1.8v7.5h-1.8v-7.5zM102.9 576.3c-.3-.9-1-1.5-2.5-1.5-2.1 0-3 1.4-3 2.9 0 1.4.9 2.9 3 2.9 1.6 0 2.4-.9 2.5-2h1.7c-.1 1.8-1.8 3-4.3 3-3 0-4.8-1.8-4.8-3.9s1.8-3.9 4.8-3.9c2.3 0 4 .9 4.2 2.6h-1.6zM109.3 573.9h1.9l3.9 7.5h-1.9l-.9-2h-4l-.9 2h-1.8l3.7-7.5zm-.7 4.5h3.1l-1.5-3.2-1.6 3.2zM116.3 573.9h1.8v6.4h5.1v1.1h-6.8v-7.5z"/><path fill="#CDCDCC" d="M137.9 577.6c0 2.1-1.8 3.9-4.8 3.9s-4.8-1.8-4.8-3.9 1.8-3.9 4.8-3.9 4.8 1.8 4.8 3.9zm-7.8 0c0 1.4.9 2.9 3 2.9s3-1.4 3-2.9c0-1.4-.9-2.9-3-2.9-2.1.1-3 1.5-3 2.9zM139.8 573.9h1.8l4.6 5.5v-5.5h1.7v7.5h-1.8l-4.6-5.5v5.5h-1.7v-7.5zM150.3 573.9h7.2v1.1h-5.4v2h5v1.1h-5v2.2h5.5v1.1h-7.3v-7.5z"/></g></g><g><path fill-rule="evenodd" clip-rule="evenodd" fill="#AEAEAE" d="M89.5 359.7c2.4 3.3 4.1 7.1 4.8 11.3H67.5c1.8-6.7 5-13.3 12.6-15 3.3-.8 6.8.1 9.4 3.7zm-24 43.3l-8.9 8.7 2.7-9.9 6.7-25.2h28.7c-.4 14.7-12.5 26.4-27.2 26.4h-2z"/><path fill-rule="evenodd" clip-rule="evenodd" fill="#8D8E8E" d="M67.5 348.5c3.9 0 7.7.8 11 2.3-12.6.4-19.5 10.4-23.6 20.1h-7.1l-1.5 5.7h6.9l-5 18.4c-4.9-4.9-8-11.7-8-19.3 0-15 12.2-27.2 27.3-27.2z"/><g fill="#8D8E8E"><path d="M113.4 372.5h-4.5v-1.6h11v1.6h-4.5v13.2h-1.9v-13.2zM121.5 371.1c1-.2 2.4-.3 3.7-.3 2 0 3.4.4 4.3 1.2.7.7 1.2 1.7 1.2 2.8 0 2-1.2 3.3-2.8 3.8v.1c1.1.4 1.8 1.5 2.2 3 .5 2.1.8 3.5 1.1 4.1h-2c-.2-.4-.6-1.7-1-3.5-.4-2-1.2-2.8-3-2.9h-1.8v6.4h-1.9v-14.7zm1.9 6.8h2c2 0 3.3-1.1 3.3-2.8 0-1.9-1.4-2.8-3.4-2.8-.9 0-1.6.1-1.9.2v5.4zM135.2 370.9v8.8c0 3.3 1.5 4.7 3.5 4.7 2.2 0 3.6-1.5 3.6-4.7v-8.8h1.9v8.6c0 4.6-2.4 6.4-5.6 6.4-3 0-5.3-1.7-5.3-6.3v-8.7h1.9zM147.3 383.4c.9.5 2.1 1 3.4 1 2 0 3.1-1 3.1-2.5 0-1.4-.8-2.2-2.8-2.9-2.4-.9-3.9-2.1-3.9-4.2 0-2.3 1.9-4 4.8-4 1.5 0 2.6.4 3.3.7l-.5 1.6c-.5-.3-1.5-.7-2.8-.7-2 0-2.8 1.2-2.8 2.2 0 1.4.9 2.1 2.9 2.9 2.5 1 3.8 2.2 3.8 4.4 0 2.3-1.7 4.3-5.2 4.3-1.4 0-3-.4-3.8-.9l.5-1.9zM161.2 372.5h-4.5v-1.6h11v1.6h-4.5v13.2h-1.9v-13.2z"/></g></g><g><path fill-rule="evenodd" clip-rule="evenodd" fill="#BBBBBA" d="M40.1 302.7h25.8c3.7 0 6.8 1.5 9.1 4.4 2.3 2.9 3 6.3 2.1 9.9v.1h-37v-14.4zm0-2.7v-14.4h24.5L61 300H40.1zm0-17.2v-14.4h35.6l-1.3 5.2c-1.4 5.5-6.2 9.2-11.8 9.2H40.1zm-11.2 19.9h11.2v14.4H25.2c-5.2 0-10.4 2.8-13.9 6.9l2.3-9.1c1.7-6.8 8.5-12.2 15.3-12.2zm11.2-34.3v14.4h-6.3c-5.2 0-10.4 2.8-13.9 6.9l2.3-9.1c1.7-6.7 8.5-12.2 15.3-12.2h2.6zm0 17.1h-6.9c-6.7 0-13.6 5.5-15.3 12.2l-2.3 9.1c3.5-4.1 8.8-6.9 13.9-6.9h10.6v-14.4z"/><g fill="#8D8E8E"><path d="M89.9 286.9h5.3v6h4.9v-6h5.3V304h-5.3v-6.8h-4.9v6.8h-5.3v-17.1zM108.1 286.9h14.2v4.4h-8.9v2.1h8.1v4.1h-8.1v2.1h9.2v4.4h-14.4v-17.1zM125 286.9h5.3v12.7h7.6v4.4H125v-17.1zM147.2 304h-5.9l-5.1-17.1h5.3l2.8 10.4 2.8-10.4h5.4l-5.3 17.1zM153.5 286.9h5.3V304h-5.3v-17.1zM172.3 293.3c-.1-.6-.6-2.5-2.8-2.5-2.5 0-3.3 2.4-3.3 4.7 0 2.3.8 4.7 3.3 4.7 1.8 0 2.5-1.2 2.8-2.9h5.2c0 3.5-2.8 7.1-7.8 7.1-5.5 0-8.7-3.9-8.7-9 0-5.4 3.4-9 8.7-9 4.7 0 7.3 2.5 7.8 6.8h-5.2zM187.9 286.5c5.2 0 8.7 3.7 8.7 9s-3.5 9-8.7 9-8.7-3.7-8.7-9 3.5-9 8.7-9zm0 13.7c1.3 0 3.4-.9 3.4-4.7s-2.1-4.7-3.4-4.7-3.4.9-3.4 4.7 2 4.7 3.4 4.7z"/></g></g></svg>