<!DOCTYPE svg PUBLIC "-//W3C//DTD SVG 1.1//EN" "http://www.w3.org/Graphics/SVG/1.1/DTD/svg11.dtd" [
	<!ENTITY ns_flows "http://ns.adobe.com/Flows/1.0/">
]><svg xmlns="http://www.w3.org/2000/svg" width="460" height="220" viewBox="-25 -61.88 460 220"><style><![CDATA[
	.st0{font-size:92.2532;}
	.st1{font-size:101.0737;}
	.st2{fill:none;stroke:#FFFFFF;stroke-width:2;}
	.st3{letter-spacing:-2;}
	.st4{fill:#FFFFFF;}
	.st5{fill:none;stroke:#FFFFFF;stroke-width:2.25;}
	.st6{fill:#027A8B;stroke:#FFFFFF;}
	.st7{font-family:'OpenSans-Semibold';}
	.st8{fill:#027A8B;}
]]></style><path class="st4" d="M140 46.67C140 20.89 119.11 0 93.33 0H46.68h-.01C20.89 0 0 20.89 0 46.67v57.56h93.33c25.77 0 46.67-20.89 46.67-46.67V46.67z"/><path class="st8" d="M136.89 46.67c0-24.06-19.5-43.56-43.55-43.56H46.28v.01C22.4 3.33 3.11 22.74 3.11 46.67v54.44h90.22c24.05 0 43.55-19.5 43.55-43.56.01-1.84.01-9.04.01-10.88z"/><path class="st4" d="M46.67 15.56c-17.18 0-31.11 13.93-31.11 31.11v42h15.56V46.86c0-8.63 6.95-15.64 15.55-15.75h7.78V15.56h-7.78zM93.33 15.56c-17.18 0-31.11 13.93-31.11 31.11v42h15.55V73.61c4.58 2.65 9.89 4.16 15.56 4.16 17.18 0 31.11-13.93 31.11-31.11s-13.92-31.1-31.11-31.1zm0 46.66c-8.59 0-15.56-6.96-15.56-15.56 0-8.59 6.96-15.56 15.56-15.56 8.59 0 15.55 6.96 15.55 15.56.01 8.6-6.96 15.56-15.55 15.56z"/><path class="st6" d="M204.96 68.76c0 6.42-2.32 11.45-6.96 15.1-4.64 3.65-11.04 5.48-19.2 5.48s-14.84-1.27-20.04-3.8V74.39c3.29 1.55 6.79 2.76 10.49 3.65 3.7.89 7.15 1.33 10.34 1.33 4.67 0 8.12-.89 10.34-2.67 2.22-1.78 3.33-4.16 3.33-7.16 0-2.7-1.02-4.98-3.06-6.86s-6.25-4.1-12.63-6.66c-6.58-2.67-11.22-5.71-13.92-9.13-2.7-3.42-4.05-7.53-4.05-12.34 0-6.02 2.14-10.76 6.42-14.21 4.28-3.45 10.02-5.18 17.22-5.18 6.91 0 13.79 1.51 20.63 4.54l-3.75 9.62c-6.42-2.7-12.14-4.05-17.18-4.05-3.82 0-6.71.83-8.69 2.49-1.97 1.66-2.96 3.86-2.96 6.59 0 1.88.39 3.48 1.18 4.81s2.09 2.59 3.9 3.78c1.81 1.18 5.07 2.75 9.77 4.69 5.3 2.2 9.18 4.26 11.65 6.17 2.47 1.91 4.28 4.06 5.43 6.47 1.16 2.41 1.74 5.24 1.74 8.49zM273.51 88.36h-11.84V55.83h-33.26v32.52h-11.79V16.2h11.79v29.51h33.26V16.2h11.84v72.16zM354.32 52.18c0 11.75-2.94 20.88-8.81 27.39s-14.19 9.77-24.95 9.77c-10.89 0-19.26-3.23-25.1-9.7-5.84-6.46-8.76-15.65-8.76-27.56 0-11.91 2.94-21.06 8.81-27.44 5.87-6.38 14.25-9.57 25.14-9.57 10.73 0 19.02 3.24 24.87 9.72 5.87 6.48 8.8 15.61 8.8 27.39zm-55.08 0c0 8.88 1.79 15.62 5.38 20.21 3.59 4.59 8.9 6.88 15.94 6.88 7.01 0 12.3-2.27 15.87-6.81 3.57-4.54 5.35-11.3 5.35-20.28 0-8.85-1.77-15.56-5.31-20.14-3.54-4.57-8.81-6.86-15.82-6.86-7.07 0-12.41 2.29-16.01 6.86-3.6 4.58-5.4 11.29-5.4 20.14zM415.13 38.02c0 7.53-2.47 13.31-7.4 17.32-4.94 4.01-11.96 6.02-21.07 6.02h-7.5v27h-11.79V16.2h20.78c9.01 0 15.77 1.84 20.26 5.53 4.48 3.69 6.72 9.12 6.72 16.29zm-35.97 13.42h6.27c6.05 0 10.5-1.05 13.33-3.16 2.83-2.1 4.24-5.4 4.24-9.87 0-4.15-1.27-7.24-3.8-9.28-2.53-2.04-6.48-3.06-11.84-3.06h-8.19v25.37z"/><g><path class="st5" d="M204.96 68.76c0 6.42-2.32 11.45-6.96 15.1-4.64 3.65-11.04 5.48-19.2 5.48s-14.84-1.27-20.04-3.8V74.39c3.29 1.55 6.79 2.76 10.49 3.65 3.7.89 7.15 1.33 10.34 1.33 4.67 0 8.12-.89 10.34-2.67 2.22-1.78 3.33-4.16 3.33-7.16 0-2.7-1.02-4.98-3.06-6.86s-6.25-4.1-12.63-6.66c-6.58-2.67-11.22-5.71-13.92-9.13-2.7-3.42-4.05-7.53-4.05-12.34 0-6.02 2.14-10.76 6.42-14.21 4.28-3.45 10.02-5.18 17.22-5.18 6.91 0 13.79 1.51 20.63 4.54l-3.75 9.62c-6.42-2.7-12.14-4.05-17.18-4.05-3.82 0-6.71.83-8.69 2.49-1.97 1.66-2.96 3.86-2.96 6.59 0 1.88.39 3.48 1.18 4.81s2.09 2.59 3.9 3.78c1.81 1.18 5.07 2.75 9.77 4.69 5.3 2.2 9.18 4.26 11.65 6.17 2.47 1.91 4.28 4.06 5.43 6.47 1.16 2.41 1.74 5.24 1.74 8.49zM273.51 88.36h-11.84V55.83h-33.26v32.52h-11.79V16.2h11.79v29.51h33.26V16.2h11.84v72.16zM354.32 52.18c0 11.75-2.94 20.88-8.81 27.39s-14.19 9.77-24.95 9.77c-10.89 0-19.26-3.23-25.1-9.7-5.84-6.46-8.76-15.65-8.76-27.56 0-11.91 2.94-21.06 8.81-27.44 5.87-6.38 14.25-9.57 25.14-9.57 10.73 0 19.02 3.24 24.87 9.72 5.87 6.48 8.8 15.61 8.8 27.39zm-55.08 0c0 8.88 1.79 15.62 5.38 20.21 3.59 4.59 8.9 6.88 15.94 6.88 7.01 0 12.3-2.27 15.87-6.81 3.57-4.54 5.35-11.3 5.35-20.28 0-8.85-1.77-15.56-5.31-20.14-3.54-4.57-8.81-6.86-15.82-6.86-7.07 0-12.41 2.29-16.01 6.86-3.6 4.58-5.4 11.29-5.4 20.14zM415.13 38.02c0 7.53-2.47 13.31-7.4 17.32-4.94 4.01-11.96 6.02-21.07 6.02h-7.5v27h-11.79V16.2h20.78c9.01 0 15.77 1.84 20.26 5.53 4.48 3.69 6.72 9.12 6.72 16.29zm-35.97 13.42h6.27c6.05 0 10.5-1.05 13.33-3.16 2.83-2.1 4.24-5.4 4.24-9.87 0-4.15-1.27-7.24-3.8-9.28-2.53-2.04-6.48-3.06-11.84-3.06h-8.19v25.37z"/></g></svg>