<?xml version="1.0" encoding="utf-8"?>
<!-- Generator: Adobe Illustrator 15.0.2, SVG Export Plug-In  -->
<!DOCTYPE svg PUBLIC "-//W3C//DTD SVG 1.1//EN" "http://www.w3.org/Graphics/SVG/1.1/DTD/svg11.dtd" [
	<!ENTITY ns_flows "http://ns.adobe.com/Flows/1.0/">
]>
<svg version="1.1"
	 xmlns="http://www.w3.org/2000/svg" xmlns:xlink="http://www.w3.org/1999/xlink" xmlns:a="http://ns.adobe.com/AdobeSVGViewerExtensions/3.0/"
	 x="0px" y="0px" width="468px" height="482px" viewBox="-4 -4 468 482" style="enable-background:new -4 -4 468 482;"
	 xml:space="preserve">
<style type="text/css">
<![CDATA[
	.st0{display:inline;fill:#1B1464;}
	.st1{fill:none;stroke:#FFFFFF;stroke-width:2;}
	.st2{display:inline;fill:#F7931E;}
	.st3{display:inline;fill:#29ABE2;}
	.st4{display:inline;fill:#C1272D;}
	.st5{display:inline;fill:#FF00FF;}
	.st6{fill:#FFFFFF;}
	.st7{fill:none;stroke:#FFFFFF;stroke-width:2.25;}
	.st8{fill:#027A8B;stroke:#FFFFFF;}
	.st9{display:inline;fill:#00A99D;}
	.st10{fill:#027A8B;}
	.st11{display:none;}
]]>
</style>
<defs>
</defs>
<g id="Zentrierhilfe__x22_Symbol_x2B_Wortmarke_x22__1_" class="st11">
	<rect x="1" y="1" class="st3" width="458" height="218"/>
	<path class="st5" d="M458,2v216H2V2H458 M460,0H0v220h460V0L460,0z"/>
</g>
<g id="Zentrierhilfe__x22_nur_Wortmarke_x22__1_" class="st11">
	<rect x="31" y="225" class="st9" width="398" height="126"/>
	<path class="st4" d="M428,226v124H32V226H428 M430,224H30v128h400V224L430,224z"/>
</g>
<g id="Zentrierhilfe__x22_nur_Symbol_x22__1_" class="st11">
	<rect x="175" y="357" class="st0" width="110" height="120"/>
	<path class="st2" d="M284,358v118H176V358H284 M286,356H174v122h112V356L286,356z"/>
</g>
<path class="st6" d="M159.5,104.55c0-25.77-20.89-46.67-46.67-46.67c0,0-0.01,0-0.01,0H66.18c0,0-0.01,0-0.01,0
	c-25.77,0-46.67,20.89-46.67,46.67v0l0,0v57.56h93.32c0,0,0.01,0,0.01,0c25.77,0,46.67-20.89,46.67-46.67
	C159.5,113.6,159.5,106.4,159.5,104.55z"/>
<path class="st10" d="M156.39,104.55c0-24.06-19.5-43.56-43.56-43.56H65.78V61c-23.88,0.21-43.17,19.63-43.17,43.55l0,0h0V159h90.22
	l0,0c24.06,0,43.56-19.5,43.56-43.56C156.39,113.6,156.39,106.4,156.39,104.55z"/>
<path class="st6" d="M66.17,73.44c-17.18,0-31.11,13.93-31.11,31.11v42h15.56c0,0,0-33.17,0-41.81c0-8.63,6.95-15.64,15.56-15.75v0
	h7.78V73.44H66.17z"/>
<path class="st6" d="M112.83,73.44c-17.18,0-31.11,13.93-31.11,31.11v42h15.56V131.5c4.58,2.65,9.89,4.16,15.56,4.16
	c17.18,0,31.11-13.93,31.11-31.11S130.02,73.44,112.83,73.44z M112.83,120.11c-8.59,0-15.56-6.96-15.56-15.56
	c0-8.59,6.97-15.56,15.56-15.56c8.59,0,15.55,6.96,15.55,15.56C128.39,113.15,121.42,120.11,112.83,120.11z"/>
<g>
	<g>
		<path class="st8" d="M224.46,126.65c0,6.42-2.32,11.45-6.96,15.1c-4.64,3.65-11.04,5.48-19.2,5.48c-8.16,0-14.84-1.27-20.04-3.8
			v-11.15c3.29,1.55,6.79,2.76,10.49,3.65c3.7,0.89,7.15,1.33,10.34,1.33c4.67,0,8.12-0.89,10.34-2.67
			c2.22-1.78,3.33-4.16,3.33-7.16c0-2.7-1.02-4.98-3.06-6.86c-2.04-1.88-6.25-4.1-12.63-6.66c-6.58-2.67-11.22-5.71-13.92-9.13
			c-2.7-3.42-4.05-7.53-4.05-12.34c0-6.02,2.14-10.76,6.42-14.21c4.28-3.45,10.02-5.18,17.22-5.18c6.91,0,13.79,1.51,20.63,4.54
			l-3.75,9.62c-6.42-2.7-12.14-4.05-17.17-4.05c-3.82,0-6.71,0.83-8.69,2.49c-1.97,1.66-2.96,3.86-2.96,6.59
			c0,1.88,0.4,3.48,1.18,4.81s2.09,2.59,3.9,3.78c1.81,1.18,5.07,2.75,9.77,4.69c5.3,2.2,9.18,4.26,11.65,6.17
			c2.47,1.91,4.28,4.06,5.43,6.47C223.88,120.57,224.46,123.39,224.46,126.65z"/>
		<path class="st8" d="M293.01,146.24h-11.84v-32.52h-33.26v32.52h-11.79V74.09h11.79v29.51h33.26V74.09h11.84V146.24z"/>
		<path class="st8" d="M373.82,110.07c0,11.75-2.94,20.88-8.81,27.39s-14.19,9.77-24.95,9.77c-10.89,0-19.26-3.23-25.1-9.7
			c-5.84-6.46-8.76-15.65-8.76-27.56c0-11.91,2.94-21.06,8.81-27.44c5.87-6.38,14.25-9.57,25.14-9.57c10.73,0,19.02,3.24,24.87,9.72
			C370.89,89.16,373.82,98.29,373.82,110.07z M318.74,110.07c0,8.88,1.79,15.62,5.38,20.21c3.59,4.59,8.9,6.88,15.94,6.88
			c7.01,0,12.3-2.27,15.87-6.81c3.57-4.54,5.35-11.3,5.35-20.28c0-8.85-1.77-15.56-5.31-20.14c-3.54-4.57-8.81-6.86-15.82-6.86
			c-7.07,0-12.41,2.29-16.01,6.86C320.54,94.51,318.74,101.22,318.74,110.07z"/>
		<path class="st8" d="M434.63,95.91c0,7.53-2.47,13.31-7.4,17.32c-4.94,4.01-11.96,6.02-21.07,6.02h-7.5v27h-11.79V74.09h20.78
			c9.01,0,15.77,1.84,20.26,5.53C432.39,83.3,434.63,88.73,434.63,95.91z M398.66,109.33h6.27c6.05,0,10.5-1.05,13.33-3.16
			c2.83-2.1,4.24-5.4,4.24-9.87c0-4.15-1.27-7.24-3.8-9.28c-2.53-2.04-6.48-3.06-11.84-3.06h-8.19V109.33z"/>
	</g>
	<g>
		<path class="st7" d="M224.46,126.65c0,6.42-2.32,11.45-6.96,15.1c-4.64,3.65-11.04,5.48-19.2,5.48c-8.16,0-14.84-1.27-20.04-3.8
			v-11.15c3.29,1.55,6.79,2.76,10.49,3.65c3.7,0.89,7.15,1.33,10.34,1.33c4.67,0,8.12-0.89,10.34-2.67
			c2.22-1.78,3.33-4.16,3.33-7.16c0-2.7-1.02-4.98-3.06-6.86c-2.04-1.88-6.25-4.1-12.63-6.66c-6.58-2.67-11.22-5.71-13.92-9.13
			c-2.7-3.42-4.05-7.53-4.05-12.34c0-6.02,2.14-10.76,6.42-14.21c4.28-3.45,10.02-5.18,17.22-5.18c6.91,0,13.79,1.51,20.63,4.54
			l-3.75,9.62c-6.42-2.7-12.14-4.05-17.17-4.05c-3.82,0-6.71,0.83-8.69,2.49c-1.97,1.66-2.96,3.86-2.96,6.59
			c0,1.88,0.4,3.48,1.18,4.81s2.09,2.59,3.9,3.78c1.81,1.18,5.07,2.75,9.77,4.69c5.3,2.2,9.18,4.26,11.65,6.17
			c2.47,1.91,4.28,4.06,5.43,6.47C223.88,120.57,224.46,123.39,224.46,126.65z"/>
		<path class="st7" d="M293.01,146.24h-11.84v-32.52h-33.26v32.52h-11.79V74.09h11.79v29.51h33.26V74.09h11.84V146.24z"/>
		<path class="st7" d="M373.82,110.07c0,11.75-2.94,20.88-8.81,27.39s-14.19,9.77-24.95,9.77c-10.89,0-19.26-3.23-25.1-9.7
			c-5.84-6.46-8.76-15.65-8.76-27.56c0-11.91,2.94-21.06,8.81-27.44c5.87-6.38,14.25-9.57,25.14-9.57c10.73,0,19.02,3.24,24.87,9.72
			C370.89,89.16,373.82,98.29,373.82,110.07z M318.74,110.07c0,8.88,1.79,15.62,5.38,20.21c3.59,4.59,8.9,6.88,15.94,6.88
			c7.01,0,12.3-2.27,15.87-6.81c3.57-4.54,5.35-11.3,5.35-20.28c0-8.85-1.77-15.56-5.31-20.14c-3.54-4.57-8.81-6.86-15.82-6.86
			c-7.07,0-12.41,2.29-16.01,6.86C320.54,94.51,318.74,101.22,318.74,110.07z"/>
		<path class="st7" d="M434.63,95.91c0,7.53-2.47,13.31-7.4,17.32c-4.94,4.01-11.96,6.02-21.07,6.02h-7.5v27h-11.79V74.09h20.78
			c9.01,0,15.77,1.84,20.26,5.53C432.39,83.3,434.63,88.73,434.63,95.91z M398.66,109.33h6.27c6.05,0,10.5-1.05,13.33-3.16
			c2.83-2.1,4.24-5.4,4.24-9.87c0-4.15-1.27-7.24-3.8-9.28c-2.53-2.04-6.48-3.06-11.84-3.06h-8.19V109.33z"/>
	</g>
</g>
<path class="st6" d="M165.94,283.03c0-23.52-19.07-42.59-42.59-42.59c0,0-0.01,0-0.01,0H80.76c0,0-0.01,0-0.01,0
	c-23.52,0-42.59,19.07-42.59,42.59v0l0,0v52.53h85.18c0,0,0.01,0,0.01,0c23.52,0,42.59-19.07,42.59-42.6
	C165.94,291.29,165.94,284.71,165.94,283.03z"/>
<path class="st10" d="M163.1,283.03c0-21.96-17.8-39.75-39.75-39.75H80.4v0C58.61,243.47,41,261.19,41,283.03l0,0h0v49.69h82.35l0,0
	c21.96,0,39.75-17.8,39.75-39.76C163.1,291.29,163.1,284.71,163.1,283.03z"/>
<path class="st6" d="M80.75,254.63c-15.68,0-28.4,12.71-28.4,28.4v38.33h14.2c0,0,0-30.28,0-38.16c0-7.88,6.34-14.28,14.2-14.37v0
	h7.1v-14.2H80.75z"/>
<path class="st6" d="M123.35,254.63c-15.68,0-28.4,12.71-28.4,28.4v38.33h14.2v-13.74c4.18,2.42,9.02,3.8,14.2,3.8
	c15.68,0,28.4-12.71,28.4-28.4C151.74,267.35,139.03,254.63,123.35,254.63z M123.35,297.23c-7.84,0-14.2-6.36-14.2-14.2
	s6.36-14.2,14.2-14.2c7.84,0,14.2,6.36,14.2,14.2S131.19,297.23,123.35,297.23z"/>
<g>
	<g>
		<path class="st10" d="M225.23,303.2c0,5.86-2.12,10.45-6.35,13.78c-4.23,3.33-10.08,5-17.52,5c-7.45,0-13.54-1.16-18.29-3.47
			v-10.18c3,1.41,6.19,2.52,9.57,3.33c3.38,0.81,6.52,1.22,9.44,1.22c4.26,0,7.41-0.81,9.44-2.43c2.03-1.62,3.04-3.8,3.04-6.53
			c0-2.46-0.93-4.55-2.79-6.26c-1.86-1.71-5.71-3.74-11.53-6.08c-6.01-2.43-10.24-5.21-12.7-8.33s-3.69-6.88-3.69-11.26
			c0-5.5,1.95-9.82,5.86-12.97c3.9-3.15,9.14-4.73,15.72-4.73c6.31,0,12.58,1.38,18.83,4.14l-3.42,8.78
			c-5.86-2.46-11.08-3.69-15.68-3.69c-3.48,0-6.13,0.76-7.93,2.28s-2.7,3.52-2.7,6.01c0,1.71,0.36,3.17,1.08,4.39
			c0.72,1.22,1.91,2.37,3.56,3.45c1.65,1.08,4.62,2.51,8.92,4.28c4.83,2.01,8.38,3.89,10.63,5.63c2.25,1.74,3.9,3.71,4.95,5.9
			C224.71,297.64,225.23,300.23,225.23,303.2z"/>
		<path class="st10" d="M287.8,321.08h-10.81V291.4h-30.36v29.68h-10.77v-65.86h10.77v26.94h30.36v-26.94h10.81V321.08z"/>
		<path class="st10" d="M361.56,288.06c0,10.72-2.68,19.05-8.04,25c-5.36,5.95-12.95,8.92-22.77,8.92c-9.94,0-17.58-2.95-22.91-8.85
			c-5.33-5.9-8-14.29-8-25.16s2.68-19.22,8.04-25.04s13.01-8.74,22.95-8.74c9.79,0,17.36,2.96,22.7,8.87
			C358.88,268.98,361.56,277.31,361.56,288.06z M311.29,288.06c0,8.11,1.64,14.26,4.91,18.45s8.12,6.28,14.55,6.28
			c6.4,0,11.22-2.07,14.48-6.22c3.26-4.14,4.89-10.32,4.89-18.51c0-8.08-1.62-14.2-4.84-18.38c-3.23-4.17-8.04-6.26-14.44-6.26
			c-6.46,0-11.33,2.09-14.62,6.26C312.93,273.86,311.29,279.99,311.29,288.06z"/>
		<path class="st10" d="M417.06,275.14c0,6.88-2.25,12.15-6.76,15.81c-4.5,3.66-10.92,5.5-19.23,5.5h-6.85v24.64h-10.77v-65.86
			h18.96c8.23,0,14.39,1.68,18.49,5.04C415.01,263.63,417.06,268.59,417.06,275.14z M384.23,287.39h5.72
			c5.52,0,9.58-0.96,12.16-2.88c2.58-1.92,3.87-4.92,3.87-9.01c0-3.78-1.16-6.61-3.47-8.47c-2.31-1.86-5.92-2.79-10.81-2.79h-7.48
			V287.39z"/>
	</g>
	<g>
		<path class="st1" d="M225.23,303.2c0,5.86-2.12,10.45-6.35,13.78c-4.23,3.33-10.08,5-17.52,5c-7.45,0-13.54-1.16-18.29-3.47
			v-10.18c3,1.41,6.19,2.52,9.57,3.33c3.38,0.81,6.52,1.22,9.44,1.22c4.26,0,7.41-0.81,9.44-2.43c2.03-1.62,3.04-3.8,3.04-6.53
			c0-2.46-0.93-4.55-2.79-6.26c-1.86-1.71-5.71-3.74-11.53-6.08c-6.01-2.43-10.24-5.21-12.7-8.33s-3.69-6.88-3.69-11.26
			c0-5.5,1.95-9.82,5.86-12.97c3.9-3.15,9.14-4.73,15.72-4.73c6.31,0,12.58,1.38,18.83,4.14l-3.42,8.78
			c-5.86-2.46-11.08-3.69-15.68-3.69c-3.48,0-6.13,0.76-7.93,2.28s-2.7,3.52-2.7,6.01c0,1.71,0.36,3.17,1.08,4.39
			c0.72,1.22,1.91,2.37,3.56,3.45c1.65,1.08,4.62,2.51,8.92,4.28c4.83,2.01,8.38,3.89,10.63,5.63c2.25,1.74,3.9,3.71,4.95,5.9
			C224.71,297.64,225.23,300.23,225.23,303.2z"/>
		<path class="st1" d="M287.8,321.08h-10.81V291.4h-30.36v29.68h-10.77v-65.86h10.77v26.94h30.36v-26.94h10.81V321.08z"/>
		<path class="st1" d="M361.56,288.06c0,10.72-2.68,19.05-8.04,25c-5.36,5.95-12.95,8.92-22.77,8.92c-9.94,0-17.58-2.95-22.91-8.85
			c-5.33-5.9-8-14.29-8-25.16s2.68-19.22,8.04-25.04s13.01-8.74,22.95-8.74c9.79,0,17.36,2.96,22.7,8.87
			C358.88,268.98,361.56,277.31,361.56,288.06z M311.29,288.06c0,8.11,1.64,14.26,4.91,18.45s8.12,6.28,14.55,6.28
			c6.4,0,11.22-2.07,14.48-6.22c3.26-4.14,4.89-10.32,4.89-18.51c0-8.08-1.62-14.2-4.84-18.38c-3.23-4.17-8.04-6.26-14.44-6.26
			c-6.46,0-11.33,2.09-14.62,6.26C312.93,273.86,311.29,279.99,311.29,288.06z"/>
		<path class="st1" d="M417.06,275.14c0,6.88-2.25,12.15-6.76,15.81c-4.5,3.66-10.92,5.5-19.23,5.5h-6.85v24.64h-10.77v-65.86h18.96
			c8.23,0,14.39,1.68,18.49,5.04C415.01,263.63,417.06,268.59,417.06,275.14z M384.23,287.39h5.72c5.52,0,9.58-0.96,12.16-2.88
			c2.58-1.92,3.87-4.92,3.87-9.01c0-3.78-1.16-6.61-3.47-8.47c-2.31-1.86-5.92-2.79-10.81-2.79h-7.48V287.39z"/>
	</g>
</g>
<path class="st6" d="M277.56,413.07c0-17.51-14.2-31.71-31.71-31.71c0,0-0.01,0-0.01,0h-31.69c0,0,0,0-0.01,0
	c-17.51,0-31.71,14.2-31.71,31.71v0l0,0v39.1h63.4c0,0,0,0,0.01,0c17.51,0,31.71-14.2,31.71-31.71
	C277.56,419.22,277.56,414.33,277.56,413.07z"/>
<path class="st10" d="M275.45,413.08c0-16.34-13.25-29.59-29.59-29.59h-31.97v0c-16.22,0.14-29.33,13.33-29.33,29.59l0,0h0v36.99
	h61.3l0,0c16.34,0,29.59-13.25,29.59-29.59C275.45,419.22,275.45,414.33,275.45,413.08z"/>
<path class="st6" d="M214.15,391.94c-11.67,0-21.14,9.46-21.14,21.14v28.54h10.57c0,0,0-22.54,0-28.4c0-5.87,4.72-10.63,10.57-10.7
	v0h5.28v-10.57H214.15z"/>
<path class="st6" d="M245.85,391.94c-11.67,0-21.14,9.46-21.14,21.14v28.54h10.57v-10.23c3.11,1.8,6.72,2.83,10.57,2.83
	c11.67,0,21.14-9.46,21.14-21.14S257.53,391.94,245.85,391.94z M245.85,423.64c-5.84,0-10.57-4.73-10.57-10.57
	s4.73-10.57,10.57-10.57s10.57,4.73,10.57,10.57S251.69,423.64,245.85,423.64z"/>
</svg>
