<svg xmlns="http://www.w3.org/2000/svg" viewBox="0 0 572 392"><path fill="#57534C" d="M8.4 252.9c-1.1-.1-2.2 0-2.4.4-.2.4 1 .8 1.8.8.7 0 2.2-.5 1.9-.7-.3 0-1.3-.5-1.3-.5zM158.7 329.3c0-.4-.2-.9-.5-1.4h.2c-.4-.7-.9-1.3-1.3-1.5-.4-.2-1.2-.3-1.8-.7h-.3c-.2-.1-.4-.3-.5-.5-.2-.3-.6-.6-.9-.9h.3c-.7-.5-1.5-.9-1.9-.7-.6.2-1.5.4-2.2-.1-.6-.4-1.4-.9-2-1.3h-.3c-.1-.1-.2-.1-.2-.2-.5-.4-1.7-.8-2.2-.8-.6 0-.5-.4-1.3.9-.5.8-.4 1.2-.6 1.4h-.7c-.7-.1-.7-.2-.4-.4.1-.1.2-.1.3-.2.3-.2.6-.4 1-.8h-.4c0-.1.1-.1.1-.2.3-.5.4-.9.3-1.2h.2c-.1-.6-.7-.8-1.3-.6-.2.1-.3.1-.3.2-.6.3-.2.9-1.6 1.2-1.2.3-1.4-.4-.9-.8l.1-.1c.1 0 .1-.1.2-.1.5-.1 1.2-.5 1.8-.8.5-.3 1-.7 1-.9v-.2h-.2c-.1-.5-.3-1.3-.9-1.3-.2 0-.3-.1-.4-.2h.3c-.5-.2-.5-1-1.2-2.2h-.2c0-.1-.1-.1-.1-.2-.3-.4-.7-.8-1.1-1.2h.3c-.9-1-2-1.8-2.8-1.7-1.1.2-1.7 1.3-2.3.1l-.3-.6h-.2c-.4-.6-.9-.9-1.2-1.4h.3v-.1c-.4-.7-1.3 0-1.6-.3l-.3-.3s-1.2.3-.6-.7c.1-.2.3-.5.4-.8h-.1c.2-.5.3-1.1.3-1.4h.2c0-.3 0-.5-.1-.5l-.1.1c-.3.1-.7 1.6-1.2 1.5-.5-.1-.1-.3-1-1-.1-.1-.2-.1-.3-.1h.4c-.6-.4-1.5-.3-1.9 0h.1c-.4.1-.6.4-.6.6 0 .4-.2.7-.4.9h-.2c-.1-.1-.3-.4-.5-.9-.3-.7-1.6-.8-2.2-.1-.3.3-.5 0-.8-.5h.2c-.3-.5-.5-1.3-.8-1.3-.2 0-.5.1-.8.4-.4.2-.9.7-1.2 1.3-.4.8-.3 1.8-.5 2.2-.2-.1-.3-.5-.3-1.1h-.2v-1.4h.2v-.1c.1-.7 1.1-1.7.4-2-.3-.1-.7.1-1.1.3-.4.2-.8.6-1.1.8-.1 0-.1.1-.2.1s-.3.1-.5.3c-.5.3-1.1.9-1.6 1.6-.5.8-.8 1.3-1.3 1.7-.6.3-1.3 0-1.1-.4.1-.2-.4-.6-.8-.9h-.4c-.4-.2-.7-.3-.8-.1l-.3.3c-.4.3-.9.5-1.5.8-.8.4-1.6-.5-1.8-1h-.2c-.2-.3-.4-.5-.5-1.4h.2c0-.1 0-.3-.1-.5v-1.6h-.2c.1-.5.1-1 .2-1.4h.1c.1-.3.1-.5.2-.7.1-.4-.1-.9-.5-1.4h-.3c-.5-.6-1.1-1-1.4-1-.6.1-1.3.9-1.9.8-.6-.1-.4-.3-1.4-.3-.9 0-.3-.2-.1-.9h.1c.1-.1.1-.2.1-.4.1-.5 0-1.2 0-1.8h-.2c0-.5.2-.9.6-1.3l.1-.1h.1c.6-.5.7-1.5.5-2.2-.1-.4-.3-.7-.5-.7-.6-.1-1.8.3-2.7.2-.8-.1-1.5.8-1.2 1.7.3 1-.5 1.6-.7 1.5-.3-.1-.6-.7-1.7.2-1 .9-1.4.5-2.4-.4-.1-.1-.3-.2-.4-.4h.3c-.7-.6-1.3-1.3-1.7-2.2h-.2c-.1-.3-.2-.6-.3-1 0-.2 0-.3-.1-.5h.2c-.1-.8-.1-1.5-.1-2.2h-.2c0-.5.1-1 .2-1.3v-.1h.1c.3-.6.3-1.6.1-2.2h-.2c-.1-.2-.2-.3-.3-.3-.4-.1.1-.7.6-1.1l.3-.3c.1-.1.2-.1.3-.1l.6-.3c.6-.4 1.3-1.1 1.4-1.4h-.1c.3-.3 1.1-.2 2-.2 1 0 1.2 0 2.2.7.5.3.8.2.9.1.2-.1.3-.3.4-.5h.2v-.2c0-.3.6-.6 1.7-.5 1.1.1 2.5-.9 2.7-.5.3.3.8 1.6 1.4 1.2.6-.4.7-1.2.9.1.2 1.3.6 3.3 1.5 3.6.8.3.4 1.6 1.2 1.7.1 0 .3 0 .4-.1.4-.1.7-1 .8-1.7h-.2c0-.4 0-.7-.1-1 0-.1-.1-.3-.2-.5h.2c-.2-.6-.4-1.4-.7-2.2h-.2c-.2-.4-.3-.8-.5-1-.1-.1-.1-.3-.1-.5h.2c0-.5.4-1.3 1-1.8.1 0 .1-.1.2-.1l.1-.1c.1 0 .2-.1.3-.2.4-.3.9-.9 1.3-1.4h.1c.5-.7 1.1-1.4 1.4-1.7l.2-.2c.8-.5 2.3-.7 1.8-1.4-.1-.1-.1-.2-.2-.3h.2c-.5-.8-.9-1.6-1-2.2h-.2c0-.6.6-.4.8 0 .3.4 1.4-.7 1.1-1.2 0-.1-.1-.2-.1-.2h.2c-.1-.3-.1-.7.1-.9h.3c.2 0 .4 0 .5-.1.3-.1.4-.6.2-.9v-.1h-.2c.1-.4.8-.7 1.3-.5.6.2 2.8.4 3.1 0 .1-.2-.1-.5-.3-.9h.3c-.3-.4-.8-1-.8-1.5 0-.2.1-.5.2-.7h.1c.4-.5 1-.9 1.5-1 .6-.1 1.5 0 1.6-.3 0 0 0-.1.1-.1h.1c.1-.1.2-.4.4-.5.2-.1.4-.1.5.2.1.8 0 2.1.7 2.1s1.7-1 1.9-1.1c.3-.1 2-.5 2.4-.7.3-.1 1.6-.2 2.1-.6.3-.1.4-.3.3-.6-.1-.3-.2-.7-.4-1h-.2c-.1-.3-.3-.6-.4-.8-.3-.3-.6.1-.9.7l-.2.2c-.3.2-.6.1-.7-.1h-.3c-.2-.4.1-1.7-.6-1.3-.6.4-.7.9-1.1.7-.3-.1-.5-.5-.6-.8h.2c-.1-.2-.2-.3-.2-.3s.9-.5.3-1.5l-.3-.3h-.2c-.5-.3-1-.3-1.6 0h-.1c-.1 0-.1.1-.2.1-.9.5-.8.4-1.9.8-1.1.3-1.7.7-1.7.7s.2-.8.5-1.5h-.1c.1-.3.3-.5.5-.7.6-.6 2.4-.4 3-.9.1-.1.2-.1.3-.2 0 0 .1 0 .1-.1.7-.2 1.8.5 1.8.5l.1-.1.4-.4c.1-.1.2 0 .2.1 0 .5-.2 2 .4 2 .6 0 2.1-.9 1.5-1.1-.4-.1-.2-.3.2-.6.2-.2.6-.4.9-.6.7-.4 1.8.1 2.2-.1l.1-.1h.1c.3-.2.5-.7.8-1 .1 0 .2-.1.3-.1.6 0 .9 1 0 1.6-.9.7-1 2.3-1.5 2.7-.5.4-.2 1 .6.9.7-.1 1.4.1 2-.1.6-.2 1 .2 1.2.5.1.2.4 0 .5-.1l.2-.2c.3-.1 1.2-.2 1.5.2.2.3.3.2.4 0h.1c.1-.2.2-.6 0-1l-.6-1.2h-.2c-.1-.1-.2-.3-.2-.4-.3-.7-.6-.9-1.4-.7-.6.2-.8-.1-1.1-.4h.3c-.1-.1-.2-.2-.4-.3-.5-.3-.8.4-.5-.3.3-.7.5-1 .8-1.5h-.1c.2-.4.6-1 .8-1.4h.1c.1-.4.1-.7-.5-.8-1.2-.3-1.6-.5-1.8-1.2v-.1h-.2c-.3-.5-.9-1.1-1.4-1.4h.3c-.2-.2-.5-.3-.6-.3-.4 0-2.1.4-2.2-.2-.1-.3-.2-1.1-.5-1.7h-.2c-.1-.4-.3-.7-.5-.9-.1-.1-.3-.3-.4-.6h.3c-.5-.6-1.2-1.5-1.7-2.2h-.3c-.2-.2-.3-.4-.4-.4-.3-.2-.6-.1-1.5 1.2-.3.5-.6.8-.9 1-.4.3-.8.2-1.2.1-.6-.3-1.4 0-2-.9-.3-.4 0-.7.3-1 .3-.2.6-.4.5-.7-.2-.4-1.2-.7-2-.8h.8c-.4-.1-.9-.2-1.3-.2-.9-.1-1.6-1.3-2.9-1.4-1.4-.1-3 .2-3.5.2-.1 0-.2.1-.3.1-.4.1-.4.8-.6 1.9-.1 1 .3 1.3.1 1.6h-.1c-.4.1-.7.2-.8.3-.3.1-.3.3.3.6.8.4 1.9 2.2 1.9 2.2s0 1-.6 1.5-1.3 1.1-1.7.4c0-.1-.1-.1-.1-.1h.3c-.3-.4-.8-.5-1-.3-.2.1-.3.2-.2.5.3.7.8 1 .8 1.6 0 .7.8 2.3.3 2.8-.6.5-1.2.1-1.7.2s-.9-.9-.6-1.1c.1 0 .1-.1.1-.2h.1c.2-.4-.2-1.7-.2-1.7s-.1.1-.1.2v-.1s-.4.7-.7 1c-.1 0-.1-.1-.1-.3.1-.7-.2-.9-.3-1.3h-.2c0-.1-.1-.3-.1-.4 0-.3-.1-.7-.4-1h.3c-.3-.5-.8-.8-1.3-.7-.8.2-1.6.4-3.2.1-1.6-.3-2.2-.5-3.5-1.3-.2-.1-.3-.2-.4-.2H98c-.4-.1-.7-.1-.9 0h-.2c-.1 0-.2.1-.4.1-.1 0-.2 0-.3-.1H96c-.2-.4-.2-1.2-.7-1.4h.3c-.1-.1-.2-.2-.3-.2-.8-.2-.3-.5-.5-1.9v-.1h-.2c-.1-.8-.3-1 .1-1.4h.1c.2-.2.6-.5 1.3-1.1.6-.4 1-.8 1.2-1.1h-.1c.7-.7.9-1.1 2-1.2 1.6-.2 2.1 1 2.1.4 0-.1 0-.4.1-.7h.2c.1-.5.2-1.2.3-1.7 0 1.1 1.8 1.2 1 1.9-.8.8-.4.9.3.9.6 0 1.8-.8 1.8-.8s1.5-.8 1.8-.1c.4.7.4 1.3 1 1.3s1.9-.8.9-1.5h.3l-.2-.2c-1.2-.8-1.9-.7-2.7-1.5l-.4-.4h-.7c-.1 0-.2.1-.3.1-.4.1-.6 0-.8-.1h-.3c-.1-.1-.1-.1-.2-.1-.3 0-.7.2-.9-.2-.2-.4.1-.5 1-.5s2 .3 2 .3 1.1-.4 1.4-.5c.2-.1.8-.2 1.2-.5.3-.2.6-.5.4-.9-.2-.7-.7-.9-1.1-1.1h-.4c-.1 0-.1-.1-.1-.1-.3-.3.6-.8 1-1 .5-.2 1.8 0 1.8 0s.8.1.8-.3h.1v-.1-.6c.1 0 .1 0 .2.1.6.3 0 1.3.8 1.1.8-.2 1 0 1.5.3.4.3 0 1.4-.4 1.8-.1.1-.3.2-.4.2-.4.2-.7.5.1.6 1 .1 1.8.1 1.8.1l.1-.1h.1s.6-.8.9-1.4c0-.1.1-.2.1-.2.3-.1.5.2.8.3.3.2 1.3.4.9.7-.1 0-.2.1-.3.1-.4.1-.7.3-1 .5-.6.4-.8.8-1 1.2-.1.2-.2.4-.3.5-.2.1-.5.1-1.1 0h-.4c-.4-.1-.8-.1-1 0h-.1l-.1.1c-.2.1-.3.2-.4.4-.3.5-.1 2.3.4 2.1.5-.2.9-.2 1.5-.4s2.8.2 3.3.1c.6-.1 1.5 1.1 1.8.9.3-.2.8.4 1.4.9.2.1.3.1.4 0 .1 0 .2-.2.3-.3h-.1c.1-.1.4-.1.8.2 1 .9.5.9 1 .9.6 0 1.8.1 1.8.1v-.1h.2s0-.5.3-.7c.1-.1.3-.1.5 0 .8.2 1.6 1.2 1.7.7.1 0 .2 0 .2-.3v-.8h-.2c0-.5-.1-.9-.6-1.3-.1 0-.1-.1-.2-.1h.3c-.7-.6-1.9-1.1-2.1-1.4-.1-.2-.3-.5-.2-.8h-.1s0-.1.1-.1c.3-.2 1.6.1 2.3.7.7.5 1.4 1.1 1.9.7l.1-.1h.1c.1-.1.2-.1.3-.2.3-.2.5-.3.8-.5.2-.1.3-.2.4-.3l.1-.1h-.1c.3-.4.8-1.1.8-1.1s-.9-.1-1.7-.3h.6c-.8-.2-1.7-.4-1.9-.7-.4-.5-1.7-1.3-2-1.3-.3 0-1.2.6-1.6-.1h-.2s0-.1-.1-.1c-.1-.4-.2-.9-.3-1.3h.2c-.1-.7-.2-1.2-.4-1.3-.3-.1-2.8-.5-4.1-.9h-.6c-.1 0-.2-.1-.3-.1-.5-.3-2-.8-3-1.3h.4c-.3-.1-.6-.3-.8-.4-.8-.5-2-1.3-2.8-1.3-.7 0-3.8.4-4.3.3-.6-.1-2.2.2-2.9.3-.1 0-.1.1-.2.1-.6.1.8 1.5-.6 1.9-1.3.3-1.2.5-1-.9h.2c0-.1 0-.2.1-.3.3-1.6-.9-2.1-2.1-1.4-.7.4-1.7.7-2.3 1.1-.5.3-.8.5-.6.9.5.8-.1 1.3.8 2.1s1.3 1 2.5.9c1.2-.1 2.4.2 2.4.2s0 1.3-.5 1.5c-.1 0-.2.1-.3.1h-.2c-.2.1-.4.1-.5.3-.2.1-.3.2-.4.5-.1.2-.2.4-.4.6-.3.1-.5.2-.5 0s.2-.8.1-1.3h-.2c0-.2-.1-.4-.3-.5-.6-.5-.8-.7-1.6-.1-.7.5-.8.8-1.2-.1-.1-.2-.3-.5-.4-.7h.3c-.5-.6-1.1-1.1-1.1-1.1s-.4-.6-.8-1.1h-.3c-.1-.2-.3-.3-.4-.4-.6-.5-1.6-.4-1.7.1-.1.5.2 1.1.6 2.1.3.8.5 1.8.1 2.2h-.1c-.2 0-.3.1-.4.2-.4.2-.4.6-.7.8 0 0-.1 0-.1.1-.6.2-.9-.3-.9-1.2v-.2h-.2c0-.6-.2-1.1-.1-1.4h.2c0-.1 0-.2.1-.3.2-.3-.7.2-1.7 0-.4-.1-.8 0-1 .2-.4.2-.5.5.1.7.8.3 1 1.3.5 1.8 0 0-.1 0-.1.1-.8.3-4 0-5 0s-2.5.3-2.8-.3c-.1-.3 0-.5.2-.6.3-.2.8-.3 1.1-.3.6 0 2.6.1 3.3-1.1h.1l.1-.1c.7-1.2-.9-1.4-1.7-1.4-.5 0-1-.2-1.5-.6h-.3l-.5-.5c-.3-.3-.3-.6-.2-.9h.1c.1-.6.7-1 .6-1.3-.2-.4-1.1-.1-1.9-.1-.4 0-1-.2-1.5-.3.4 0 .7 0 .7-.2.1 0 .2-.1.2-.1 0-.1.1-.1.1-.2h-.1c.2-.2.5-.3.6-.7 0-.2.1-.5.1-.8h.2c.1-.5.2-1.1.2-1.1s-.4-.8-1-.4-.8.6-1.4.4c-.4-.1-.5-.8-.9-1h-.9c-.2.1-.3.1-.4.2-.6.3-.7.7-1 1l-.1.1c-.3.2-.7.3-.9.2-.2-.1-1.7-1.1-1.7-1.1s-1.9-.1-2.7-.4h-.4c-.1 0-.1-.1-.1-.1-.1-.4-.6-1.2-2-1-1.4.1-3.7 1.1-4.1 1.1-.3 0 .1.5.1.8-.4 0-.8 0-1.1.2-.2.1-.3.2-.4.5-.1.4.6.4 1.3.4.8 0 2.1 0 2.5-.2.4-.2 2.2-.7 2.2-.1-.1.7.7 1.7 1.2 1.5.4-.1 1.3-1.1 1.7-.7.4.4.5 1.2.9 1.5.4.2 1.6.2 2.2 0 .6-.2 2.1-.2 2.8-.1.4.1 1.2.3 1.8.3-.1 0-.3 0-.3.1-.2 0-.3.2-.3.4 0 .7.6 2.2.6 2.7l-.1-.1h-.3c-.3-.4-.4-.9-.6-1.4h.2c-.1-.1-.1-.3-.2-.4-.5-.7-1.2-.5-2.1-.4-.9.1-2.5.4-2.9.3-.5-.1-.1-.1-1.1-.7-1-.5-1.5-.4-2.2-1H70c-.5-.5-.1-.7-1.3-.8-1.3-.1-1.2.8-2.5.5-1.3-.2-1.7.1-2.9 0-1.3-.1-1.9-.2-2.1.5-.2.8-.6 2.1-1.1 2.1-.6 0-1.2.8.6.9 1.8.1.7 1.1 2.3 1 1.3-.1 2.5-.1 3-.6h.1c.1-.1.2-.2.2-.3.4-.9.6-.9.8-.5.2.3 1.6 2.3 1.6 2.3s.9.9 1.3 1.1c.4.2-.4 1.2-1.1.7-.7-.5-2.1-.4-2.7-1h.3l-.1-.1c-.6-.5-2-.8-2.7-.7-.6.1-2.8-.1-3.1-.1-.1 0-.3.1-.5.3-.5.3-1.2.9-1.2.9s-.1-.1-.2-.3h.2c-.2-.3-.4-.8-.6-1.1-.1-.2-.3-.1-.5 0s-.4.3-.6.5c-.4.1-1.5-.9-2.6-.4-.3.1-.5.2-.7.4-.1.1-.3.2-.4.3-.2.1-.5.2-1.3.2-1.6-.1-1.9-.4-2.5-.3l-.6.1v.1h-.2s.1.4-.6.9c-.6.4-1.1 1-1.6.3s-.7-.7-1-.8c-.1 0-.1-.1-.2-.1h.5c-.3-.1-.8-.6-2-.3s-2.5-1.6-2.9-1.6c-.4 0-4.2 1-5 .7-.6-.2-1.9-.7-2.8-1h-1.4c-.7.1-1.6.2-1.6.2s-.6-.1-1.1-.2h-1.1c-.4.1-.8.2-1.1 0h-.3c-.5-.5-1.3-.9-1.3-.9s-.3.8-.7 1.2l-.1.1c-.6.2-2 .7-2.3.4-.3-.2-2.7.9-2.7.9s-1.4.4-1.7.2c-.1 0-.4 0-.7.2h.1c-.6.2-1.5.8-1.3 1.1.2.4 0 1.3 1.5 1.3s1.6.7 2.1.8c.6.1.7 0 1.4.7.6.6.6 1.1.1 1.2h-.2-.1c-.8-.1-1.8-.3-2.3-.9l-.6-.5-1 .5c-1.3.1-2.9.9-2.9.9s.5 1 1.3 1.6c.8.7 2.9.7 2.9.7s1.2.1 1.8-.4c.1-.1.2-.1.3-.2.1-.1.1-.1.2-.1.5-.3.9-.2 1.2-.1.4.1-.3 1.5-1.3 1.4-1-.1-2.2.1-3 .9-.8.8-1.6.9-1.2 1.7.4.9 1.8 2 1.8 2.5.1.4.7.1 1.3-.3.3-.2.6-.4.7-.6h-.1c.2-.5 1.1-.5.8.7-.3 1.2.9 1.4.9 1.4s0-.1.1-.1h.1s.3-.5.5-.8h.1c.3.2 1.2 1.2 1.2 1.2s.1-.1.3-.2h.1c.4-.2.9-.5 1.2-.1.4.7-.6 1.2-1.1 1.5-.7.4-2.4 1.1-2.8 1.4l-.1.1s-.1 0-.1.1c-.3.2-.6.4-1 .6-.6.3-1.3.7-1.6.7-.5 0-.6 1.3.2 1.2.8-.1 3.1-1.1 3.8-1.4.6-.3.9 1.1 2.5.1.3-.2.5-.4.8-.6.9-.7 1.3-1.5 1.7-1.8h.1c.5.1.6.9 1.3 1.1.3.1.7 0 1-.2.4-.2.8-.6 1.1-.9l.3-.3h-.1c.3-.5.4-1.2 0-1.1-.5.1-1.7 0-1.7 0s.2-.1.5-.3c.4-.3 1-.8 1-1.2 0-.3.1-.6.2-1h-.1c.1-.3.3-.5.7-.7.7-.3.7-.1.3 1.2-.4 1.2.6.9 1.3.4.1-.1.2-.2.3-.2.5-.3 1.2.9 2.1.2 0 0 .1 0 .1-.1.3-.2.5-.5.6-.8h-.1c.2-.7.3-1.3.6-1.3.6 0 1.6 1.2 2.1.8.6-.4 2 .9 2.9.9.9 0 4 1.1 4.6 1.1.6 0 2.2.8 2.3 2.2.1 1.4.6 1.3 1.2 1.3s1.8.5 1.8 1.1c0 .5-.4 2.7.6 3.3.9.5 1.8 1.4 2.1 1.2.2-.1.2-.6.1-1.1h.2c-.1-.5-.3-1.1-.6-1.2-.3-.2-.3-.6-.3-1h-.2c0-.1 0-.2-.1-.3-.2-.4.6-.4.8.3.3.8 1 2.2 1.5 2.2s1.5 1.3 1.2 2.1c-.3.8.1 2.3.9 2.3s2 1.1 2.4 1.2c.4.1.6 1.1.6 1.4 0 .3.7 1.8.7 2.5 0 .8-.3 3.8-.4 5-.1 1.2.7 3.3 1.7 4.4.9 1.1.7 3.5 1.3 4 .6.4 1.9 1.3 2.8 1.2.8-.1 1.4.7 2.1 2.2.7 1.5 1.5 4 2 4.2.6.2 1.5 1 1 1.5s-1.2 1.7-.4 1.7c.8 0 1.1-.5 1.7.4.6 1 1.5 1.5 1.4 2.2-.1.7.7.9 1.1 1 .4.1 1.1 1.9 1.9 1.3.1 0 .2-.1.3-.2.3-.3.2-.6 0-1h-.2c-.3-.5-1-1.1-1.4-1.4h.3l-.3-.3c-.4-.4-.2-1.1-.5-1.9H76c-.1-.3-.3-.6-.7-1-.2-.2-.3-.3-.4-.5h.3c-.7-.8-.9-1.5-1.3-2.2h-.3l-.3-.3c-.4-.4-.8-.8-1-1.1h.2c-.3-.5-.4-.9.2-1.4.8-.5.9.9 1.2 1.8.4 1 2.3 2.9 3.1 3.8.8.9 2.3 3.9 2.8 3.9s1.8 1.7 1.8 1.7.7 1.4.5 1.9c-.3.4.4 2.1 1 2.5.6.4 3.5.4 3.6 2.1 0 .4.5 2.5 1.5 2.5s2.4-.5 2.6-.2c.3.3 1 1.5 1.6 1 .1 0 .2-.1.3-.2h-.1c.5-.7.6-1 1.4-1 .8 0 1.2.8 1.7 1.3s1.8 2 2.4 1.9c.6-.1 1.5.9 1.9.5.5-.3 1.2.2 1.6.4.4.2 1.1 1 1.1 2.3-.1 1.3 1.3 1.6 1.8 1.9.6.3 1.3 1.1 1.8 1.6s1.5.7 1.8 1c.3.3.5 1 1.3.4.5-.3.6-.8.7-1.1h.2v-.4c.3 0 .9-.1 1.2.2.5.4.7 1.9 1 2.1.3.2.8 1.9.5 3-.4 1.2-.3 2.4-.6 2.4-.4 0-1.4 1.1-1.9 1.5-.6.3-1.5 2.1-1.4 2.7.1.5.4 2.3.2 3-.2.8-.9 1.5-.6 2.7.3 1.2 2.2 1.5 2.3 2.6.1 1.1 1.5 3.5 1.7 4.6.2 1.1 1.2 2.3 1.2 3.9 0 1.5 2.8 2.4 3.2 2.6.5.1 1.3 1.1 1.9 1.4.6.3 1.2 1 1.7 1.9.5.9.4 2.2.4 2.5 0 .3-.3 3.7-.6 5.7s.7 3.8.1 4.4c-.6.5-1.6.8-1 1.4.6.7-.6 1.1-.6 1.4 0 .3.7 2.1.4 2.8-.4.8-.6 1.9-.9 2.5-.3.7-.9 1.3-.7 2.3.2 1-.7.7-.7 1.6 0 1 .8.5.6 1.7-.2 1.2-.6 1.5-.6 2.4 0 .9.5 2.1.5 2.4 0 .3-.5 1.4-1.1 2.3-.6.9-1.1 1.4-1 2 .1.5.7 1.2.6 1.5-.1.3-.9 1.4-.8 2.2.1.8.9.4 1.1 1 .2.5-1.1 1-.6 1.5.6.5 1.3.4 1.1 1.7-.2 1.3 1 1.6 1.3 2 .3.3.8 1.1 1.3 1.1s.8-.3 1-1.5h.2v-.2c0-.2.1-.3.2-.4.4-.1.9.6.2 1.2-.9.9-1.4 1.3-1.1 1.3.3 0 1.7.9 2.4.9s2.2-.4 2.5-.5c.3-.1 2.2-.4 2.5-.7 0 0 .1 0 .1-.1h-.1c0-.3-1.6-.2-2.4-.5-.3-.1-.8-.5-1.2-.9h.3c-.6-.6-1.2-1.4-1.4-1.8 0-.1-.1-.2-.1-.4h-.2c0-.5 0-1 .2-1.4h.1c.1-.3.2-.5.4-.6.4-.3 1.2-1 1.8-1.6h-.1c.3-.3.5-.5.7-.6.1-.1.3-.5.5-.8h.1c.2-.6.4-1.2.2-1.4-.3-.2-1.7 0-1.8-.3-.1-.1-.1-.3-.1-.5h-.1c.1-.2.3-.6.8-.9l.5-.5h.1c.7-.7 1-1.5 1.4-1.8l.4-.4h-.1c.3-.3.7-.8.9-1.3v-.2h.1c.2-.7-.3-.3-.8-.3-.6 0-.8-1.2-.8-1.7v-.1c.4 0 1.4.5 2.2.6.4.1.5 0 .6-.1.3-.1.2-.3.2-.6h-.2c0-.2-.1-.3-.1-.5 0-.3 0-.6.1-.9h.1c.1-.2.1-.4.2-.5h.3c.6.3 3.4-.1 3.8-.2l.1-.1c.2-.1.6-.7 1-1.3h-.1c.3-.5.5-.9.7-1.2.1-.1.1-.2.1-.3h.1c.3-.5.3-1-.1-1.3-.2-.2-.6-.5-1-.9h-.3c-.4-.4-.7-.8-.8-.9v-.5h.2c.1-.6.4-1.5.6-2.1.1.7.2 3.1 1.2 3.4 1.3.4 2 .7 3.2-.7.2-.3.4-.5.7-.7h.1c.8-.9 1.4-1.5 1.6-2.2H140v-.2c0-.4.1-.9.3-1.2h.1c.1-.4.3-.7.6-.9.2-.1.4-.1.6-.3.2-.1.5-.3.7-.9h-.1c0-.1 0-.1.1-.2.5-1.3.9-.5 1.4-1.3h.1c.1-.1.2-.2.2-.4.3-.6.1-1.2-.1-1.8h-.2c-.1-.5-.2-1 .1-1.4h.1c.1-.1.2-.3.3-.4.3-.2.7-.5 1-.7.9-.6 1.8-1.1 1.8-1.1s.6-.3 1.7-.7c1.1-.3 2.2-.1 2.6-.7h.1c.1-.1.1-.1.1-.2.3-.5.5-1.3.8-2h-.1c.1-.3.3-.5.4-.7.2-.2.3-.5.5-.7h.1c.4-.7.7-1.5.5-1.9v-.2h-.2c0-.4.2-.9.3-1.4h.1c.2-.8.5-1.6.4-1.9 0-.1 0-.2-.1-.2h-.2c-.1-.4-.3-.9-.2-1.4h.2c0-.6.2-1.2.8-1.8.1-.1.2-.2.4-.3h-.1c.4-.5.9-1 1.3-1.4h.1c.7-.9 1.3-1.7 1.3-2v-.1h-.1c.1-.3.3-.9.5-1.4h.1c.3-.7.5-1.6.5-2.2l-.1-1.6zm-47.8-66c.2-.2.4-.3.5-.4h.1c.3.2 2.2-.3 2.6.2.4.5-.4.7-1.3 1.1-.9.4-1.2.3-1.6.9l-.3.3c-.4.2-.8.4-1.2.7-.2.1-.4.3-.6.5l-.4.4c-.5.4-1.1.5-1.3.1 0-.1 0-.1-.1-.1h.2c-.1-.2-.1-.3-.1-.4l.1-.1c.1 0 .2 0 .2-.2 0-.1.1-.2.3-.3.5-.3 1.3-.7 1.3-.7.1 0 .1-.1.1-.1s.1-.2.3-.4h-.1c.4-.6.9-1.2 1.3-1.5zm-4.4-3c.3-.1 1.6-.1 2.2 0 .6.1 1.4 1.6 1.2 2.1-.5 0-1.1-.5-1.1-1.2v-.1h-.1s-.1.1-.1.2c0-.8-.6 1.4-.3 2.1.3.5-.3 1.1-.8 1.3h-.5c-.2-.2-.4-.8-.4-1.4h.2v-.5c.1-.7-.3-1.4-.8-1.6h-1.1c-.1 0-.2.1-.3.2-.7.3-1 1-1.3 1.3-.4.3-.4 2.2-.3 2.6.1.3.1 1.3-.3 1.7h-.1c-.1.1-.3.2-.5.1-.1 0-.2-.1-.3-.1h.4c-.6-.2-.6-1.4-.5-2.2h-.2v-.3-1.1h.2c-.1-.7-.1-1.6.1-2.2h-.1c.4-.8 1.4-1.1 2.1-1.2.8-.2 2.4.4 2.7.3zm-8.4-2.4c.2-.1.6-.2 1.2-.5 1.2-.5 2.5-2.1 3-1.4.6.7 1.6 1.4 2.2 1.5.6.1 0 1.1-.3 1.4-.3.1-1.3-.2-2.1-.2s-.6-.7-1-.5c-.4.1-1.2.3-1.8.7-.6.3-1.5.3-1.5-.3.1-.4.2-.6.3-.7zm-34.9 1.2c-.4.1-.7-1-.8-1.6h-.2c-.1-.5-1-.5-1.5-.9-.1-.1-.3-.3-.5-.6h.3c-.3-.4-.6-.8-.6-1.1h.1c.3.1.8.8 1.1.8.3 0 1.7 1.3 2 1.7.3.5.3 1.4.1 1.7zm70.1 102.6s0-.1 0 0c.1-.2.1-.1.1 0h-.1zM73.6 221.1c.5 0 1.7-.5 2.1-.1.4.4 1.3.1 1.2-.3v-.5h.2c.1-.6.2-1.4-.4-1.5-.7-.1-1.8.8-2.9 1.2-.1 0-.2.1-.2.1-.6.4-.5 1.1 0 1.1zM83.2 220c.7 0 2.3-.4 2.5-.1.1.4-.1.7.8.8.9.1 1.2.3 1.7.3.3 0 .4-.4.2-.9h.2c-.1-.3-.2-.6-.4-.8-.4-.7-.3-.6-1.4-.9-1.1-.4-2.2-.4-2.9-.3-.5.1-1.1 0-1.4.3-.2.1-.4.3-.5.7-.2.5.4.9 1.2.9z"/><path fill="#57534C" d="M93.7 227.3c.8-.1 2-.3 2.5-.4.1 0 .2-.1.3-.1.5-.2.6-1.1 0-1.2-.4 0-.7-.3-1.1-.5h-.7c-.3.1-1 .4-1.5.8-.5.3-1 .7-.9 1 .2.2.6.6 1.4.4zM90.9 220.8c.7.4 1.8 1 2.6 1.4.8.4 2.3.4 2.8 1.2.5.7 2.2 1.3 2.2 1.3l2 .2s1.4-.4 2.8-.2c1.4.1 3.5.4 4.7.3 1.2-.1 1.4-.5 1.5-.8 0-.1-.3-.3-.7-.4h.5c-.7-.3-1.9-.5-2.3-.5-.6.1-3.7.1-4.6 0-.9-.1-2.1-.1-2.8 0-.7.1-1.3-.6-1.8-.9-.2-.1-.6-.4-.9-.7h-.3c-.5-.4-1-.8-1.4-.8-.7-.1-.6-.1-2.2-.6h-.1.6c-.1 0-.2-.1-.3-.1-.8-.2-2.1-.5-2.1-.7 0-.1 0 0-.1.2-.1 0-.1-.1-.1-.1-.3-.4-.7.9 0 1.2zM178.8 237.8s.1 0 0 0c.1 0 1.4-1.2.9-1.7 0 0-.1-.1-.2-.1h-.3c-.6-.4-1.4-.6-1.9-.7-.6-.1-1.1.5-2.3.5-.5 0-1 .1-1.4.2h-.9c-.1 0-.2-.1-.2-.2-.5-.6-2.5-.9-2.7-.5-.2.5-.7.5-.2 1.5.5 1 .9 1.6 1.3 1.5.4-.1 1.9-.1 2.1.4.2.6.7 1.1 1.7.7 1-.4 1.9-.6 2.2-1 .2-.4 1.9-.5 1.9-.5s-.1 0 0-.1zM114.6 294.5c.1 0 .2-.1.2-.2 0-.2-.2-.6-.5-.9h-.3c-.3-.3-.8-.6-1.1-.5-.5.1-1.3-.4-2.1-.9h.3c-.3-.2-.6-.5-.9-.7-.7-.8-2.1-.8-2.7-.8-.6 0-2.8.8-2.8.8v.1c-.1 0-.2.1-.2.1-.1 1.1.8.8 1.9.8 1.1 0 3-.2 3.4.3.4.5 2 1.4 2.5 1.9.8.2 2.1.3 2.3 0zM124.9 297.7c.3-.2.4-.4.4-.7h-.2c0-.5-.4-1-.9-.9-.8.2-.6 2.1.4 1.8.1 0 .2-.1.3-.2zM284.9 310.3c-.1-.1-.1-.2-.2-.4h.2c-.3-.7-.5-2.3-1.3-1.9l-.1.1h-.1c-.6.3-1.2 5.6-.1 6 .3.1.7-.1.9-.6h.1c.3-.5.6-1.4.7-2.2 0-.4 0-.8-.1-1zM206.4 269.9c.2-.1.4-.3.6-.6.2-.3.2-.7 0-1h-.2c-.2-.4-.6-.8-.8-.8-.9 0-1.3 1.6-.7 2.2.3.4.7.4 1.1.2zM199.8 269.5c.1 0 .2-.1.3-.2.1-.4-.1-1-.6-.6-.1.1-.3.2-.5.6-.3.3.5.5.8.2zM212.1 273.3c.2.1.7 0 1-.2.3-.1.5-.4.4-1 0-.1-.1-.2-.1-.2h-.2c-.4-.8-1.1-.8-1.3-.8-.3 0-1.5-.3-1.9 0-.3.2.6 1 1 1.2.4.2.7.9 1.1 1zM185.4 252.9c-.6.3.1 1.6.8 1.7.7.1 1.6-.5 2.2-.9.5-.3 1.2-.7 1.4-1.3h.1c.1-.2.2-.5.2-.7 0-.5-.1-1-.2-1.4h-.2c-.1-.3-.2-.6-.4-.8-.4-.4-1-.5-1.6-.4-.8.2-.9 1.2-1.5 1.2h-.2c-.1 0-.2.1-.2.1-.3.1-.5.4-.4.8.2.9.5 1.4 0 1.7z"/><path fill="#57534C" d="M190.7 250c.9.4 2.9.9 2.1 1.3-.7.4-2.9 2.6-3.1 3.2-.2.7 2.4.4 2.4.4s-.6.8-.1 1c.2.1.3 0 .4-.1.2-.1.4-.3.6-.5.1-.1.2-.1.4-.1.7 0 2.2.5 3 .5.2 0 .5-.1.8-.3.5-.3 1.1-.9 1.2-1.4h-.2v-.2c0-.4-.3-.8-.6-1.2h.3c-.4-.5-.9-1-1.3-1.3-.3-.1-.6-.5-.9-.9h-.3c-.4-.5-.7-1-1-1.4h.3c-.2-.2-.3-.4-.4-.5-.4-.3.6-1 1.1-1.6h-.1c.3-.3.4-.6.2-.9-.4-.5-1.3-.5-2.2-.5h1.3c-.8-.1-1.9-.1-2.3-.4-.4-.3-.8-.2-1.2 0-.3.2-.6.5-.9.8-.5.7-1-.1-1.6.1-.7.3-.5 1.4-.1 2 .7.4 1.3 1.6 2.2 2z"/><path fill="#57534C" d="M380.8 243c2.2-.1 3-1.4 5.2-2.1 2.1-.7 3.8-1.1 4.4-.8.4.2 1 .2 1.2 0 .2-.1.3-.3.1-.6h-.2l-1.4-1.4h.3c-.2-.3-.4-.5-.3-.6.5-.1.9-.2 1.3-.5.3-.2.5-.4.6-.8v-.2h-.2c0-.4-.2-.9-.4-1.4h.2c-.2-.6-.3-1.2 0-1.6.1-.2.2-.4.2-.5h-.2c-.1-.6-.8-1.2-1.4-1.4h.4c-.2-.1-.4-.2-.5-.2-.9-.2-4.5.2-5.3-.2-.7-.4-1.9-1-2.3-.7 0 0-.1 0-.1.1-.4.3-1.2 2.1-1.2 2.1s-.6.2-1.2-.8c-.1-.1-.2-.2-.4-.3h.3c-.9-.7-3.4-.6-4.3-.6-.9 0-1.9.2-2.9.3-1 .1-1.6.4-2.3-.3-.7-.8-1.8-1.1-2.1-1.4 0 0-.1-.1-.2-.1h-.8c-.6-.1-1.3-.1-2.1 0h-.9c-1.6.2-3.1.2-3.1.2l-.4-.2h-.4c-.3-.2-.7-.4-1.2-.8-.4-.3-.7-.5-1.1-.7h.4c-.8-.5-1.4-.7-1.7-.7-.4 0-3.2.5-3.9 0-.6-.5-1.3-.9-1.7-.9-.3 0-.5-.3-.5-.5h-.2c0-.1.1-.2.3-.2.6 0 3.1-.9 3.1-.9s-.1-.2-.3-.3h.3c-.3-.3-.8-1-1.5-1-.9 0-2.6-.5-3-.5-.1 0-.2.1-.3.1-.1 0-.2.1-.3.2h-.5c-.9-.2-2.2.4-2.4-.2-.1-.4-.4-.4-.6-.2-.5.2-1 1.5 0 1.8 1.4.4 2.7 0 3 .7.4.7 0 1 0 1.4 0 .4-.7 1.6-1.2 1.9-.5.2-1-.3-1.9.2-.9.5-3.2.1-3.5.4-.3.3-.8-.9-1.3-.7-.3.1-.9.8-1.5 1.2-.2.2-.5.3-.7.2-.3-.1-.6-.3-.9-.5h-.3c-.3-.3-.4-.7-.4-1.1v-.3h.2c0-.8-.3-1.7-.5-1.9-.1-.1-.6-.2-1.1-.2h-2c-.8.1-2.8.3-3.3.7-.1.1-.2.1-.2.2-.1.1-.2.2-.3.2-.5.3-1.1.4-1.6.4-.6 0-1.2-.8-2.6-1-1.4-.2-4.4-.3-4.8-.2-.3.1-.9-.1-1.1-.3h-.3c0-.1 0-.1.1-.2.2-.2.7-.7 1-1.2h.1c.3-.5.5-1.1.1-1.4-.8-.6-2.6-.7-3.4-.8h-1c-.6-.1-1.3-.2-2.2 0h-.3c-.9.3-1.2.8-1.6.2 0-.1-.1-.1-.1-.1.3 0 .6.2-.6-.4-1.9-1-3.1 0-3.4-.5-.1-.1-.1-.2-.1-.2-.2.3-.5.7-1.2 1.1-1.3.7-2.1.9-2.5 1-.4.1-2.9-.4-2.9-.8v-.2h-.2c-.2-2-1.1.1-2 .7-.9.4-1.6 1.1-2.5.9-.9-.2-2.4-.2-3.3.2-.3.1-.5.2-.8.3h.1c-.7.3-1.3.4-2 1-.2.2-.4.3-.7.4-.9.4-1.8.6-1.8.6s-1.6-.1-2.4-.1c-.5 0-1.2 0-1.4.2-.3.1-.3.3 0 .7.7.8 3 1.5 3.2 2 .3.4.6 1.7.2 2-.5.2-1.1 0-1.1-.8 0-.5-.1-.8-.3-1h-.3c-.2-.1-.5-.3-.9-.4-1.1-.4-1-.1-1.8-1h.3l-.2-.2c-.8-.8-1.6-.9-2.1-.5-.2.1-.3.2-.4.4-.4.6-.3 1.6-.6 1.9-.5.1-1.1.5-1.2-.2h-.2v-.1c0-.4-.1-.9-.1-1.3h.2c-.1-.6-.2-1.1-.5-.7-.1 0-.2.1-.3.3-.6 1.1-.9 1.1-.9 1.6s.6 1.1.4 2.1c-.2 1-.2 1.6.1 1.6.3 0 .9-1 1.7-1.2.8-.2 2.3-.8 2.4.2.1.9.8 1.2.4 1.6 0 0-.1 0-.1.1-.9.4-1.9.2-2.1-.4v-.1h-.2c-.3-.4-.8-.4-1.4.1-.6.5-2 2.5-2 2.5s-1.6.9-2.2 1h-.2c-.2-.2.3-.9.9-1.4h.1c.2-.2.5-.5.7-.6.5-.4.9-1 1-1.5h-.1v-.4c-.1-.1-.2-.5-.3-1h.2c-.2-.7-.3-1.7-.2-2.1v-.1h-.1c.2-.4.7-1 .2-1.4h.2l-.3-.3c-.9-.5-1.6-1.2-2.3-1.5-.2-.1-.5 0-.7.2-.6.3-1.2 1.4-1.7 1.7-.6.4-.6 1-1.4 1.1-.8.1-1.4 1.4 0 2.2 1.4.8 1.8 1.3 1.5 1.7-.2.1-.4 0-.6 0h-.6c-.4-.1-.6-.2-.6-.2s-1.2-.7-1.9-.7c-.6 0-1.4-.4-2-.6h.6c-.3-.1-.5-.2-.7-.2-.7-.1-1.9-.1-2.4.2h.1c-.2.1-.3.1-.4.2-.2.3-.7.9-1.2 1.2-.2.1-.4.1-.6 0h-.3c-.6-.4-.7-.7-1.6-.3-1 .4-2-.3-2.6.3-.1.2-.2.3-.3.4-.2 0-.4-.1-1.1-.4h-.5c-1.2-.5-1.4-.1-2 .3-.2.1-.5.2-.9.3-1.5.3-2.5-.2-3 .2-.1 0-.2.1-.3.2-.5.7-1.1 1.9-1.4 1.1h.2l-.1-.1c-.2-.6.4-1.5.5-2.1h-.2c0-.1 0-.2-.1-.3-.5-.4-2.4-.2-2.7.1-.3.3-.1 1.5.1 2 .2.4.4 1.7.1 1.9h-.2c-.6-.3-.5-1.4-1-1.3-.6.1-1.2.4-1.5.7-.3.2-1.4.2-1.7.7-.2.4 0 1.3-.2 1.6-.4.1-.8.5-1.8-.2-.7-.5-.9-.5-1.1-.3-.2 0-.2.2-.4.3l-.1.1c-.5.3-1.3.7-1.3-.1-.1-.7 0-1-.1-1.4h-.2c-.1-.1-.2-.3-.4-.4-.8-.7-.2-.7.9-.2 1.1.4 2.5.7 4.5-.1 1.1-.4 1.8-.7 2.1-.9.5-.3.5-.5.1-.7-.4-.2-.8-.7-1.3-1.2h-.3c-.4-.3-.8-.6-1.3-.7-1.3-.2-3.2.7-5.2-.1-.5-.2-.9-.4-1.3-.6h.4c-1.2-.5-1.6-.8-2.3-1-.4-.1-1.5-.6-2.9-1.2h-.5c-1.7-.7-3.8-1.3-5-1.1-.7.1-1.8.6-3 1.1h-.9c-1.5.7-3 1.5-4.2 2.2-1 .6-1.7 1-1.9 1.1-.4.3-.9 1.6-2.1 2.7-.5.4-1 .8-1.7 1.2-1 .6-2.1 1-3.2 1.3-.3.1-.6.2-.8.4-1.6.9-3.2 3.4-3.2 3.8 0 .4.7 2.1.6 2.4-.2.3.4 2 1.4 2.4 1 .4 2.8.3 2.9-.3 0-.2.1-.4.3-.6h.1c.2-.3.5-.6.7-.8.3-.1.5-.1.5.3.1 1 1 2.5.8 3.2-.2.7 0 1.3.6 1.2.6-.1 4.1-1 4.1-1s.1-.1.3-.2c.2-.1.9-.6.8-1.3h-.2c-.1-.4.2-1 .6-1.4h.1c.4-.5.8-.9 1-1.1.1-.2.5-.6.6-1.1h-.2c.1-.4 0-.7-.5-.9-.6-.2-1.1-.3-1.3-.6h.3c-.4-.3-.5-.6.3-1.4.1-.1.2-.2.4-.3 1-.6 1.8.1 3.2-1.5l.3-.3h.1c.9-1.2.3-1.9.5-2.2h-.2c.1-.1.3-.1.6-.1 1.8-.1 3.6-.2 3.2.4-.2.4-1.1 1.1-2 1.7l-.1.1c-.5.4-1.1.7-1.5.9-1.2.7-1 1.9-.6 2.5.5.7.6 2.2 1.5 2 .8-.2 1.8-1 2.8-.9.9.1 2.8-.1 3-.1.3 0 1.3 1.2 1 1.6-.7.2-1.7.1-3.2.2-1.5.1-3.1.1-3.3.4-.1 0-.2.1-.2.2 0 .3 2.1 1.1 1.4 1.6-.7.5-1.5-.1-2.4-.2-.9-.1-1.5 1.4-1.8 2.3-.2.6.1 1.5-.2 1.8-.1 0-.3 0-.6-.1h-.5c-1.2-.4-2.1-.4-2.4-.2-.4.2-1-.2-2 .1-.1 0-.2.1-.2.1h-.2c-.4.1-.7.1-1.6.1h-1.2l-.7.1-.2-.2h-.3c-.2-.2-.4-.6-.5-1.1v-.4h.2c0-.8.3-1.6-.1-1.8-.4-.2-1.5 0-2.1.4-.2.1-.4.3-.5.5-.3.7-.6 1.9-.2 2.4.3.4.8 1 .9 1.2h-.2c-.9-.3-2.1-.4-2.9.1-.1.1-.2.1-.3.2-.7.7-2 2.1-2 2.1h-.6c-.5.1-1.1.2-1.4.5-.2.1-.3.2-.3.4 0 .7 0 1.5-.8 1.6-.8.1-1.9.4-3 .7-.5.1-.8.3-1 .4-.3.2-.5.3-1.1.3-.5 0-.8.2-1 .3-.5.2-.3.6.5.8 1.2.2 3 1.1 3.1 2.1.1 1-.1 2.1-.6 3-.3.7-2.2.2-3.3.2-1.1 0-3.3-.4-4.2 0-.9.4-.7 2.6-.5 3.6.3 1-.1 1.5-.5 1.9-.4.3-.5 1.3 0 1.7.5.4.8 1.4 1.2 1.5.4.1 1.6-.3 2 .2.5.5.9 1.9 1.2 1.5.1-.1.2-.4.4-.7h.1c.1-.3.3-.6.4-.8h.2c.5.3 1.6-.1 2.4-.2.2 0 .4-.1.6-.2.4-.2.7-.6 1-1h-.1c.2-.2.4-.4.6-.5.7-.4.5-.5.3-.9h.2c-.1-.1-.2-.2-.2-.4-.2-.5.5-1.1 1.1-1.7h-.1l.3-.3c.6-.8 1.8-.1 2.1-1v-.1h.1c.2-.7.3-1.8.7-2.1h.2c.7.1 1.8.7 2.4.7.3 0 .8-.3 1.2-.6 0 0 .1 0 .1-.1.5-.3.9-.7 1-.8.4-.2 1.8-.1 1.9.9.2 1 1.7 2.2 2.1 2.4.4.2 2.8 1.1 3.1 1.4.4.3.9 1.3 1.1 2.2.2.8 1.1 1.7 1.3 1.3.1 0 .2-.1.2-.2h-.2c0-.3-.1-.9-.3-1.4h.2c-.2-.7-.3-1.3-.2-1.6.6.1 1.4-.2 1.4-.2.1 0 .2-.1.2-.1s-.1-.1-.3-.2h-.3c-.6-.4-1.5-1.2-2-1.4h-.1.4l-.1-.1c-.6-.3-1.8-1-2.4-2.1h-.2c-.4-.7-1.1-1-1.5-1.4h.3c-.3-.3-.4-.5-.4-1 0-.2.1-.3.2-.4.5-.1 1.2.4 1.8 1 .7.9 2.6 2.1 3.2 2.8.6.8 1.7 1.1 1.9 2.1.3 1 1.1 2.1 1.4 2.5.3.4.4 3.9.7 4.4.2.3.8-.1 1.4-.7.5-.4.9-.9 1.1-1.1.4-.4 1-.6 1.2-1.1h-.1c0-.1.1-.2.1-.3 0-.4-.2-.8-.6-1.1h.3c-.4-.4-.8-.7-1-.8-.1-.1-.1-.2.1-.3.3-.2.7-.3 1-.5.1-.1.2-.1.3-.2.1-.1.2-.1.2-.2.5-.4 1-.7 1.3-.2.4.7.2 3.3.4 3.7.2.4 2 1.1 2.4 1.6.4.5 1.9.8 2.2.4.3-.3 1.8.2 2.1.3.4.1 1.5-.2 2.2-.4.7-.2 1.5-.9 1.4.5-.1 1.4-.4 3.6-1.3 4.7-.6.7-.7 1.2-.9 1.5-.1 0-.2.1-.4.1-.4 0-.8 0-1.1.2-.3-.6-.7-1-1.3-.8-.8.2-1.7.3-2.5.8-.4.2-.7.5-1 .9-.4.6-.7.9-.9 1.1h-.5s0-.1-.1-.1c-.1-.2.6-.8 1.2-1.3.7-.6 1.4-1.3 1.2-1.6-.4-.5-2.6-.3-3.8-.3-.4 0-.7-.1-1.1-.2h-.5c-.6-.3-1.2-.6-1.7-.8-.9-.2-1.4 2-2.3 3.1-.6.7-1.4.2-2.2-.2h.4c-.4-.3-.9-.5-1.2-.5-.8 0-2.4-1.4-2.4-1.4s-.2-.1-.5-.2h-.4c-.5-.2-1.1-.4-1.5-.4-.4 0-1.1-.6-1.6-1h.3c-.4-.3-.7-.5-.8-.5-.3 0-1.3-.9-.7-1.4.8-.3 2.1.4 1.5-1.7h.2c0-.1 0-.1-.1-.2-.7-2.4-3.2-1.9-3.9-1.6-.6.3-5.3.2-5.6.2-.4 0-3 1.1-3.9 1.5-.1 0-.1.1-.2.1h0c-.8.4-2.3 1-2.7 1.2-.4.2-2.3-.4-3.1.1-.9.6-1.7 1.4-2.1 1.7h-.1c-.1 0-.2.1-.3.1-.3.2-1.1.9-1.5 2.4-.5 1.6 0 2.9-.8 3.5-.8.4-2.1 1-3 1.6-.4.3-.8.5-1 .8-.7.9-1.3 4.2-2.2 5.7-.9 1.4 0 2.7.2 3.6.2.9.8 2.5-.2 4-.8 1.3-.9 2-1.2 2.3-.1 0-.1 0-.1.1h-.1c-.5.1.5.5.6 1.6.2 1.1-.8 2.2.9 3.2 1.8 1 3.4 1 3.8 2.3.5 1.3 2 4.3 2 4.3l2.5 2.5c.5.5.8.5 1 .3.1 0 .3-.2.3-.4h-.1c0-.1.1-.2.1-.3.2-.8 1.3-.9 2.6-.9s2.2.3 3.5.1c.3-.1.7-.2 1-.5.8-.5 1.4-1.5 1.8-1.8.5-.2 2.4-.5 3.5.4 1.2.9 1 2.1 1.7 2.8.6.8 1.7.3 2.6-.4.8-.8.5-.4 1.5.2 1 .7 1.5 1.3.6 2.3-.9 1-.4 2.5-.9 4-.6 1.5.5 1.5 1.5 2.2 1 .7 1.9 4.9 2.4 5.7.6.8-.2 2.9.5 4.2.6 1.3.9 2.1.2 2.8-.7.7-1.7 1.9-1.8 4.1-.1 2.2.4 3.7.7 4.5.4.8 1.3 2.8 1.8 3.6.5.8 2 2.2 2.1 3.4.1 1.2-1.2 3.1-.8 3.7.5.7.7 1.6 1.6 2.5.8.9 1.1 2.7 1.1 2.7s.3.8.4 2c.1 1.2.2 2 1.1 2.5.9.5 1.6.7 2 .1.5-.5 2.4-1.6 3.6-1.5 1.1.1 2.6.3 3.8-.5.2-.1.3-.2.5-.3l.8-.8h-.1c.4-.4.8-.9 1.2-1.4h.1c.7-.9 1.3-1.7 1.6-2.1h-.1c.3-.4.8-.9 1.2-1.4h.1c.4-.6.8-1.1.7-1.6 0-.2-.1-.4-.2-.6h-.2c-.2-.5-.5-1-.5-1.4h.2c0-.3 0-.5.1-.6.7-.3 2.2-.6 2.9-1 .3-.1.4-.3.5-.4h-.2c0-.3-.1-.8-.2-1.4h.2c-.2-.8-.4-1.7-.5-2.2h-.2c0-.1 0-.1-.1-.2-.1-.3.1-.7.3-1.2h.1c.2-.4.6-.9.9-1.5.2-.2.4-.5.6-.7h-.1c.5-.5 1.2-1.1 1.6-1.4.3-.3.6-.5.7-.6.2-.2.8-.8 1.3-1.5h-.1c.3-.4.6-.9.7-1.4h.1c0-.1.1-.2.1-.3.1-.6 0-1.3 0-1.9h-.2c-.1-.5-.1-1-.1-1.4h.2c0-.2 0-.4.1-.6.3-.5.2-1-.2-1.5h-.2c-.1-.2-.3-.4-.5-.6-.2-.2-.4-.5-.5-.8h.2c-.3-.7-.4-1.6-.6-2.2h-.2c0-.1-.1-.3-.1-.3-.1-.1-.1-.6-.1-1.1h.2c.1-.7.2-1.6.5-2.2h.4c.1-.2.2-.3.3-.3.2-.1.6-.6 1-1.1h.1c.5-.7 1-1.6 1.4-2.2h-.1s0-.1.1-.1c.2-.3.6-.8 1-1.4h.1c.5-.7 1.2-1.5 1.8-2.2h-.1c.4-.4.8-.7 1.1-.7.4-.1.8-.3 1.2-.7.7-.6 1.4-1.5 1.6-2.2h-.1v-.1c0-.3.3-.8.6-1.3h.1c.4-.7.8-1.4 1.3-2.2h-.1c.3-.6.6-1.1.8-1.4h.1c.1-.3.2-.5.2-.6 0-.3.2-.9.4-1.5h-.1c.1-.5.3-1 .3-1.4h.2c.1-.6.1-1 0-1.3-.5-.7-4.1 1-4.5 1.2 0 0-.1 0-.1.1h0c-.5.2-1.8 1.1-3.2 1-.8-.1-1-.5-1-1h.2c0-.4.1-1 .1-1.3 0-.2-.2-.5-.4-.9h-.2c-.3-.5-.6-1-.9-1.4h.3c-.3-.5-.7-.9-.8-.9-.2-.1-.7-.6-1.1-1.2h-.6c-.3-.4-.5-.9-.7-1.4h.2v-.1c-.3-.8-1.2-1.5-2-2.1h-.3c-.4-.3-.8-.6-1-1-.1-.1-.2-.3-.2-.5h.2c-.2-.5-.2-1.3-.2-2.2h-.2v-1.4h.2c0-.6-.1-1.2-.3-1.6-.1-.2-.2-.4-.2-.6h-.2c-.2-.5-.4-.9-.6-1.4h.2c-.3-.7-.6-1.5-.9-2.2h-.2l-.3-.6c-.1-.3-.3-.5-.4-.8h.2c0-.1-.1-.2-.1-.3.8-.3 1.9-.6 2 0 .2.8 1.2 2.4 1.4 3.6.2 1.2 1.2.8 1.3 1.9.1 1.1 1 3.7 1.4 4 .4.3 2 2.1 2.3 2.7.3.7.6 1.5.9 3.2.3 1.6.6 3.8 1.3 4.1.7.3 3.2-.5 3.7-.9.5-.3 3.5-2.1 4.6-2.2 1.1-.1 1.3-1 2.7-1.3.6-.1 1.1-.4 1.6-.8.7-.5 1.4-1.2 1.9-1.7l.1-.1h-.1c.3-.4.7-.9 1-1.4h.1c.5-.8.9-1.7 1.2-2.2h-.1c.3-.5.8-.9.9-1.4h.1c.1-.3.1-.5 0-.8-.2-.4-.7-.9-1.3-1.3h-.3c-.6-.5-1.3-.8-1.7-.9-.3 0-.5-.3-.6-.6h.2c-.2-.4-.3-1.1-.6-1.1-.1 0-.2.1-.3.1-.4.1-.3.8-1.2 1.3-.5.3-1 .8-1.5 1.1-.3.2-.6.3-.8.2-.2-.1-.2-.1-.3-.2h-.1c0-.3.1-.8-.6-1.4h.3l-.1-.1c-1-1-1.4-1.2-1.4-2v-.1h-.2c-.2-.4-.6-.9-1.1-1.4h.3c-.5-.6-1-1.2-1.1-1.7v-.4h-.1c.3-1 1.4-1.9 1.8-1.1.5 1 .8 2.5 2 3.2 1.2.7 2.3 1.7 2.9 2 .6.2 1.9-1.2 2.4-1 .5.2 1.4 2.2 2.2 2.5.8.3 3.6.4 4.1.4.4 0 2 .1 2.6-.4.1-.1.3-.2.3-.3.1-.2.2-.4.4-.5.2-.1.3-.1.6-.1.5 0 1.3 2 1.9 2.2.6.2 1.8.1 1.8 1.5-.1 1.4.6 2.6 1.2 2.7.2 0 .4-.1.7-.3.1 0 .2-.1.2-.2.6-.5 1.2-1.2 1.2-1.2s0 2.7-.1 3.7 1 4.6 1 4.6 1.4 3.4 1.7 4.1c.4.8 1.9 3 1.9 4s.2 2.5.7 2.5c.3 0 .6-.6 1-1.2h.1c.3-.5.6-1.2.9-1.7.1-.2.2-.3.3-.5h-.1c.3-.5.6-1 .8-1.4h.1c.2-.4.4-.8.5-1.3.1-.2.1-.6.1-.9h-.2c0-.5-.1-1-.1-1.4h.2c-.1-.8-.2-1.7-.2-2v-.1h-.2c.1-.5.4-1 1.1-1.4.1-.1.2-.1.2-.2.1-.1.3-.2.4-.2.2-.1.3-.2.5-.3.5-.4 1-.9 1.4-1.4h-.1c.4-.5.8-1 1.2-1.4h.1l.4-.4c.6-.5.8-1.2 1.3-1.8h-.1c.4-.4.9-.7 1.9-.7 2.2 0 2 0 2.6-.7h.1l.1-.1c.2-.2.3-.4.5-.5.3-.1.6 0 .7.7.3 1.2 1.8 2.9 2.1 3.4.3.4.8 1.6.7 2.9-.1 1.3-.6 4.9-.1 4.9.1 0 .3-.2.5-.6h.1c.3-.5.7-1.4 1.1-2.2h-.1c.3-.7.5-1.2.5-1.2s.1-.1.4-.3l.1-.1c.6-.4 1.5-.7 1.4.4-.1 1.7.2 3.6.2 4.7s1.7 3.7 1.7 3c0-.2.1-.5.2-.9h.1c.2-.7.4-1.5.5-2.2h-.2v-.4c0-1 .5-.5 1.7.4 1.2 1 2 2.9 2 2.9s1.2 3.7 1.3 4.2c.1.3.6-.5 1-1.4h.1c.4-.8.7-1.6.9-1.9 0-.1.1-.2.1-.2h-.1c.2-.4.4-.7 1-.9.5-.1 1.1-.2 1.5-.6.3-.2.5-.5.6-.9l.3-1.2h-.1c.1-.5.2-.9.2-1.4h.2c0-.5-.2-1-.5-1.6-.1-.2-.2-.4-.4-.6h-.2c-.4-.5-.7-1-.9-1.4h.2c-.4-.6-.8-1.1-1.2-1.5-.2-.2-.4-.4-.5-.7h-.2c-.3-.5-.5-1-.7-1.4h.2c-.1-.4-.2-.6-.2-.6s.8-.8 1.4-1.5h-.1c.3-.3.6-.7.8-.9.6-.7 1.4-.2 1.5.5.1.8-.8 1.4-1 3.1-.2 1.6 1.1 2.2 1.5 1.6.1 0 .1-.1.2-.1.1-.2.3-.4.5-.7h-.3c.4-.6.8-1.2.8-1.4h.2v-.1c0-.3-.6-.2-.7-1.4 0-.2 0-.5.1-.7h-.1c.3-.8 1.2-1.2 1.5-1 .5.3 3.4-.4 4.8-1.3 0 0 .1 0 .1-.1 0 0 .1 0 .1-.1.5-.3.9-.7 1.3-1.2h-.1c.4-.5.7-1 1-1.4h.1c.2-.3.5-.6.7-.8.3-.3.8-.8 1.4-1.3h-.1c.5-.5.9-1 1.3-1.4h.1c.5-.6.9-1.3.8-1.7v-.4h-.3c0-.4 0-.9-.1-1.4h.2c0-.7-.1-1.4-.4-2.2h-.2c0-.1-.1-.1-.1-.2-.2-.5-.5-.9-.7-1.2h.2c-.6-.9-1.1-1.6-1.4-2v-.1h-.2c.1-.5 1.6-.7 2.4-1.4.1-.1.2-.1.2-.2.9-1 0-1.9-.5-1.7-.5.1-1.7.4-2.1.3-.3-.1-.5-.3-.7-.5h-.3l-.6-.6c-.3-.2-.3-.5-.2-.8h.2c0-.3.2-.5.4-.7.1 0 .2-.1.3-.1.2 0 .4-.1.7-.3.4-.3 1-.8 1.4-1.2h-.1c.1-.1.2-.1.2-.2.6-.5 1.4-1 1.1-.4-.3.5-.9 2.5-.2 2.6.3 0 .7-.2 1.2-.5.4-.3.9-.6 1.2-.9.2-.1.3-.2.3-.1.3.1.7 1.5.5 2.2-.3.7-.3 1.7.1 1.6.1 0 .2-.1.3-.2.2-.1.4-.3.6-.5.2-.1.4-.2.4-.1.2.3 1.1 1 .6 2.2-.5 1.2-1.4 1.6-.3 2.4.8.5 1.2.4 1.6.1.3-.2.5-.4.9-.6l.3-.3h-.1c.3-.4.4-.9.6-1.4h.2c.2-.8.2-1.6 0-1.9 0-.1-.1-.1-.1-.2h-.2c-.3-.4-.6-1-.9-1.4h.2c-.3-.5-.5-.9-.5-1.2 0-.1.1-.2.1-.2.4-.2.9-.3 1.3-.6.1 0 .2-.1.2-.2.1-.1.1-.2.1-.3 0-.4.2-.8.4-1.1h.1c.2-.4.6-.7 1-.8l.1-.1c.4-.3.9-.9 1.3-1.2h.2c.3.4 1.7.9 2.3.4.1 0 .2-.1.3-.2l.3-.3h-.1c.3-.4.8-.9 1.4-1.4h.1l2.2-2.2c.1-.1.2-.2.4-.3.4-.4.7-.7 1-1.1h.1c.5-.7.9-1.4 1.1-2.2h-.1c.1-.4.2-.7.3-1.1 0-.1.1-.2.1-.4h.1c.2-.8.5-1.5.6-2.2h-.2c.1-.4.1-.8 0-1.2.6 1.5.6 2.6.6 3.8-.1 1.2 0 3.7.2 4 .2.3.9 1.1 1.4.9 0 0 0-.1.1-.1h.1c.1 0 .1-.1.1-.2h-.2c0-.4 0-.9-.1-1.4h.2c-.1-.5-.2-1-.2-1.2 0-.3.3-.7.7-1 .1 0 .1-.1.2-.1.2-.1.2-.7 0-1.3h.2c-.1-.5-.3-1.1-.5-1.5-.2-.3-.3-.5-.5-.7h-.3c-.2-.3-.4-.5-.2-.5.3-.1.6-.6.6-.9h.1c.1-.2 0-.3 0-.4-.3-.2-.1-1-.7-.8-.4.1-1.2 0-1.5.3-.1.1-.2.1-.3.2-.3-.8-.8-1.3-1.5-1.2-.8.1-1.3.7-2.1.7-.5 0-.5-.5-.4-1h-.2c0-.2 0-.4-.1-.4-.2 0-.5.4-.9.7-.2.1-.4.2-.6-.1v-.1h-.2c-.1-.7 1.5-1.6 2.7-2.1l.6-.3c.4-.3.9-.7 1.4-1.2h-.1l1.4-1.4h.1c.3-.3.6-.6.9-.7.1-.1.2-.1.3-.1.9-.1 3.2.2 5.3.1 2-.1 2.7-1.1 3.3-.5.6.5 2 1.2 2.9 1.1.5-.1.6-.1.8-.2.2-.1.4-.3 1.2-1 .3-.3.7-.5 1-.8.7-.5 1.4-.9 1.8-1.4h.1l.3-.3c.1-.2.4-.4.6-.5.8-.5 1.7-.6 1.7 0 .1.9-.2 1.7.6 1.7.7 0 1.8-.9 2.8-1.3.5-.3 1-.6 1.3-.8.1-.1.2-.1.3-.2-.5.4-3.6 2.9-4.5 3.6-.7.4-1.8.8-2.8 1.3-.5.3-1 .6-1.4 1.1-.9 1.3-1.5 1.7-1.4 3.2.1 1.4 1.7 3.3.9 4.6-.7 1.3-1 3.2-1 3.2s.3-.5.9-1.2h.1c.5-.6 1.1-1.4 1.9-1.9.1-.1.2-.1.3-.2l1.4-1.4h.1c.6-.8 1.1-1.5 1.4-1.8l.2-.2c.7-.4 1.8-.6 1.8-1.2v-.4h.2c.1-.7.4-1.4.6-2.2h-.1v-.1c.2-.7-.3-.7-.2-1.3h.2c0-.1.1-.3.2-.5.3-.6.4-1.2 1-1.5.4-.2 1-.3 2-.3 2.3-1.8 1.3-1.6 3.6-1.7zm-151.1-1.2s0-.1.1-.1h.1c.1-.2.2-.3.3-.4.9-.3 2.5 1 2.1 1.6-.1.1-.2.2-.3.2h-1c-.7-.2-1.5-.7-1.3-1.3zm11.5 25.6c-.7.2-2.9.4-3.8.3-.6-.1-1.2-.5-1.9-.9h.4c-.4-.2-.9-.4-1.3-.5-1-.2-2.1-.1-2.8.3-.2.1-.4.3-.5.5-.5.8-2.1.4-2.9.4-.7 0-1.7 1.1-1.8.7 0 0 .2-.7.2-1.3h.2c0-.4 0-.9-.2-1-.3-.1-.2-.7.1-1.2h-.1c.2-.3.4-.5.6-.6.2-.2.5-.5.7-.8h.1c.4-.5.8-1.2 1.1-1.9 0-.1.1-.1.1-.2h-.1c.5-.8 1.1-.9 1.6-.8.5.1 1.5 2.1 1.7 2.7.2.4.7.2 1.1-.1.3-.2.5-.4.7-.5.4-.2.9-.9 1-1.4h-.1c.2-.5.9-.8 1.8-.8.7 0 .4.5 0 .8-.1.1-.2.1-.4.2-.1 0-.2.1-.2.1-.5.2-.1.6.9 1.1 1.1.4 2.1 1.6 3.3 2.4 1.1.8 1.3 2.3.5 2.5zm14.4-5.3c-.6.3-1.9.5-2.4-.1-.3-.3-.8-.3-1.2 0-.4.2-.8.7-.9 1.4-.1 1.2.4.3.9.8.6.4.7 1.1 1.1 1.7.4.7 1 .4 1.5 1 .5.5-1.3 1.2-.6 1.9.7.7 1.1 3.3 1.2 3.9 0 .1-.1.3-.2.4-.6.3-1.8.5-2.3.4-.6-.1-2.6-.9-3.2-1.1-.1 0-.3-.2-.4-.4h-.2c-.2-.4-.3-1-.2-1.4h.2c0-.4.1-.7.2-.8h.1c.4.1.7 0 1-.2.3-.2.6-.5 1.1-1.1h-.1c.6-.8-1-1.2-1.9-1.4h.6c-.3-.1-.5-.1-.7-.2-.4-.1-1-1.1-1.6-2h-.2c-.3-.5-.6-1-.8-1.3 0 0 0-.1-.1-.1h.2c-.3-.6-.2-1.4.4-2.2h-.1c.2-.2.3-.4.6-.5.6-.4 2 .5 2.8 0 .4-.3.8-.6 1.1-.9.3-.2.5-.4.6-.5.4-.1 2.1.4 2.3 1 .5.4 1.6 1.3 1.2 1.7zM307.7 220.1c.1-.4-.2-.5-.2-.2-.1-.2-.4 0-.1.5.1-.1.1-.2.1-.3h.2z"/><path fill="#57534C" d="M252.4 228.7c.6.2 1.7.3 2.8 1 .9.6 2.2.9 2.9.3.1-.1.3-.2.4-.3.2-.3.3-.6.2-.9h-.2c-.1-.4-.3-.8-.6-.9-.2-.1-.4-.3-.4-.6h.2c-.1-.3.1-.8.8-1.3.4-.2.8-.5 1.2-.8.8-.5 1.6-.9 2.5-1.1 1.4-.2 4.5-.3 5.6 0 .5.1 1-.1 1.5-.5.8-.5 1.6-1.4 1.8-1.8.1-.1.1-.2 0-.3h-.2c-.3-.5-1.6-.7-2 0 0 .1-.1.1-.1.1-.9.6-3 .4-3.5.2-.6-.2-5 .9-5.9.9-.2 0-.5.1-.7.3-.6.3-1.1 1.3-2.1 1.8l-.6.3c-1.1.6-2.3 1.3-2.8 1.5 0 0-.1 0-.1.1h-.1c-.5.4-1.2 1.7-.6 2zM346.5 272.8s0 .1 0 0c-.3 0-1.5.5-2.2 1-.3.2-.7.4-.8.6-.6.7-3.2-.5-3.6 0-.4.5-1.1 1.2-1.6 1.6-.3.2-.8.2-1.1.4-.3.1-.5.4-.4 1 .3 1.3.9 2.5 1.5 2.5.2 0 .5-.1.7-.3.2-.1.5-.4.6-.7h-.1c.1-.2.1-.4.1-.6 0-1.2 1.3 0 1.9-.1.4-.1.6-.3.8-.7h.1c.2-.3.3-.6.4-.9.1.2.2.5.7.6.5.1.9 0 1.1-.1.4-.2.6-.6.6-.8 0 0 0-.1.1-.1.6-.3 1.8-.7 2.1-.9.3-.3 1.7-.8 1.9-1.2h.1c.1-.1.1-.1.1-.2.1-.2 0-1.2.1-2h-.2c.1-.5.1-1 .3-1.1.2-.1.5-.2.6-.4h.1c.2-.2.3-.5-.1-1.5-.1-.2-.2-.4-.3-.7h-.2c-.2-.6-.4-1.1-.6-1.4h.2c-.2-.4-.4-.5-.8-.2 0 0-.1 0-.1.1-.7.5-.3 2.4-.8 3.7-.5 1.1-.9 2.1-1.2 2.4zM320.8 331.3c.1 0 .2-.1.2-.2.1-.7-1-1.6-1.5-1.6-.1 0-.4-.1-.7-.1h-.6l-1.6-.4c-.3.2-.8.3-1 .5 0 0 0-.1-.1-.1h-.3l-.1-.1c-1-.7-2.2 0-2.6-.9-.1-.2-.2-.4-.3-.5h.3c-.3-.4-.6-.4-.9-.2-.1.1-.3.2-.4.3-.7 1 .2 1.7.5 2 .3.2 1.3.4 2.2.3.5-.1 1.2-.2 1.4-.4 0 0 .1 0 .1-.1 0 .1.1.2.2.4.7.8 1.2 1.1 2.3 1 1.1-.1 2.6.5 2.9.1zM325.6 332.5c-.2.8.8 1.2 1.3.8.1-.1.3-.2.3-.4h-.1v-.1c.1-1-1.3-1.1-1.5-.3zM325.6 325.3c.5.4 1.3-.6 1.8-1l.2-.2c.2-.1.3-.1.4.1.4.8-.1 1.1.6 2.1.6 1 1.8.9 1.8.9v-.1h.2s0-.6-.2-1.3h-.2c-.1-.5-.3-1-.5-1.4h.2c-.1-.2-.3-.4-.5-.5-.7-.4-1.1-.9-1.1-1.1h.5c.7.1 1.2 0 1.4-.3.1-.1.3-.2.3-.3h-.1v-.4c-.3-.7-2-.3-2.6-.2-.6.1-1.4-.4-1.4-.4-.6.2-.5.8-.6 1.8-.2 1-1 1.8-.2 2.3zM336.4 317.4c-.8-.4-2.4 3.6-1.3 3.9.3.1.6-.2.9-.6h.1c.3-.5.6-1.4.7-2.2h-.2c.1-.5 0-1-.2-1.1zM321.5 314c-1.7 0-1.8 1.6-2.2 2-.1.1-.1.1-.2.1-.3.2-.6.3-1.1.4-.2.1-.3.2-.4.3-.5.3-.7 1-.8 1.5-.2.5-1.5-1-1.8-.5-.4.4-.1 2.5.6 4.2.6 1.7 2.3 2.8 2.8 2.8s1.4 0 2 .2c.6.2 2.8.4 2.7-.5v-.2h.2c-.1-.6-.1-1.4 0-2.2h-.1c.1-.4.3-.8.6-1.2l.3-.3h.1c.7-.7 1.4-1.2 1.3-2.2h-.5c0-.2 0-.3-.1-.5-.1-.3-.2-.6-.4-.9h.2c-.4-1-.9-1.6-.4-2.1h-.1c.6-.6 1.2-.8 1.2-1.3 0-.4-.8.5-1.3-.1h.3c-.3-.2-.5-.8-.6-2v-.1h-.7l-.1.1c-.4.2-.9.7-.9 1.1 0 .8 1.1 1.4-.6 1.4zM326.1 300.6c.6 1.3 2.5 2.3 2 2.8s-1.8 1.6-2 2.6c-.1.3.2.3.5 0 .5-.3 1.3-1.1 1.9-1.9h-.1c.2-.2.4-.5.5-.6.6-.9 1.7-.5 2.1-.9.1 0 .2-.1.3-.2l.3-.5s-1-.2-1.8-.5-1.8.8-1.4-.8h-.1c.2-.8.6-1.2 1-1.4.5-.4.9-.6.7-1.4-.1-.3-.2-.6-.3-.8h-.2c-.4-.6-.9-.7-1.1-.7-.6 0 .1 1.2-.8 2-1 .7-2 1-1.5 2.3zM109.2 240.6c-.1.1-.2.1-.3.2-.7.4.1 1.1.7.8.1 0 .1-.1.2-.1.6-.3.3-1.2-.6-.9zM92.6 223.4c-.2.1-.4.2-.4.4-.3.8 2.5 1.2 2.2.3-.1-.2-.2-.3-.3-.4h.3c-.5-.5-1.3-.6-1.8-.3zM17.7 234.5h.3l-.1-.1-.2.1zM105.8 239.8c-.1.1-.2.1-.3.3-.2.3 1 .8 1.3.4.1 0 .2-.1.2-.1.2-.5-.6-1.1-1.2-.6zM312 221.6s.1 0 0 0zM90.5 225.9c-.5-.4-2.1-.1-2.5.1-.4.2-1.7-.4-2.4.1 0 0-.1 0-.1.1-.4.3-.2 1.4.5 1.5.7.1 1.8-.5 2-.1.1.4.6 2.4 1.7 1.7.1 0 .1-.1.2-.1.3-.2.5-.3.7-.5h-.1c.3-.4.4-.6.6-.7.1 0 .1-.4.1-.7h.2c-.3-.5-.6-1.2-.9-1.4zM15.2 243.1c-.1 0-.3.1-.5.2 0 0-.1 0-.1.1h-.1c-.4.1.6.9 1 .9.1 0 .2-.1.2-.1.3-.1.7-.8.5-1.1h-1zM128.5 259.7c-.1-.1-.2-.1-.3 0h.3zM15.2 250.5c-.4.1-.3 1.1-.8 1.5l-.1.1c-.4.1-.8.3-1.1.4h.1c-.5.2-.9.5-.4.7.7.2 2.4-.1 2.6-.4 0 0 .1-.1.1-.2h.1c.2-.5.3-1.9 0-2-.2-.3-.4-.2-.5-.1zM83.3 222.3c-.1 0-.1.1-.2.1-.5.5 0 2-.2 2.1-.2.1.1.8.6.7.4-.1.7-1.1.9-1.4h.1s0-.1.1-.1c.4 0 2.3-.5 2.6.3.3.8.3.4 1.2.5.5 0 1-.3 1.2-.7h.1c.2-.3.4-.6.4-.8.1-.4-.4-1.1-1.6-.9-1.1.1-4.7-.3-5.2.2z"/><path fill="#57534C" d="M350.8 262.4c-.1 0-.2.1-.3.2-.6.3-.8 1.3-.8 1.6 0 .1-.4.3-.8.5-.1.1-.3.1-.4.2-.5.3-.9.7-.5 1.1.8.9 1.7.2 2.9.1 1.3-.1 2.5-.5 2.5-.5s1.1.1 1.5-.4c.2-.1.3-.3.3-.5h-.2v-.1c-.3-1.1-2.3-1.2-2.7-1.1-.1 0-.3-.1-.4-.2h.3c-.4-.4-.9-1.1-1.4-.9zM357.6 372.5c-.3 0-.7.2-1.2.5s-.9.6-1.1.6c-.5-.1-1.5-.5-1.5-.5 0 .1-.1.1-.1.1h-.1c-1 1.2 1 1.2.7 2.4-.3 1.2 1.4.8 1.8.5.2-.1.6-.8.9-1.5h.1c.3-.8.6-1.7.5-2 .1-.1 0-.1 0-.1zM364 358.1c-.1-.4-.3-.9-.5-1.4h.2c-.3-.7-.6-1.4-.9-2.2h-.2c-.2-.5-.4-1-.7-1.4h.2c-.3-.6-.5-1.1-.7-1.5-.1-.2-.2-.5-.3-.7h-.2c-.2-.5-.4-1-.5-1.4h.2c-.3-.8-.4-1.6-.4-2.2h-.2v-.4c.1-.6-1.2-.8-2.3-1.1h.7c-.8-.2-1.7-.4-2.1-.7-.3-.3-.5-.8-.7-1.4h-.2c-.1-.5-.2-1-.3-1.4h.2c-.1-.5-.2-1.1-.4-1.5-.1-.2-.2-.5-.3-.7h-.2c-.3-.5-.6-1-1-1.4h.3c-.3-.4-.7-.8-1-1.3-.2-.2-.4-.6-.5-.9h-.2c-.2-.5-.4-1-.5-1.4h.2c-.3-.8-.5-1.5-.6-1.4l-.1.1h-.1c-.3.2-1.1 3.4-.5 4.4.6 1-.3 2.9-.7 4.2-.3.9-1 .4-1.6-.2h.3c-.3-.3-.7-.6-1-.8-.7-.5-1.6-.9-2.3-1.3h-.3c-.2-.1-.3-.3-.5-.4-.2-.2-.2-.6 0-1h.1c.2-.7.7-1.5.8-2.2h-.2c0-.2 0-.3-.1-.4-.5-.8-2.9-.1-3.2-.1-.2 0-.6-.6-1-.9h.3c-.2-.2-.4-.3-.5-.3-.1 0-.1 0-.2.1-.4 0-.5 1.2-.5 1.8 0-.1-.1-.1-.2-.2h-.3c-.2-.3-.6-.7-1-1.2-.8-1 .1.7-.7 1.6-.8 1-.6.7-.9 1.7-.3.9-1 .7-1.7 0h.3c-.1-.1-.3-.3-.4-.5-.6-.8-1-.6-1.4-.3-.2.1-.4.3-.6.4-.5.3-1 2.1-1.3 2.6-.6.1-2.8-.8-3.2-.3-.1 0-.1 0-.2.1-.5.5.1 4 .1 4.5v.1c-.5.2-1.8.1-2.4.6 0 0-.1 0-.1.1h-.1c-.6.5-1.7.2-2.3.2-.6 0-2.9 2.1-3.6 2.6-.7.5-2 2.5-1.6 3 .4.5 2.4 1.9 1.9 2.1-.5.2-.7 1.7.4 3s.7 1.6.8 2.3c.1.7.6.9 1.3 2 .7 1.1-1.3 2-1.6 2.6-.3.7.6 1.6 1.2 2.2.6.5 1.9.2 2.8-.1.3-.1.7-.3 1-.6.5-.3 1-.7 1.3-.7.6-.1 3.7.9 3.7.9v-.2h.1v-.1h-.2c0-.3.1-.8.3-1.4h.1c.2-.8.4-1.7.7-2.1.8-.6 2.5 0 2.5 0s.8-.7 3-1.2 1.3.5 2.1.9c.8.3 1.9.5 2.6 1.1.6.5 0 1.9-.1 2.4s1.6.3 1.7-.2c0-.3.2-.5.4-.8h.1c.2-.3.6-.6 1-1 .8-.5.1 1.1.5 2 .4 1 .9-1.3.9-.2 0 .3.3.7.4 1 .1.3 1.3.4 1.3 1.5s0 1.7.3 2c.3.2 1.8 0 2.4 1.3.3.7.6.7.9.4.3-.1.6-.7.8-1h.1c.5-.2 1.5.4 1.8.8.2.2.4 0 .8-.2.2-.1.4-.3.7-.5.4-.2.8-.5 1.2-.6 1.4-.4 1.2-.3 1.6-1 .1-.2.2-.5.3-.9h.1c.2-.6.4-1.4.8-2.2h-.1l.3-.6c.2-.2.4-.5.7-.8h.1c.6-.6 1.4-1.4 2.1-2.2h-.1c.4-.5.7-1 .9-1.4h.1c.1-.2.2-.5.2-.7 0-.4-.1-.9-.2-1.4h-.2zM325.5 313.5h.3-.3zM332.9 304.2h-.4c-.1 0-.2-.1-.3-.1-.4 0-1.6 2.3.1 2.2.3 0 .5-.1.7-.2.8-.4.6-1.5-.1-1.9z"/><path fill="#57534C" d="M338.4 335.1c-.2-.2-.2-.2-.2 0h.2zM389.6 368.9c-.1-.1-.2-.2-.3-.2-.2 0-.3.1-.5.2h-.5c-.1 0-.2-.1-.4-.2-.8-.5-.7-.4-1.1-1.3h.2c0-.1-.1-.2-.1-.3-.4-.7-.5-1.5-.8-1.9h-.3c-.2-.1-.3-.1-.6 0-.4.2 0 1.4.4 1.8.4.4.6 2 .5 2.4-.1.4-1.7 1-.9 1.5.7.5 2.1 0 1.9.7-.2.7-.9 1.5-.1 1.7.3.1.6 0 .7-.2.3-.2.4-.5.6-.8h-.1c.1-.2.2-.3.2-.5.2-.3.3-.6.5-.9h.1c.2-.4.5-.8.9-1 .4-.3.3-.8.1-1.1h-.4zM385.1 372.5h-.3c-.2-.2-.4-.3-.4-.2-.1.2-.2.3-.4.5-.2.1-.4.2-.6.4-.2.1-.3.2-.5.4-.6.5 0 .8-1.6 1.9-1.6 1.1-3.5 2.3-3.9 3.3-.4 1 .4 1.5 1.8 1.6 1 .1 1.1.2 1.4 0 .2-.1.3-.2.6-.5h-.1c.1-.1.1-.2.2-.3.3-.4.7-.8 1-1.1h.1c.7-.7 1.4-1.4 2.2-2.1h-.1c.4-.5.7-1 .9-1.4h.1c.2-.7.2-1.3.2-1.3s-.2-.9-.6-1.2zM329.3 305.6l-.1.1h-.1c-.3.1-1.1 2.1-.1 2.1s2.8.3 2.4-.2c-.2-.3-.5-.8-.9-1.2h.3c-.4-.6-.9-1-1.5-.8zM354.5 326.5c-.2-.2-.4-.5-.6-.8h-.2c-.4-.6-.8-1.2-1.6-1.4h.5c-.1-.1-.3-.1-.5-.2-1.4-.3-1.7-.9-3.2-1.7-.2-.1-.3-.2-.5-.2h-.5c-1.6-.5-4-.4-4.1 0l-.1-.1h-.3c-.2-.1-.4-.3-.7-.4-1.1-.4-1.9 0-2.2-.8 0-.1-.1-.2-.1-.3h.2c-.2-.5-.7-.7-1.2-.3-.2.1-.4.3-.7.6-.7.8-1 .9.6 1.2 1.6.3 2 .3 1.4 1.2-.6.9-1.1 2-.6 2.1.6.1 2.2-.4 2.4 0 .2.4-.4.5 1.5.9 1.8.3 2.2 1.1 2.6 1.5.3.4 1.1 1.4 1 1.7-.2 0-.5.1-.7.3-.5.3-1 1-.5 1.1.6.1 2.2-.3 2.3 0 .1.3 1 2.4 1.9 2.3.2 0 .3-.1.4-.2h.1c.4-.3.7-.9.9-1.4h.1c.2-.4.4-.8.6-1 0 0 .1-.1.2-.1.7-.4 2-.5 2.2.3.2 1 .7 2 1.8 2.6 1 .6 2.2 1.2 2.4.8.1 0 .2-.1.2-.2 0-.2 0-.6-.2-1h-.2c-.2-.5-.4-1.1-.7-1.4h.3c-.2-.2-.3-.4-.5-.5-.4-.2-1.1-.9-1.5-1.7h-.2c-.3-.5-.4-.9-.4-1.2v-.3h.2c-.3-.6-1.3-.9-1.8-1.4zM332.3 330.5c-.1.1-.2.1-.3.3-.6.9-1.6 1.7-1.5 2.5.1.6.7.4 1.2 0 .2-.1.4-.3.5-.4l.3-.3s1.5-.2 1.5-1v-.2h.2c-.1-.6-1.2-1.4-1.9-.9zM250.8 336.5h-.2c-.1-.2-.3-.4-.4-.4-1.2-.4-1.3 1.4-2.2 2.6-.6.8-1.3 1.5-1.8 1.9-.1.1-.3.1-.4.1-.2 0-.6.1-1 .4-.6.4-1.3 1.1-.9 2.1.6 1.6.6 3.3-.1 4-.6.8.6 2.9.4 4.1-.2 1.2.3 2 1.6 2 .6 0 1.1-.1 1.4-.5.4-.3.7-.8 1-1.6 0-.1.1-.2.1-.4h-.1c.2-.5.3-1 .4-1.4h.1c.2-.8.3-1.5.6-2.2h-.1c.2-.4.3-.9.5-1.4h.1c.2-.7.4-1.5.6-2.2h-.1c.1-.3.2-.6.2-.7.1-.2.2-.4.2-.7h.1c.2-.6.4-1.4.5-2.2h-.2c0-.4.1-.8 0-1.1v-.4h.2c-.1-.6-.2-1.4-.5-2zM334.1 309.9c-.3-.8-1.5-1.9-1.5-1.9 0 .1-.1.1-.1.2l-.1-.1c-.5.7-.8 1.1-1 1.3-.3.1-.5-.1-1-.3-.4-.2-.9 0-1.3.3-.6.4-1.2 1-1 1.4.3.5 2.3-.1 2.8.9s.5 1.1 1.4.9c.2 0 .3-.1.5-.2.3-.2.7-.5.9-.9h-.1c.3-.5.4-1 .3-1.4l.2-.2zM167.5 228.8h-.2c-.1-.3-.3-.8-.4-1.2 0-.1-.1-.1-.1-.2h.2c-.2-.5-.5-1.5 0-1.9.1 0 .2-.1.3-.1 1-.1 2.9 1.2 3.3.6.2 0 .2-.2.2-.4v-.4h-.2c0-.5 0-1 .1-1.4h.2c.1-.5.1-.9.3-1.2.2-.4.5-.7.7-.9h-.1c0-.1 0-.2-.1-.3-.4-.2-.9.3-1.3-.8 0-.1-.1-.3-.1-.4h.2c-.2-1 .4-1.7.9-2.1l.1-.1h-.1c.3-.3.8-.9 1.3-1.4h.1c.6-.7 1.4-1.4 2-1.8.2-.1.3-.2.5-.2.8-.3 1.4-.9 1.6-1.5h.1c.2-.5.2-.9-.2-1-.8-.3-2.4-.9-3.5-.1-.2.1-.4.2-.5.4-1.2 1.2-1.9 2.2-3.2 1.9-.6-.2-.9-.6-1.2-1.1h.2c-.4-.7-.7-1.5-1.1-2.2h-.2c-.3-.4-.5-.9-.6-1.4h.2c-.2-.8-.2-1.6-.4-2.2h-.2c-.1-.3-.3-.5-.6-.5l-1.2.2s-1.4-.3-2.2-.1l-.9.3c-.6.3-1 .6-1.4.5-1.3-.3-2.4.4-2.7.5-2 .5-3.8.1-4.7-.1.8.1 1.9.1 2.8-.1 1.3-.2 3.6-.8 4.7-1 1.1-.2.2-.7-.2-.8-.6-.1-1.3-.2-2.1-.4h.7c-1.2-.3-2.5-.6-3.7-.7-1.3-.1-2.2.4-3.5.4-1.1 0-2.3 0-3.4.2h.5c-.9.1-1.7.3-2.4.8-.4.3-.9.5-1.3.6h-.2c-.6.2-1.1.3-1.2.4-.1 0-.1 0-.1.1-.7.9-1.3 3-1.9 2.5-.2-.2-.4-.5-.5-.8h.2c-.3-.6-.5-1.2-1.1-.8l-.1.1s-.1 0-.1.1c-.8.6-.1 2-.7 3l-.3.3c-.8.5-2.2.4-2.7.1-.6-.4-1.1-.7-3.4-.5-1.4.1-3 .5-3.7 1-.6.3-.8.7-.6 1 .2.3.1.6-.1.8-.4.2-.9.3-1.1 0 0 0-.1 0-.1-.1h-.5c-.2.1-.5.2-.8.4-.5.3-.9.7-.9 1.2.1.9-.3 1.9-1.2 1.7-1-.2-1.6.5-1.7 1.2 0 .2-.1.3-.3.5-.7.4-1.7.7-1.8.7-.1 0-1.2 0-1.8.2h.4c-.6.1-1.2.3-.6.7.7.6 1.1.2 1.9.4.8.2 1.5 1.8 2 2 .4.2.8.1 1.1-.2.2-.1.3-.2.4-.4.1-.2.3-.8.5-1.2h-.1l.2-.6s0 1.5.7 1.7c.7.3 2.4-.2 2.8-.1.4.1 3.1.5 3.8.9.7.4 2.5.7 3 1.7.5.9.6 4.2.8 4.6.1.1.2.1.4-.1.2-.1.6-.5.8-.9h-.1c.2-.2.3-.4.4-.5.2-.4 1.4-.1 1.8.4.4.5 1.3 1.7 1.2 2.3-.1.5-.2 1.3-.6 1-.3-.3-.9-.2-.7-.8v-.1h.1c.2-.6.3-1.8-.1-1.8h-.8s-.5-.2-1 .2c-.2.1-.4.3-.6.7-.6 1.1-.1 2.2.3 2.2s1.3 0 1.3.3-1 1.2-.9 1.7c.1.5.8 2.2 1 2.6.2.4 1.4.7 1.7.8-.1 0-.2.1-.3.2-.2.1-.4.2-.3.5.3.5.7 1.7 1.3 2 .6.3 2.4 1.6 2.6 2.2.2.6 1.6-.4 1.9-.5.3-.1.2 1.5 1 1.6.6 0 .9-.1 1.2-.3 0 0 .1 0 .1-.1.1-.1.3-.2.4-.4.3-.3.4-.7.5-1h.2c.1-.4 0-.9.1-1.3 0-.4 0-.7.2-.9h.4c.7.2 1.1-.1 1.1-.9 0-.2-.1-.4-.1-.6h.2c-.1-.4-.2-.8.1-1.1.1 0 .2-.1.3-.1.6-.1 1-.4 1.4-.7.1-.1.2-.1.3-.2.3-.2.5-.3.8-.3.7 0 2.8.4 3 0 .1-.2.4-.7.7-1.3h.1c.3-.5.6-1 .9-1.3l.1-.1c.6-.1 2.2.3 3.7 0s3-1.4 3.5-1.3c.5.1 1.7.1 1.3-.4-.1-.1-.3-.4-.4-.6h.3c-.4-.5-.8-1-1.4-1-.4 0-.7-.6-.8-1.2h-.5c-.1-.5-.1-1 0-1 .2 0 2.3.9 2.2 1.6-.1.7.3 1.7 1.5 1.4.2-.1.3-.1.5-.2.8-.4.6-1.3.4-1.6 0 0 0-.1-.1-.1zM112.2 297.2c-.1 0-.2.1-.3.2-.7.3-.5 2 .5 1.7.1 0 .2-.1.3-.2.8-.5.3-1.8-.5-1.7zM120.2 294.6c-.7-.2-1.6 0-2.1.1-.1 0-.2.1-.4.2-.7.4-1.9 1.6-1.9 1.6s1 .2 1.7.2c.6 0 1 .4 1.6.8.6.3 1.6-.4 1.9-.4.3 0 .7.9.8.4.1 0 .2-.1.2-.5h-.2c0-.6-.2-1.1-.5-1.4h.3c-.3-.5-.9-.8-1.4-1zM111.7 288.2c-.2 0-.3.1-.4.2-.6.3-.4 1.2.6 1 .8-.2.6-.8.1-1h.4c-.2-.1-.4-.2-.7-.2zM311.2 327.9c0-.1.1-.3.1-.5 0-.5 0-1.1.1-1.7h-.2c.1-.6.2-1.1.5-1.4h.1c0-.1.1-.1.1-.2.5-.7.3-1.6-.5-1.5-.3 0-.5-.1-.8-.5h-.3c-.4-.4-.7-.9-1.2-1.4h.3l-.5-.5c-.7-.6-1.3-1.1-2-1.7h-.3c-.4-.4-.7-.8-1.1-1.3 0-.1-.1-.1-.1-.2h.3c-.7-.9-1.5-1.6-2.2-2.2h-.3c-.3-.3-.6-.5-.8-.7-.3-.3-.7-.5-1-.7h.4c-.6-.3-1.2-.5-1.5-.4-.1 0-.2.1-.2.1-1 .3 1.7 2.6 2 2.9.3.3 2.8 2.8 2.8 4 0 1.2.8 4.9 1.3 5.4.5.4 3.6 1.2 4 2 .3.8 1 1 1.2.3h-.2zM123.4 306.4h1c-.3-.1-.6-.1-1 0zM332.5 318.6h-.2c0-.1 0-.1-.1-.1s-.3 0-.6.1h-.4c-.8.2-1.8.4-2 .5-.3.1-1.9-.2-1.9-.2l-.1.1h-.1c-.6.8-.2 1.5.8 1.4 1-.1 3.1-.4 3.6-.4.1 0 .2-.1.3-.1.3-.3.6-1 .7-1.3zM328.4 288.1c-.1 0-.3.1-.4.2-1.2.6-1.9 3.6-.9 3.5.1 0 .3-.1.4-.2.5-.2.9-1 1.2-1.8h-.1c.2-.6.2-1.2.1-1.4h.2c-.1-.2-.3-.3-.5-.3zM305.8 309.9c-.3-.6-1.2-1.5-1.7-2.1h-.3l-.3-.3c-.7.1-.7 1.7-.4 2.3.4.5 1.1.2 1.6 2.2s1.4 3.9 1.8 4.7c.4.8 1.9 1.8 2.5 2.4.3.3.6.2.9 0 .2-.1.3-.3.4-.5h-.2c0-.1 0-.3-.1-.4-.2-.3-.4-.6-.6-1h.2c-.3-.5-.6-1-.6-1.5 0-.2-.1-.4-.1-.7h-.2c-.1-.4-.3-.9-.6-1.4h.2l-.6-1.2c-.2-.4-.5-.7-.7-1h-.3c-.4-.5-.8-.8-1.1-1.4l.2-.1z"/><g><g fill="#FFF"><path d="M312.1 202.2c0-1-.8-1.8-1.8-1.8-.9 0-1.6.6-1.8 1.4h-18.9c-.2-.8-.9-1.4-1.8-1.4s-1.6.6-1.8 1.4h-57.4c-.2-.8-.9-1.4-1.8-1.4s-1.6.6-1.8 1.4h-14.3c-.1-.8-.6-1.5-1.3-1.9v-33.6h-3V200c-.6.4-1 1.1-1.2 1.8h-8.5v1h8.5c.2 1.1 1.1 2 2.1 2.2v49.7h1V205c1.1-.2 2.1-1.1 2.3-2.2h14.3c.2.6.6 1 1.2 1.2v50.5h1V204c.6-.2 1.1-.6 1.3-1.3h57.5c.2.6.7 1.1 1.3 1.2v50.9h1V204c.6-.2 1.1-.6 1.3-1.2h18.9c.2.6.7 1.1 1.3 1.2v33h1v-33c.8-.2 1.4-.9 1.4-1.8zM309.7 240.4h1v14.5h-1zM209.8 256.1h14.9v.8h-14.9z"/><path d="M227.3 278.9v-20.3h-1v20.3c-.6.2-1 .6-1.2 1.2h-15.4c-.2-.6-.7-1.1-1.3-1.3v-20.4h-1v20.4c-.6.2-1.1.6-1.3 1.3h-62c-.2-.6-.7-1.1-1.3-1.2v-20.5c.7-.2 1.2-.7 1.3-1.3H206v-1h-61.9c-.2-.8-.9-1.3-1.8-1.3s-1.5.5-1.8 1.3H123v1h17.7c.2.6.6 1.1 1.2 1.3V279c-.6.2-1 .6-1.2 1.2h-17.4c-.2-.6-.7-1-1.3-1.2v-20.6h-1V279c-.6.2-1 .6-1.2 1.2H85.6v1h34.2c.2.6.6 1.2 1.3 1.3v39.3h1v-39.2c.6-.2 1.1-.7 1.3-1.3h17.3c.1.6.6 1.1 1.2 1.3V347h1v-64.5c.7-.2 1.2-.7 1.3-1.4h61.9c.2.6.7 1.1 1.3 1.3v14.8h1v-14.7c.6-.2 1.1-.7 1.3-1.3H225c.1.6.6 1.1 1.2 1.3v64.8h1v-64.7c.7-.2 1.2-.7 1.3-1.4H286v-1h-57.4c-.2-.7-.7-1.2-1.3-1.3zM320.4 348.6h23v1h-23z"/><path d="M122.9 322.6h7.7v1h-7.7zM228.6 348.6h15.3v1h-15.3zM226.3 350.3h1v15.3h-1zM144.2 348.6H225v1h-80.8zM125.8 348.6h14.8v1h-14.8zM121.1 243.2h1v11.1h-1zM85.5 256h34.2v1H85.5zM309.7 282.4h1V296h-1zM309.7 257.9h1v20.7h-1zM314.1 256h22.2v1h-22.2zM289.5 256h19.3v1h-19.3zM229.4 256h56.8v1h-56.8zM289.7 280.2h18.7v.8h-18.7zM83.2 258.6h1v20.1h-1zM83.2 242.4h1v11.7h-1zM142 350.5h1v20.9h-1zM287.3 258.2h1v20.6h-1zM312 238.2h56.6v1H312zM300.6 238.2h8v1h-8zM395 281.1v-1h-48c-.2-.6-.7-1.1-1.4-1.3v-6.1h-1v6.2c-.5.2-1 .6-1.1 1.2H312v1h31.4c.2.6.6 1.1 1.2 1.3v65h1v-64.9c.7-.1 1.2-.7 1.4-1.3h48z"/><path d="M52.8 321.2v-38.9c.6-.2 1.1-.7 1.3-1.3h27.8v-1H54.1c-.2-.6-.7-1.1-1.3-1.3v-20.5c.6-.2 1.1-.7 1.3-1.3h27.8v-1H54.1c-.2-.6-.7-1.1-1.3-1.3v-5.5h-1v5.6c-.6.2-1 .6-1.2 1.2h-5.1v1h5c.2.6.6 1.1 1.2 1.3v20.6c-.6.2-1.1.6-1.2 1.2H0v1h50.5c.2.6.6 1.1 1.3 1.3v38.9c-.6.2-1.1.7-1.3 1.3h-5.8v1h5.8c.2.6.6 1 1.2 1.2v31.5h1v-31.5c.6-.2 1.1-.6 1.3-1.2h66.1v-1h-66c-.2-.6-.7-1.1-1.3-1.3zM381.9 347.3v-21.9h-1v22c-.6.2-1 .6-1.2 1.2h-33v1h32.9c.2.6.6 1.1 1.2 1.3v37.8h1v-37.8c.7-.2 1.2-.7 1.3-1.3h33.6v-1h-33.6c-.1-.6-.6-1.1-1.2-1.3zM545.2 197.6v35.6c0 .5-.2 13-13 13h-40.4c-.4-1.3-1.4-2.2-2.7-2.7v-65.7h-3v65.7c-1.2.5-2.2 1.4-2.7 2.7h-53c-12.8 0-13-12.5-13-13v-36.3c0-15.8-15.9-16-16-16h-12.5c-.5-.9-1.3-1.6-2.3-2v-18.8h-3v18.8c-1 .4-1.8 1.1-2.4 2h-81.5c-.5 0-13-.2-13-13V80.6c0-.2-.2-16-16-16h-47.9c-.2 0-16 .2-16 16v31.2h3V80.6c0-12.8 12.5-13 13-13h47.9c12.8 0 13 12.5 13 13v87.2c0 15.8 15.9 16 16 16h81c.4 1.8 2.2 2.1 4.4 2.1s4-.4 4.4-2.1h12c.5 0 13 .2 13 13v36.3c0 .2.2 16 16 16h53.1c.7 1.1 2.3 1.4 4.1 1.4s3.4-.3 4.1-1.4h40.5c15.8 0 16-15.9 16-16v-35.6h-3.1z"/></g><path fill="#57534C" d="M338.9 0h138.4c6.7 0 12.2 5.5 12.2 12.2V59h-8.9V8.1H335.7v105.2H440v8.1H339c-6.7 0-12.2-5.5-12.2-12.2v-97C326.7 5.5 332.2 0 338.9 0z"/><path fill="#57534C" d="M442.9 71.6v97.6c0 5.2 4.2 9.5 9.5 9.5h61v-14.2h-63.9V68.8h75.7v36.8h6.6v-34c0-5.2-4.2-9.5-9.5-9.5h-69.9c-5.2 0-9.5 4.3-9.5 9.5zm40.7 100.1c0-2.1 1.7-3.7 3.7-3.7 2.1 0 3.7 1.7 3.7 3.7 0 2.1-1.7 3.7-3.7 3.7-2.1.1-3.7-1.6-3.7-3.7z"/><path fill="#57534C" d="M516.2 117.5v73.4c0 4.2 3.4 7.5 7.5 7.5h40.8c4.2 0 7.5-3.4 7.5-7.5v-73.4c0-4.2-3.4-7.5-7.5-7.5h-40.8c-4.2 0-7.5 3.4-7.5 7.5zm34.1-.1c0 .5-.4 1-1 1h-10.4c-.5 0-1-.4-1-1 0-.5.4-1 1-1h10.4c.5 0 1 .5 1 1zm-10.7 74.4c0-2.5 2-4.5 4.5-4.5s4.5 2 4.5 4.5-2 4.5-4.5 4.5-4.5-2-4.5-4.5zM519 124h50.2v60.5H519V124zM346.5 134.3v17.4c0 4.6 3.7 8.3 8.3 8.3H440v-34h-85.2c-4.6 0-8.3 3.8-8.3 8.3zm10.5 6.4h44.6v4.7H357v-4.7z"/><path fill="#57534C" d="M346.5 134.3v17.4c0 4.6 3.7 8.3 8.3 8.3H440v-34h-85.2c-4.6 0-8.3 3.8-8.3 8.3zm10.5 6.4h44.6v4.7H357v-4.7z"/><circle fill="#9FB9C2" cx="351.6" cy="23.6" r="8.4"/><path fill="#9EB9C2" d="M472 23.2c0 2.7-2.2 4.9-4.9 4.9h-92.7c-2.7 0-4.9-2.2-4.9-4.9s2.2-4.9 4.9-4.9h92.7c2.7-.1 4.9 2.1 4.9 4.9z"/><path fill="#9FB9C2" d="M341.8 48.6c0 5 4.1 9.1 9.1 9.1h113.2c5 0 9.1-4.1 9.1-9.1v-.8c0-5-4.1-9.1-9.1-9.1H350.9c-5 0-9.1 4.1-9.1 9.1v.8zM525 154.2c0 3.9 3.2 7.1 7.1 7.1h23.8c3.9 0 7.1-3.2 7.1-7.1v-.6c0-3.9-3.2-7.1-7.1-7.1h-23.8c-3.9 0-7.1 3.2-7.1 7.1v.6zM525 173.9c0 3.9 3.2 7.1 7.1 7.1h23.8c3.9 0 7.1-3.2 7.1-7.1v-.6c0-3.9-3.2-7.1-7.1-7.1h-23.8c-3.9 0-7.1 3.2-7.1 7.1v.6z"/><circle fill="#9FB9C2" cx="461.8" cy="82.1" r="8.4"/><path fill="#9FB9C2" d="M520.3 81.7c0 2.7-2.2 4.9-4.9 4.9h-34.2c-2.7 0-4.9-2.2-4.9-4.9s2.2-4.9 4.9-4.9h34.2c2.7-.1 4.9 2.2 4.9 4.9zM350.9 70.7H440v19h-89.1c-5 0-9.1-4.1-9.1-9.1v-.8c0-5.1 4-9.1 9.1-9.1zM461.1 131.5h52.3v19h-52.3c-5 0-9.1-4.1-9.1-9.1v-.8c0-5.1 4-9.1 9.1-9.1zM461.1 101.1h52.3v19h-52.3c-5 0-9.1-4.1-9.1-9.1v-.8c0-5.1 4-9.1 9.1-9.1z"/><circle fill="#9FB9C2" cx="544" cy="132.8" r="6"/><path fill="#57534C" d="M251.6 105.9H164c-3 0-5.5 2.5-5.5 5.5v8.7c0 3 2.5 5.5 5.5 5.5h87.6c3 0 5.5-2.5 5.5-5.5v-8.7c0-3-2.4-5.5-5.5-5.5zm-85.4 13.9c-2.2 0-4.1-1.8-4.1-4.1 0-2.2 1.8-4.1 4.1-4.1 2.2 0 4.1 1.8 4.1 4.1s-1.8 4.1-4.1 4.1zM251.6 128.7H164c-3 0-5.5 2.5-5.5 5.5v8.7c0 3 2.5 5.5 5.5 5.5h87.6c3 0 5.5-2.5 5.5-5.5v-8.7c0-3-2.4-5.5-5.5-5.5zm-85.4 13.9c-2.2 0-4.1-1.8-4.1-4.1 0-2.2 1.8-4.1 4.1-4.1 2.2 0 4.1 1.8 4.1 4.1s-1.8 4.1-4.1 4.1zM251.6 151.6H164c-3 0-5.5 2.5-5.5 5.5v8.7c0 3 2.5 5.5 5.5 5.5h87.6c3 0 5.5-2.5 5.5-5.5v-8.7c0-3.1-2.4-5.5-5.5-5.5zm-85.4 13.9c-2.2 0-4.1-1.8-4.1-4.1 0-2.2 1.8-4.1 4.1-4.1 2.2 0 4.1 1.8 4.1 4.1s-1.8 4.1-4.1 4.1z"/><g><path fill="#0084B6" d="M83.7 284.8c-2.4 0-4.3-1.9-4.3-4.3s1.9-4.3 4.3-4.3 4.3 1.9 4.3 4.3-1.9 4.3-4.3 4.3zm0-5.5c-.7 0-1.3.6-1.3 1.3 0 .7.6 1.3 1.3 1.3.7 0 1.3-.6 1.3-1.3 0-.7-.6-1.3-1.3-1.3zM83.7 260.7c-2.4 0-4.3-1.9-4.3-4.3s1.9-4.3 4.3-4.3 4.3 1.9 4.3 4.3-1.9 4.3-4.3 4.3zm0-5.5c-.7 0-1.3.6-1.3 1.3 0 .7.6 1.3 1.3 1.3.7 0 1.3-.6 1.3-1.3 0-.7-.6-1.3-1.3-1.3zM121.6 260.7c-2.4 0-4.3-1.9-4.3-4.3s1.9-4.3 4.3-4.3 4.3 1.9 4.3 4.3c-.1 2.4-2 4.3-4.3 4.3zm0-5.5c-.7 0-1.3.6-1.3 1.3 0 .7.6 1.3 1.3 1.3.7 0 1.3-.6 1.3-1.3-.1-.7-.6-1.3-1.3-1.3zM121.6 327.4c-2.4 0-4.3-1.9-4.3-4.3s1.9-4.3 4.3-4.3 4.3 1.9 4.3 4.3-2 4.3-4.3 4.3zm0-5.6c-.7 0-1.3.6-1.3 1.3s.6 1.3 1.3 1.3c.7 0 1.3-.6 1.3-1.3s-.6-1.3-1.3-1.3zM226.8 353.4c-2.4 0-4.3-1.9-4.3-4.3s1.9-4.3 4.3-4.3 4.3 1.9 4.3 4.3-1.9 4.3-4.3 4.3zm0-5.6c-.7 0-1.3.6-1.3 1.3s.6 1.3 1.3 1.3c.7 0 1.3-.6 1.3-1.3s-.6-1.3-1.3-1.3zM208 305.2c-2.4 0-4.3-1.9-4.3-4.3s1.9-4.3 4.3-4.3 4.3 1.9 4.3 4.3-2 4.3-4.3 4.3zm0-5.6c-.7 0-1.3.6-1.3 1.3s.6 1.3 1.3 1.3c.7 0 1.3-.6 1.3-1.3s-.6-1.3-1.3-1.3zM208 260.7c-2.4 0-4.3-1.9-4.3-4.3s1.9-4.3 4.3-4.3 4.3 1.9 4.3 4.3-2 4.3-4.3 4.3zm0-5.5c-.7 0-1.3.6-1.3 1.3 0 .7.6 1.3 1.3 1.3.7 0 1.3-.6 1.3-1.3 0-.7-.6-1.3-1.3-1.3zM227 260.7c-2.4 0-4.3-1.9-4.3-4.3s1.9-4.3 4.3-4.3 4.3 1.9 4.3 4.3-2 4.3-4.3 4.3zm0-5.5c-.7 0-1.3.6-1.3 1.3 0 .7.6 1.3 1.3 1.3.7 0 1.3-.6 1.3-1.3 0-.7-.6-1.3-1.3-1.3zM287.8 284.8c-2.4 0-4.3-1.9-4.3-4.3s1.9-4.3 4.3-4.3 4.3 1.9 4.3 4.3-1.9 4.3-4.3 4.3zm0-5.5c-.7 0-1.3.6-1.3 1.3 0 .7.6 1.3 1.3 1.3.7 0 1.3-.6 1.3-1.3 0-.7-.6-1.3-1.3-1.3zM310.2 284.8c-2.4 0-4.3-1.9-4.3-4.3s1.9-4.3 4.3-4.3 4.3 1.9 4.3 4.3-1.9 4.3-4.3 4.3zm0-5.5c-.7 0-1.3.6-1.3 1.3 0 .7.6 1.3 1.3 1.3.7 0 1.3-.6 1.3-1.3 0-.7-.6-1.3-1.3-1.3zM287.8 260.7c-2.4 0-4.3-1.9-4.3-4.3s1.9-4.3 4.3-4.3 4.3 1.9 4.3 4.3-1.9 4.3-4.3 4.3zm0-5.5c-.7 0-1.3.6-1.3 1.3 0 .7.6 1.3 1.3 1.3.7 0 1.3-.6 1.3-1.3 0-.7-.6-1.3-1.3-1.3zM345.1 353.4c-2.4 0-4.3-1.9-4.3-4.3s1.9-4.3 4.3-4.3 4.3 1.9 4.3 4.3c-.1 2.4-2 4.3-4.3 4.3zm0-5.6c-.7 0-1.3.6-1.3 1.3 0 .7.6 1.3 1.3 1.3.7 0 1.3-.6 1.3-1.3-.1-.7-.6-1.3-1.3-1.3zM310.3 243c-2.4 0-4.3-1.9-4.3-4.3s1.9-4.3 4.3-4.3 4.3 1.9 4.3 4.3-2 4.3-4.3 4.3zm0-5.5c-.7 0-1.3.6-1.3 1.3 0 .7.6 1.3 1.3 1.3.7 0 1.3-.6 1.3-1.3 0-.8-.6-1.3-1.3-1.3zM310.3 260.7c-2.4 0-4.3-1.9-4.3-4.3s1.9-4.3 4.3-4.3 4.3 1.9 4.3 4.3-2 4.3-4.3 4.3zm0-5.5c-.7 0-1.3.6-1.3 1.3 0 .7.6 1.3 1.3 1.3.7 0 1.3-.6 1.3-1.3 0-.7-.6-1.3-1.3-1.3zM142.5 353.3c-2.4 0-4.3-1.9-4.3-4.3s1.9-4.3 4.3-4.3 4.3 1.9 4.3 4.3c-.1 2.4-2 4.3-4.3 4.3zm0-5.5c-.7 0-1.3.6-1.3 1.3 0 .7.6 1.3 1.3 1.3.7 0 1.3-.6 1.3-1.3-.1-.7-.6-1.3-1.3-1.3z"/></g></g></svg>