<svg xmlns="http://www.w3.org/2000/svg" width="932" height="638" viewBox="0 0 932 638"><style>.st0{opacity:0.82;} .st1{fill:#FFFFFF;} .st2{fill-rule:evenodd;clip-rule:evenodd;fill:#F4F4F3;} .st3{fill-rule:evenodd;clip-rule:evenodd;fill:#9ACEE8;} .st4{fill-rule:evenodd;clip-rule:evenodd;fill:#FFFFFF;} .st5{opacity:0.6;fill:#080000;} .st6{fill:#F18F09;} .st7{fill:#F4F4F3;} .st8{fill-rule:evenodd;clip-rule:evenodd;fill:none;stroke:#FFFFFF;stroke-width:3.6541;stroke-miterlimit:10;} .st9{fill-rule:evenodd;clip-rule:evenodd;fill:#F18F09;} .st10{fill-rule:evenodd;clip-rule:evenodd;fill:#F18F09;stroke:#FFFFFF;stroke-width:2.4361;stroke-miterlimit:10;} .st11{opacity:0.5;fill:#080000;} .st12{opacity:0.85;fill:#FFFFFF;} .st13{fill:#F08F0E;}</style><g class="st0"><path class="st1" d="M663.5 480.2c-3.6 0-6.5 2.9-6.5 6.5s2.9 6.5 6.5 6.5 6.5-2.9 6.5-6.5-2.9-6.5-6.5-6.5zM681.1 480.2c-3.6 0-6.5 2.9-6.5 6.5s2.9 6.5 6.5 6.5 6.5-2.9 6.5-6.5c.1-3.6-2.9-6.5-6.5-6.5zM628.3 480.2c-3.6 0-6.5 2.9-6.5 6.5s2.9 6.5 6.5 6.5 6.5-2.9 6.5-6.5-2.9-6.5-6.5-6.5zM645.9 480.2c-3.6 0-6.5 2.9-6.5 6.5s2.9 6.5 6.5 6.5 6.5-2.9 6.5-6.5-2.9-6.5-6.5-6.5zM698.7 480.2c-3.6 0-6.5 2.9-6.5 6.5s2.9 6.5 6.5 6.5 6.5-2.9 6.5-6.5c.1-3.6-2.9-6.5-6.5-6.5zM663.5 497.8c-3.6 0-6.5 2.9-6.5 6.5s2.9 6.5 6.5 6.5 6.5-2.9 6.5-6.5c0-3.5-2.9-6.5-6.5-6.5zM681.1 497.8c-3.6 0-6.5 2.9-6.5 6.5s2.9 6.5 6.5 6.5 6.5-2.9 6.5-6.5c.1-3.5-2.9-6.5-6.5-6.5zM698.7 497.8c-3.6 0-6.5 2.9-6.5 6.5s2.9 6.5 6.5 6.5 6.5-2.9 6.5-6.5c.1-3.5-2.9-6.5-6.5-6.5zM628.3 515.4c-3.6 0-6.5 2.9-6.5 6.5s2.9 6.5 6.5 6.5 6.5-2.9 6.5-6.5c0-3.5-2.9-6.5-6.5-6.5zM645.9 515.4c-3.6 0-6.5 2.9-6.5 6.5s2.9 6.5 6.5 6.5 6.5-2.9 6.5-6.5c0-3.5-2.9-6.5-6.5-6.5zM663.5 515.4c-3.6 0-6.5 2.9-6.5 6.5s2.9 6.5 6.5 6.5 6.5-2.9 6.5-6.5c0-3.5-2.9-6.5-6.5-6.5zM645.9 533.1c-3.6 0-6.5 2.9-6.5 6.5s2.9 6.5 6.5 6.5 6.5-2.9 6.5-6.5-2.9-6.5-6.5-6.5zM663.5 533.1c-3.6 0-6.5 2.9-6.5 6.5s2.9 6.5 6.5 6.5 6.5-2.9 6.5-6.5-2.9-6.5-6.5-6.5zM681.1 533.1c-3.6 0-6.5 2.9-6.5 6.5s2.9 6.5 6.5 6.5 6.5-2.9 6.5-6.5c.1-3.6-2.9-6.5-6.5-6.5zM698.7 533.1c-3.6 0-6.5 2.9-6.5 6.5s2.9 6.5 6.5 6.5 6.5-2.9 6.5-6.5c.1-3.6-2.9-6.5-6.5-6.5zM681.1 515.4c-3.6 0-6.5 2.9-6.5 6.5s2.9 6.5 6.5 6.5 6.5-2.9 6.5-6.5c.1-3.5-2.9-6.5-6.5-6.5zM698.7 515.4c-3.6 0-6.5 2.9-6.5 6.5s2.9 6.5 6.5 6.5 6.5-2.9 6.5-6.5c.1-3.5-2.9-6.5-6.5-6.5zM804.5 550.7c-3.6 0-6.5 2.9-6.5 6.5s2.9 6.5 6.5 6.5 6.5-2.9 6.5-6.5-3-6.5-6.5-6.5zM822.1 550.7c-3.6 0-6.5 2.9-6.5 6.5s2.9 6.5 6.5 6.5 6.5-2.9 6.5-6.5-2.9-6.5-6.5-6.5zM786.8 585.9c-3.6 0-6.5 2.9-6.5 6.5s2.9 6.5 6.5 6.5 6.5-2.9 6.5-6.5c.1-3.6-2.9-6.5-6.5-6.5zM804.5 585.9c-3.6 0-6.5 2.9-6.5 6.5s2.9 6.5 6.5 6.5 6.5-2.9 6.5-6.5-3-6.5-6.5-6.5zM822.1 568.3c-3.6 0-6.5 2.9-6.5 6.5s2.9 6.5 6.5 6.5 6.5-2.9 6.5-6.5-2.9-6.5-6.5-6.5zM804.5 568.3c-3.6 0-6.5 2.9-6.5 6.5s2.9 6.5 6.5 6.5 6.5-2.9 6.5-6.5-3-6.5-6.5-6.5zM628.3 497.8c-3.6 0-6.5 2.9-6.5 6.5s2.9 6.5 6.5 6.5 6.5-2.9 6.5-6.5c0-3.5-2.9-6.5-6.5-6.5zM645.9 497.8c-3.6 0-6.5 2.9-6.5 6.5s2.9 6.5 6.5 6.5 6.5-2.9 6.5-6.5c0-3.5-2.9-6.5-6.5-6.5zM663.5 445c-3.6 0-6.5 2.9-6.5 6.5s2.9 6.5 6.5 6.5 6.5-2.9 6.5-6.5-2.9-6.5-6.5-6.5zM663.5 427.3c-3.6 0-6.5 2.9-6.5 6.5s2.9 6.5 6.5 6.5 6.5-2.9 6.5-6.5c0-3.5-2.9-6.5-6.5-6.5zM681.1 550.7c-3.6 0-6.5 2.9-6.5 6.5s2.9 6.5 6.5 6.5 6.5-2.9 6.5-6.5c.1-3.6-2.9-6.5-6.5-6.5zM628.3 462.6c-3.6 0-6.5 2.9-6.5 6.5s2.9 6.5 6.5 6.5 6.5-2.9 6.5-6.5-2.9-6.5-6.5-6.5zM645.9 462.6c-3.6 0-6.5 2.9-6.5 6.5s2.9 6.5 6.5 6.5 6.5-2.9 6.5-6.5-2.9-6.5-6.5-6.5zM663.5 462.6c-3.6 0-6.5 2.9-6.5 6.5s2.9 6.5 6.5 6.5 6.5-2.9 6.5-6.5-2.9-6.5-6.5-6.5zM681.1 462.6c-3.6 0-6.5 2.9-6.5 6.5s2.9 6.5 6.5 6.5 6.5-2.9 6.5-6.5c.1-3.6-2.9-6.5-6.5-6.5zM663.5 550.7c-3.6 0-6.5 2.9-6.5 6.5s2.9 6.5 6.5 6.5 6.5-2.9 6.5-6.5-2.9-6.5-6.5-6.5zM681.1 568.3c-3.6 0-6.5 2.9-6.5 6.5s2.9 6.5 6.5 6.5 6.5-2.9 6.5-6.5c.1-3.6-2.9-6.5-6.5-6.5zM628.3 445c-3.6 0-6.5 2.9-6.5 6.5s2.9 6.5 6.5 6.5 6.5-2.9 6.5-6.5-2.9-6.5-6.5-6.5zM645.9 445c-3.6 0-6.5 2.9-6.5 6.5s2.9 6.5 6.5 6.5 6.5-2.9 6.5-6.5-2.9-6.5-6.5-6.5zM557.8 480.2c-3.6 0-6.5 2.9-6.5 6.5s2.9 6.5 6.5 6.5 6.5-2.9 6.5-6.5-2.9-6.5-6.5-6.5zM540.2 480.2c-3.6 0-6.5 2.9-6.5 6.5s2.9 6.5 6.5 6.5 6.5-2.9 6.5-6.5-2.9-6.5-6.5-6.5zM610.6 480.2c-3.6 0-6.5 2.9-6.5 6.5s2.9 6.5 6.5 6.5 6.5-2.9 6.5-6.5c.1-3.6-2.9-6.5-6.5-6.5zM557.8 497.8c-3.6 0-6.5 2.9-6.5 6.5s2.9 6.5 6.5 6.5 6.5-2.9 6.5-6.5c0-3.5-2.9-6.5-6.5-6.5zM575.4 497.8c-3.6 0-6.5 2.9-6.5 6.5s2.9 6.5 6.5 6.5 6.5-2.9 6.5-6.5c0-3.5-2.9-6.5-6.5-6.5zM593 497.8c-3.6 0-6.5 2.9-6.5 6.5s2.9 6.5 6.5 6.5 6.5-2.9 6.5-6.5c.1-3.5-2.9-6.5-6.5-6.5zM610.6 497.8c-3.6 0-6.5 2.9-6.5 6.5s2.9 6.5 6.5 6.5 6.5-2.9 6.5-6.5c.1-3.5-2.9-6.5-6.5-6.5zM557.8 515.4c-3.6 0-6.5 2.9-6.5 6.5s2.9 6.5 6.5 6.5 6.5-2.9 6.5-6.5c0-3.5-2.9-6.5-6.5-6.5zM575.4 533.1c-3.6 0-6.5 2.9-6.5 6.5s2.9 6.5 6.5 6.5 6.5-2.9 6.5-6.5-2.9-6.5-6.5-6.5zM540.2 533.1c-3.6 0-6.5 2.9-6.5 6.5s2.9 6.5 6.5 6.5 6.5-2.9 6.5-6.5-2.9-6.5-6.5-6.5zM575.4 515.4c-3.6 0-6.5 2.9-6.5 6.5s2.9 6.5 6.5 6.5 6.5-2.9 6.5-6.5c0-3.5-2.9-6.5-6.5-6.5zM593 515.4c-3.6 0-6.5 2.9-6.5 6.5s2.9 6.5 6.5 6.5 6.5-2.9 6.5-6.5c.1-3.5-2.9-6.5-6.5-6.5zM557.8 533.1c-3.6 0-6.5 2.9-6.5 6.5s2.9 6.5 6.5 6.5 6.5-2.9 6.5-6.5-2.9-6.5-6.5-6.5zM610.6 515.4c-3.6 0-6.5 2.9-6.5 6.5s2.9 6.5 6.5 6.5 6.5-2.9 6.5-6.5c.1-3.5-2.9-6.5-6.5-6.5zM540.2 497.8c-3.6 0-6.5 2.9-6.5 6.5s2.9 6.5 6.5 6.5 6.5-2.9 6.5-6.5c0-3.5-2.9-6.5-6.5-6.5zM540.2 462.6c-3.6 0-6.5 2.9-6.5 6.5s2.9 6.5 6.5 6.5 6.5-2.9 6.5-6.5-2.9-6.5-6.5-6.5zM328.7 198.3c-3.6 0-6.5 2.9-6.5 6.5s2.9 6.5 6.5 6.5 6.5-2.9 6.5-6.5c.1-3.6-2.9-6.5-6.5-6.5zM328.7 180.7c-3.6 0-6.5 2.9-6.5 6.5s2.9 6.5 6.5 6.5 6.5-2.9 6.5-6.5c.1-3.6-2.9-6.5-6.5-6.5zM328.7 92.6c-3.6 0-6.5 2.9-6.5 6.5s2.9 6.5 6.5 6.5 6.5-2.9 6.5-6.5c.1-3.6-2.9-6.5-6.5-6.5zM328.7 75c-3.6 0-6.5 2.9-6.5 6.5s2.9 6.5 6.5 6.5 6.5-2.9 6.5-6.5c.1-3.6-2.9-6.5-6.5-6.5zM328.7 57.3c-3.6 0-6.5 2.9-6.5 6.5s2.9 6.5 6.5 6.5 6.5-2.9 6.5-6.5c.1-3.5-2.9-6.5-6.5-6.5zM328.7 39.7c-3.6 0-6.5 2.9-6.5 6.5s2.9 6.5 6.5 6.5 6.5-2.9 6.5-6.5c.1-3.5-2.9-6.5-6.5-6.5zM328.7 127.8c-3.6 0-6.5 2.9-6.5 6.5s2.9 6.5 6.5 6.5 6.5-2.9 6.5-6.5c.1-3.6-2.9-6.5-6.5-6.5zM328.7 110.2c-3.6 0-6.5 2.9-6.5 6.5s2.9 6.5 6.5 6.5 6.5-2.9 6.5-6.5c.1-3.6-2.9-6.5-6.5-6.5zM328.7 145.4c-3.6 0-6.5 2.9-6.5 6.5s2.9 6.5 6.5 6.5 6.5-2.9 6.5-6.5c.1-3.5-2.9-6.5-6.5-6.5zM328.7 163c-3.6 0-6.5 2.9-6.5 6.5s2.9 6.5 6.5 6.5 6.5-2.9 6.5-6.5c.1-3.5-2.9-6.5-6.5-6.5zM328.7 251.1c-3.6 0-6.5 2.9-6.5 6.5s2.9 6.5 6.5 6.5 6.5-2.9 6.5-6.5c.1-3.5-2.9-6.5-6.5-6.5zM346.4 251.1c-3.6 0-6.5 2.9-6.5 6.5s2.9 6.5 6.5 6.5 6.5-2.9 6.5-6.5c0-3.5-3-6.5-6.5-6.5zM328.7 233.5c-3.6 0-6.5 2.9-6.5 6.5s2.9 6.5 6.5 6.5 6.5-2.9 6.5-6.5c.1-3.5-2.9-6.5-6.5-6.5zM328.7 215.9c-3.6 0-6.5 2.9-6.5 6.5s2.9 6.5 6.5 6.5 6.5-2.9 6.5-6.5c.1-3.6-2.9-6.5-6.5-6.5zM346.4 215.9c-3.6 0-6.5 2.9-6.5 6.5s2.9 6.5 6.5 6.5 6.5-2.9 6.5-6.5-3-6.5-6.5-6.5zM364 215.9c-3.6 0-6.5 2.9-6.5 6.5s2.9 6.5 6.5 6.5 6.5-2.9 6.5-6.5-2.9-6.5-6.5-6.5zM381.6 215.9c-3.6 0-6.5 2.9-6.5 6.5s2.9 6.5 6.5 6.5 6.5-2.9 6.5-6.5-2.9-6.5-6.5-6.5zM346.4 233.5c-3.6 0-6.5 2.9-6.5 6.5s2.9 6.5 6.5 6.5 6.5-2.9 6.5-6.5c0-3.5-3-6.5-6.5-6.5zM364 233.5c-3.6 0-6.5 2.9-6.5 6.5s2.9 6.5 6.5 6.5 6.5-2.9 6.5-6.5c0-3.5-2.9-6.5-6.5-6.5zM381.6 233.5c-3.6 0-6.5 2.9-6.5 6.5s2.9 6.5 6.5 6.5 6.5-2.9 6.5-6.5c0-3.5-2.9-6.5-6.5-6.5zM364 251.1c-3.6 0-6.5 2.9-6.5 6.5s2.9 6.5 6.5 6.5 6.5-2.9 6.5-6.5c0-3.5-2.9-6.5-6.5-6.5zM381.6 251.1c-3.6 0-6.5 2.9-6.5 6.5s2.9 6.5 6.5 6.5 6.5-2.9 6.5-6.5c0-3.5-2.9-6.5-6.5-6.5zM346.4 198.3c-3.6 0-6.5 2.9-6.5 6.5s2.9 6.5 6.5 6.5 6.5-2.9 6.5-6.5-3-6.5-6.5-6.5zM364 198.3c-3.6 0-6.5 2.9-6.5 6.5s2.9 6.5 6.5 6.5 6.5-2.9 6.5-6.5-2.9-6.5-6.5-6.5zM346.4 180.7c-3.6 0-6.5 2.9-6.5 6.5s2.9 6.5 6.5 6.5 6.5-2.9 6.5-6.5-3-6.5-6.5-6.5zM364 180.7c-3.6 0-6.5 2.9-6.5 6.5s2.9 6.5 6.5 6.5 6.5-2.9 6.5-6.5-2.9-6.5-6.5-6.5zM381.6 198.3c-3.6 0-6.5 2.9-6.5 6.5s2.9 6.5 6.5 6.5 6.5-2.9 6.5-6.5-2.9-6.5-6.5-6.5zM381.6 180.7c-3.6 0-6.5 2.9-6.5 6.5s2.9 6.5 6.5 6.5 6.5-2.9 6.5-6.5-2.9-6.5-6.5-6.5zM399.2 198.3c-3.6 0-6.5 2.9-6.5 6.5s2.9 6.5 6.5 6.5 6.5-2.9 6.5-6.5-2.9-6.5-6.5-6.5zM416.8 198.3c-3.6 0-6.5 2.9-6.5 6.5s2.9 6.5 6.5 6.5 6.5-2.9 6.5-6.5c.1-3.6-2.9-6.5-6.5-6.5zM399.2 180.7c-3.6 0-6.5 2.9-6.5 6.5s2.9 6.5 6.5 6.5 6.5-2.9 6.5-6.5-2.9-6.5-6.5-6.5zM416.8 180.7c-3.6 0-6.5 2.9-6.5 6.5s2.9 6.5 6.5 6.5 6.5-2.9 6.5-6.5c.1-3.6-2.9-6.5-6.5-6.5zM346.4 127.8c-3.6 0-6.5 2.9-6.5 6.5s2.9 6.5 6.5 6.5 6.5-2.9 6.5-6.5-3-6.5-6.5-6.5zM346.4 110.2c-3.6 0-6.5 2.9-6.5 6.5s2.9 6.5 6.5 6.5 6.5-2.9 6.5-6.5-3-6.5-6.5-6.5zM346.4 75c-3.6 0-6.5 2.9-6.5 6.5s2.9 6.5 6.5 6.5 6.5-2.9 6.5-6.5-3-6.5-6.5-6.5zM346.4 92.6c-3.6 0-6.5 2.9-6.5 6.5s2.9 6.5 6.5 6.5 6.5-2.9 6.5-6.5-3-6.5-6.5-6.5zM364 92.6c-3.6 0-6.5 2.9-6.5 6.5s2.9 6.5 6.5 6.5 6.5-2.9 6.5-6.5-2.9-6.5-6.5-6.5zM364 75c-3.6 0-6.5 2.9-6.5 6.5s2.9 6.5 6.5 6.5 6.5-2.9 6.5-6.5-2.9-6.5-6.5-6.5zM381.6 92.6c-3.6 0-6.5 2.9-6.5 6.5s2.9 6.5 6.5 6.5 6.5-2.9 6.5-6.5-2.9-6.5-6.5-6.5zM346.4 57.3c-3.6 0-6.5 2.9-6.5 6.5s2.9 6.5 6.5 6.5 6.5-2.9 6.5-6.5c0-3.5-3-6.5-6.5-6.5zM364 57.3c-3.6 0-6.5 2.9-6.5 6.5s2.9 6.5 6.5 6.5 6.5-2.9 6.5-6.5c0-3.5-2.9-6.5-6.5-6.5zM381.6 57.3c-3.6 0-6.5 2.9-6.5 6.5s2.9 6.5 6.5 6.5 6.5-2.9 6.5-6.5c0-3.5-2.9-6.5-6.5-6.5zM346.4 145.4c-3.6 0-6.5 2.9-6.5 6.5s2.9 6.5 6.5 6.5 6.5-2.9 6.5-6.5c0-3.5-3-6.5-6.5-6.5zM399.2 127.8c-3.6 0-6.5 2.9-6.5 6.5s2.9 6.5 6.5 6.5 6.5-2.9 6.5-6.5-2.9-6.5-6.5-6.5zM364 110.2c-3.6 0-6.5 2.9-6.5 6.5s2.9 6.5 6.5 6.5 6.5-2.9 6.5-6.5-2.9-6.5-6.5-6.5zM381.6 110.2c-3.6 0-6.5 2.9-6.5 6.5s2.9 6.5 6.5 6.5 6.5-2.9 6.5-6.5-2.9-6.5-6.5-6.5zM381.6 127.8c-3.6 0-6.5 2.9-6.5 6.5s2.9 6.5 6.5 6.5 6.5-2.9 6.5-6.5-2.9-6.5-6.5-6.5zM364 127.8c-3.6 0-6.5 2.9-6.5 6.5s2.9 6.5 6.5 6.5 6.5-2.9 6.5-6.5-2.9-6.5-6.5-6.5zM364 145.4c-3.6 0-6.5 2.9-6.5 6.5s2.9 6.5 6.5 6.5 6.5-2.9 6.5-6.5c0-3.5-2.9-6.5-6.5-6.5zM381.6 145.4c-3.6 0-6.5 2.9-6.5 6.5s2.9 6.5 6.5 6.5 6.5-2.9 6.5-6.5c0-3.5-2.9-6.5-6.5-6.5zM399.2 145.4c-3.6 0-6.5 2.9-6.5 6.5s2.9 6.5 6.5 6.5 6.5-2.9 6.5-6.5c0-3.5-2.9-6.5-6.5-6.5zM416.8 145.4c-3.6 0-6.5 2.9-6.5 6.5s2.9 6.5 6.5 6.5 6.5-2.9 6.5-6.5c.1-3.5-2.9-6.5-6.5-6.5zM346.4 163c-3.6 0-6.5 2.9-6.5 6.5s2.9 6.5 6.5 6.5 6.5-2.9 6.5-6.5c0-3.5-3-6.5-6.5-6.5zM364 163c-3.6 0-6.5 2.9-6.5 6.5s2.9 6.5 6.5 6.5 6.5-2.9 6.5-6.5c0-3.5-2.9-6.5-6.5-6.5zM381.6 163c-3.6 0-6.5 2.9-6.5 6.5s2.9 6.5 6.5 6.5 6.5-2.9 6.5-6.5c0-3.5-2.9-6.5-6.5-6.5zM399.2 163c-3.6 0-6.5 2.9-6.5 6.5s2.9 6.5 6.5 6.5 6.5-2.9 6.5-6.5c0-3.5-2.9-6.5-6.5-6.5zM416.8 163c-3.6 0-6.5 2.9-6.5 6.5s2.9 6.5 6.5 6.5 6.5-2.9 6.5-6.5c.1-3.5-2.9-6.5-6.5-6.5zM399.2 251.1c-3.6 0-6.5 2.9-6.5 6.5s2.9 6.5 6.5 6.5 6.5-2.9 6.5-6.5c0-3.5-2.9-6.5-6.5-6.5zM416.8 251.1c-3.6 0-6.5 2.9-6.5 6.5s2.9 6.5 6.5 6.5 6.5-2.9 6.5-6.5c.1-3.5-2.9-6.5-6.5-6.5zM399.2 233.5c-3.6 0-6.5 2.9-6.5 6.5s2.9 6.5 6.5 6.5 6.5-2.9 6.5-6.5c0-3.5-2.9-6.5-6.5-6.5zM416.8 233.5c-3.6 0-6.5 2.9-6.5 6.5s2.9 6.5 6.5 6.5 6.5-2.9 6.5-6.5c.1-3.5-2.9-6.5-6.5-6.5zM399.2 215.9c-3.6 0-6.5 2.9-6.5 6.5s2.9 6.5 6.5 6.5 6.5-2.9 6.5-6.5-2.9-6.5-6.5-6.5zM346.4 339.2c-3.6 0-6.5 2.9-6.5 6.5s2.9 6.5 6.5 6.5 6.5-2.9 6.5-6.5c0-3.5-3-6.5-6.5-6.5zM346.4 304c-3.6 0-6.5 2.9-6.5 6.5s2.9 6.5 6.5 6.5 6.5-2.9 6.5-6.5-3-6.5-6.5-6.5zM364 304c-3.6 0-6.5 2.9-6.5 6.5s2.9 6.5 6.5 6.5 6.5-2.9 6.5-6.5-2.9-6.5-6.5-6.5zM381.6 304c-3.6 0-6.5 2.9-6.5 6.5s2.9 6.5 6.5 6.5 6.5-2.9 6.5-6.5-2.9-6.5-6.5-6.5zM346.4 321.6c-3.6 0-6.5 2.9-6.5 6.5s2.9 6.5 6.5 6.5 6.5-2.9 6.5-6.5c0-3.5-3-6.5-6.5-6.5zM364 321.6c-3.6 0-6.5 2.9-6.5 6.5s2.9 6.5 6.5 6.5 6.5-2.9 6.5-6.5c0-3.5-2.9-6.5-6.5-6.5zM487.3 304c-3.6 0-6.5 2.9-6.5 6.5s2.9 6.5 6.5 6.5 6.5-2.9 6.5-6.5-2.9-6.5-6.5-6.5zM469.7 304c-3.6 0-6.5 2.9-6.5 6.5s2.9 6.5 6.5 6.5 6.5-2.9 6.5-6.5-2.9-6.5-6.5-6.5zM364 339.2c-3.6 0-6.5 2.9-6.5 6.5s2.9 6.5 6.5 6.5 6.5-2.9 6.5-6.5c0-3.5-2.9-6.5-6.5-6.5zM487.3 321.6c-3.6 0-6.5 2.9-6.5 6.5s2.9 6.5 6.5 6.5 6.5-2.9 6.5-6.5c0-3.5-2.9-6.5-6.5-6.5zM346.4 286.4c-3.6 0-6.5 2.9-6.5 6.5s2.9 6.5 6.5 6.5 6.5-2.9 6.5-6.5-3-6.5-6.5-6.5zM364 286.4c-3.6 0-6.5 2.9-6.5 6.5s2.9 6.5 6.5 6.5 6.5-2.9 6.5-6.5-2.9-6.5-6.5-6.5zM346.4 268.8c-3.6 0-6.5 2.9-6.5 6.5s2.9 6.5 6.5 6.5 6.5-2.9 6.5-6.5-3-6.5-6.5-6.5zM364 268.8c-3.6 0-6.5 2.9-6.5 6.5s2.9 6.5 6.5 6.5 6.5-2.9 6.5-6.5-2.9-6.5-6.5-6.5zM381.6 286.4c-3.6 0-6.5 2.9-6.5 6.5s2.9 6.5 6.5 6.5 6.5-2.9 6.5-6.5-2.9-6.5-6.5-6.5zM381.6 268.8c-3.6 0-6.5 2.9-6.5 6.5s2.9 6.5 6.5 6.5 6.5-2.9 6.5-6.5-2.9-6.5-6.5-6.5zM416.8 268.8c-3.6 0-6.5 2.9-6.5 6.5s2.9 6.5 6.5 6.5 6.5-2.9 6.5-6.5c.1-3.6-2.9-6.5-6.5-6.5zM399.2 268.8c-3.6 0-6.5 2.9-6.5 6.5s2.9 6.5 6.5 6.5 6.5-2.9 6.5-6.5-2.9-6.5-6.5-6.5zM504.9 321.6c-3.6 0-6.5 2.9-6.5 6.5s2.9 6.5 6.5 6.5 6.5-2.9 6.5-6.5c.1-3.5-2.9-6.5-6.5-6.5zM504.9 304c-3.6 0-6.5 2.9-6.5 6.5s2.9 6.5 6.5 6.5 6.5-2.9 6.5-6.5c.1-3.6-2.9-6.5-6.5-6.5zM469.7 286.4c-3.6 0-6.5 2.9-6.5 6.5s2.9 6.5 6.5 6.5 6.5-2.9 6.5-6.5-2.9-6.5-6.5-6.5zM452.1 286.4c-3.6 0-6.5 2.9-6.5 6.5s2.9 6.5 6.5 6.5 6.5-2.9 6.5-6.5-2.9-6.5-6.5-6.5zM487.3 286.4c-3.6 0-6.5 2.9-6.5 6.5s2.9 6.5 6.5 6.5 6.5-2.9 6.5-6.5-2.9-6.5-6.5-6.5zM487.3 392.1c-3.6 0-6.5 2.9-6.5 6.5s2.9 6.5 6.5 6.5 6.5-2.9 6.5-6.5-2.9-6.5-6.5-6.5zM469.7 339.2c-3.6 0-6.5 2.9-6.5 6.5s2.9 6.5 6.5 6.5 6.5-2.9 6.5-6.5c0-3.5-2.9-6.5-6.5-6.5zM469.7 356.9c-3.6 0-6.5 2.9-6.5 6.5s2.9 6.5 6.5 6.5 6.5-2.9 6.5-6.5-2.9-6.5-6.5-6.5zM504.9 409.7c-3.6 0-6.5 2.9-6.5 6.5s2.9 6.5 6.5 6.5 6.5-2.9 6.5-6.5c.1-3.5-2.9-6.5-6.5-6.5zM522.5 409.7c-3.6 0-6.5 2.9-6.5 6.5s2.9 6.5 6.5 6.5 6.5-2.9 6.5-6.5c.1-3.5-2.9-6.5-6.5-6.5zM575.4 409.7c-3.6 0-6.5 2.9-6.5 6.5s2.9 6.5 6.5 6.5 6.5-2.9 6.5-6.5c0-3.5-2.9-6.5-6.5-6.5zM593 409.7c-3.6 0-6.5 2.9-6.5 6.5s2.9 6.5 6.5 6.5 6.5-2.9 6.5-6.5c.1-3.5-2.9-6.5-6.5-6.5zM469.7 374.5c-3.6 0-6.5 2.9-6.5 6.5s2.9 6.5 6.5 6.5 6.5-2.9 6.5-6.5-2.9-6.5-6.5-6.5zM452.1 356.9c-3.6 0-6.5 2.9-6.5 6.5s2.9 6.5 6.5 6.5 6.5-2.9 6.5-6.5-2.9-6.5-6.5-6.5zM487.3 374.5c-3.6 0-6.5 2.9-6.5 6.5s2.9 6.5 6.5 6.5 6.5-2.9 6.5-6.5-2.9-6.5-6.5-6.5zM522.5 374.5c-3.6 0-6.5 2.9-6.5 6.5s2.9 6.5 6.5 6.5 6.5-2.9 6.5-6.5c.1-3.6-2.9-6.5-6.5-6.5zM522.5 356.9c-3.6 0-6.5 2.9-6.5 6.5s2.9 6.5 6.5 6.5 6.5-2.9 6.5-6.5c.1-3.6-2.9-6.5-6.5-6.5zM681.1 409.7c-3.6 0-6.5 2.9-6.5 6.5s2.9 6.5 6.5 6.5 6.5-2.9 6.5-6.5c.1-3.5-2.9-6.5-6.5-6.5zM663.5 409.7c-3.6 0-6.5 2.9-6.5 6.5s2.9 6.5 6.5 6.5 6.5-2.9 6.5-6.5c0-3.5-2.9-6.5-6.5-6.5zM663.5 392.1c-3.6 0-6.5 2.9-6.5 6.5s2.9 6.5 6.5 6.5 6.5-2.9 6.5-6.5-2.9-6.5-6.5-6.5zM628.3 392.1c-3.6 0-6.5 2.9-6.5 6.5s2.9 6.5 6.5 6.5 6.5-2.9 6.5-6.5-2.9-6.5-6.5-6.5zM645.9 392.1c-3.6 0-6.5 2.9-6.5 6.5s2.9 6.5 6.5 6.5 6.5-2.9 6.5-6.5-2.9-6.5-6.5-6.5zM452.1 268.8c-3.6 0-6.5 2.9-6.5 6.5s2.9 6.5 6.5 6.5 6.5-2.9 6.5-6.5-2.9-6.5-6.5-6.5zM434.5 268.8c-3.6 0-6.5 2.9-6.5 6.5s2.9 6.5 6.5 6.5 6.5-2.9 6.5-6.5-3-6.5-6.5-6.5zM469.7 268.8c-3.6 0-6.5 2.9-6.5 6.5s2.9 6.5 6.5 6.5 6.5-2.9 6.5-6.5-2.9-6.5-6.5-6.5zM487.3 268.8c-3.6 0-6.5 2.9-6.5 6.5s2.9 6.5 6.5 6.5 6.5-2.9 6.5-6.5-2.9-6.5-6.5-6.5zM328.7 268.8c-3.6 0-6.5 2.9-6.5 6.5s2.9 6.5 6.5 6.5 6.5-2.9 6.5-6.5c.1-3.6-2.9-6.5-6.5-6.5zM416.8 215.9c-3.6 0-6.5 2.9-6.5 6.5s2.9 6.5 6.5 6.5 6.5-2.9 6.5-6.5c.1-3.6-2.9-6.5-6.5-6.5zM434.5 215.9c-3.6 0-6.5 2.9-6.5 6.5s2.9 6.5 6.5 6.5 6.5-2.9 6.5-6.5-3-6.5-6.5-6.5zM434.5 233.5c-3.6 0-6.5 2.9-6.5 6.5s2.9 6.5 6.5 6.5 6.5-2.9 6.5-6.5c0-3.5-3-6.5-6.5-6.5zM434.5 251.1c-3.6 0-6.5 2.9-6.5 6.5s2.9 6.5 6.5 6.5 6.5-2.9 6.5-6.5c0-3.5-3-6.5-6.5-6.5zM434.5 198.3c-3.6 0-6.5 2.9-6.5 6.5s2.9 6.5 6.5 6.5 6.5-2.9 6.5-6.5-3-6.5-6.5-6.5zM434.5 180.7c-3.6 0-6.5 2.9-6.5 6.5s2.9 6.5 6.5 6.5 6.5-2.9 6.5-6.5-3-6.5-6.5-6.5zM452.1 198.3c-3.6 0-6.5 2.9-6.5 6.5s2.9 6.5 6.5 6.5 6.5-2.9 6.5-6.5-2.9-6.5-6.5-6.5zM452.1 180.7c-3.6 0-6.5 2.9-6.5 6.5s2.9 6.5 6.5 6.5 6.5-2.9 6.5-6.5-2.9-6.5-6.5-6.5zM469.7 127.8c-3.6 0-6.5 2.9-6.5 6.5s2.9 6.5 6.5 6.5 6.5-2.9 6.5-6.5-2.9-6.5-6.5-6.5zM434.5 145.4c-3.6 0-6.5 2.9-6.5 6.5s2.9 6.5 6.5 6.5 6.5-2.9 6.5-6.5c0-3.5-3-6.5-6.5-6.5zM452.1 145.4c-3.6 0-6.5 2.9-6.5 6.5s2.9 6.5 6.5 6.5 6.5-2.9 6.5-6.5c0-3.5-2.9-6.5-6.5-6.5zM469.7 145.4c-3.6 0-6.5 2.9-6.5 6.5s2.9 6.5 6.5 6.5 6.5-2.9 6.5-6.5c0-3.5-2.9-6.5-6.5-6.5zM434.5 163c-3.6 0-6.5 2.9-6.5 6.5s2.9 6.5 6.5 6.5 6.5-2.9 6.5-6.5c0-3.5-3-6.5-6.5-6.5zM452.1 163c-3.6 0-6.5 2.9-6.5 6.5s2.9 6.5 6.5 6.5 6.5-2.9 6.5-6.5c0-3.5-2.9-6.5-6.5-6.5zM469.7 163c-3.6 0-6.5 2.9-6.5 6.5s2.9 6.5 6.5 6.5 6.5-2.9 6.5-6.5c0-3.5-2.9-6.5-6.5-6.5zM452.1 251.1c-3.6 0-6.5 2.9-6.5 6.5s2.9 6.5 6.5 6.5 6.5-2.9 6.5-6.5c0-3.5-2.9-6.5-6.5-6.5zM452.1 233.5c-3.6 0-6.5 2.9-6.5 6.5s2.9 6.5 6.5 6.5 6.5-2.9 6.5-6.5c0-3.5-2.9-6.5-6.5-6.5zM452.1 215.9c-3.6 0-6.5 2.9-6.5 6.5s2.9 6.5 6.5 6.5 6.5-2.9 6.5-6.5-2.9-6.5-6.5-6.5zM557.8 180.7c-3.6 0-6.5 2.9-6.5 6.5s2.9 6.5 6.5 6.5 6.5-2.9 6.5-6.5-2.9-6.5-6.5-6.5zM487.3 127.8c-3.6 0-6.5 2.9-6.5 6.5s2.9 6.5 6.5 6.5 6.5-2.9 6.5-6.5-2.9-6.5-6.5-6.5zM487.3 110.2c-3.6 0-6.5 2.9-6.5 6.5s2.9 6.5 6.5 6.5 6.5-2.9 6.5-6.5-2.9-6.5-6.5-6.5zM504.9 92.6c-3.6 0-6.5 2.9-6.5 6.5s2.9 6.5 6.5 6.5 6.5-2.9 6.5-6.5c.1-3.6-2.9-6.5-6.5-6.5zM504.9 75c-3.6 0-6.5 2.9-6.5 6.5s2.9 6.5 6.5 6.5 6.5-2.9 6.5-6.5c.1-3.6-2.9-6.5-6.5-6.5zM522.5 75c-3.6 0-6.5 2.9-6.5 6.5s2.9 6.5 6.5 6.5 6.5-2.9 6.5-6.5c.1-3.6-2.9-6.5-6.5-6.5zM522.5 92.6c-3.6 0-6.5 2.9-6.5 6.5s2.9 6.5 6.5 6.5 6.5-2.9 6.5-6.5c.1-3.6-2.9-6.5-6.5-6.5zM487.3 57.3c-3.6 0-6.5 2.9-6.5 6.5s2.9 6.5 6.5 6.5 6.5-2.9 6.5-6.5c0-3.5-2.9-6.5-6.5-6.5zM504.9 57.3c-3.6 0-6.5 2.9-6.5 6.5s2.9 6.5 6.5 6.5 6.5-2.9 6.5-6.5c.1-3.5-2.9-6.5-6.5-6.5zM522.5 57.3c-3.6 0-6.5 2.9-6.5 6.5s2.9 6.5 6.5 6.5 6.5-2.9 6.5-6.5c.1-3.5-2.9-6.5-6.5-6.5zM416.8 22.1c-3.6 0-6.5 2.9-6.5 6.5s2.9 6.5 6.5 6.5 6.5-2.9 6.5-6.5c.1-3.6-2.9-6.5-6.5-6.5zM364 39.7c-3.6 0-6.5 2.9-6.5 6.5s2.9 6.5 6.5 6.5 6.5-2.9 6.5-6.5c0-3.5-2.9-6.5-6.5-6.5zM434.5 22.1c-3.6 0-6.5 2.9-6.5 6.5s2.9 6.5 6.5 6.5 6.5-2.9 6.5-6.5-3-6.5-6.5-6.5zM469.7 22.1c-3.6 0-6.5 2.9-6.5 6.5s2.9 6.5 6.5 6.5 6.5-2.9 6.5-6.5-2.9-6.5-6.5-6.5zM452.1 22.1c-3.6 0-6.5 2.9-6.5 6.5s2.9 6.5 6.5 6.5 6.5-2.9 6.5-6.5-2.9-6.5-6.5-6.5zM381.6 39.7c-3.6 0-6.5 2.9-6.5 6.5s2.9 6.5 6.5 6.5 6.5-2.9 6.5-6.5c0-3.5-2.9-6.5-6.5-6.5zM399.2 39.7c-3.6 0-6.5 2.9-6.5 6.5s2.9 6.5 6.5 6.5 6.5-2.9 6.5-6.5c0-3.5-2.9-6.5-6.5-6.5zM487.3 22.1c-3.6 0-6.5 2.9-6.5 6.5s2.9 6.5 6.5 6.5 6.5-2.9 6.5-6.5-2.9-6.5-6.5-6.5zM487.3 39.7c-3.6 0-6.5 2.9-6.5 6.5s2.9 6.5 6.5 6.5 6.5-2.9 6.5-6.5c0-3.5-2.9-6.5-6.5-6.5zM504.9 39.7c-3.6 0-6.5 2.9-6.5 6.5s2.9 6.5 6.5 6.5 6.5-2.9 6.5-6.5c.1-3.5-2.9-6.5-6.5-6.5zM504.9 22.1c-3.6 0-6.5 2.9-6.5 6.5s2.9 6.5 6.5 6.5 6.5-2.9 6.5-6.5c.1-3.6-2.9-6.5-6.5-6.5zM522.5 22.1c-3.6 0-6.5 2.9-6.5 6.5s2.9 6.5 6.5 6.5 6.5-2.9 6.5-6.5c.1-3.6-2.9-6.5-6.5-6.5zM522.5 39.7c-3.6 0-6.5 2.9-6.5 6.5s2.9 6.5 6.5 6.5 6.5-2.9 6.5-6.5c.1-3.5-2.9-6.5-6.5-6.5zM540.2 39.7c-3.6 0-6.5 2.9-6.5 6.5s2.9 6.5 6.5 6.5 6.5-2.9 6.5-6.5c0-3.5-2.9-6.5-6.5-6.5zM487.3 145.4c-3.6 0-6.5 2.9-6.5 6.5s2.9 6.5 6.5 6.5 6.5-2.9 6.5-6.5c0-3.5-2.9-6.5-6.5-6.5zM540.2 127.8c-3.6 0-6.5 2.9-6.5 6.5s2.9 6.5 6.5 6.5 6.5-2.9 6.5-6.5-2.9-6.5-6.5-6.5zM504.9 110.2c-3.6 0-6.5 2.9-6.5 6.5s2.9 6.5 6.5 6.5 6.5-2.9 6.5-6.5c.1-3.6-2.9-6.5-6.5-6.5zM522.5 110.2c-3.6 0-6.5 2.9-6.5 6.5s2.9 6.5 6.5 6.5 6.5-2.9 6.5-6.5c.1-3.6-2.9-6.5-6.5-6.5zM522.5 127.8c-3.6 0-6.5 2.9-6.5 6.5s2.9 6.5 6.5 6.5 6.5-2.9 6.5-6.5c.1-3.6-2.9-6.5-6.5-6.5zM504.9 127.8c-3.6 0-6.5 2.9-6.5 6.5s2.9 6.5 6.5 6.5 6.5-2.9 6.5-6.5c.1-3.6-2.9-6.5-6.5-6.5zM504.9 145.4c-3.6 0-6.5 2.9-6.5 6.5s2.9 6.5 6.5 6.5 6.5-2.9 6.5-6.5c.1-3.5-2.9-6.5-6.5-6.5zM522.5 145.4c-3.6 0-6.5 2.9-6.5 6.5s2.9 6.5 6.5 6.5 6.5-2.9 6.5-6.5c.1-3.5-2.9-6.5-6.5-6.5zM540.2 145.4c-3.6 0-6.5 2.9-6.5 6.5s2.9 6.5 6.5 6.5 6.5-2.9 6.5-6.5c0-3.5-2.9-6.5-6.5-6.5zM557.8 145.4c-3.6 0-6.5 2.9-6.5 6.5s2.9 6.5 6.5 6.5 6.5-2.9 6.5-6.5c0-3.5-2.9-6.5-6.5-6.5zM487.3 163c-3.6 0-6.5 2.9-6.5 6.5s2.9 6.5 6.5 6.5 6.5-2.9 6.5-6.5c0-3.5-2.9-6.5-6.5-6.5zM540.2 163c-3.6 0-6.5 2.9-6.5 6.5s2.9 6.5 6.5 6.5 6.5-2.9 6.5-6.5c0-3.5-2.9-6.5-6.5-6.5zM557.8 163c-3.6 0-6.5 2.9-6.5 6.5s2.9 6.5 6.5 6.5 6.5-2.9 6.5-6.5c0-3.5-2.9-6.5-6.5-6.5zM575.4 145.4c-3.6 0-6.5 2.9-6.5 6.5s2.9 6.5 6.5 6.5 6.5-2.9 6.5-6.5c0-3.5-2.9-6.5-6.5-6.5zM575.4 163c-3.6 0-6.5 2.9-6.5 6.5s2.9 6.5 6.5 6.5 6.5-2.9 6.5-6.5c0-3.5-2.9-6.5-6.5-6.5zM645.9 92.6c-3.6 0-6.5 2.9-6.5 6.5s2.9 6.5 6.5 6.5 6.5-2.9 6.5-6.5-2.9-6.5-6.5-6.5zM663.5 92.6c-3.6 0-6.5 2.9-6.5 6.5s2.9 6.5 6.5 6.5 6.5-2.9 6.5-6.5-2.9-6.5-6.5-6.5zM663.5 75c-3.6 0-6.5 2.9-6.5 6.5s2.9 6.5 6.5 6.5 6.5-2.9 6.5-6.5-2.9-6.5-6.5-6.5zM645.9 75c-3.6 0-6.5 2.9-6.5 6.5s2.9 6.5 6.5 6.5 6.5-2.9 6.5-6.5-2.9-6.5-6.5-6.5zM663.5 57.3c-3.6 0-6.5 2.9-6.5 6.5s2.9 6.5 6.5 6.5 6.5-2.9 6.5-6.5c0-3.5-2.9-6.5-6.5-6.5zM645.9 57.3c-3.6 0-6.5 2.9-6.5 6.5s2.9 6.5 6.5 6.5 6.5-2.9 6.5-6.5c0-3.5-2.9-6.5-6.5-6.5zM681.1 75c-3.6 0-6.5 2.9-6.5 6.5s2.9 6.5 6.5 6.5 6.5-2.9 6.5-6.5c.1-3.6-2.9-6.5-6.5-6.5zM681.1 57.3c-3.6 0-6.5 2.9-6.5 6.5s2.9 6.5 6.5 6.5 6.5-2.9 6.5-6.5c.1-3.5-2.9-6.5-6.5-6.5zM681.1 39.7c-3.6 0-6.5 2.9-6.5 6.5s2.9 6.5 6.5 6.5 6.5-2.9 6.5-6.5c.1-3.5-2.9-6.5-6.5-6.5zM698.7 39.7c-3.6 0-6.5 2.9-6.5 6.5s2.9 6.5 6.5 6.5 6.5-2.9 6.5-6.5c.1-3.5-2.9-6.5-6.5-6.5zM804.5 57.3c-3.6 0-6.5 2.9-6.5 6.5s2.9 6.5 6.5 6.5 6.5-2.9 6.5-6.5c0-3.5-3-6.5-6.5-6.5zM804.5 75c-3.6 0-6.5 2.9-6.5 6.5s2.9 6.5 6.5 6.5 6.5-2.9 6.5-6.5-3-6.5-6.5-6.5zM822.1 75c-3.6 0-6.5 2.9-6.5 6.5s2.9 6.5 6.5 6.5 6.5-2.9 6.5-6.5-2.9-6.5-6.5-6.5zM839.7 57.3c-3.6 0-6.5 2.9-6.5 6.5s2.9 6.5 6.5 6.5 6.5-2.9 6.5-6.5c0-3.5-2.9-6.5-6.5-6.5zM822.1 57.3c-3.6 0-6.5 2.9-6.5 6.5s2.9 6.5 6.5 6.5 6.5-2.9 6.5-6.5c0-3.5-2.9-6.5-6.5-6.5zM681.1 92.6c-3.6 0-6.5 2.9-6.5 6.5s2.9 6.5 6.5 6.5 6.5-2.9 6.5-6.5c.1-3.6-2.9-6.5-6.5-6.5zM575.4 180.7c-3.6 0-6.5 2.9-6.5 6.5s2.9 6.5 6.5 6.5 6.5-2.9 6.5-6.5-2.9-6.5-6.5-6.5zM593 180.7c-3.6 0-6.5 2.9-6.5 6.5s2.9 6.5 6.5 6.5 6.5-2.9 6.5-6.5c.1-3.6-2.9-6.5-6.5-6.5zM645.9 39.7c-3.6 0-6.5 2.9-6.5 6.5s2.9 6.5 6.5 6.5 6.5-2.9 6.5-6.5c0-3.5-2.9-6.5-6.5-6.5zM663.5 39.7c-3.6 0-6.5 2.9-6.5 6.5s2.9 6.5 6.5 6.5 6.5-2.9 6.5-6.5c0-3.5-2.9-6.5-6.5-6.5zM593 145.4c-3.6 0-6.5 2.9-6.5 6.5s2.9 6.5 6.5 6.5 6.5-2.9 6.5-6.5c.1-3.5-2.9-6.5-6.5-6.5zM645.9 127.8c-3.6 0-6.5 2.9-6.5 6.5s2.9 6.5 6.5 6.5 6.5-2.9 6.5-6.5-2.9-6.5-6.5-6.5zM663.5 127.8c-3.6 0-6.5 2.9-6.5 6.5s2.9 6.5 6.5 6.5 6.5-2.9 6.5-6.5-2.9-6.5-6.5-6.5zM645.9 110.2c-3.6 0-6.5 2.9-6.5 6.5s2.9 6.5 6.5 6.5 6.5-2.9 6.5-6.5-2.9-6.5-6.5-6.5zM663.5 22.1c-3.6 0-6.5 2.9-6.5 6.5s2.9 6.5 6.5 6.5 6.5-2.9 6.5-6.5-2.9-6.5-6.5-6.5zM628.3 127.8c-3.6 0-6.5 2.9-6.5 6.5s2.9 6.5 6.5 6.5 6.5-2.9 6.5-6.5-2.9-6.5-6.5-6.5zM610.6 145.4c-3.6 0-6.5 2.9-6.5 6.5s2.9 6.5 6.5 6.5 6.5-2.9 6.5-6.5c.1-3.5-2.9-6.5-6.5-6.5zM628.3 145.4c-3.6 0-6.5 2.9-6.5 6.5s2.9 6.5 6.5 6.5 6.5-2.9 6.5-6.5c0-3.5-2.9-6.5-6.5-6.5zM645.9 145.4c-3.6 0-6.5 2.9-6.5 6.5s2.9 6.5 6.5 6.5 6.5-2.9 6.5-6.5c0-3.5-2.9-6.5-6.5-6.5zM663.5 145.4c-3.6 0-6.5 2.9-6.5 6.5s2.9 6.5 6.5 6.5 6.5-2.9 6.5-6.5c0-3.5-2.9-6.5-6.5-6.5zM593 163c-3.6 0-6.5 2.9-6.5 6.5s2.9 6.5 6.5 6.5 6.5-2.9 6.5-6.5c.1-3.5-2.9-6.5-6.5-6.5zM610.6 163c-3.6 0-6.5 2.9-6.5 6.5s2.9 6.5 6.5 6.5 6.5-2.9 6.5-6.5c.1-3.5-2.9-6.5-6.5-6.5zM628.3 163c-3.6 0-6.5 2.9-6.5 6.5s2.9 6.5 6.5 6.5 6.5-2.9 6.5-6.5c0-3.5-2.9-6.5-6.5-6.5zM593 198.3c-3.6 0-6.5 2.9-6.5 6.5s2.9 6.5 6.5 6.5 6.5-2.9 6.5-6.5c.1-3.6-2.9-6.5-6.5-6.5zM540.2 268.8c-3.6 0-6.5 2.9-6.5 6.5s2.9 6.5 6.5 6.5 6.5-2.9 6.5-6.5-2.9-6.5-6.5-6.5zM557.8 251.1c-3.6 0-6.5 2.9-6.5 6.5s2.9 6.5 6.5 6.5 6.5-2.9 6.5-6.5c0-3.5-2.9-6.5-6.5-6.5zM82.1 515.4c-3.6 0-6.5 2.9-6.5 6.5s2.9 6.5 6.5 6.5 6.5-2.9 6.5-6.5c0-3.5-2.9-6.5-6.5-6.5zM99.7 515.4c-3.6 0-6.5 2.9-6.5 6.5s2.9 6.5 6.5 6.5 6.5-2.9 6.5-6.5c0-3.5-2.9-6.5-6.5-6.5zM117.3 515.4c-3.6 0-6.5 2.9-6.5 6.5s2.9 6.5 6.5 6.5 6.5-2.9 6.5-6.5c0-3.5-2.9-6.5-6.5-6.5zM99.7 533.1c-3.6 0-6.5 2.9-6.5 6.5s2.9 6.5 6.5 6.5 6.5-2.9 6.5-6.5-2.9-6.5-6.5-6.5zM117.3 533.1c-3.6 0-6.5 2.9-6.5 6.5s2.9 6.5 6.5 6.5 6.5-2.9 6.5-6.5-2.9-6.5-6.5-6.5zM134.9 515.4c-3.6 0-6.5 2.9-6.5 6.5s2.9 6.5 6.5 6.5 6.5-2.9 6.5-6.5c.1-3.5-2.9-6.5-6.5-6.5z"/></g><g><path class="st2" d="M307.3 14.8h-454.1c-10 0-13.6 5.9-13.6 15.9v311H330v-311c0-10-12.7-15.9-22.7-15.9z"/><path class="st2" d="M-146.8 396.2h454.1c10 0 22.7-10.4 22.7-20.4v-36.3 18.2-15.9H-160.4v15.9-18.2 36.3c0 9.9 3.6 20.4 13.6 20.4z"/><path class="st3" d="M-142.2 42h454.1v281.5h-454.1z"/><path class="st4" d="M-119.5 78.3H66.7v13.6h-186.2zM-119.5 128.3H66.7v13.6h-186.2zM-119.5 178.2H66.7v13.6h-186.2zM-119.5 228.2H66.7v13.6h-186.2zM-119.5 278.1H66.7v13.6h-186.2zM103 78.3h186.2v13.6H103zM103 128.3h186.2v13.6H103zM103 178.2h186.2v13.6H103zM103 228.2h186.2v13.6H103zM103 278.1h186.2v13.6H103z"/><path class="st5" d="M192.2 184H-15.4c-15.5 0-28.6 12.7-28.6 28.2V396h21v54.7l-9.8 18.3h163.5l-8.7-18.3V396h98V212.2c0-15.5-12.3-28.2-27.8-28.2z"/><path class="st6" d="M56.2 482.1h40.6v29H56.2z"/><path class="st3" d="M-43.5 185.4h237.6v294.4H-43.5z"/><path class="st7" d="M180 171.9H-27.6c-15.5 0-28.1 12.6-28.1 28.1v304.5h19.5V191.8h224.9v284H-55.5V518H180c15.5 0 28.1-12.6 28.1-28.1V200c0-15.5-12.6-28.1-28.1-28.1zM76.2 508.7c-6.2 0-11.1-5-11.1-11.1 0-6.2 5-11.1 11.1-11.1 6.2 0 11.1 5 11.1 11.1s-5 11.1-11.1 11.1z"/><path class="st4" d="M-9.1 242.8h55.8v13.6H-9.1zM-9.1 291.5h55.8v13.6H-9.1zM-9.1 340.2h55.8v13.6H-9.1zM-9.1 388.9h55.8v13.6H-9.1z"/><path class="st5" d="M67.1 413H-39.3c-10.8 0-19.7 8.9-19.7 19.7V518H86v-85.3c0-10.8-8.1-19.7-18.9-19.7z"/><path class="st3" d="M-66.2 432.7H70.6v165.4H-66.2z"/><path class="st6" d="M-19 413.5h49.1v14.9H-19z"/><path class="st7" d="M56.1 400.9H-50.2c-10.8 0-19.6 8.8-19.6 19.6V612c0 10.8 8.8 19.6 19.6 19.6H56.1c10.8 0 19.6-8.8 19.6-19.6V420.5c.1-10.8-8.7-19.6-19.6-19.6zm-66.7 16.8h27.2c1.4 0 2.5 1.1 2.5 2.5s-1.1 2.5-2.5 2.5h-27.2c-1.4 0-2.5-1.1-2.5-2.5-.1-1.4 1.1-2.5 2.5-2.5zM3 625.9c-6.5 0-11.8-5.3-11.8-11.8 0-6.5 5.3-11.8 11.8-11.8 6.5 0 11.8 5.3 11.8 11.8 0 6.6-5.3 11.8-11.8 11.8zm65.4-30.7H-62.5V437.3H68.4v157.9z"/><path class="st4" d="M-45.6 459.6h92.4v13.6h-92.4zM-45.6 503.4h92.4V517h-92.4zM-45.6 547.3h92.4v13.6h-92.4z"/><path class="st8" d="M76.5 220.9h90.1v74.3H76.5zM76.5 318.3h90.1v74.3H76.5z"/><path class="st9" d="M270.4 378.6c-6.5 0-11.7-5.3-11.7-11.7 0-6.5 5.3-11.7 11.7-11.7 6.5 0 11.7 5.3 11.7 11.7.1 6.4-5.2 11.7-11.7 11.7z"/><path class="st4" d="M95.1 592H86v19h9.1c3.9 0 6.9-4.3 6.9-8.2v-3.1c0-3.8-3-7.7-6.9-7.7zM80.1 612.1h2.5c.6 0 1.1-.5 1.1-1.1v-19c0-.6-.5-1.1-1.1-1.1h-2.5c-.6 0-1.1.5-1.1 1.1v19c-.1.6.4 1.1 1.1 1.1z"/><path class="st4" d="M80.1 612.1h2.5c.6 0 1.1-.5 1.1-1.1v-19c0-.6-.5-1.1-1.1-1.1h-2.5c-.6 0-1.1.5-1.1 1.1v19c-.1.6.4 1.1 1.1 1.1z"/><path class="st2" d="M86 602v9h9.1c3.9 0 6.9-4.3 6.9-8.2v-.8H86z"/><path class="st4" d="M146 537.7V528h18v9.7c0 3.9-3.8 7.3-7.6 7.3h-3.1c-3.9 0-7.3-3.4-7.3-7.3zM165.6 521.8v2.5c0 .6-.5 1.1-1.1 1.1h-19c-.6 0-1.1-.5-1.1-1.1v-2.5c0-.6.5-1.1 1.1-1.1h19c.6 0 1.1.5 1.1 1.1z"/><path class="st4" d="M165.6 521.8v2.5c0 .6-.5 1.1-1.1 1.1h-19c-.6 0-1.1-.5-1.1-1.1v-2.5c0-.6.5-1.1 1.1-1.1h19c.6 0 1.1.5 1.1 1.1z"/><path class="st2" d="M156 528h8v9.7c0 3.9-3.8 7.3-7.6 7.3h-.4v-17z"/><path class="st10" d="M2.7 625.6c-6.5 0-11.7-5.3-11.7-11.7 0-6.5 5.3-11.7 11.7-11.7 6.5 0 11.7 5.3 11.7 11.7.1 6.4-5.2 11.7-11.7 11.7z"/><path class="st11" d="M587.9 514.3l58.4-72.1-71.6 1.6 9.1 63.8z"/><path class="st12" d="M919.4 393.8c0-8.3-2.8-15.9-7.5-22l-.7-.9c-5.3-6.5-12.7-10.9-20.7-12.6-.6-.1-1.1-.2-1.7-.3h-.2c-.5-.1-1.1-.1-1.6-.2h-.2c-.5-.1-1.1-.1-1.6-.1h-3.8c-.5 0-1.1.1-1.6.1h-.2c-.5.1-1.1.1-1.6.2h-.2c-.6.1-1.1.2-1.7.3-8.1 1.7-15.4 6-20.7 12.6l-.7.9c-4.7 6.1-7.5 13.7-7.5 22s2.8 15.9 7.5 22l.7.9c5.3 6.5 12.7 10.9 20.7 12.6.6.1 1.1.2 1.7.3h.2c.5.1 1.1.1 1.6.2h.2c.5.1 1.1.1 1.6.1h3.8c.5 0 1.1-.1 1.6-.1h.2c.5-.1 1.1-.1 1.6-.2h.2c.6-.1 1.1-.2 1.7-.3 8.1-1.7 15.4-6 20.7-12.6l.7-.9c4.7-6.1 7.5-13.7 7.5-22zm-9.3-20.7c4.4 5.7 7.1 13.6 7.1 21.4v2.5h-6.5v-2.5c0-6.8-1.4-13.6-3.9-19 1.1-.6 2.3-1.7 3.3-2.4zM858 397v-2.5c0-6.5 1.4-12.9 3.7-18.1 6.2 2.8 13.7 4.1 21.5 4.1s15.4-1.6 21.5-4.4c2.3 5.2 3.7 11.9 3.7 18.4v2.4H858zm50.2 2c-.4 6-1.7 9-3.5 13.1-6.2-2.8-13.7-4.6-21.5-4.6s-15.4 2-21.5 4.8c-1.9-4.1-3.1-7.3-3.5-13.3h50zm.5-27.6c-.9.6-1.9 1.2-3 1.8-2.1-4-4.9-7.5-8.1-10.1 4.3 2 8.1 4.8 11.1 8.3zm-25.5-11.6c8.5 0 16 5.7 20.6 14.3-5.9 2.6-13 4.1-20.6 4.1s-14.7-1.5-20.6-4.1c4.6-8.6 12.1-14.3 20.6-14.3zm-14.5 3.3c-3.2 2.6-5.9 6.1-8.1 10.1-1.1-.6-2.1-1.1-3-1.8 3.1-3.5 6.9-6.3 11.1-8.3zm-19.5 31.4c0-7.8 2.6-15.3 7.1-21.1 1.1.7 2.2 1.2 3.4 1.9-2.5 5.5-3.9 12.5-3.9 19.3v2.4h-6.5c-.1-1-.1-1.9-.1-2.5zm7 20.6c-3.7-4.7-6.1-9.1-6.8-16.1h6.5c.4 6 1.8 10 3.8 14.4-1.3.6-2.4 1-3.5 1.7zm1.4 1.2c.9-.6 1.9-1.2 3-1.8 2.1 4 4.9 7.5 8.1 10.1-4.2-2-8-4.9-11.1-8.3zm25.6 11.5c-8.5 0-16-5.7-20.6-14.3 5.9-2.6 13-4.1 20.6-4.1s14.7 1.5 20.6 4.1c-4.7 8.7-12.2 14.3-20.6 14.3zm14.5-3.2c3.2-2.6 5.9-6.1 8.1-10.1 1.1.6 2.1 1.1 3 1.8-3.1 3.4-6.9 6.3-11.1 8.3zm12.4-9.5c-1.1-.7-2.2-1.1-3.4-1.8 2-4.4 3.3-8.4 3.8-14.4h6.5c-.8 7.1-3.2 11.5-6.9 16.2z"/><path class="st8" d="M105.8 602.1h406.1c40.5 0 73.3-32.7 73.5-73.2l.3-43.7v2.4"/><path class="st8" d="M265.1 425.9v98.2c0 24.3 19.7 44 44 44H526c32.9 0 59.6-26.7 59.6-59.6v-39 18.3"/><path class="st4" d="M256 415.9V406h18v9.9c0 3.9-4.1 7.1-8 7.1h-3.1c-3.8 0-6.9-3.2-6.9-7.1zM275.3 400v2.5c0 .6-.5 1.1-1.1 1.1h-19c-.6 0-1.1-.5-1.1-1.1V400c0-.6.5-1.1 1.1-1.1h19c.6 0 1.1.5 1.1 1.1z"/><path class="st4" d="M275.3 400v2.5c0 .6-.5 1.1-1.1 1.1h-19c-.6 0-1.1-.5-1.1-1.1V400c0-.6.5-1.1 1.1-1.1h19c.6 0 1.1.5 1.1 1.1z"/><path class="st2" d="M265 406h9v9.9c0 3.9-4.1 7.1-8 7.1h-1v-17z"/><path class="st8" d="M155.7 547.3v20.9c0 18.7 15.2 33.9 33.9 33.9h17.3"/><path class="st1" d="M588 513.9h-5.9l-54.9-77h115.7z"/><path class="st7" d="M584.7 513h3.3l54.9-75h-41.2z"/><circle class="st6" cx="586.3" cy="354.2" r="61.5"/><circle class="st13" cx="510.4" cy="221.4" r="61.5"/><circle class="st6" cx="662.1" cy="221.4" r="61.5"/><circle class="st6" cx="434.6" cy="88.7" r="61.5"/><circle class="st6" cx="586.3" cy="88.7" r="61.5"/><circle class="st6" cx="738" cy="88.7" r="61.5"/><path class="st1" d="M607.7 347.8h-8.2v-6.1c0-.2-.1-3.2-1.6-6.1-1.8-3.5-5-5.2-9.6-5.2-4.7 0-7.9 1.8-9.7 5.4-1.4 2.8-1.5 5.8-1.5 5.8v6.1H569v-6.1c0-.5.1-4.9 2.4-9.5 3.2-6.4 9.2-9.9 17-9.9 7.8 0 13.8 3.5 17 9.9 2.3 4.5 2.4 9 2.4 9.5v6.2zM608.8 350.9H568c-2.2 0-4.1 1.8-4.1 4.1v25.5c0 2.2 1.8 4.1 4.1 4.1h40.8c2.2 0 4.1-1.8 4.1-4.1V355c-.1-2.3-1.9-4.1-4.1-4.1zM580 380.7l2.6-12.3c-1.1-1.3-1.7-3-1.7-4.8 0-4.2 3.4-7.5 7.5-7.5 4.2 0 7.5 3.4 7.5 7.5 0 1.8-.6 3.5-1.7 4.8l2.6 12.3H580z"/><path class="st1" d="M592.2 377.6l-1.7-10.7c.9-.7 1.5-1.8 1.5-3 0-2.1-1.7-3.9-3.9-3.9-2.1 0-3.9 1.7-3.9 3.9 0 1.2.6 2.3 1.5 3l-1.7 10.7h8.2zM667 192.6V189h5v-7h-19v7h3v3.6c-14 2.6-25.5 15.5-25.5 30.8 0 17.3 14.2 31.3 31.5 31.3s31.1-14.1 31.1-31.3c-.1-15.3-11.1-28.1-26.1-30.8zm-4.9 58.3c-15.1 0-27.4-12.3-27.4-27.4 0-15.1 12.3-27.4 27.4-27.4 15.1 0 27.4 12.3 27.4 27.4 0 15.1-12.3 27.4-27.4 27.4z"/><path class="st1" d="M662.1 197.4c-14.4 0-26.1 11.7-26.1 26.1 0 14.4 11.7 26.1 26.1 26.1 14.4 0 26.1-11.7 26.1-26.1 0-14.4-11.7-26.1-26.1-26.1zm-9.5 45.8c-5-2.5-9-6.9-10.9-12.6-3.8-11.4 2.4-23.8 13.8-27.6 5.7-1.9 11.6-1.3 16.6 1.2l-.2.3-4.2 3.4c-3.6-1.1-7.5-1.2-11.3.1-9.7 3.2-14.9 13.7-11.7 23.4 1.5 4.6 4.7 8.1 8.6 10.3l-.7 1.5zm23.8-29.9l-7.9 9.4v.8c0 3.6-2.9 6.4-6.4 6.4-3.6 0-6.4-2.9-6.4-6.4s2.9-6.4 6.4-6.4c.5 0 1 .1 1.5.2l9.1-7.6c2-1.7 4.4-2.4 5.3-1.6.8.8.1 3.2-1.6 5.2z"/><path class="st4" d="M551.5 219.6c0-7.4-4.9-13.6-11.6-15.6-4.4-12.5-16.3-21.5-30.3-21.5-13.6 0-25.3 8.6-30 20.6-6.8 1.9-12.2 8.2-12.2 15.7 0 8.8 7.5 16 15.5 16.3v-32.4c5-9.9 14.8-16.7 26.4-16.7 11.8 0 22.2 7.2 26.6 17.4-.1 0 1 0 0 0v32.4l-10.6 10.3c-2 2-4.9 2.9-7.8 2.9h-2.4c-.9-1-3.4-4.3-6.3-4.3-3.7 0-6.6 3.1-6.6 6.7 0 3.7 3 6.7 6.6 6.7 3.2 0 5.9-2.2 6.5-5.2h2.2c3.8 0 7.4-1.5 10.1-4.2l13.7-13.8-.2-.2c6.2-2.3 10.4-8.2 10.4-15.1z"/><ellipse class="st1" cx="738.6" cy="68" rx="28.5" ry="6.4"/><path class="st1" d="M767.2 73.3c-.1 3.5-12.8 6.3-28.5 6.3s-28.4-2.8-28.5-6.3V89c0 3.5 12.8 6.4 28.5 6.4s28.5-2.8 28.5-6.4V73.3z"/><path class="st1" d="M767.2 93.6c-.1 3.5-12.8 6.3-28.5 6.3s-28.4-2.8-28.5-6.3v15.7c0 3.5 12.8 6.4 28.5 6.4s28.5-2.8 28.5-6.4V93.6zM574 73.4c-1.6 0-2.8-1.3-2.8-2.8V55.5c0-1.6 1.3-2.8 2.8-2.8 1.6 0 2.8 1.3 2.8 2.8v15.1c0 1.5-1.2 2.8-2.8 2.8zM598.6 73.4c-1.6 0-2.8-1.3-2.8-2.8V55.5c0-1.6 1.3-2.8 2.8-2.8 1.6 0 2.8 1.3 2.8 2.8v15.1c0 1.5-1.3 2.8-2.8 2.8z"/><path class="st1" d="M602.8 63.1v7.7c0 2.3-1.9 4.3-4.3 4.3-2.3 0-4.3-1.9-4.3-4.3v-7.7h-16v7.7c0 2.3-1.9 4.3-4.3 4.3-2.3 0-4.3-1.9-4.3-4.3v-7.7h-12.4V121h57.9V63.1h-12.3zm-28.6 50h-8v-8h8v8zm0-10.7h-8v-8h8v8zm0-10.8h-8v-8h8v8zm10.7 21.5h-8v-8h8v8zm0-10.7h-8v-8h8v8zm0-10.8h-8v-8h8v8zm10.8 21.5h-8v-8h8v8zm0-10.7h-8v-8h8v8zm0-10.8h-8v-8h8v8zm10.7 21.5h-8v-8h8v8zm0-10.7h-8v-8h8v8zm0-10.8h-8v-8h8v8z"/><g><path class="st1" d="M398.8 87h15.3c1.1-10 7.9-17.1 17.9-18.1V53.6C414 54.7 399.9 69 398.8 87zM455.3 87h15.3C469.4 69 455 54.7 437 53.6v15.3c10 1 17.2 8.1 18.3 18.1zM414.1 92h-15.3c1.2 17 15.2 31.8 33.2 33v-15.3c-10-1.1-16.9-9.7-17.9-17.7zM437 109.7V125c18-1.2 32.4-16 33.6-33h-15.3c-1.1 8-8.3 16.6-18.3 17.7z"/></g></g></svg>