<svg xmlns="http://www.w3.org/2000/svg" xmlns:xlink="http://www.w3.org/1999/xlink" width="897" height="604" viewBox="0 0 897 604"><style>.st0{display:none;} .st1{display:inline;opacity:0.82;} .st2{opacity:0.82;} .st3{clip-path:url(#SVGID_2_);} .st4{fill:#FFFFFF;} .st5{display:inline;fill-rule:evenodd;clip-rule:evenodd;fill:#586C7A;} .st6{fill-rule:evenodd;clip-rule:evenodd;fill:#F3F3F2;} .st7{fill-rule:evenodd;clip-rule:evenodd;fill:#9ACEE8;} .st8{fill-rule:evenodd;clip-rule:evenodd;fill:#A6A6A7;} .st9{fill-rule:evenodd;clip-rule:evenodd;fill:#FFFFFF;} .st10{fill:#F18F09;} .st11{fill:#F3F3F2;} .st12{opacity:0.6;fill:#030202;} .st13{fill-rule:evenodd;clip-rule:evenodd;fill:none;stroke:#FFFFFF;stroke-width:3.4329;stroke-miterlimit:10;} .st14{fill-rule:evenodd;clip-rule:evenodd;fill:#F18F09;} .st15{fill-rule:evenodd;clip-rule:evenodd;fill:#F18F09;stroke:#FFFFFF;stroke-width:2.2886;stroke-miterlimit:10;} .st16{opacity:0.6;fill-rule:evenodd;clip-rule:evenodd;fill:#FFFFFF;} .st17{opacity:0.5;fill:#030202;} .st18{fill-rule:evenodd;clip-rule:evenodd;fill:#586C7A;} .st19{opacity:0.6;fill-rule:evenodd;clip-rule:evenodd;fill:#030202;} .st20{fill-rule:evenodd;clip-rule:evenodd;fill:none;stroke:#FFFFFF;stroke-width:3.1581;stroke-miterlimit:10;}</style><g class="st0"><g class="st1"><defs><path id="SVGID_1_" class="st2" d="M83.6-14h878.8v630H83.6z"/></defs><clipPath id="SVGID_2_"><use xlink:href="#SVGID_1_" overflow="visible"/></clipPath><g class="st3"><path class="st4" d="M182.1 320.3c-3.6 0-6.6 3-6.6 6.6 0 3.6 3 6.6 6.6 6.6 3.6 0 6.6-3 6.6-6.6 0-3.7-3-6.6-6.6-6.6zM58 391.2c-3.6 0-6.6 3-6.6 6.6 0 3.6 3 6.6 6.6 6.6 3.6 0 6.6-3 6.6-6.6 0-3.7-3-6.6-6.6-6.6zM75.7 391.2c-3.6 0-6.6 3-6.6 6.6 0 3.6 3 6.6 6.6 6.6 3.6 0 6.6-3 6.6-6.6 0-3.7-2.9-6.6-6.6-6.6zM93.5 391.2c-3.6 0-6.6 3-6.6 6.6 0 3.6 3 6.6 6.6 6.6 3.6 0 6.6-3 6.6-6.6-.1-3.7-3-6.6-6.6-6.6zM111.2 391.2c-3.6 0-6.6 3-6.6 6.6 0 3.6 3 6.6 6.6 6.6 3.6 0 6.6-3 6.6-6.6 0-3.7-3-6.6-6.6-6.6zM128.9 391.2c-3.6 0-6.6 3-6.6 6.6 0 3.6 3 6.6 6.6 6.6 3.6 0 6.6-3 6.6-6.6 0-3.7-3-6.6-6.6-6.6zM146.7 391.2c-3.6 0-6.6 3-6.6 6.6 0 3.6 3 6.6 6.6 6.6 3.6 0 6.6-3 6.6-6.6-.1-3.7-3-6.6-6.6-6.6zM164.4 391.2c-3.6 0-6.6 3-6.6 6.6 0 3.6 3 6.6 6.6 6.6 3.6 0 6.6-3 6.6-6.6 0-3.7-3-6.6-6.6-6.6zM128.9 320.3c-3.6 0-6.6 3-6.6 6.6 0 3.6 3 6.6 6.6 6.6 3.6 0 6.6-3 6.6-6.6 0-3.7-3-6.6-6.6-6.6zM146.7 320.3c-3.6 0-6.6 3-6.6 6.6 0 3.6 3 6.6 6.6 6.6 3.6 0 6.6-3 6.6-6.6-.1-3.7-3-6.6-6.6-6.6zM164.4 320.3c-3.6 0-6.6 3-6.6 6.6 0 3.6 3 6.6 6.6 6.6 3.6 0 6.6-3 6.6-6.6 0-3.7-3-6.6-6.6-6.6zM164.4 338c-3.6 0-6.6 3-6.6 6.6 0 3.6 3 6.6 6.6 6.6 3.6 0 6.6-3 6.6-6.6 0-3.6-3-6.6-6.6-6.6zM182.1 338c-3.6 0-6.6 3-6.6 6.6 0 3.6 3 6.6 6.6 6.6 3.6 0 6.6-3 6.6-6.6 0-3.6-3-6.6-6.6-6.6zM58 408.9c-3.6 0-6.6 3-6.6 6.6 0 3.6 3 6.6 6.6 6.6 3.6 0 6.6-3 6.6-6.6 0-3.6-3-6.6-6.6-6.6zM75.7 408.9c-3.6 0-6.6 3-6.6 6.6 0 3.6 3 6.6 6.6 6.6 3.6 0 6.6-3 6.6-6.6 0-3.6-2.9-6.6-6.6-6.6zM93.5 408.9c-3.6 0-6.6 3-6.6 6.6 0 3.6 3 6.6 6.6 6.6 3.6 0 6.6-3 6.6-6.6-.1-3.6-3-6.6-6.6-6.6zM111.2 408.9c-3.6 0-6.6 3-6.6 6.6 0 3.6 3 6.6 6.6 6.6 3.6 0 6.6-3 6.6-6.6 0-3.6-3-6.6-6.6-6.6zM128.9 408.9c-3.6 0-6.6 3-6.6 6.6 0 3.6 3 6.6 6.6 6.6 3.6 0 6.6-3 6.6-6.6 0-3.6-3-6.6-6.6-6.6zM146.7 408.9c-3.6 0-6.6 3-6.6 6.6 0 3.6 3 6.6 6.6 6.6 3.6 0 6.6-3 6.6-6.6-.1-3.6-3-6.6-6.6-6.6zM164.4 408.9c-3.6 0-6.6 3-6.6 6.6 0 3.6 3 6.6 6.6 6.6 3.6 0 6.6-3 6.6-6.6 0-3.6-3-6.6-6.6-6.6zM199.8 355.7c-3.6 0-6.6 3-6.6 6.6 0 3.6 3 6.6 6.6 6.6 3.6 0 6.6-3 6.6-6.6 0-3.6-2.9-6.6-6.6-6.6zM146.7 338c-3.6 0-6.6 3-6.6 6.6 0 3.6 3 6.6 6.6 6.6 3.6 0 6.6-3 6.6-6.6-.1-3.6-3-6.6-6.6-6.6zM146.7 355.7c-3.6 0-6.6 3-6.6 6.6 0 3.6 3 6.6 6.6 6.6 3.6 0 6.6-3 6.6-6.6-.1-3.6-3-6.6-6.6-6.6zM164.4 355.7c-3.6 0-6.6 3-6.6 6.6 0 3.6 3 6.6 6.6 6.6 3.6 0 6.6-3 6.6-6.6 0-3.6-3-6.6-6.6-6.6zM182.1 355.7c-3.6 0-6.6 3-6.6 6.6 0 3.6 3 6.6 6.6 6.6 3.6 0 6.6-3 6.6-6.6 0-3.6-3-6.6-6.6-6.6zM58 426.7c-3.6 0-6.6 3-6.6 6.6 0 3.6 3 6.6 6.6 6.6 3.6 0 6.6-3 6.6-6.6 0-3.7-3-6.6-6.6-6.6zM75.7 426.7c-3.6 0-6.6 3-6.6 6.6 0 3.6 3 6.6 6.6 6.6 3.6 0 6.6-3 6.6-6.6 0-3.7-2.9-6.6-6.6-6.6zM93.5 426.7c-3.6 0-6.6 3-6.6 6.6 0 3.6 3 6.6 6.6 6.6 3.6 0 6.6-3 6.6-6.6-.1-3.7-3-6.6-6.6-6.6zM111.2 426.7c-3.6 0-6.6 3-6.6 6.6 0 3.6 3 6.6 6.6 6.6 3.6 0 6.6-3 6.6-6.6 0-3.7-3-6.6-6.6-6.6zM164.4 373.5c-3.6 0-6.6 3-6.6 6.6 0 3.6 3 6.6 6.6 6.6 3.6 0 6.6-3 6.6-6.6 0-3.7-3-6.6-6.6-6.6zM182.1 373.5c-3.6 0-6.6 3-6.6 6.6 0 3.6 3 6.6 6.6 6.6 3.6 0 6.6-3 6.6-6.6 0-3.7-3-6.6-6.6-6.6zM58 444.4c-3.6 0-6.6 3-6.6 6.6 0 3.6 3 6.6 6.6 6.6 3.6 0 6.6-3 6.6-6.6 0-3.7-3-6.6-6.6-6.6zM75.7 444.4c-3.6 0-6.6 3-6.6 6.6 0 3.6 3 6.6 6.6 6.6 3.6 0 6.6-3 6.6-6.6 0-3.7-2.9-6.6-6.6-6.6zM93.5 444.4c-3.6 0-6.6 3-6.6 6.6 0 3.6 3 6.6 6.6 6.6 3.6 0 6.6-3 6.6-6.6-.1-3.7-3-6.6-6.6-6.6zM199.8 338c-3.6 0-6.6 3-6.6 6.6 0 3.6 3 6.6 6.6 6.6 3.6 0 6.6-3 6.6-6.6 0-3.6-2.9-6.6-6.6-6.6zM58 462.1c-3.6 0-6.6 3-6.6 6.6 0 3.6 3 6.6 6.6 6.6 3.6 0 6.6-3 6.6-6.6 0-3.6-3-6.6-6.6-6.6zM75.7 462.1c-3.6 0-6.6 3-6.6 6.6 0 3.6 3 6.6 6.6 6.6 3.6 0 6.6-3 6.6-6.6 0-3.6-2.9-6.6-6.6-6.6zM93.5 462.1c-3.6 0-6.6 3-6.6 6.6 0 3.6 3 6.6 6.6 6.6 3.6 0 6.6-3 6.6-6.6-.1-3.6-3-6.6-6.6-6.6zM111.2 462.1c-3.6 0-6.6 3-6.6 6.6 0 3.6 3 6.6 6.6 6.6 3.6 0 6.6-3 6.6-6.6 0-3.6-3-6.6-6.6-6.6zM111.2 444.4c-3.6 0-6.6 3-6.6 6.6 0 3.6 3 6.6 6.6 6.6 3.6 0 6.6-3 6.6-6.6 0-3.7-3-6.6-6.6-6.6zM128.9 444.4c-3.6 0-6.6 3-6.6 6.6 0 3.6 3 6.6 6.6 6.6 3.6 0 6.6-3 6.6-6.6 0-3.7-3-6.6-6.6-6.6zM128.9 462.1c-3.6 0-6.6 3-6.6 6.6 0 3.6 3 6.6 6.6 6.6 3.6 0 6.6-3 6.6-6.6 0-3.6-3-6.6-6.6-6.6zM146.7 444.4c-3.6 0-6.6 3-6.6 6.6 0 3.6 3 6.6 6.6 6.6 3.6 0 6.6-3 6.6-6.6-.1-3.7-3-6.6-6.6-6.6zM164.4 444.4c-3.6 0-6.6 3-6.6 6.6 0 3.6 3 6.6 6.6 6.6 3.6 0 6.6-3 6.6-6.6 0-3.7-3-6.6-6.6-6.6zM146.7 462.1c-3.6 0-6.6 3-6.6 6.6 0 3.6 3 6.6 6.6 6.6 3.6 0 6.6-3 6.6-6.6-.1-3.6-3-6.6-6.6-6.6zM164.4 462.1c-3.6 0-6.6 3-6.6 6.6 0 3.6 3 6.6 6.6 6.6 3.6 0 6.6-3 6.6-6.6 0-3.6-3-6.6-6.6-6.6zM146.7 479.8c-3.6 0-6.6 3-6.6 6.6 0 3.6 3 6.6 6.6 6.6 3.6 0 6.6-3 6.6-6.6-.1-3.6-3-6.6-6.6-6.6zM217.6 338c-3.6 0-6.6 3-6.6 6.6 0 3.6 3 6.6 6.6 6.6 3.6 0 6.6-3 6.6-6.6-.1-3.6-3-6.6-6.6-6.6zM58 479.8c-3.6 0-6.6 3-6.6 6.6 0 3.6 3 6.6 6.6 6.6 3.6 0 6.6-3 6.6-6.6 0-3.6-3-6.6-6.6-6.6zM75.7 479.8c-3.6 0-6.6 3-6.6 6.6 0 3.6 3 6.6 6.6 6.6 3.6 0 6.6-3 6.6-6.6 0-3.6-2.9-6.6-6.6-6.6zM93.5 479.8c-3.6 0-6.6 3-6.6 6.6 0 3.6 3 6.6 6.6 6.6 3.6 0 6.6-3 6.6-6.6-.1-3.6-3-6.6-6.6-6.6zM111.2 479.8c-3.6 0-6.6 3-6.6 6.6 0 3.6 3 6.6 6.6 6.6 3.6 0 6.6-3 6.6-6.6 0-3.6-3-6.6-6.6-6.6zM128.9 426.7c-3.6 0-6.6 3-6.6 6.6 0 3.6 3 6.6 6.6 6.6 3.6 0 6.6-3 6.6-6.6 0-3.7-3-6.6-6.6-6.6zM146.7 426.7c-3.6 0-6.6 3-6.6 6.6 0 3.6 3 6.6 6.6 6.6 3.6 0 6.6-3 6.6-6.6-.1-3.7-3-6.6-6.6-6.6zM164.4 426.7c-3.6 0-6.6 3-6.6 6.6 0 3.6 3 6.6 6.6 6.6 3.6 0 6.6-3 6.6-6.6 0-3.7-3-6.6-6.6-6.6zM182.1 426.7c-3.6 0-6.6 3-6.6 6.6 0 3.6 3 6.6 6.6 6.6 3.6 0 6.6-3 6.6-6.6 0-3.7-3-6.6-6.6-6.6zM128.9 479.8c-3.6 0-6.6 3-6.6 6.6 0 3.6 3 6.6 6.6 6.6 3.6 0 6.6-3 6.6-6.6 0-3.6-3-6.6-6.6-6.6zM40.3 284.8c-3.6 0-6.6 3-6.6 6.6 0 3.6 3 6.6 6.6 6.6 3.6 0 6.6-3 6.6-6.6 0-3.6-3-6.6-6.6-6.6zM58 284.8c-3.6 0-6.6 3-6.6 6.6 0 3.6 3 6.6 6.6 6.6 3.6 0 6.6-3 6.6-6.6 0-3.6-3-6.6-6.6-6.6zM4.8 284.8c-3.6 0-6.6 3-6.6 6.6 0 3.6 3 6.6 6.6 6.6 3.6 0 6.6-3 6.6-6.6 0-3.6-3-6.6-6.6-6.6zM22.5 284.8c-3.6 0-6.6 3-6.6 6.6 0 3.6 3 6.6 6.6 6.6 3.6 0 6.6-3 6.6-6.6 0-3.6-2.9-6.6-6.6-6.6zM75.7 284.8c-3.6 0-6.6 3-6.6 6.6 0 3.6 3 6.6 6.6 6.6 3.6 0 6.6-3 6.6-6.6 0-3.6-2.9-6.6-6.6-6.6zM93.5 284.8c-3.6 0-6.6 3-6.6 6.6 0 3.6 3 6.6 6.6 6.6 3.6 0 6.6-3 6.6-6.6-.1-3.6-3-6.6-6.6-6.6zM111.2 284.8c-3.6 0-6.6 3-6.6 6.6 0 3.6 3 6.6 6.6 6.6 3.6 0 6.6-3 6.6-6.6 0-3.6-3-6.6-6.6-6.6zM128.9 284.8c-3.6 0-6.6 3-6.6 6.6 0 3.6 3 6.6 6.6 6.6 3.6 0 6.6-3 6.6-6.6 0-3.6-3-6.6-6.6-6.6zM146.7 284.8c-3.6 0-6.6 3-6.6 6.6 0 3.6 3 6.6 6.6 6.6 3.6 0 6.6-3 6.6-6.6-.1-3.6-3-6.6-6.6-6.6zM40.3 302.5c-3.6 0-6.6 3-6.6 6.6 0 3.6 3 6.6 6.6 6.6 3.6 0 6.6-3 6.6-6.6 0-3.6-3-6.6-6.6-6.6zM58 302.5c-3.6 0-6.6 3-6.6 6.6 0 3.6 3 6.6 6.6 6.6 3.6 0 6.6-3 6.6-6.6 0-3.6-3-6.6-6.6-6.6zM75.7 302.5c-3.6 0-6.6 3-6.6 6.6 0 3.6 3 6.6 6.6 6.6 3.6 0 6.6-3 6.6-6.6 0-3.6-2.9-6.6-6.6-6.6zM93.5 302.5c-3.6 0-6.6 3-6.6 6.6 0 3.6 3 6.6 6.6 6.6 3.6 0 6.6-3 6.6-6.6-.1-3.6-3-6.6-6.6-6.6zM4.8 320.3c-3.6 0-6.6 3-6.6 6.6 0 3.6 3 6.6 6.6 6.6 3.6 0 6.6-3 6.6-6.6 0-3.7-3-6.6-6.6-6.6zM22.5 320.3c-3.6 0-6.6 3-6.6 6.6 0 3.6 3 6.6 6.6 6.6 3.6 0 6.6-3 6.6-6.6 0-3.7-2.9-6.6-6.6-6.6zM40.3 320.3c-3.6 0-6.6 3-6.6 6.6 0 3.6 3 6.6 6.6 6.6 3.6 0 6.6-3 6.6-6.6 0-3.7-3-6.6-6.6-6.6zM22.5 338c-3.6 0-6.6 3-6.6 6.6 0 3.6 3 6.6 6.6 6.6 3.6 0 6.6-3 6.6-6.6 0-3.6-2.9-6.6-6.6-6.6zM40.3 338c-3.6 0-6.6 3-6.6 6.6 0 3.6 3 6.6 6.6 6.6 3.6 0 6.6-3 6.6-6.6 0-3.6-3-6.6-6.6-6.6zM58 338c-3.6 0-6.6 3-6.6 6.6 0 3.6 3 6.6 6.6 6.6 3.6 0 6.6-3 6.6-6.6 0-3.6-3-6.6-6.6-6.6zM75.7 338c-3.6 0-6.6 3-6.6 6.6 0 3.6 3 6.6 6.6 6.6 3.6 0 6.6-3 6.6-6.6 0-3.6-2.9-6.6-6.6-6.6zM58 320.3c-3.6 0-6.6 3-6.6 6.6 0 3.6 3 6.6 6.6 6.6 3.6 0 6.6-3 6.6-6.6 0-3.7-3-6.6-6.6-6.6zM75.7 320.3c-3.6 0-6.6 3-6.6 6.6 0 3.6 3 6.6 6.6 6.6 3.6 0 6.6-3 6.6-6.6 0-3.7-2.9-6.6-6.6-6.6zM93.5 338c-3.6 0-6.6 3-6.6 6.6 0 3.6 3 6.6 6.6 6.6 3.6 0 6.6-3 6.6-6.6-.1-3.6-3-6.6-6.6-6.6zM93.5 320.3c-3.6 0-6.6 3-6.6 6.6 0 3.6 3 6.6 6.6 6.6 3.6 0 6.6-3 6.6-6.6-.1-3.7-3-6.6-6.6-6.6zM111.2 320.3c-3.6 0-6.6 3-6.6 6.6 0 3.6 3 6.6 6.6 6.6 3.6 0 6.6-3 6.6-6.6 0-3.7-3-6.6-6.6-6.6zM111.2 338c-3.6 0-6.6 3-6.6 6.6 0 3.6 3 6.6 6.6 6.6 3.6 0 6.6-3 6.6-6.6 0-3.6-3-6.6-6.6-6.6zM128.9 338c-3.6 0-6.6 3-6.6 6.6 0 3.6 3 6.6 6.6 6.6 3.6 0 6.6-3 6.6-6.6 0-3.6-3-6.6-6.6-6.6zM93.5 355.7c-3.6 0-6.6 3-6.6 6.6 0 3.6 3 6.6 6.6 6.6 3.6 0 6.6-3 6.6-6.6-.1-3.6-3-6.6-6.6-6.6zM4.8 302.5c-3.6 0-6.6 3-6.6 6.6 0 3.6 3 6.6 6.6 6.6 3.6 0 6.6-3 6.6-6.6 0-3.6-3-6.6-6.6-6.6zM22.5 302.5c-3.6 0-6.6 3-6.6 6.6 0 3.6 3 6.6 6.6 6.6 3.6 0 6.6-3 6.6-6.6 0-3.6-2.9-6.6-6.6-6.6zM40.3 355.7c-3.6 0-6.6 3-6.6 6.6 0 3.6 3 6.6 6.6 6.6 3.6 0 6.6-3 6.6-6.6 0-3.6-3-6.6-6.6-6.6zM58 355.7c-3.6 0-6.6 3-6.6 6.6 0 3.6 3 6.6 6.6 6.6 3.6 0 6.6-3 6.6-6.6 0-3.6-3-6.6-6.6-6.6zM111.2 302.5c-3.6 0-6.6 3-6.6 6.6 0 3.6 3 6.6 6.6 6.6 3.6 0 6.6-3 6.6-6.6 0-3.6-3-6.6-6.6-6.6zM128.9 302.5c-3.6 0-6.6 3-6.6 6.6 0 3.6 3 6.6 6.6 6.6 3.6 0 6.6-3 6.6-6.6 0-3.6-3-6.6-6.6-6.6zM146.7 302.5c-3.6 0-6.6 3-6.6 6.6 0 3.6 3 6.6 6.6 6.6 3.6 0 6.6-3 6.6-6.6-.1-3.6-3-6.6-6.6-6.6zM128.9 267.1c-3.6 0-6.6 3-6.6 6.6 0 3.6 3 6.6 6.6 6.6 3.6 0 6.6-3 6.6-6.6 0-3.7-3-6.6-6.6-6.6zM146.7 267.1c-3.6 0-6.6 3-6.6 6.6 0 3.6 3 6.6 6.6 6.6 3.6 0 6.6-3 6.6-6.6-.1-3.7-3-6.6-6.6-6.6zM40.3 231.6c-3.6 0-6.6 3-6.6 6.6 0 3.6 3 6.6 6.6 6.6 3.6 0 6.6-3 6.6-6.6 0-3.6-3-6.6-6.6-6.6zM58 231.6c-3.6 0-6.6 3-6.6 6.6 0 3.6 3 6.6 6.6 6.6 3.6 0 6.6-3 6.6-6.6 0-3.6-3-6.6-6.6-6.6zM4.8 231.6c-3.6 0-6.6 3-6.6 6.6 0 3.6 3 6.6 6.6 6.6 3.6 0 6.6-3 6.6-6.6 0-3.6-3-6.6-6.6-6.6zM22.5 231.6c-3.6 0-6.6 3-6.6 6.6 0 3.6 3 6.6 6.6 6.6 3.6 0 6.6-3 6.6-6.6 0-3.6-2.9-6.6-6.6-6.6zM75.7 231.6c-3.6 0-6.6 3-6.6 6.6 0 3.6 3 6.6 6.6 6.6 3.6 0 6.6-3 6.6-6.6 0-3.6-2.9-6.6-6.6-6.6zM93.5 231.6c-3.6 0-6.6 3-6.6 6.6 0 3.6 3 6.6 6.6 6.6 3.6 0 6.6-3 6.6-6.6-.1-3.6-3-6.6-6.6-6.6zM111.2 231.6c-3.6 0-6.6 3-6.6 6.6 0 3.6 3 6.6 6.6 6.6 3.6 0 6.6-3 6.6-6.6 0-3.6-3-6.6-6.6-6.6zM128.9 231.6c-3.6 0-6.6 3-6.6 6.6 0 3.6 3 6.6 6.6 6.6 3.6 0 6.6-3 6.6-6.6 0-3.6-3-6.6-6.6-6.6zM146.7 231.6c-3.6 0-6.6 3-6.6 6.6 0 3.6 3 6.6 6.6 6.6 3.6 0 6.6-3 6.6-6.6-.1-3.6-3-6.6-6.6-6.6zM40.3 249.4c-3.6 0-6.6 3-6.6 6.6 0 3.6 3 6.6 6.6 6.6 3.6 0 6.6-3 6.6-6.6 0-3.7-3-6.6-6.6-6.6zM58 249.4c-3.6 0-6.6 3-6.6 6.6 0 3.6 3 6.6 6.6 6.6 3.6 0 6.6-3 6.6-6.6 0-3.7-3-6.6-6.6-6.6zM75.7 249.4c-3.6 0-6.6 3-6.6 6.6 0 3.6 3 6.6 6.6 6.6 3.6 0 6.6-3 6.6-6.6 0-3.7-2.9-6.6-6.6-6.6zM93.5 249.4c-3.6 0-6.6 3-6.6 6.6 0 3.6 3 6.6 6.6 6.6 3.6 0 6.6-3 6.6-6.6-.1-3.7-3-6.6-6.6-6.6zM4.8 267.1c-3.6 0-6.6 3-6.6 6.6 0 3.6 3 6.6 6.6 6.6 3.6 0 6.6-3 6.6-6.6 0-3.7-3-6.6-6.6-6.6zM22.5 267.1c-3.6 0-6.6 3-6.6 6.6 0 3.6 3 6.6 6.6 6.6 3.6 0 6.6-3 6.6-6.6 0-3.7-2.9-6.6-6.6-6.6zM40.3 267.1c-3.6 0-6.6 3-6.6 6.6 0 3.6 3 6.6 6.6 6.6 3.6 0 6.6-3 6.6-6.6 0-3.7-3-6.6-6.6-6.6zM58 267.1c-3.6 0-6.6 3-6.6 6.6 0 3.6 3 6.6 6.6 6.6 3.6 0 6.6-3 6.6-6.6 0-3.7-3-6.6-6.6-6.6zM75.7 267.1c-3.6 0-6.6 3-6.6 6.6 0 3.6 3 6.6 6.6 6.6 3.6 0 6.6-3 6.6-6.6 0-3.7-2.9-6.6-6.6-6.6zM93.5 267.1c-3.6 0-6.6 3-6.6 6.6 0 3.6 3 6.6 6.6 6.6 3.6 0 6.6-3 6.6-6.6-.1-3.7-3-6.6-6.6-6.6zM111.2 267.1c-3.6 0-6.6 3-6.6 6.6 0 3.6 3 6.6 6.6 6.6 3.6 0 6.6-3 6.6-6.6 0-3.7-3-6.6-6.6-6.6zM4.8 249.4c-3.6 0-6.6 3-6.6 6.6 0 3.6 3 6.6 6.6 6.6 3.6 0 6.6-3 6.6-6.6 0-3.7-3-6.6-6.6-6.6zM22.5 249.4c-3.6 0-6.6 3-6.6 6.6 0 3.6 3 6.6 6.6 6.6 3.6 0 6.6-3 6.6-6.6 0-3.7-2.9-6.6-6.6-6.6zM-66.1 284.8c-3.6 0-6.6 3-6.6 6.6 0 3.6 3 6.6 6.6 6.6 3.6 0 6.6-3 6.6-6.6 0-3.6-3-6.6-6.6-6.6zM-48.4 284.8c-3.6 0-6.6 3-6.6 6.6 0 3.6 3 6.6 6.6 6.6 3.6 0 6.6-3 6.6-6.6 0-3.6-3-6.6-6.6-6.6zM164.4 284.8c-3.6 0-6.6 3-6.6 6.6 0 3.6 3 6.6 6.6 6.6 3.6 0 6.6-3 6.6-6.6 0-3.6-3-6.6-6.6-6.6zM-83.8 284.8c-3.6 0-6.6 3-6.6 6.6 0 3.6 3 6.6 6.6 6.6 3.6 0 6.6-3 6.6-6.6-.1-3.6-3-6.6-6.6-6.6zM-30.6 284.8c-3.6 0-6.6 3-6.6 6.6 0 3.6 3 6.6 6.6 6.6 3.6 0 6.6-3 6.6-6.6-.1-3.6-3-6.6-6.6-6.6zM-12.9 284.8c-3.6 0-6.6 3-6.6 6.6 0 3.6 3 6.6 6.6 6.6 3.6 0 6.6-3 6.6-6.6 0-3.6-3-6.6-6.6-6.6zM-66.1 302.5c-3.6 0-6.6 3-6.6 6.6 0 3.6 3 6.6 6.6 6.6 3.6 0 6.6-3 6.6-6.6 0-3.6-3-6.6-6.6-6.6zM-48.4 302.5c-3.6 0-6.6 3-6.6 6.6 0 3.6 3 6.6 6.6 6.6 3.6 0 6.6-3 6.6-6.6 0-3.6-3-6.6-6.6-6.6zM-30.6 302.5c-3.6 0-6.6 3-6.6 6.6 0 3.6 3 6.6 6.6 6.6 3.6 0 6.6-3 6.6-6.6-.1-3.6-3-6.6-6.6-6.6zM-12.9 302.5c-3.6 0-6.6 3-6.6 6.6 0 3.6 3 6.6 6.6 6.6 3.6 0 6.6-3 6.6-6.6 0-3.6-3-6.6-6.6-6.6zM4.8 213.9c-3.6 0-6.6 3-6.6 6.6 0 3.6 3 6.6 6.6 6.6 3.6 0 6.6-3 6.6-6.6 0-3.6-3-6.6-6.6-6.6zM22.5 213.9c-3.6 0-6.6 3-6.6 6.6 0 3.6 3 6.6 6.6 6.6 3.6 0 6.6-3 6.6-6.6 0-3.6-2.9-6.6-6.6-6.6zM-66.1 320.3c-3.6 0-6.6 3-6.6 6.6 0 3.6 3 6.6 6.6 6.6 3.6 0 6.6-3 6.6-6.6 0-3.7-3-6.6-6.6-6.6zM-30.6 213.9c-3.6 0-6.6 3-6.6 6.6 0 3.6 3 6.6 6.6 6.6 3.6 0 6.6-3 6.6-6.6-.1-3.6-3-6.6-6.6-6.6zM-12.9 213.9c-3.6 0-6.6 3-6.6 6.6 0 3.6 3 6.6 6.6 6.6 3.6 0 6.6-3 6.6-6.6 0-3.6-3-6.6-6.6-6.6zM-48.4 338c-3.6 0-6.6 3-6.6 6.6 0 3.6 3 6.6 6.6 6.6 3.6 0 6.6-3 6.6-6.6 0-3.6-3-6.6-6.6-6.6zM-30.6 338c-3.6 0-6.6 3-6.6 6.6 0 3.6 3 6.6 6.6 6.6 3.6 0 6.6-3 6.6-6.6-.1-3.6-3-6.6-6.6-6.6zM-48.4 320.3c-3.6 0-6.6 3-6.6 6.6 0 3.6 3 6.6 6.6 6.6 3.6 0 6.6-3 6.6-6.6 0-3.7-3-6.6-6.6-6.6zM-30.6 320.3c-3.6 0-6.6 3-6.6 6.6 0 3.6 3 6.6 6.6 6.6 3.6 0 6.6-3 6.6-6.6-.1-3.7-3-6.6-6.6-6.6zM-12.9 338c-3.6 0-6.6 3-6.6 6.6 0 3.6 3 6.6 6.6 6.6 3.6 0 6.6-3 6.6-6.6 0-3.6-3-6.6-6.6-6.6zM-12.9 320.3c-3.6 0-6.6 3-6.6 6.6 0 3.6 3 6.6 6.6 6.6 3.6 0 6.6-3 6.6-6.6 0-3.7-3-6.6-6.6-6.6zM40.3 213.9c-3.6 0-6.6 3-6.6 6.6 0 3.6 3 6.6 6.6 6.6 3.6 0 6.6-3 6.6-6.6 0-3.6-3-6.6-6.6-6.6zM-83.8 302.5c-3.6 0-6.6 3-6.6 6.6 0 3.6 3 6.6 6.6 6.6 3.6 0 6.6-3 6.6-6.6-.1-3.6-3-6.6-6.6-6.6zM199.8 231.6c-3.6 0-6.6 3-6.6 6.6 0 3.6 3 6.6 6.6 6.6 3.6 0 6.6-3 6.6-6.6 0-3.6-2.9-6.6-6.6-6.6zM-48.4 231.6c-3.6 0-6.6 3-6.6 6.6 0 3.6 3 6.6 6.6 6.6 3.6 0 6.6-3 6.6-6.6 0-3.6-3-6.6-6.6-6.6zM164.4 231.6c-3.6 0-6.6 3-6.6 6.6 0 3.6 3 6.6 6.6 6.6 3.6 0 6.6-3 6.6-6.6 0-3.6-3-6.6-6.6-6.6zM182.1 231.6c-3.6 0-6.6 3-6.6 6.6 0 3.6 3 6.6 6.6 6.6 3.6 0 6.6-3 6.6-6.6 0-3.6-3-6.6-6.6-6.6zM-30.6 231.6c-3.6 0-6.6 3-6.6 6.6 0 3.6 3 6.6 6.6 6.6 3.6 0 6.6-3 6.6-6.6-.1-3.6-3-6.6-6.6-6.6zM-12.9 231.6c-3.6 0-6.6 3-6.6 6.6 0 3.6 3 6.6 6.6 6.6 3.6 0 6.6-3 6.6-6.6 0-3.6-3-6.6-6.6-6.6zM-66.1 249.4c-3.6 0-6.6 3-6.6 6.6 0 3.6 3 6.6 6.6 6.6 3.6 0 6.6-3 6.6-6.6 0-3.7-3-6.6-6.6-6.6zM-48.4 249.4c-3.6 0-6.6 3-6.6 6.6 0 3.6 3 6.6 6.6 6.6 3.6 0 6.6-3 6.6-6.6 0-3.7-3-6.6-6.6-6.6zM-30.6 249.4c-3.6 0-6.6 3-6.6 6.6 0 3.6 3 6.6 6.6 6.6 3.6 0 6.6-3 6.6-6.6-.1-3.7-3-6.6-6.6-6.6zM-12.9 249.4c-3.6 0-6.6 3-6.6 6.6 0 3.6 3 6.6 6.6 6.6 3.6 0 6.6-3 6.6-6.6 0-3.7-3-6.6-6.6-6.6zM182.1 267.1c-3.6 0-6.6 3-6.6 6.6 0 3.6 3 6.6 6.6 6.6 3.6 0 6.6-3 6.6-6.6 0-3.7-3-6.6-6.6-6.6zM-83.8 267.1c-3.6 0-6.6 3-6.6 6.6 0 3.6 3 6.6 6.6 6.6 3.6 0 6.6-3 6.6-6.6-.1-3.7-3-6.6-6.6-6.6zM-66.1 267.1c-3.6 0-6.6 3-6.6 6.6 0 3.6 3 6.6 6.6 6.6 3.6 0 6.6-3 6.6-6.6 0-3.7-3-6.6-6.6-6.6zM-48.4 267.1c-3.6 0-6.6 3-6.6 6.6 0 3.6 3 6.6 6.6 6.6 3.6 0 6.6-3 6.6-6.6 0-3.7-3-6.6-6.6-6.6zM-30.6 267.1c-3.6 0-6.6 3-6.6 6.6 0 3.6 3 6.6 6.6 6.6 3.6 0 6.6-3 6.6-6.6-.1-3.7-3-6.6-6.6-6.6zM-12.9 267.1c-3.6 0-6.6 3-6.6 6.6 0 3.6 3 6.6 6.6 6.6 3.6 0 6.6-3 6.6-6.6 0-3.7-3-6.6-6.6-6.6zM660.8 479.8c-3.6 0-6.6 3-6.6 6.6 0 3.6 3 6.6 6.6 6.6 3.6 0 6.6-3 6.6-6.6 0-3.6-3-6.6-6.6-6.6zM678.5 479.8c-3.6 0-6.6 3-6.6 6.6 0 3.6 3 6.6 6.6 6.6 3.6 0 6.6-3 6.6-6.6 0-3.6-2.9-6.6-6.6-6.6zM625.4 479.8c-3.6 0-6.6 3-6.6 6.6 0 3.6 3 6.6 6.6 6.6 3.6 0 6.6-3 6.6-6.6-.1-3.6-3-6.6-6.6-6.6zM643.1 479.8c-3.6 0-6.6 3-6.6 6.6 0 3.6 3 6.6 6.6 6.6 3.6 0 6.6-3 6.6-6.6 0-3.6-3-6.6-6.6-6.6zM696.3 479.8c-3.6 0-6.6 3-6.6 6.6 0 3.6 3 6.6 6.6 6.6 3.6 0 6.6-3 6.6-6.6 0-3.6-3-6.6-6.6-6.6zM660.8 497.6c-3.6 0-6.6 3-6.6 6.6 0 3.6 3 6.6 6.6 6.6 3.6 0 6.6-3 6.6-6.6 0-3.7-3-6.6-6.6-6.6zM678.5 497.6c-3.6 0-6.6 3-6.6 6.6 0 3.6 3 6.6 6.6 6.6 3.6 0 6.6-3 6.6-6.6 0-3.7-2.9-6.6-6.6-6.6zM696.3 497.6c-3.6 0-6.6 3-6.6 6.6 0 3.6 3 6.6 6.6 6.6 3.6 0 6.6-3 6.6-6.6 0-3.7-3-6.6-6.6-6.6zM625.4 515.3c-3.6 0-6.6 3-6.6 6.6 0 3.6 3 6.6 6.6 6.6 3.6 0 6.6-3 6.6-6.6-.1-3.6-3-6.6-6.6-6.6zM643.1 515.3c-3.6 0-6.6 3-6.6 6.6 0 3.6 3 6.6 6.6 6.6 3.6 0 6.6-3 6.6-6.6 0-3.6-3-6.6-6.6-6.6zM660.8 515.3c-3.6 0-6.6 3-6.6 6.6 0 3.6 3 6.6 6.6 6.6 3.6 0 6.6-3 6.6-6.6 0-3.6-3-6.6-6.6-6.6zM643.1 533c-3.6 0-6.6 3-6.6 6.6 0 3.6 3 6.6 6.6 6.6 3.6 0 6.6-3 6.6-6.6 0-3.6-3-6.6-6.6-6.6zM660.8 533c-3.6 0-6.6 3-6.6 6.6 0 3.6 3 6.6 6.6 6.6 3.6 0 6.6-3 6.6-6.6 0-3.6-3-6.6-6.6-6.6zM678.5 533c-3.6 0-6.6 3-6.6 6.6 0 3.6 3 6.6 6.6 6.6 3.6 0 6.6-3 6.6-6.6 0-3.6-2.9-6.6-6.6-6.6zM696.3 533c-3.6 0-6.6 3-6.6 6.6 0 3.6 3 6.6 6.6 6.6 3.6 0 6.6-3 6.6-6.6 0-3.6-3-6.6-6.6-6.6zM678.5 515.3c-3.6 0-6.6 3-6.6 6.6 0 3.6 3 6.6 6.6 6.6 3.6 0 6.6-3 6.6-6.6 0-3.6-2.9-6.6-6.6-6.6zM696.3 515.3c-3.6 0-6.6 3-6.6 6.6 0 3.6 3 6.6 6.6 6.6 3.6 0 6.6-3 6.6-6.6 0-3.6-3-6.6-6.6-6.6zM802.7 550.8c-3.6 0-6.6 3-6.6 6.6 0 3.6 3 6.6 6.6 6.6 3.6 0 6.6-3 6.6-6.6-.1-3.7-3-6.6-6.6-6.6zM820.4 550.8c-3.6 0-6.6 3-6.6 6.6 0 3.6 3 6.6 6.6 6.6 3.6 0 6.6-3 6.6-6.6 0-3.7-3-6.6-6.6-6.6zM784.9 586.2c-3.6 0-6.6 3-6.6 6.6 0 3.6 3 6.6 6.6 6.6 3.6 0 6.6-3 6.6-6.6 0-3.6-3-6.6-6.6-6.6zM802.7 586.2c-3.6 0-6.6 3-6.6 6.6 0 3.6 3 6.6 6.6 6.6 3.6 0 6.6-3 6.6-6.6-.1-3.6-3-6.6-6.6-6.6zM820.4 568.5c-3.6 0-6.6 3-6.6 6.6 0 3.6 3 6.6 6.6 6.6 3.6 0 6.6-3 6.6-6.6 0-3.7-3-6.6-6.6-6.6zM802.7 568.5c-3.6 0-6.6 3-6.6 6.6 0 3.6 3 6.6 6.6 6.6 3.6 0 6.6-3 6.6-6.6-.1-3.7-3-6.6-6.6-6.6zM625.4 497.6c-3.6 0-6.6 3-6.6 6.6 0 3.6 3 6.6 6.6 6.6 3.6 0 6.6-3 6.6-6.6-.1-3.7-3-6.6-6.6-6.6zM643.1 497.6c-3.6 0-6.6 3-6.6 6.6 0 3.6 3 6.6 6.6 6.6 3.6 0 6.6-3 6.6-6.6 0-3.7-3-6.6-6.6-6.6zM660.8 444.4c-3.6 0-6.6 3-6.6 6.6 0 3.6 3 6.6 6.6 6.6 3.6 0 6.6-3 6.6-6.6 0-3.7-3-6.6-6.6-6.6zM660.8 426.7c-3.6 0-6.6 3-6.6 6.6 0 3.6 3 6.6 6.6 6.6 3.6 0 6.6-3 6.6-6.6 0-3.7-3-6.6-6.6-6.6zM678.5 550.8c-3.6 0-6.6 3-6.6 6.6 0 3.6 3 6.6 6.6 6.6 3.6 0 6.6-3 6.6-6.6 0-3.7-2.9-6.6-6.6-6.6zM625.4 462.1c-3.6 0-6.6 3-6.6 6.6 0 3.6 3 6.6 6.6 6.6 3.6 0 6.6-3 6.6-6.6-.1-3.6-3-6.6-6.6-6.6zM643.1 462.1c-3.6 0-6.6 3-6.6 6.6 0 3.6 3 6.6 6.6 6.6 3.6 0 6.6-3 6.6-6.6 0-3.6-3-6.6-6.6-6.6zM660.8 462.1c-3.6 0-6.6 3-6.6 6.6 0 3.6 3 6.6 6.6 6.6 3.6 0 6.6-3 6.6-6.6 0-3.6-3-6.6-6.6-6.6zM678.5 462.1c-3.6 0-6.6 3-6.6 6.6 0 3.6 3 6.6 6.6 6.6 3.6 0 6.6-3 6.6-6.6 0-3.6-2.9-6.6-6.6-6.6zM660.8 550.8c-3.6 0-6.6 3-6.6 6.6 0 3.6 3 6.6 6.6 6.6 3.6 0 6.6-3 6.6-6.6 0-3.7-3-6.6-6.6-6.6zM678.5 568.5c-3.6 0-6.6 3-6.6 6.6 0 3.6 3 6.6 6.6 6.6 3.6 0 6.6-3 6.6-6.6 0-3.7-2.9-6.6-6.6-6.6zM625.4 444.4c-3.6 0-6.6 3-6.6 6.6 0 3.6 3 6.6 6.6 6.6 3.6 0 6.6-3 6.6-6.6-.1-3.7-3-6.6-6.6-6.6zM643.1 444.4c-3.6 0-6.6 3-6.6 6.6 0 3.6 3 6.6 6.6 6.6 3.6 0 6.6-3 6.6-6.6 0-3.7-3-6.6-6.6-6.6zM554.4 479.8c-3.6 0-6.6 3-6.6 6.6 0 3.6 3 6.6 6.6 6.6 3.6 0 6.6-3 6.6-6.6 0-3.6-2.9-6.6-6.6-6.6zM572.2 479.8c-3.6 0-6.6 3-6.6 6.6 0 3.6 3 6.6 6.6 6.6 3.6 0 6.6-3 6.6-6.6-.1-3.6-3-6.6-6.6-6.6zM536.7 479.8c-3.6 0-6.6 3-6.6 6.6 0 3.6 3 6.6 6.6 6.6 3.6 0 6.6-3 6.6-6.6 0-3.6-3-6.6-6.6-6.6zM589.9 479.8c-3.6 0-6.6 3-6.6 6.6 0 3.6 3 6.6 6.6 6.6 3.6 0 6.6-3 6.6-6.6 0-3.6-3-6.6-6.6-6.6zM607.6 479.8c-3.6 0-6.6 3-6.6 6.6 0 3.6 3 6.6 6.6 6.6 3.6 0 6.6-3 6.6-6.6 0-3.6-3-6.6-6.6-6.6zM554.4 497.6c-3.6 0-6.6 3-6.6 6.6 0 3.6 3 6.6 6.6 6.6 3.6 0 6.6-3 6.6-6.6 0-3.7-2.9-6.6-6.6-6.6zM572.2 497.6c-3.6 0-6.6 3-6.6 6.6 0 3.6 3 6.6 6.6 6.6 3.6 0 6.6-3 6.6-6.6-.1-3.7-3-6.6-6.6-6.6zM589.9 497.6c-3.6 0-6.6 3-6.6 6.6 0 3.6 3 6.6 6.6 6.6 3.6 0 6.6-3 6.6-6.6 0-3.7-3-6.6-6.6-6.6zM607.6 497.6c-3.6 0-6.6 3-6.6 6.6 0 3.6 3 6.6 6.6 6.6 3.6 0 6.6-3 6.6-6.6 0-3.7-3-6.6-6.6-6.6zM554.4 515.3c-3.6 0-6.6 3-6.6 6.6 0 3.6 3 6.6 6.6 6.6 3.6 0 6.6-3 6.6-6.6 0-3.6-2.9-6.6-6.6-6.6zM572.2 533c-3.6 0-6.6 3-6.6 6.6 0 3.6 3 6.6 6.6 6.6 3.6 0 6.6-3 6.6-6.6-.1-3.6-3-6.6-6.6-6.6zM536.7 533c-3.6 0-6.6 3-6.6 6.6 0 3.6 3 6.6 6.6 6.6 3.6 0 6.6-3 6.6-6.6 0-3.6-3-6.6-6.6-6.6zM572.2 515.3c-3.6 0-6.6 3-6.6 6.6 0 3.6 3 6.6 6.6 6.6 3.6 0 6.6-3 6.6-6.6-.1-3.6-3-6.6-6.6-6.6zM589.9 515.3c-3.6 0-6.6 3-6.6 6.6 0 3.6 3 6.6 6.6 6.6 3.6 0 6.6-3 6.6-6.6 0-3.6-3-6.6-6.6-6.6zM554.4 533c-3.6 0-6.6 3-6.6 6.6 0 3.6 3 6.6 6.6 6.6 3.6 0 6.6-3 6.6-6.6 0-3.6-2.9-6.6-6.6-6.6zM607.6 515.3c-3.6 0-6.6 3-6.6 6.6 0 3.6 3 6.6 6.6 6.6 3.6 0 6.6-3 6.6-6.6 0-3.6-3-6.6-6.6-6.6zM536.7 497.6c-3.6 0-6.6 3-6.6 6.6 0 3.6 3 6.6 6.6 6.6 3.6 0 6.6-3 6.6-6.6 0-3.7-3-6.6-6.6-6.6zM554.4 444.4c-3.6 0-6.6 3-6.6 6.6 0 3.6 3 6.6 6.6 6.6 3.6 0 6.6-3 6.6-6.6 0-3.7-2.9-6.6-6.6-6.6zM572.2 444.4c-3.6 0-6.6 3-6.6 6.6 0 3.6 3 6.6 6.6 6.6 3.6 0 6.6-3 6.6-6.6-.1-3.7-3-6.6-6.6-6.6zM589.9 444.4c-3.6 0-6.6 3-6.6 6.6 0 3.6 3 6.6 6.6 6.6 3.6 0 6.6-3 6.6-6.6 0-3.7-3-6.6-6.6-6.6zM607.6 444.4c-3.6 0-6.6 3-6.6 6.6 0 3.6 3 6.6 6.6 6.6 3.6 0 6.6-3 6.6-6.6 0-3.7-3-6.6-6.6-6.6zM536.7 462.1c-3.6 0-6.6 3-6.6 6.6 0 3.6 3 6.6 6.6 6.6 3.6 0 6.6-3 6.6-6.6 0-3.6-3-6.6-6.6-6.6zM554.4 462.1c-3.6 0-6.6 3-6.6 6.6 0 3.6 3 6.6 6.6 6.6 3.6 0 6.6-3 6.6-6.6 0-3.6-2.9-6.6-6.6-6.6zM572.2 462.1c-3.6 0-6.6 3-6.6 6.6 0 3.6 3 6.6 6.6 6.6 3.6 0 6.6-3 6.6-6.6-.1-3.6-3-6.6-6.6-6.6zM589.9 462.1c-3.6 0-6.6 3-6.6 6.6 0 3.6 3 6.6 6.6 6.6 3.6 0 6.6-3 6.6-6.6 0-3.6-3-6.6-6.6-6.6zM607.6 462.1c-3.6 0-6.6 3-6.6 6.6 0 3.6 3 6.6 6.6 6.6 3.6 0 6.6-3 6.6-6.6 0-3.6-3-6.6-6.6-6.6zM40.3 143c-3.6 0-6.6 3-6.6 6.6 0 3.6 3 6.6 6.6 6.6 3.6 0 6.6-3 6.6-6.6 0-3.7-3-6.6-6.6-6.6zM58 143c-3.6 0-6.6 3-6.6 6.6 0 3.6 3 6.6 6.6 6.6 3.6 0 6.6-3 6.6-6.6 0-3.7-3-6.6-6.6-6.6zM4.8 143c-3.6 0-6.6 3-6.6 6.6 0 3.6 3 6.6 6.6 6.6 3.6 0 6.6-3 6.6-6.6 0-3.7-3-6.6-6.6-6.6zM22.5 143c-3.6 0-6.6 3-6.6 6.6 0 3.6 3 6.6 6.6 6.6 3.6 0 6.6-3 6.6-6.6 0-3.7-2.9-6.6-6.6-6.6zM75.7 143c-3.6 0-6.6 3-6.6 6.6 0 3.6 3 6.6 6.6 6.6 3.6 0 6.6-3 6.6-6.6 0-3.7-2.9-6.6-6.6-6.6zM40.3 160.7c-3.6 0-6.6 3-6.6 6.6 0 3.6 3 6.6 6.6 6.6 3.6 0 6.6-3 6.6-6.6 0-3.6-3-6.6-6.6-6.6zM58 160.7c-3.6 0-6.6 3-6.6 6.6 0 3.6 3 6.6 6.6 6.6 3.6 0 6.6-3 6.6-6.6 0-3.6-3-6.6-6.6-6.6zM75.7 160.7c-3.6 0-6.6 3-6.6 6.6 0 3.6 3 6.6 6.6 6.6 3.6 0 6.6-3 6.6-6.6 0-3.6-2.9-6.6-6.6-6.6zM93.5 178.4c-3.6 0-6.6 3-6.6 6.6 0 3.6 3 6.6 6.6 6.6 3.6 0 6.6-3 6.6-6.6-.1-3.6-3-6.6-6.6-6.6zM111.2 178.4c-3.6 0-6.6 3-6.6 6.6 0 3.6 3 6.6 6.6 6.6 3.6 0 6.6-3 6.6-6.6 0-3.6-3-6.6-6.6-6.6zM128.9 196.2c-3.6 0-6.6 3-6.6 6.6 0 3.6 3 6.6 6.6 6.6 3.6 0 6.6-3 6.6-6.6 0-3.7-3-6.6-6.6-6.6zM146.7 196.2c-3.6 0-6.6 3-6.6 6.6 0 3.6 3 6.6 6.6 6.6 3.6 0 6.6-3 6.6-6.6-.1-3.7-3-6.6-6.6-6.6zM128.9 178.4c-3.6 0-6.6 3-6.6 6.6 0 3.6 3 6.6 6.6 6.6 3.6 0 6.6-3 6.6-6.6 0-3.6-3-6.6-6.6-6.6zM146.7 178.4c-3.6 0-6.6 3-6.6 6.6 0 3.6 3 6.6 6.6 6.6 3.6 0 6.6-3 6.6-6.6-.1-3.6-3-6.6-6.6-6.6zM164.4 196.2c-3.6 0-6.6 3-6.6 6.6 0 3.6 3 6.6 6.6 6.6 3.6 0 6.6-3 6.6-6.6 0-3.7-3-6.6-6.6-6.6zM182.1 196.2c-3.6 0-6.6 3-6.6 6.6 0 3.6 3 6.6 6.6 6.6 3.6 0 6.6-3 6.6-6.6 0-3.7-3-6.6-6.6-6.6zM164.4 178.4c-3.6 0-6.6 3-6.6 6.6 0 3.6 3 6.6 6.6 6.6 3.6 0 6.6-3 6.6-6.6 0-3.6-3-6.6-6.6-6.6zM182.1 178.4c-3.6 0-6.6 3-6.6 6.6 0 3.6 3 6.6 6.6 6.6 3.6 0 6.6-3 6.6-6.6 0-3.6-3-6.6-6.6-6.6zM199.8 196.2c-3.6 0-6.6 3-6.6 6.6 0 3.6 3 6.6 6.6 6.6 3.6 0 6.6-3 6.6-6.6 0-3.7-2.9-6.6-6.6-6.6zM217.6 196.2c-3.6 0-6.6 3-6.6 6.6 0 3.6 3 6.6 6.6 6.6 3.6 0 6.6-3 6.6-6.6-.1-3.7-3-6.6-6.6-6.6zM164.4 213.9c-3.6 0-6.6 3-6.6 6.6 0 3.6 3 6.6 6.6 6.6 3.6 0 6.6-3 6.6-6.6 0-3.6-3-6.6-6.6-6.6zM182.1 213.9c-3.6 0-6.6 3-6.6 6.6 0 3.6 3 6.6 6.6 6.6 3.6 0 6.6-3 6.6-6.6 0-3.6-3-6.6-6.6-6.6zM199.8 213.9c-3.6 0-6.6 3-6.6 6.6 0 3.6 3 6.6 6.6 6.6 3.6 0 6.6-3 6.6-6.6 0-3.6-2.9-6.6-6.6-6.6zM217.6 213.9c-3.6 0-6.6 3-6.6 6.6 0 3.6 3 6.6 6.6 6.6 3.6 0 6.6-3 6.6-6.6-.1-3.6-3-6.6-6.6-6.6zM235.3 213.9c-3.6 0-6.6 3-6.6 6.6 0 3.6 3 6.6 6.6 6.6 3.6 0 6.6-3 6.6-6.6 0-3.6-3-6.6-6.6-6.6zM253 213.9c-3.6 0-6.6 3-6.6 6.6 0 3.6 3 6.6 6.6 6.6 3.6 0 6.6-3 6.6-6.6 0-3.6-2.9-6.6-6.6-6.6zM270.8 213.9c-3.6 0-6.6 3-6.6 6.6 0 3.6 3 6.6 6.6 6.6 3.6 0 6.6-3 6.6-6.6-.1-3.6-3-6.6-6.6-6.6zM288.5 213.9c-3.6 0-6.6 3-6.6 6.6 0 3.6 3 6.6 6.6 6.6 3.6 0 6.6-3 6.6-6.6 0-3.6-3-6.6-6.6-6.6zM235.3 231.6c-3.6 0-6.6 3-6.6 6.6 0 3.6 3 6.6 6.6 6.6 3.6 0 6.6-3 6.6-6.6 0-3.6-3-6.6-6.6-6.6zM253 231.6c-3.6 0-6.6 3-6.6 6.6 0 3.6 3 6.6 6.6 6.6 3.6 0 6.6-3 6.6-6.6 0-3.6-2.9-6.6-6.6-6.6zM270.8 231.6c-3.6 0-6.6 3-6.6 6.6 0 3.6 3 6.6 6.6 6.6 3.6 0 6.6-3 6.6-6.6-.1-3.6-3-6.6-6.6-6.6zM288.5 231.6c-3.6 0-6.6 3-6.6 6.6 0 3.6 3 6.6 6.6 6.6 3.6 0 6.6-3 6.6-6.6 0-3.6-3-6.6-6.6-6.6zM270.8 249.4c-3.6 0-6.6 3-6.6 6.6 0 3.6 3 6.6 6.6 6.6 3.6 0 6.6-3 6.6-6.6-.1-3.7-3-6.6-6.6-6.6zM288.5 249.4c-3.6 0-6.6 3-6.6 6.6 0 3.6 3 6.6 6.6 6.6 3.6 0 6.6-3 6.6-6.6 0-3.7-3-6.6-6.6-6.6zM199.8 178.4c-3.6 0-6.6 3-6.6 6.6 0 3.6 3 6.6 6.6 6.6 3.6 0 6.6-3 6.6-6.6 0-3.6-2.9-6.6-6.6-6.6zM217.6 178.4c-3.6 0-6.6 3-6.6 6.6 0 3.6 3 6.6 6.6 6.6 3.6 0 6.6-3 6.6-6.6-.1-3.6-3-6.6-6.6-6.6zM182.1 160.7c-3.6 0-6.6 3-6.6 6.6 0 3.6 3 6.6 6.6 6.6 3.6 0 6.6-3 6.6-6.6 0-3.6-3-6.6-6.6-6.6zM199.8 160.7c-3.6 0-6.6 3-6.6 6.6 0 3.6 3 6.6 6.6 6.6 3.6 0 6.6-3 6.6-6.6 0-3.6-2.9-6.6-6.6-6.6zM253 196.2c-3.6 0-6.6 3-6.6 6.6 0 3.6 3 6.6 6.6 6.6 3.6 0 6.6-3 6.6-6.6 0-3.7-2.9-6.6-6.6-6.6zM270.8 196.2c-3.6 0-6.6 3-6.6 6.6 0 3.6 3 6.6 6.6 6.6 3.6 0 6.6-3 6.6-6.6-.1-3.7-3-6.6-6.6-6.6zM253 178.4c-3.6 0-6.6 3-6.6 6.6 0 3.6 3 6.6 6.6 6.6 3.6 0 6.6-3 6.6-6.6 0-3.6-2.9-6.6-6.6-6.6zM270.8 178.4c-3.6 0-6.6 3-6.6 6.6 0 3.6 3 6.6 6.6 6.6 3.6 0 6.6-3 6.6-6.6-.1-3.6-3-6.6-6.6-6.6zM288.5 196.2c-3.6 0-6.6 3-6.6 6.6 0 3.6 3 6.6 6.6 6.6 3.6 0 6.6-3 6.6-6.6 0-3.7-3-6.6-6.6-6.6zM288.5 178.4c-3.6 0-6.6 3-6.6 6.6 0 3.6 3 6.6 6.6 6.6 3.6 0 6.6-3 6.6-6.6 0-3.6-3-6.6-6.6-6.6zM306.2 196.2c-3.6 0-6.6 3-6.6 6.6 0 3.6 3 6.6 6.6 6.6 3.6 0 6.6-3 6.6-6.6 0-3.7-3-6.6-6.6-6.6zM324 196.2c-3.6 0-6.6 3-6.6 6.6 0 3.6 3 6.6 6.6 6.6 3.6 0 6.6-3 6.6-6.6-.1-3.7-3-6.6-6.6-6.6zM306.2 178.4c-3.6 0-6.6 3-6.6 6.6 0 3.6 3 6.6 6.6 6.6 3.6 0 6.6-3 6.6-6.6 0-3.6-3-6.6-6.6-6.6zM324 178.4c-3.6 0-6.6 3-6.6 6.6 0 3.6 3 6.6 6.6 6.6 3.6 0 6.6-3 6.6-6.6-.1-3.6-3-6.6-6.6-6.6zM22.5 178.4c-3.6 0-6.6 3-6.6 6.6 0 3.6 3 6.6 6.6 6.6 3.6 0 6.6-3 6.6-6.6 0-3.6-2.9-6.6-6.6-6.6zM58 178.4c-3.6 0-6.6 3-6.6 6.6 0 3.6 3 6.6 6.6 6.6 3.6 0 6.6-3 6.6-6.6 0-3.6-3-6.6-6.6-6.6zM93.5 196.2c-3.6 0-6.6 3-6.6 6.6 0 3.6 3 6.6 6.6 6.6 3.6 0 6.6-3 6.6-6.6-.1-3.7-3-6.6-6.6-6.6zM4.8 160.7c-3.6 0-6.6 3-6.6 6.6 0 3.6 3 6.6 6.6 6.6 3.6 0 6.6-3 6.6-6.6 0-3.6-3-6.6-6.6-6.6zM22.5 160.7c-3.6 0-6.6 3-6.6 6.6 0 3.6 3 6.6 6.6 6.6 3.6 0 6.6-3 6.6-6.6 0-3.6-2.9-6.6-6.6-6.6zM40.3 89.8c-3.6 0-6.6 3-6.6 6.6 0 3.6 3 6.6 6.6 6.6 3.6 0 6.6-3 6.6-6.6 0-3.7-3-6.6-6.6-6.6zM58 89.8c-3.6 0-6.6 3-6.6 6.6 0 3.6 3 6.6 6.6 6.6 3.6 0 6.6-3 6.6-6.6 0-3.7-3-6.6-6.6-6.6zM128.9 125.2c-3.6 0-6.6 3-6.6 6.6 0 3.6 3 6.6 6.6 6.6 3.6 0 6.6-3 6.6-6.6 0-3.6-3-6.6-6.6-6.6zM146.7 125.2c-3.6 0-6.6 3-6.6 6.6 0 3.6 3 6.6 6.6 6.6 3.6 0 6.6-3 6.6-6.6-.1-3.6-3-6.6-6.6-6.6zM22.5 89.8c-3.6 0-6.6 3-6.6 6.6 0 3.6 3 6.6 6.6 6.6 3.6 0 6.6-3 6.6-6.6 0-3.7-2.9-6.6-6.6-6.6zM75.7 89.8c-3.6 0-6.6 3-6.6 6.6 0 3.6 3 6.6 6.6 6.6 3.6 0 6.6-3 6.6-6.6 0-3.7-2.9-6.6-6.6-6.6zM40.3 107.5c-3.6 0-6.6 3-6.6 6.6 0 3.6 3 6.6 6.6 6.6 3.6 0 6.6-3 6.6-6.6 0-3.6-3-6.6-6.6-6.6zM58 107.5c-3.6 0-6.6 3-6.6 6.6 0 3.6 3 6.6 6.6 6.6 3.6 0 6.6-3 6.6-6.6 0-3.6-3-6.6-6.6-6.6zM58 196.2c-3.6 0-6.6 3-6.6 6.6 0 3.6 3 6.6 6.6 6.6 3.6 0 6.6-3 6.6-6.6 0-3.7-3-6.6-6.6-6.6zM4.8 125.2c-3.6 0-6.6 3-6.6 6.6 0 3.6 3 6.6 6.6 6.6 3.6 0 6.6-3 6.6-6.6 0-3.6-3-6.6-6.6-6.6zM22.5 125.2c-3.6 0-6.6 3-6.6 6.6 0 3.6 3 6.6 6.6 6.6 3.6 0 6.6-3 6.6-6.6 0-3.6-2.9-6.6-6.6-6.6zM40.3 125.2c-3.6 0-6.6 3-6.6 6.6 0 3.6 3 6.6 6.6 6.6 3.6 0 6.6-3 6.6-6.6 0-3.6-3-6.6-6.6-6.6zM58 125.2c-3.6 0-6.6 3-6.6 6.6 0 3.6 3 6.6 6.6 6.6 3.6 0 6.6-3 6.6-6.6 0-3.6-3-6.6-6.6-6.6zM75.7 125.2c-3.6 0-6.6 3-6.6 6.6 0 3.6 3 6.6 6.6 6.6 3.6 0 6.6-3 6.6-6.6 0-3.6-2.9-6.6-6.6-6.6zM93.5 107.5c-3.6 0-6.6 3-6.6 6.6 0 3.6 3 6.6 6.6 6.6 3.6 0 6.6-3 6.6-6.6-.1-3.6-3-6.6-6.6-6.6zM111.2 107.5c-3.6 0-6.6 3-6.6 6.6 0 3.6 3 6.6 6.6 6.6 3.6 0 6.6-3 6.6-6.6 0-3.6-3-6.6-6.6-6.6zM128.9 107.5c-3.6 0-6.6 3-6.6 6.6 0 3.6 3 6.6 6.6 6.6 3.6 0 6.6-3 6.6-6.6 0-3.6-3-6.6-6.6-6.6zM146.7 107.5c-3.6 0-6.6 3-6.6 6.6 0 3.6 3 6.6 6.6 6.6 3.6 0 6.6-3 6.6-6.6-.1-3.6-3-6.6-6.6-6.6zM93.5 160.7c-3.6 0-6.6 3-6.6 6.6 0 3.6 3 6.6 6.6 6.6 3.6 0 6.6-3 6.6-6.6-.1-3.6-3-6.6-6.6-6.6zM111.2 160.7c-3.6 0-6.6 3-6.6 6.6 0 3.6 3 6.6 6.6 6.6 3.6 0 6.6-3 6.6-6.6 0-3.6-3-6.6-6.6-6.6zM-12.9 143c-3.6 0-6.6 3-6.6 6.6 0 3.6 3 6.6 6.6 6.6 3.6 0 6.6-3 6.6-6.6 0-3.7-3-6.6-6.6-6.6zM-48.4 178.4c-3.6 0-6.6 3-6.6 6.6 0 3.6 3 6.6 6.6 6.6 3.6 0 6.6-3 6.6-6.6 0-3.6-3-6.6-6.6-6.6zM-30.6 178.4c-3.6 0-6.6 3-6.6 6.6 0 3.6 3 6.6 6.6 6.6 3.6 0 6.6-3 6.6-6.6-.1-3.6-3-6.6-6.6-6.6zM-12.9 160.7c-3.6 0-6.6 3-6.6 6.6 0 3.6 3 6.6 6.6 6.6 3.6 0 6.6-3 6.6-6.6 0-3.6-3-6.6-6.6-6.6zM75.7 72.1c-3.6 0-6.6 3-6.6 6.6 0 3.6 3 6.6 6.6 6.6 3.6 0 6.6-3 6.6-6.6 0-3.7-2.9-6.6-6.6-6.6zM75.7 54.3c-3.6 0-6.6 3-6.6 6.6 0 3.6 3 6.6 6.6 6.6 3.6 0 6.6-3 6.6-6.6 0-3.6-2.9-6.6-6.6-6.6zM-30.6 89.8c-3.6 0-6.6 3-6.6 6.6 0 3.6 3 6.6 6.6 6.6 3.6 0 6.6-3 6.6-6.6-.1-3.7-3-6.6-6.6-6.6zM58 72.1c-3.6 0-6.6 3-6.6 6.6 0 3.6 3 6.6 6.6 6.6 3.6 0 6.6-3 6.6-6.6 0-3.7-3-6.6-6.6-6.6zM-48.4 196.2c-3.6 0-6.6 3-6.6 6.6 0 3.6 3 6.6 6.6 6.6 3.6 0 6.6-3 6.6-6.6 0-3.7-3-6.6-6.6-6.6zM-30.6 196.2c-3.6 0-6.6 3-6.6 6.6 0 3.6 3 6.6 6.6 6.6 3.6 0 6.6-3 6.6-6.6-.1-3.7-3-6.6-6.6-6.6zM-12.9 178.4c-3.6 0-6.6 3-6.6 6.6 0 3.6 3 6.6 6.6 6.6 3.6 0 6.6-3 6.6-6.6 0-3.6-3-6.6-6.6-6.6zM40.3 72.1c-3.6 0-6.6 3-6.6 6.6 0 3.6 3 6.6 6.6 6.6 3.6 0 6.6-3 6.6-6.6 0-3.7-3-6.6-6.6-6.6zM111.2 54.3c-3.6 0-6.6 3-6.6 6.6 0 3.6 3 6.6 6.6 6.6 3.6 0 6.6-3 6.6-6.6 0-3.6-3-6.6-6.6-6.6zM128.9 54.3c-3.6 0-6.6 3-6.6 6.6 0 3.6 3 6.6 6.6 6.6 3.6 0 6.6-3 6.6-6.6 0-3.6-3-6.6-6.6-6.6zM93.5 54.3c-3.6 0-6.6 3-6.6 6.6 0 3.6 3 6.6 6.6 6.6 3.6 0 6.6-3 6.6-6.6-.1-3.6-3-6.6-6.6-6.6zM146.7 54.3c-3.6 0-6.6 3-6.6 6.6 0 3.6 3 6.6 6.6 6.6 3.6 0 6.6-3 6.6-6.6-.1-3.6-3-6.6-6.6-6.6zM111.2 72.1c-3.6 0-6.6 3-6.6 6.6 0 3.6 3 6.6 6.6 6.6 3.6 0 6.6-3 6.6-6.6 0-3.7-3-6.6-6.6-6.6zM128.9 72.1c-3.6 0-6.6 3-6.6 6.6 0 3.6 3 6.6 6.6 6.6 3.6 0 6.6-3 6.6-6.6 0-3.7-3-6.6-6.6-6.6zM146.7 72.1c-3.6 0-6.6 3-6.6 6.6 0 3.6 3 6.6 6.6 6.6 3.6 0 6.6-3 6.6-6.6-.1-3.7-3-6.6-6.6-6.6zM128.9 89.8c-3.6 0-6.6 3-6.6 6.6 0 3.6 3 6.6 6.6 6.6 3.6 0 6.6-3 6.6-6.6 0-3.7-3-6.6-6.6-6.6zM146.7 89.8c-3.6 0-6.6 3-6.6 6.6 0 3.6 3 6.6 6.6 6.6 3.6 0 6.6-3 6.6-6.6-.1-3.7-3-6.6-6.6-6.6zM164.4 89.8c-3.6 0-6.6 3-6.6 6.6 0 3.6 3 6.6 6.6 6.6 3.6 0 6.6-3 6.6-6.6 0-3.7-3-6.6-6.6-6.6zM146.7 36.6c-3.6 0-6.6 3-6.6 6.6 0 3.6 3 6.6 6.6 6.6 3.6 0 6.6-3 6.6-6.6-.1-3.6-3-6.6-6.6-6.6zM128.9 36.6c-3.6 0-6.6 3-6.6 6.6 0 3.6 3 6.6 6.6 6.6 3.6 0 6.6-3 6.6-6.6 0-3.6-3-6.6-6.6-6.6zM164.4 54.3c-3.6 0-6.6 3-6.6 6.6 0 3.6 3 6.6 6.6 6.6 3.6 0 6.6-3 6.6-6.6 0-3.6-3-6.6-6.6-6.6zM182.1 54.3c-3.6 0-6.6 3-6.6 6.6 0 3.6 3 6.6 6.6 6.6 3.6 0 6.6-3 6.6-6.6 0-3.6-3-6.6-6.6-6.6zM164.4 72.1c-3.6 0-6.6 3-6.6 6.6 0 3.6 3 6.6 6.6 6.6 3.6 0 6.6-3 6.6-6.6 0-3.7-3-6.6-6.6-6.6zM182.1 72.1c-3.6 0-6.6 3-6.6 6.6 0 3.6 3 6.6 6.6 6.6 3.6 0 6.6-3 6.6-6.6 0-3.7-3-6.6-6.6-6.6zM182.1 89.8c-3.6 0-6.6 3-6.6 6.6 0 3.6 3 6.6 6.6 6.6 3.6 0 6.6-3 6.6-6.6 0-3.7-3-6.6-6.6-6.6zM199.8 89.8c-3.6 0-6.6 3-6.6 6.6 0 3.6 3 6.6 6.6 6.6 3.6 0 6.6-3 6.6-6.6 0-3.7-2.9-6.6-6.6-6.6zM217.6 89.8c-3.6 0-6.6 3-6.6 6.6 0 3.6 3 6.6 6.6 6.6 3.6 0 6.6-3 6.6-6.6-.1-3.7-3-6.6-6.6-6.6zM217.6 72.1c-3.6 0-6.6 3-6.6 6.6 0 3.6 3 6.6 6.6 6.6 3.6 0 6.6-3 6.6-6.6-.1-3.7-3-6.6-6.6-6.6zM199.8 72.1c-3.6 0-6.6 3-6.6 6.6 0 3.6 3 6.6 6.6 6.6 3.6 0 6.6-3 6.6-6.6 0-3.7-2.9-6.6-6.6-6.6zM199.8 54.3c-3.6 0-6.6 3-6.6 6.6 0 3.6 3 6.6 6.6 6.6 3.6 0 6.6-3 6.6-6.6 0-3.6-2.9-6.6-6.6-6.6zM111.2 36.6c-3.6 0-6.6 3-6.6 6.6 0 3.6 3 6.6 6.6 6.6 3.6 0 6.6-3 6.6-6.6 0-3.6-3-6.6-6.6-6.6zM-48.4 107.5c-3.6 0-6.6 3-6.6 6.6 0 3.6 3 6.6 6.6 6.6 3.6 0 6.6-3 6.6-6.6 0-3.6-3-6.6-6.6-6.6zM-12.9 89.8c-3.6 0-6.6 3-6.6 6.6 0 3.6 3 6.6 6.6 6.6 3.6 0 6.6-3 6.6-6.6 0-3.7-3-6.6-6.6-6.6zM111.2 125.2c-3.6 0-6.6 3-6.6 6.6 0 3.6 3 6.6 6.6 6.6 3.6 0 6.6-3 6.6-6.6 0-3.6-3-6.6-6.6-6.6zM-48.4 125.2c-3.6 0-6.6 3-6.6 6.6 0 3.6 3 6.6 6.6 6.6 3.6 0 6.6-3 6.6-6.6 0-3.6-3-6.6-6.6-6.6zM93.5 125.2c-3.6 0-6.6 3-6.6 6.6 0 3.6 3 6.6 6.6 6.6 3.6 0 6.6-3 6.6-6.6-.1-3.6-3-6.6-6.6-6.6zM-12.9 107.5c-3.6 0-6.6 3-6.6 6.6 0 3.6 3 6.6 6.6 6.6 3.6 0 6.6-3 6.6-6.6 0-3.6-3-6.6-6.6-6.6zM93.5 143c-3.6 0-6.6 3-6.6 6.6 0 3.6 3 6.6 6.6 6.6 3.6 0 6.6-3 6.6-6.6-.1-3.7-3-6.6-6.6-6.6zM111.2 143c-3.6 0-6.6 3-6.6 6.6 0 3.6 3 6.6 6.6 6.6 3.6 0 6.6-3 6.6-6.6 0-3.7-3-6.6-6.6-6.6zM128.9 143c-3.6 0-6.6 3-6.6 6.6 0 3.6 3 6.6 6.6 6.6 3.6 0 6.6-3 6.6-6.6 0-3.7-3-6.6-6.6-6.6zM146.7 143c-3.6 0-6.6 3-6.6 6.6 0 3.6 3 6.6 6.6 6.6 3.6 0 6.6-3 6.6-6.6-.1-3.7-3-6.6-6.6-6.6zM199.8 125.2c-3.6 0-6.6 3-6.6 6.6 0 3.6 3 6.6 6.6 6.6 3.6 0 6.6-3 6.6-6.6 0-3.6-2.9-6.6-6.6-6.6zM217.6 125.2c-3.6 0-6.6 3-6.6 6.6 0 3.6 3 6.6 6.6 6.6 3.6 0 6.6-3 6.6-6.6-.1-3.6-3-6.6-6.6-6.6zM164.4 107.5c-3.6 0-6.6 3-6.6 6.6 0 3.6 3 6.6 6.6 6.6 3.6 0 6.6-3 6.6-6.6 0-3.6-3-6.6-6.6-6.6zM182.1 107.5c-3.6 0-6.6 3-6.6 6.6 0 3.6 3 6.6 6.6 6.6 3.6 0 6.6-3 6.6-6.6 0-3.6-3-6.6-6.6-6.6zM199.8 107.5c-3.6 0-6.6 3-6.6 6.6 0 3.6 3 6.6 6.6 6.6 3.6 0 6.6-3 6.6-6.6 0-3.6-2.9-6.6-6.6-6.6zM217.6 107.5c-3.6 0-6.6 3-6.6 6.6 0 3.6 3 6.6 6.6 6.6 3.6 0 6.6-3 6.6-6.6-.1-3.6-3-6.6-6.6-6.6zM182.1 125.2c-3.6 0-6.6 3-6.6 6.6 0 3.6 3 6.6 6.6 6.6 3.6 0 6.6-3 6.6-6.6 0-3.6-3-6.6-6.6-6.6zM164.4 125.2c-3.6 0-6.6 3-6.6 6.6 0 3.6 3 6.6 6.6 6.6 3.6 0 6.6-3 6.6-6.6 0-3.6-3-6.6-6.6-6.6zM164.4 143c-3.6 0-6.6 3-6.6 6.6 0 3.6 3 6.6 6.6 6.6 3.6 0 6.6-3 6.6-6.6 0-3.7-3-6.6-6.6-6.6zM182.1 143c-3.6 0-6.6 3-6.6 6.6 0 3.6 3 6.6 6.6 6.6 3.6 0 6.6-3 6.6-6.6 0-3.7-3-6.6-6.6-6.6zM199.8 143c-3.6 0-6.6 3-6.6 6.6 0 3.6 3 6.6 6.6 6.6 3.6 0 6.6-3 6.6-6.6 0-3.7-2.9-6.6-6.6-6.6zM217.6 143c-3.6 0-6.6 3-6.6 6.6 0 3.6 3 6.6 6.6 6.6 3.6 0 6.6-3 6.6-6.6-.1-3.7-3-6.6-6.6-6.6zM235.3 125.2c-3.6 0-6.6 3-6.6 6.6 0 3.6 3 6.6 6.6 6.6 3.6 0 6.6-3 6.6-6.6 0-3.6-3-6.6-6.6-6.6zM253 125.2c-3.6 0-6.6 3-6.6 6.6 0 3.6 3 6.6 6.6 6.6 3.6 0 6.6-3 6.6-6.6 0-3.6-2.9-6.6-6.6-6.6zM235.3 107.5c-3.6 0-6.6 3-6.6 6.6 0 3.6 3 6.6 6.6 6.6 3.6 0 6.6-3 6.6-6.6 0-3.6-3-6.6-6.6-6.6zM253 107.5c-3.6 0-6.6 3-6.6 6.6 0 3.6 3 6.6 6.6 6.6 3.6 0 6.6-3 6.6-6.6 0-3.6-2.9-6.6-6.6-6.6zM235.3 72.1c-3.6 0-6.6 3-6.6 6.6 0 3.6 3 6.6 6.6 6.6 3.6 0 6.6-3 6.6-6.6 0-3.7-3-6.6-6.6-6.6zM253 72.1c-3.6 0-6.6 3-6.6 6.6 0 3.6 3 6.6 6.6 6.6 3.6 0 6.6-3 6.6-6.6 0-3.7-2.9-6.6-6.6-6.6zM235.3 89.8c-3.6 0-6.6 3-6.6 6.6 0 3.6 3 6.6 6.6 6.6 3.6 0 6.6-3 6.6-6.6 0-3.7-3-6.6-6.6-6.6zM253 89.8c-3.6 0-6.6 3-6.6 6.6 0 3.6 3 6.6 6.6 6.6 3.6 0 6.6-3 6.6-6.6 0-3.7-2.9-6.6-6.6-6.6zM270.8 89.8c-3.6 0-6.6 3-6.6 6.6 0 3.6 3 6.6 6.6 6.6 3.6 0 6.6-3 6.6-6.6-.1-3.7-3-6.6-6.6-6.6zM270.8 72.1c-3.6 0-6.6 3-6.6 6.6 0 3.6 3 6.6 6.6 6.6 3.6 0 6.6-3 6.6-6.6-.1-3.7-3-6.6-6.6-6.6zM288.5 72.1c-3.6 0-6.6 3-6.6 6.6 0 3.6 3 6.6 6.6 6.6 3.6 0 6.6-3 6.6-6.6 0-3.7-3-6.6-6.6-6.6zM288.5 89.8c-3.6 0-6.6 3-6.6 6.6 0 3.6 3 6.6 6.6 6.6 3.6 0 6.6-3 6.6-6.6 0-3.7-3-6.6-6.6-6.6zM306.2 89.8c-3.6 0-6.6 3-6.6 6.6 0 3.6 3 6.6 6.6 6.6 3.6 0 6.6-3 6.6-6.6 0-3.7-3-6.6-6.6-6.6zM324 89.8c-3.6 0-6.6 3-6.6 6.6 0 3.6 3 6.6 6.6 6.6 3.6 0 6.6-3 6.6-6.6-.1-3.7-3-6.6-6.6-6.6zM324 72.1c-3.6 0-6.6 3-6.6 6.6 0 3.6 3 6.6 6.6 6.6 3.6 0 6.6-3 6.6-6.6-.1-3.7-3-6.6-6.6-6.6zM306.2 72.1c-3.6 0-6.6 3-6.6 6.6 0 3.6 3 6.6 6.6 6.6 3.6 0 6.6-3 6.6-6.6 0-3.7-3-6.6-6.6-6.6zM235.3 54.3c-3.6 0-6.6 3-6.6 6.6 0 3.6 3 6.6 6.6 6.6 3.6 0 6.6-3 6.6-6.6 0-3.6-3-6.6-6.6-6.6zM253 54.3c-3.6 0-6.6 3-6.6 6.6 0 3.6 3 6.6 6.6 6.6 3.6 0 6.6-3 6.6-6.6 0-3.6-2.9-6.6-6.6-6.6zM270.8 54.3c-3.6 0-6.6 3-6.6 6.6 0 3.6 3 6.6 6.6 6.6 3.6 0 6.6-3 6.6-6.6-.1-3.6-3-6.6-6.6-6.6zM253 36.6c-3.6 0-6.6 3-6.6 6.6 0 3.6 3 6.6 6.6 6.6 3.6 0 6.6-3 6.6-6.6 0-3.6-2.9-6.6-6.6-6.6zM288.5 18.9c-3.6 0-6.6 3-6.6 6.6 0 3.6 3 6.6 6.6 6.6 3.6 0 6.6-3 6.6-6.6 0-3.7-3-6.6-6.6-6.6zM253 18.9c-3.6 0-6.6 3-6.6 6.6 0 3.6 3 6.6 6.6 6.6 3.6 0 6.6-3 6.6-6.6 0-3.7-2.9-6.6-6.6-6.6zM270.8 18.9c-3.6 0-6.6 3-6.6 6.6 0 3.6 3 6.6 6.6 6.6 3.6 0 6.6-3 6.6-6.6-.1-3.7-3-6.6-6.6-6.6zM288.5 54.3c-3.6 0-6.6 3-6.6 6.6 0 3.6 3 6.6 6.6 6.6 3.6 0 6.6-3 6.6-6.6 0-3.6-3-6.6-6.6-6.6zM324 54.3c-3.6 0-6.6 3-6.6 6.6 0 3.6 3 6.6 6.6 6.6 3.6 0 6.6-3 6.6-6.6-.1-3.6-3-6.6-6.6-6.6zM324 36.6c-3.6 0-6.6 3-6.6 6.6 0 3.6 3 6.6 6.6 6.6 3.6 0 6.6-3 6.6-6.6-.1-3.6-3-6.6-6.6-6.6zM306.2 54.3c-3.6 0-6.6 3-6.6 6.6 0 3.6 3 6.6 6.6 6.6 3.6 0 6.6-3 6.6-6.6 0-3.6-3-6.6-6.6-6.6zM235.3 143c-3.6 0-6.6 3-6.6 6.6 0 3.6 3 6.6 6.6 6.6 3.6 0 6.6-3 6.6-6.6 0-3.7-3-6.6-6.6-6.6zM253 143c-3.6 0-6.6 3-6.6 6.6 0 3.6 3 6.6 6.6 6.6 3.6 0 6.6-3 6.6-6.6 0-3.7-2.9-6.6-6.6-6.6zM306.2 125.2c-3.6 0-6.6 3-6.6 6.6 0 3.6 3 6.6 6.6 6.6 3.6 0 6.6-3 6.6-6.6 0-3.6-3-6.6-6.6-6.6zM324 125.2c-3.6 0-6.6 3-6.6 6.6 0 3.6 3 6.6 6.6 6.6 3.6 0 6.6-3 6.6-6.6-.1-3.6-3-6.6-6.6-6.6zM270.8 107.5c-3.6 0-6.6 3-6.6 6.6 0 3.6 3 6.6 6.6 6.6 3.6 0 6.6-3 6.6-6.6-.1-3.6-3-6.6-6.6-6.6zM288.5 107.5c-3.6 0-6.6 3-6.6 6.6 0 3.6 3 6.6 6.6 6.6 3.6 0 6.6-3 6.6-6.6 0-3.6-3-6.6-6.6-6.6zM306.2 107.5c-3.6 0-6.6 3-6.6 6.6 0 3.6 3 6.6 6.6 6.6 3.6 0 6.6-3 6.6-6.6 0-3.6-3-6.6-6.6-6.6zM324 107.5c-3.6 0-6.6 3-6.6 6.6 0 3.6 3 6.6 6.6 6.6 3.6 0 6.6-3 6.6-6.6-.1-3.6-3-6.6-6.6-6.6zM288.5 125.2c-3.6 0-6.6 3-6.6 6.6 0 3.6 3 6.6 6.6 6.6 3.6 0 6.6-3 6.6-6.6 0-3.6-3-6.6-6.6-6.6zM270.8 125.2c-3.6 0-6.6 3-6.6 6.6 0 3.6 3 6.6 6.6 6.6 3.6 0 6.6-3 6.6-6.6-.1-3.6-3-6.6-6.6-6.6zM270.8 143c-3.6 0-6.6 3-6.6 6.6 0 3.6 3 6.6 6.6 6.6 3.6 0 6.6-3 6.6-6.6-.1-3.7-3-6.6-6.6-6.6zM288.5 143c-3.6 0-6.6 3-6.6 6.6 0 3.6 3 6.6 6.6 6.6 3.6 0 6.6-3 6.6-6.6 0-3.7-3-6.6-6.6-6.6zM306.2 143c-3.6 0-6.6 3-6.6 6.6 0 3.6 3 6.6 6.6 6.6 3.6 0 6.6-3 6.6-6.6 0-3.7-3-6.6-6.6-6.6zM324 143c-3.6 0-6.6 3-6.6 6.6 0 3.6 3 6.6 6.6 6.6 3.6 0 6.6-3 6.6-6.6-.1-3.7-3-6.6-6.6-6.6zM253 160.7c-3.6 0-6.6 3-6.6 6.6 0 3.6 3 6.6 6.6 6.6 3.6 0 6.6-3 6.6-6.6 0-3.6-2.9-6.6-6.6-6.6zM270.8 160.7c-3.6 0-6.6 3-6.6 6.6 0 3.6 3 6.6 6.6 6.6 3.6 0 6.6-3 6.6-6.6-.1-3.6-3-6.6-6.6-6.6zM288.5 160.7c-3.6 0-6.6 3-6.6 6.6 0 3.6 3 6.6 6.6 6.6 3.6 0 6.6-3 6.6-6.6 0-3.6-3-6.6-6.6-6.6zM306.2 160.7c-3.6 0-6.6 3-6.6 6.6 0 3.6 3 6.6 6.6 6.6 3.6 0 6.6-3 6.6-6.6 0-3.6-3-6.6-6.6-6.6zM324 160.7c-3.6 0-6.6 3-6.6 6.6 0 3.6 3 6.6 6.6 6.6 3.6 0 6.6-3 6.6-6.6-.1-3.6-3-6.6-6.6-6.6zM306.2 249.4c-3.6 0-6.6 3-6.6 6.6 0 3.6 3 6.6 6.6 6.6 3.6 0 6.6-3 6.6-6.6 0-3.7-3-6.6-6.6-6.6zM324 249.4c-3.6 0-6.6 3-6.6 6.6 0 3.6 3 6.6 6.6 6.6 3.6 0 6.6-3 6.6-6.6-.1-3.7-3-6.6-6.6-6.6zM341.7 249.4c-3.6 0-6.6 3-6.6 6.6 0 3.6 3 6.6 6.6 6.6 3.6 0 6.6-3 6.6-6.6 0-3.7-3-6.6-6.6-6.6zM306.2 231.6c-3.6 0-6.6 3-6.6 6.6 0 3.6 3 6.6 6.6 6.6 3.6 0 6.6-3 6.6-6.6 0-3.6-3-6.6-6.6-6.6zM324 231.6c-3.6 0-6.6 3-6.6 6.6 0 3.6 3 6.6 6.6 6.6 3.6 0 6.6-3 6.6-6.6-.1-3.6-3-6.6-6.6-6.6zM306.2 213.9c-3.6 0-6.6 3-6.6 6.6 0 3.6 3 6.6 6.6 6.6 3.6 0 6.6-3 6.6-6.6 0-3.6-3-6.6-6.6-6.6zM324 213.9c-3.6 0-6.6 3-6.6 6.6 0 3.6 3 6.6 6.6 6.6 3.6 0 6.6-3 6.6-6.6-.1-3.6-3-6.6-6.6-6.6zM341.7 213.9c-3.6 0-6.6 3-6.6 6.6 0 3.6 3 6.6 6.6 6.6 3.6 0 6.6-3 6.6-6.6 0-3.6-3-6.6-6.6-6.6zM359.4 213.9c-3.6 0-6.6 3-6.6 6.6 0 3.6 3 6.6 6.6 6.6 3.6 0 6.6-3 6.6-6.6 0-3.6-3-6.6-6.6-6.6zM377.1 213.9c-3.6 0-6.6 3-6.6 6.6 0 3.6 3 6.6 6.6 6.6 3.6 0 6.6-3 6.6-6.6 0-3.6-2.9-6.6-6.6-6.6zM341.7 231.6c-3.6 0-6.6 3-6.6 6.6 0 3.6 3 6.6 6.6 6.6 3.6 0 6.6-3 6.6-6.6 0-3.6-3-6.6-6.6-6.6zM359.4 231.6c-3.6 0-6.6 3-6.6 6.6 0 3.6 3 6.6 6.6 6.6 3.6 0 6.6-3 6.6-6.6 0-3.6-3-6.6-6.6-6.6zM377.1 231.6c-3.6 0-6.6 3-6.6 6.6 0 3.6 3 6.6 6.6 6.6 3.6 0 6.6-3 6.6-6.6 0-3.6-2.9-6.6-6.6-6.6zM359.4 249.4c-3.6 0-6.6 3-6.6 6.6 0 3.6 3 6.6 6.6 6.6 3.6 0 6.6-3 6.6-6.6 0-3.7-3-6.6-6.6-6.6zM377.1 249.4c-3.6 0-6.6 3-6.6 6.6 0 3.6 3 6.6 6.6 6.6 3.6 0 6.6-3 6.6-6.6 0-3.7-2.9-6.6-6.6-6.6zM341.7 196.2c-3.6 0-6.6 3-6.6 6.6 0 3.6 3 6.6 6.6 6.6 3.6 0 6.6-3 6.6-6.6 0-3.7-3-6.6-6.6-6.6zM359.4 196.2c-3.6 0-6.6 3-6.6 6.6 0 3.6 3 6.6 6.6 6.6 3.6 0 6.6-3 6.6-6.6 0-3.7-3-6.6-6.6-6.6zM341.7 178.4c-3.6 0-6.6 3-6.6 6.6 0 3.6 3 6.6 6.6 6.6 3.6 0 6.6-3 6.6-6.6 0-3.6-3-6.6-6.6-6.6zM359.4 178.4c-3.6 0-6.6 3-6.6 6.6 0 3.6 3 6.6 6.6 6.6 3.6 0 6.6-3 6.6-6.6 0-3.6-3-6.6-6.6-6.6zM377.1 196.2c-3.6 0-6.6 3-6.6 6.6 0 3.6 3 6.6 6.6 6.6 3.6 0 6.6-3 6.6-6.6 0-3.7-2.9-6.6-6.6-6.6zM377.1 178.4c-3.6 0-6.6 3-6.6 6.6 0 3.6 3 6.6 6.6 6.6 3.6 0 6.6-3 6.6-6.6 0-3.6-2.9-6.6-6.6-6.6zM394.9 196.2c-3.6 0-6.6 3-6.6 6.6 0 3.6 3 6.6 6.6 6.6 3.6 0 6.6-3 6.6-6.6-.1-3.7-3-6.6-6.6-6.6zM412.6 196.2c-3.6 0-6.6 3-6.6 6.6 0 3.6 3 6.6 6.6 6.6 3.6 0 6.6-3 6.6-6.6 0-3.7-3-6.6-6.6-6.6zM394.9 178.4c-3.6 0-6.6 3-6.6 6.6 0 3.6 3 6.6 6.6 6.6 3.6 0 6.6-3 6.6-6.6-.1-3.6-3-6.6-6.6-6.6zM412.6 178.4c-3.6 0-6.6 3-6.6 6.6 0 3.6 3 6.6 6.6 6.6 3.6 0 6.6-3 6.6-6.6 0-3.6-3-6.6-6.6-6.6zM341.7 125.2c-3.6 0-6.6 3-6.6 6.6 0 3.6 3 6.6 6.6 6.6 3.6 0 6.6-3 6.6-6.6 0-3.6-3-6.6-6.6-6.6zM341.7 107.5c-3.6 0-6.6 3-6.6 6.6 0 3.6 3 6.6 6.6 6.6 3.6 0 6.6-3 6.6-6.6 0-3.6-3-6.6-6.6-6.6zM341.7 72.1c-3.6 0-6.6 3-6.6 6.6 0 3.6 3 6.6 6.6 6.6 3.6 0 6.6-3 6.6-6.6 0-3.7-3-6.6-6.6-6.6zM341.7 89.8c-3.6 0-6.6 3-6.6 6.6 0 3.6 3 6.6 6.6 6.6 3.6 0 6.6-3 6.6-6.6 0-3.7-3-6.6-6.6-6.6zM359.4 89.8c-3.6 0-6.6 3-6.6 6.6 0 3.6 3 6.6 6.6 6.6 3.6 0 6.6-3 6.6-6.6 0-3.7-3-6.6-6.6-6.6zM359.4 72.1c-3.6 0-6.6 3-6.6 6.6 0 3.6 3 6.6 6.6 6.6 3.6 0 6.6-3 6.6-6.6 0-3.7-3-6.6-6.6-6.6zM377.1 72.1c-3.6 0-6.6 3-6.6 6.6 0 3.6 3 6.6 6.6 6.6 3.6 0 6.6-3 6.6-6.6 0-3.7-2.9-6.6-6.6-6.6zM377.1 89.8c-3.6 0-6.6 3-6.6 6.6 0 3.6 3 6.6 6.6 6.6 3.6 0 6.6-3 6.6-6.6 0-3.7-2.9-6.6-6.6-6.6zM394.9 89.8c-3.6 0-6.6 3-6.6 6.6 0 3.6 3 6.6 6.6 6.6 3.6 0 6.6-3 6.6-6.6-.1-3.7-3-6.6-6.6-6.6zM412.6 89.8c-3.6 0-6.6 3-6.6 6.6 0 3.6 3 6.6 6.6 6.6 3.6 0 6.6-3 6.6-6.6 0-3.7-3-6.6-6.6-6.6zM412.6 72.1c-3.6 0-6.6 3-6.6 6.6 0 3.6 3 6.6 6.6 6.6 3.6 0 6.6-3 6.6-6.6 0-3.7-3-6.6-6.6-6.6zM394.9 72.1c-3.6 0-6.6 3-6.6 6.6 0 3.6 3 6.6 6.6 6.6 3.6 0 6.6-3 6.6-6.6-.1-3.7-3-6.6-6.6-6.6zM341.7 54.3c-3.6 0-6.6 3-6.6 6.6 0 3.6 3 6.6 6.6 6.6 3.6 0 6.6-3 6.6-6.6 0-3.6-3-6.6-6.6-6.6zM359.4 54.3c-3.6 0-6.6 3-6.6 6.6 0 3.6 3 6.6 6.6 6.6 3.6 0 6.6-3 6.6-6.6 0-3.6-3-6.6-6.6-6.6zM377.1 54.3c-3.6 0-6.6 3-6.6 6.6 0 3.6 3 6.6 6.6 6.6 3.6 0 6.6-3 6.6-6.6 0-3.6-2.9-6.6-6.6-6.6zM412.6 54.3c-3.6 0-6.6 3-6.6 6.6 0 3.6 3 6.6 6.6 6.6 3.6 0 6.6-3 6.6-6.6 0-3.6-3-6.6-6.6-6.6zM394.9 54.3c-3.6 0-6.6 3-6.6 6.6 0 3.6 3 6.6 6.6 6.6 3.6 0 6.6-3 6.6-6.6-.1-3.6-3-6.6-6.6-6.6zM341.7 143c-3.6 0-6.6 3-6.6 6.6 0 3.6 3 6.6 6.6 6.6 3.6 0 6.6-3 6.6-6.6 0-3.7-3-6.6-6.6-6.6zM394.9 125.2c-3.6 0-6.6 3-6.6 6.6 0 3.6 3 6.6 6.6 6.6 3.6 0 6.6-3 6.6-6.6-.1-3.6-3-6.6-6.6-6.6zM412.6 125.2c-3.6 0-6.6 3-6.6 6.6 0 3.6 3 6.6 6.6 6.6 3.6 0 6.6-3 6.6-6.6 0-3.6-3-6.6-6.6-6.6zM359.4 107.5c-3.6 0-6.6 3-6.6 6.6 0 3.6 3 6.6 6.6 6.6 3.6 0 6.6-3 6.6-6.6 0-3.6-3-6.6-6.6-6.6zM377.1 107.5c-3.6 0-6.6 3-6.6 6.6 0 3.6 3 6.6 6.6 6.6 3.6 0 6.6-3 6.6-6.6 0-3.6-2.9-6.6-6.6-6.6zM394.9 107.5c-3.6 0-6.6 3-6.6 6.6 0 3.6 3 6.6 6.6 6.6 3.6 0 6.6-3 6.6-6.6-.1-3.6-3-6.6-6.6-6.6zM412.6 107.5c-3.6 0-6.6 3-6.6 6.6 0 3.6 3 6.6 6.6 6.6 3.6 0 6.6-3 6.6-6.6 0-3.6-3-6.6-6.6-6.6zM377.1 125.2c-3.6 0-6.6 3-6.6 6.6 0 3.6 3 6.6 6.6 6.6 3.6 0 6.6-3 6.6-6.6 0-3.6-2.9-6.6-6.6-6.6zM359.4 125.2c-3.6 0-6.6 3-6.6 6.6 0 3.6 3 6.6 6.6 6.6 3.6 0 6.6-3 6.6-6.6 0-3.6-3-6.6-6.6-6.6zM359.4 143c-3.6 0-6.6 3-6.6 6.6 0 3.6 3 6.6 6.6 6.6 3.6 0 6.6-3 6.6-6.6 0-3.7-3-6.6-6.6-6.6zM377.1 143c-3.6 0-6.6 3-6.6 6.6 0 3.6 3 6.6 6.6 6.6 3.6 0 6.6-3 6.6-6.6 0-3.7-2.9-6.6-6.6-6.6zM394.9 143c-3.6 0-6.6 3-6.6 6.6 0 3.6 3 6.6 6.6 6.6 3.6 0 6.6-3 6.6-6.6-.1-3.7-3-6.6-6.6-6.6zM412.6 143c-3.6 0-6.6 3-6.6 6.6 0 3.6 3 6.6 6.6 6.6 3.6 0 6.6-3 6.6-6.6 0-3.7-3-6.6-6.6-6.6zM341.7 160.7c-3.6 0-6.6 3-6.6 6.6 0 3.6 3 6.6 6.6 6.6 3.6 0 6.6-3 6.6-6.6 0-3.6-3-6.6-6.6-6.6zM359.4 160.7c-3.6 0-6.6 3-6.6 6.6 0 3.6 3 6.6 6.6 6.6 3.6 0 6.6-3 6.6-6.6 0-3.6-3-6.6-6.6-6.6zM377.1 160.7c-3.6 0-6.6 3-6.6 6.6 0 3.6 3 6.6 6.6 6.6 3.6 0 6.6-3 6.6-6.6 0-3.6-2.9-6.6-6.6-6.6zM394.9 160.7c-3.6 0-6.6 3-6.6 6.6 0 3.6 3 6.6 6.6 6.6 3.6 0 6.6-3 6.6-6.6-.1-3.6-3-6.6-6.6-6.6zM412.6 160.7c-3.6 0-6.6 3-6.6 6.6 0 3.6 3 6.6 6.6 6.6 3.6 0 6.6-3 6.6-6.6 0-3.6-3-6.6-6.6-6.6zM394.9 249.4c-3.6 0-6.6 3-6.6 6.6 0 3.6 3 6.6 6.6 6.6 3.6 0 6.6-3 6.6-6.6-.1-3.7-3-6.6-6.6-6.6zM412.6 249.4c-3.6 0-6.6 3-6.6 6.6 0 3.6 3 6.6 6.6 6.6 3.6 0 6.6-3 6.6-6.6 0-3.7-3-6.6-6.6-6.6zM394.9 231.6c-3.6 0-6.6 3-6.6 6.6 0 3.6 3 6.6 6.6 6.6 3.6 0 6.6-3 6.6-6.6-.1-3.6-3-6.6-6.6-6.6zM412.6 231.6c-3.6 0-6.6 3-6.6 6.6 0 3.6 3 6.6 6.6 6.6 3.6 0 6.6-3 6.6-6.6 0-3.6-3-6.6-6.6-6.6zM394.9 213.9c-3.6 0-6.6 3-6.6 6.6 0 3.6 3 6.6 6.6 6.6 3.6 0 6.6-3 6.6-6.6-.1-3.6-3-6.6-6.6-6.6zM341.7 338c-3.6 0-6.6 3-6.6 6.6 0 3.6 3 6.6 6.6 6.6 3.6 0 6.6-3 6.6-6.6 0-3.6-3-6.6-6.6-6.6zM341.7 302.5c-3.6 0-6.6 3-6.6 6.6 0 3.6 3 6.6 6.6 6.6 3.6 0 6.6-3 6.6-6.6 0-3.6-3-6.6-6.6-6.6zM359.4 302.5c-3.6 0-6.6 3-6.6 6.6 0 3.6 3 6.6 6.6 6.6 3.6 0 6.6-3 6.6-6.6 0-3.6-3-6.6-6.6-6.6zM377.1 302.5c-3.6 0-6.6 3-6.6 6.6 0 3.6 3 6.6 6.6 6.6 3.6 0 6.6-3 6.6-6.6 0-3.6-2.9-6.6-6.6-6.6zM341.7 320.3c-3.6 0-6.6 3-6.6 6.6 0 3.6 3 6.6 6.6 6.6 3.6 0 6.6-3 6.6-6.6 0-3.7-3-6.6-6.6-6.6zM359.4 320.3c-3.6 0-6.6 3-6.6 6.6 0 3.6 3 6.6 6.6 6.6 3.6 0 6.6-3 6.6-6.6 0-3.7-3-6.6-6.6-6.6zM483.5 302.5c-3.6 0-6.6 3-6.6 6.6 0 3.6 3 6.6 6.6 6.6 3.6 0 6.6-3 6.6-6.6 0-3.6-3-6.6-6.6-6.6zM465.8 302.5c-3.6 0-6.6 3-6.6 6.6 0 3.6 3 6.6 6.6 6.6 3.6 0 6.6-3 6.6-6.6 0-3.6-3-6.6-6.6-6.6zM359.4 338c-3.6 0-6.6 3-6.6 6.6 0 3.6 3 6.6 6.6 6.6 3.6 0 6.6-3 6.6-6.6 0-3.6-3-6.6-6.6-6.6zM483.5 320.3c-3.6 0-6.6 3-6.6 6.6 0 3.6 3 6.6 6.6 6.6 3.6 0 6.6-3 6.6-6.6 0-3.7-3-6.6-6.6-6.6zM341.7 284.8c-3.6 0-6.6 3-6.6 6.6 0 3.6 3 6.6 6.6 6.6 3.6 0 6.6-3 6.6-6.6 0-3.6-3-6.6-6.6-6.6zM359.4 284.8c-3.6 0-6.6 3-6.6 6.6 0 3.6 3 6.6 6.6 6.6 3.6 0 6.6-3 6.6-6.6 0-3.6-3-6.6-6.6-6.6zM341.7 267.1c-3.6 0-6.6 3-6.6 6.6 0 3.6 3 6.6 6.6 6.6 3.6 0 6.6-3 6.6-6.6 0-3.7-3-6.6-6.6-6.6zM359.4 267.1c-3.6 0-6.6 3-6.6 6.6 0 3.6 3 6.6 6.6 6.6 3.6 0 6.6-3 6.6-6.6 0-3.7-3-6.6-6.6-6.6zM377.1 284.8c-3.6 0-6.6 3-6.6 6.6 0 3.6 3 6.6 6.6 6.6 3.6 0 6.6-3 6.6-6.6 0-3.6-2.9-6.6-6.6-6.6zM377.1 267.1c-3.6 0-6.6 3-6.6 6.6 0 3.6 3 6.6 6.6 6.6 3.6 0 6.6-3 6.6-6.6 0-3.7-2.9-6.6-6.6-6.6zM412.6 267.1c-3.6 0-6.6 3-6.6 6.6 0 3.6 3 6.6 6.6 6.6 3.6 0 6.6-3 6.6-6.6 0-3.7-3-6.6-6.6-6.6zM394.9 267.1c-3.6 0-6.6 3-6.6 6.6 0 3.6 3 6.6 6.6 6.6 3.6 0 6.6-3 6.6-6.6-.1-3.7-3-6.6-6.6-6.6zM501.3 320.3c-3.6 0-6.6 3-6.6 6.6 0 3.6 3 6.6 6.6 6.6 3.6 0 6.6-3 6.6-6.6-.1-3.7-3-6.6-6.6-6.6zM501.3 302.5c-3.6 0-6.6 3-6.6 6.6 0 3.6 3 6.6 6.6 6.6 3.6 0 6.6-3 6.6-6.6-.1-3.6-3-6.6-6.6-6.6zM465.8 284.8c-3.6 0-6.6 3-6.6 6.6 0 3.6 3 6.6 6.6 6.6 3.6 0 6.6-3 6.6-6.6 0-3.6-3-6.6-6.6-6.6zM448.1 284.8c-3.6 0-6.6 3-6.6 6.6 0 3.6 3 6.6 6.6 6.6 3.6 0 6.6-3 6.6-6.6-.1-3.6-3-6.6-6.6-6.6zM483.5 284.8c-3.6 0-6.6 3-6.6 6.6 0 3.6 3 6.6 6.6 6.6 3.6 0 6.6-3 6.6-6.6 0-3.6-3-6.6-6.6-6.6zM483.5 391.2c-3.6 0-6.6 3-6.6 6.6 0 3.6 3 6.6 6.6 6.6 3.6 0 6.6-3 6.6-6.6 0-3.7-3-6.6-6.6-6.6zM465.8 338c-3.6 0-6.6 3-6.6 6.6 0 3.6 3 6.6 6.6 6.6 3.6 0 6.6-3 6.6-6.6 0-3.6-3-6.6-6.6-6.6zM465.8 355.7c-3.6 0-6.6 3-6.6 6.6 0 3.6 3 6.6 6.6 6.6 3.6 0 6.6-3 6.6-6.6 0-3.6-3-6.6-6.6-6.6zM501.3 408.9c-3.6 0-6.6 3-6.6 6.6 0 3.6 3 6.6 6.6 6.6 3.6 0 6.6-3 6.6-6.6-.1-3.6-3-6.6-6.6-6.6zM519 408.9c-3.6 0-6.6 3-6.6 6.6 0 3.6 3 6.6 6.6 6.6 3.6 0 6.6-3 6.6-6.6 0-3.6-3-6.6-6.6-6.6zM572.2 408.9c-3.6 0-6.6 3-6.6 6.6 0 3.6 3 6.6 6.6 6.6 3.6 0 6.6-3 6.6-6.6-.1-3.6-3-6.6-6.6-6.6zM589.9 408.9c-3.6 0-6.6 3-6.6 6.6 0 3.6 3 6.6 6.6 6.6 3.6 0 6.6-3 6.6-6.6 0-3.6-3-6.6-6.6-6.6zM465.8 373.5c-3.6 0-6.6 3-6.6 6.6 0 3.6 3 6.6 6.6 6.6 3.6 0 6.6-3 6.6-6.6 0-3.7-3-6.6-6.6-6.6zM448.1 355.7c-3.6 0-6.6 3-6.6 6.6 0 3.6 3 6.6 6.6 6.6 3.6 0 6.6-3 6.6-6.6-.1-3.6-3-6.6-6.6-6.6zM483.5 373.5c-3.6 0-6.6 3-6.6 6.6 0 3.6 3 6.6 6.6 6.6 3.6 0 6.6-3 6.6-6.6 0-3.7-3-6.6-6.6-6.6zM536.7 355.7c-3.6 0-6.6 3-6.6 6.6 0 3.6 3 6.6 6.6 6.6 3.6 0 6.6-3 6.6-6.6 0-3.6-3-6.6-6.6-6.6zM519 373.5c-3.6 0-6.6 3-6.6 6.6 0 3.6 3 6.6 6.6 6.6 3.6 0 6.6-3 6.6-6.6 0-3.7-3-6.6-6.6-6.6zM519 355.7c-3.6 0-6.6 3-6.6 6.6 0 3.6 3 6.6 6.6 6.6 3.6 0 6.6-3 6.6-6.6 0-3.6-3-6.6-6.6-6.6zM536.7 373.5c-3.6 0-6.6 3-6.6 6.6 0 3.6 3 6.6 6.6 6.6 3.6 0 6.6-3 6.6-6.6 0-3.7-3-6.6-6.6-6.6zM572.2 373.5c-3.6 0-6.6 3-6.6 6.6 0 3.6 3 6.6 6.6 6.6 3.6 0 6.6-3 6.6-6.6-.1-3.7-3-6.6-6.6-6.6zM554.4 391.2c-3.6 0-6.6 3-6.6 6.6 0 3.6 3 6.6 6.6 6.6 3.6 0 6.6-3 6.6-6.6 0-3.7-2.9-6.6-6.6-6.6zM554.4 373.5c-3.6 0-6.6 3-6.6 6.6 0 3.6 3 6.6 6.6 6.6 3.6 0 6.6-3 6.6-6.6 0-3.7-2.9-6.6-6.6-6.6zM572.2 391.2c-3.6 0-6.6 3-6.6 6.6 0 3.6 3 6.6 6.6 6.6 3.6 0 6.6-3 6.6-6.6-.1-3.7-3-6.6-6.6-6.6zM678.5 408.9c-3.6 0-6.6 3-6.6 6.6 0 3.6 3 6.6 6.6 6.6 3.6 0 6.6-3 6.6-6.6 0-3.6-2.9-6.6-6.6-6.6zM660.8 408.9c-3.6 0-6.6 3-6.6 6.6 0 3.6 3 6.6 6.6 6.6 3.6 0 6.6-3 6.6-6.6 0-3.6-3-6.6-6.6-6.6zM660.8 391.2c-3.6 0-6.6 3-6.6 6.6 0 3.6 3 6.6 6.6 6.6 3.6 0 6.6-3 6.6-6.6 0-3.7-3-6.6-6.6-6.6zM625.4 391.2c-3.6 0-6.6 3-6.6 6.6 0 3.6 3 6.6 6.6 6.6 3.6 0 6.6-3 6.6-6.6-.1-3.7-3-6.6-6.6-6.6zM625.4 373.5c-3.6 0-6.6 3-6.6 6.6 0 3.6 3 6.6 6.6 6.6 3.6 0 6.6-3 6.6-6.6-.1-3.7-3-6.6-6.6-6.6zM643.1 391.2c-3.6 0-6.6 3-6.6 6.6 0 3.6 3 6.6 6.6 6.6 3.6 0 6.6-3 6.6-6.6 0-3.7-3-6.6-6.6-6.6zM572.2 302.5c-3.6 0-6.6 3-6.6 6.6 0 3.6 3 6.6 6.6 6.6 3.6 0 6.6-3 6.6-6.6-.1-3.6-3-6.6-6.6-6.6zM554.4 320.3c-3.6 0-6.6 3-6.6 6.6 0 3.6 3 6.6 6.6 6.6 3.6 0 6.6-3 6.6-6.6 0-3.7-2.9-6.6-6.6-6.6zM554.4 302.5c-3.6 0-6.6 3-6.6 6.6 0 3.6 3 6.6 6.6 6.6 3.6 0 6.6-3 6.6-6.6 0-3.6-2.9-6.6-6.6-6.6zM572.2 320.3c-3.6 0-6.6 3-6.6 6.6 0 3.6 3 6.6 6.6 6.6 3.6 0 6.6-3 6.6-6.6-.1-3.7-3-6.6-6.6-6.6zM572.2 338c-3.6 0-6.6 3-6.6 6.6 0 3.6 3 6.6 6.6 6.6 3.6 0 6.6-3 6.6-6.6-.1-3.6-3-6.6-6.6-6.6zM589.9 338c-3.6 0-6.6 3-6.6 6.6 0 3.6 3 6.6 6.6 6.6 3.6 0 6.6-3 6.6-6.6 0-3.6-3-6.6-6.6-6.6zM448.1 267.1c-3.6 0-6.6 3-6.6 6.6 0 3.6 3 6.6 6.6 6.6 3.6 0 6.6-3 6.6-6.6-.1-3.7-3-6.6-6.6-6.6zM430.3 267.1c-3.6 0-6.6 3-6.6 6.6 0 3.6 3 6.6 6.6 6.6 3.6 0 6.6-3 6.6-6.6 0-3.7-3-6.6-6.6-6.6zM465.8 267.1c-3.6 0-6.6 3-6.6 6.6 0 3.6 3 6.6 6.6 6.6 3.6 0 6.6-3 6.6-6.6 0-3.7-3-6.6-6.6-6.6zM483.5 267.1c-3.6 0-6.6 3-6.6 6.6 0 3.6 3 6.6 6.6 6.6 3.6 0 6.6-3 6.6-6.6 0-3.7-3-6.6-6.6-6.6zM324 267.1c-3.6 0-6.6 3-6.6 6.6 0 3.6 3 6.6 6.6 6.6 3.6 0 6.6-3 6.6-6.6-.1-3.7-3-6.6-6.6-6.6zM412.6 213.9c-3.6 0-6.6 3-6.6 6.6 0 3.6 3 6.6 6.6 6.6 3.6 0 6.6-3 6.6-6.6 0-3.6-3-6.6-6.6-6.6zM430.3 213.9c-3.6 0-6.6 3-6.6 6.6 0 3.6 3 6.6 6.6 6.6 3.6 0 6.6-3 6.6-6.6 0-3.6-3-6.6-6.6-6.6zM430.3 231.6c-3.6 0-6.6 3-6.6 6.6 0 3.6 3 6.6 6.6 6.6 3.6 0 6.6-3 6.6-6.6 0-3.6-3-6.6-6.6-6.6zM430.3 249.4c-3.6 0-6.6 3-6.6 6.6 0 3.6 3 6.6 6.6 6.6 3.6 0 6.6-3 6.6-6.6 0-3.7-3-6.6-6.6-6.6zM430.3 196.2c-3.6 0-6.6 3-6.6 6.6 0 3.6 3 6.6 6.6 6.6 3.6 0 6.6-3 6.6-6.6 0-3.7-3-6.6-6.6-6.6zM430.3 178.4c-3.6 0-6.6 3-6.6 6.6 0 3.6 3 6.6 6.6 6.6 3.6 0 6.6-3 6.6-6.6 0-3.6-3-6.6-6.6-6.6zM448.1 196.2c-3.6 0-6.6 3-6.6 6.6 0 3.6 3 6.6 6.6 6.6 3.6 0 6.6-3 6.6-6.6-.1-3.7-3-6.6-6.6-6.6zM465.8 196.2c-3.6 0-6.6 3-6.6 6.6 0 3.6 3 6.6 6.6 6.6 3.6 0 6.6-3 6.6-6.6 0-3.7-3-6.6-6.6-6.6zM448.1 178.4c-3.6 0-6.6 3-6.6 6.6 0 3.6 3 6.6 6.6 6.6 3.6 0 6.6-3 6.6-6.6-.1-3.6-3-6.6-6.6-6.6zM465.8 178.4c-3.6 0-6.6 3-6.6 6.6 0 3.6 3 6.6 6.6 6.6 3.6 0 6.6-3 6.6-6.6 0-3.6-3-6.6-6.6-6.6zM430.3 72.1c-3.6 0-6.6 3-6.6 6.6 0 3.6 3 6.6 6.6 6.6 3.6 0 6.6-3 6.6-6.6 0-3.7-3-6.6-6.6-6.6zM430.3 89.8c-3.6 0-6.6 3-6.6 6.6 0 3.6 3 6.6 6.6 6.6 3.6 0 6.6-3 6.6-6.6 0-3.7-3-6.6-6.6-6.6zM448.1 89.8c-3.6 0-6.6 3-6.6 6.6 0 3.6 3 6.6 6.6 6.6 3.6 0 6.6-3 6.6-6.6-.1-3.7-3-6.6-6.6-6.6zM465.8 89.8c-3.6 0-6.6 3-6.6 6.6 0 3.6 3 6.6 6.6 6.6 3.6 0 6.6-3 6.6-6.6 0-3.7-3-6.6-6.6-6.6zM465.8 72.1c-3.6 0-6.6 3-6.6 6.6 0 3.6 3 6.6 6.6 6.6 3.6 0 6.6-3 6.6-6.6 0-3.7-3-6.6-6.6-6.6zM448.1 72.1c-3.6 0-6.6 3-6.6 6.6 0 3.6 3 6.6 6.6 6.6 3.6 0 6.6-3 6.6-6.6-.1-3.7-3-6.6-6.6-6.6zM430.3 54.3c-3.6 0-6.6 3-6.6 6.6 0 3.6 3 6.6 6.6 6.6 3.6 0 6.6-3 6.6-6.6 0-3.6-3-6.6-6.6-6.6zM465.8 54.3c-3.6 0-6.6 3-6.6 6.6 0 3.6 3 6.6 6.6 6.6 3.6 0 6.6-3 6.6-6.6 0-3.6-3-6.6-6.6-6.6zM448.1 54.3c-3.6 0-6.6 3-6.6 6.6 0 3.6 3 6.6 6.6 6.6 3.6 0 6.6-3 6.6-6.6-.1-3.6-3-6.6-6.6-6.6zM448.1 125.2c-3.6 0-6.6 3-6.6 6.6 0 3.6 3 6.6 6.6 6.6 3.6 0 6.6-3 6.6-6.6-.1-3.6-3-6.6-6.6-6.6zM465.8 125.2c-3.6 0-6.6 3-6.6 6.6 0 3.6 3 6.6 6.6 6.6 3.6 0 6.6-3 6.6-6.6 0-3.6-3-6.6-6.6-6.6zM430.3 107.5c-3.6 0-6.6 3-6.6 6.6 0 3.6 3 6.6 6.6 6.6 3.6 0 6.6-3 6.6-6.6 0-3.6-3-6.6-6.6-6.6zM448.1 107.5c-3.6 0-6.6 3-6.6 6.6 0 3.6 3 6.6 6.6 6.6 3.6 0 6.6-3 6.6-6.6-.1-3.6-3-6.6-6.6-6.6zM465.8 107.5c-3.6 0-6.6 3-6.6 6.6 0 3.6 3 6.6 6.6 6.6 3.6 0 6.6-3 6.6-6.6 0-3.6-3-6.6-6.6-6.6zM430.3 125.2c-3.6 0-6.6 3-6.6 6.6 0 3.6 3 6.6 6.6 6.6 3.6 0 6.6-3 6.6-6.6 0-3.6-3-6.6-6.6-6.6zM430.3 143c-3.6 0-6.6 3-6.6 6.6 0 3.6 3 6.6 6.6 6.6 3.6 0 6.6-3 6.6-6.6 0-3.7-3-6.6-6.6-6.6zM448.1 143c-3.6 0-6.6 3-6.6 6.6 0 3.6 3 6.6 6.6 6.6 3.6 0 6.6-3 6.6-6.6-.1-3.7-3-6.6-6.6-6.6zM465.8 143c-3.6 0-6.6 3-6.6 6.6 0 3.6 3 6.6 6.6 6.6 3.6 0 6.6-3 6.6-6.6 0-3.7-3-6.6-6.6-6.6zM430.3 160.7c-3.6 0-6.6 3-6.6 6.6 0 3.6 3 6.6 6.6 6.6 3.6 0 6.6-3 6.6-6.6 0-3.6-3-6.6-6.6-6.6zM448.1 160.7c-3.6 0-6.6 3-6.6 6.6 0 3.6 3 6.6 6.6 6.6 3.6 0 6.6-3 6.6-6.6-.1-3.6-3-6.6-6.6-6.6zM465.8 160.7c-3.6 0-6.6 3-6.6 6.6 0 3.6 3 6.6 6.6 6.6 3.6 0 6.6-3 6.6-6.6 0-3.6-3-6.6-6.6-6.6zM448.1 249.4c-3.6 0-6.6 3-6.6 6.6 0 3.6 3 6.6 6.6 6.6 3.6 0 6.6-3 6.6-6.6-.1-3.7-3-6.6-6.6-6.6zM465.8 249.4c-3.6 0-6.6 3-6.6 6.6 0 3.6 3 6.6 6.6 6.6 3.6 0 6.6-3 6.6-6.6 0-3.7-3-6.6-6.6-6.6zM483.5 249.4c-3.6 0-6.6 3-6.6 6.6 0 3.6 3 6.6 6.6 6.6 3.6 0 6.6-3 6.6-6.6 0-3.7-3-6.6-6.6-6.6zM448.1 231.6c-3.6 0-6.6 3-6.6 6.6 0 3.6 3 6.6 6.6 6.6 3.6 0 6.6-3 6.6-6.6-.1-3.6-3-6.6-6.6-6.6zM465.8 231.6c-3.6 0-6.6 3-6.6 6.6 0 3.6 3 6.6 6.6 6.6 3.6 0 6.6-3 6.6-6.6 0-3.6-3-6.6-6.6-6.6zM448.1 213.9c-3.6 0-6.6 3-6.6 6.6 0 3.6 3 6.6 6.6 6.6 3.6 0 6.6-3 6.6-6.6-.1-3.6-3-6.6-6.6-6.6zM465.8 213.9c-3.6 0-6.6 3-6.6 6.6 0 3.6 3 6.6 6.6 6.6 3.6 0 6.6-3 6.6-6.6 0-3.6-3-6.6-6.6-6.6zM483.5 213.9c-3.6 0-6.6 3-6.6 6.6 0 3.6 3 6.6 6.6 6.6 3.6 0 6.6-3 6.6-6.6 0-3.6-3-6.6-6.6-6.6zM501.3 213.9c-3.6 0-6.6 3-6.6 6.6 0 3.6 3 6.6 6.6 6.6 3.6 0 6.6-3 6.6-6.6-.1-3.6-3-6.6-6.6-6.6zM519 213.9c-3.6 0-6.6 3-6.6 6.6 0 3.6 3 6.6 6.6 6.6 3.6 0 6.6-3 6.6-6.6 0-3.6-3-6.6-6.6-6.6zM483.5 231.6c-3.6 0-6.6 3-6.6 6.6 0 3.6 3 6.6 6.6 6.6 3.6 0 6.6-3 6.6-6.6 0-3.6-3-6.6-6.6-6.6zM501.3 231.6c-3.6 0-6.6 3-6.6 6.6 0 3.6 3 6.6 6.6 6.6 3.6 0 6.6-3 6.6-6.6-.1-3.6-3-6.6-6.6-6.6zM519 231.6c-3.6 0-6.6 3-6.6 6.6 0 3.6 3 6.6 6.6 6.6 3.6 0 6.6-3 6.6-6.6 0-3.6-3-6.6-6.6-6.6zM501.3 249.4c-3.6 0-6.6 3-6.6 6.6 0 3.6 3 6.6 6.6 6.6 3.6 0 6.6-3 6.6-6.6-.1-3.7-3-6.6-6.6-6.6zM519 249.4c-3.6 0-6.6 3-6.6 6.6 0 3.6 3 6.6 6.6 6.6 3.6 0 6.6-3 6.6-6.6 0-3.7-3-6.6-6.6-6.6zM483.5 196.2c-3.6 0-6.6 3-6.6 6.6 0 3.6 3 6.6 6.6 6.6 3.6 0 6.6-3 6.6-6.6 0-3.7-3-6.6-6.6-6.6zM501.3 196.2c-3.6 0-6.6 3-6.6 6.6 0 3.6 3 6.6 6.6 6.6 3.6 0 6.6-3 6.6-6.6-.1-3.7-3-6.6-6.6-6.6zM483.5 178.4c-3.6 0-6.6 3-6.6 6.6 0 3.6 3 6.6 6.6 6.6 3.6 0 6.6-3 6.6-6.6 0-3.6-3-6.6-6.6-6.6zM501.3 178.4c-3.6 0-6.6 3-6.6 6.6 0 3.6 3 6.6 6.6 6.6 3.6 0 6.6-3 6.6-6.6-.1-3.6-3-6.6-6.6-6.6zM519 196.2c-3.6 0-6.6 3-6.6 6.6 0 3.6 3 6.6 6.6 6.6 3.6 0 6.6-3 6.6-6.6 0-3.7-3-6.6-6.6-6.6zM519 178.4c-3.6 0-6.6 3-6.6 6.6 0 3.6 3 6.6 6.6 6.6 3.6 0 6.6-3 6.6-6.6 0-3.6-3-6.6-6.6-6.6zM536.7 196.2c-3.6 0-6.6 3-6.6 6.6 0 3.6 3 6.6 6.6 6.6 3.6 0 6.6-3 6.6-6.6 0-3.7-3-6.6-6.6-6.6zM554.4 196.2c-3.6 0-6.6 3-6.6 6.6 0 3.6 3 6.6 6.6 6.6 3.6 0 6.6-3 6.6-6.6 0-3.7-2.9-6.6-6.6-6.6zM536.7 178.4c-3.6 0-6.6 3-6.6 6.6 0 3.6 3 6.6 6.6 6.6 3.6 0 6.6-3 6.6-6.6 0-3.6-3-6.6-6.6-6.6zM554.4 178.4c-3.6 0-6.6 3-6.6 6.6 0 3.6 3 6.6 6.6 6.6 3.6 0 6.6-3 6.6-6.6 0-3.6-2.9-6.6-6.6-6.6zM483.5 125.2c-3.6 0-6.6 3-6.6 6.6 0 3.6 3 6.6 6.6 6.6 3.6 0 6.6-3 6.6-6.6 0-3.6-3-6.6-6.6-6.6zM483.5 107.5c-3.6 0-6.6 3-6.6 6.6 0 3.6 3 6.6 6.6 6.6 3.6 0 6.6-3 6.6-6.6 0-3.6-3-6.6-6.6-6.6zM483.5 72.1c-3.6 0-6.6 3-6.6 6.6 0 3.6 3 6.6 6.6 6.6 3.6 0 6.6-3 6.6-6.6 0-3.7-3-6.6-6.6-6.6zM483.5 89.8c-3.6 0-6.6 3-6.6 6.6 0 3.6 3 6.6 6.6 6.6 3.6 0 6.6-3 6.6-6.6 0-3.7-3-6.6-6.6-6.6zM501.3 89.8c-3.6 0-6.6 3-6.6 6.6 0 3.6 3 6.6 6.6 6.6 3.6 0 6.6-3 6.6-6.6-.1-3.7-3-6.6-6.6-6.6zM501.3 72.1c-3.6 0-6.6 3-6.6 6.6 0 3.6 3 6.6 6.6 6.6 3.6 0 6.6-3 6.6-6.6-.1-3.7-3-6.6-6.6-6.6zM519 72.1c-3.6 0-6.6 3-6.6 6.6 0 3.6 3 6.6 6.6 6.6 3.6 0 6.6-3 6.6-6.6 0-3.7-3-6.6-6.6-6.6zM519 89.8c-3.6 0-6.6 3-6.6 6.6 0 3.6 3 6.6 6.6 6.6 3.6 0 6.6-3 6.6-6.6 0-3.7-3-6.6-6.6-6.6zM536.7 89.8c-3.6 0-6.6 3-6.6 6.6 0 3.6 3 6.6 6.6 6.6 3.6 0 6.6-3 6.6-6.6 0-3.7-3-6.6-6.6-6.6zM554.4 89.8c-3.6 0-6.6 3-6.6 6.6 0 3.6 3 6.6 6.6 6.6 3.6 0 6.6-3 6.6-6.6 0-3.7-2.9-6.6-6.6-6.6zM554.4 72.1c-3.6 0-6.6 3-6.6 6.6 0 3.6 3 6.6 6.6 6.6 3.6 0 6.6-3 6.6-6.6 0-3.7-2.9-6.6-6.6-6.6zM536.7 72.1c-3.6 0-6.6 3-6.6 6.6 0 3.6 3 6.6 6.6 6.6 3.6 0 6.6-3 6.6-6.6 0-3.7-3-6.6-6.6-6.6zM483.5 54.3c-3.6 0-6.6 3-6.6 6.6 0 3.6 3 6.6 6.6 6.6 3.6 0 6.6-3 6.6-6.6 0-3.6-3-6.6-6.6-6.6zM501.3 54.3c-3.6 0-6.6 3-6.6 6.6 0 3.6 3 6.6 6.6 6.6 3.6 0 6.6-3 6.6-6.6-.1-3.6-3-6.6-6.6-6.6zM519 54.3c-3.6 0-6.6 3-6.6 6.6 0 3.6 3 6.6 6.6 6.6 3.6 0 6.6-3 6.6-6.6 0-3.6-3-6.6-6.6-6.6zM554.4 54.3c-3.6 0-6.6 3-6.6 6.6 0 3.6 3 6.6 6.6 6.6 3.6 0 6.6-3 6.6-6.6 0-3.6-2.9-6.6-6.6-6.6zM536.7 54.3c-3.6 0-6.6 3-6.6 6.6 0 3.6 3 6.6 6.6 6.6 3.6 0 6.6-3 6.6-6.6 0-3.6-3-6.6-6.6-6.6zM412.6 36.6c-3.6 0-6.6 3-6.6 6.6 0 3.6 3 6.6 6.6 6.6 3.6 0 6.6-3 6.6-6.6 0-3.6-3-6.6-6.6-6.6zM412.6 18.9c-3.6 0-6.6 3-6.6 6.6 0 3.6 3 6.6 6.6 6.6 3.6 0 6.6-3 6.6-6.6 0-3.7-3-6.6-6.6-6.6zM359.4 36.6c-3.6 0-6.6 3-6.6 6.6 0 3.6 3 6.6 6.6 6.6 3.6 0 6.6-3 6.6-6.6 0-3.6-3-6.6-6.6-6.6zM430.3 18.9c-3.6 0-6.6 3-6.6 6.6 0 3.6 3 6.6 6.6 6.6 3.6 0 6.6-3 6.6-6.6 0-3.7-3-6.6-6.6-6.6zM430.3 36.6c-3.6 0-6.6 3-6.6 6.6 0 3.6 3 6.6 6.6 6.6 3.6 0 6.6-3 6.6-6.6 0-3.6-3-6.6-6.6-6.6zM448.1 36.6c-3.6 0-6.6 3-6.6 6.6 0 3.6 3 6.6 6.6 6.6 3.6 0 6.6-3 6.6-6.6-.1-3.6-3-6.6-6.6-6.6zM465.8 36.6c-3.6 0-6.6 3-6.6 6.6 0 3.6 3 6.6 6.6 6.6 3.6 0 6.6-3 6.6-6.6 0-3.6-3-6.6-6.6-6.6zM465.8 18.9c-3.6 0-6.6 3-6.6 6.6 0 3.6 3 6.6 6.6 6.6 3.6 0 6.6-3 6.6-6.6 0-3.7-3-6.6-6.6-6.6zM448.1 18.9c-3.6 0-6.6 3-6.6 6.6 0 3.6 3 6.6 6.6 6.6 3.6 0 6.6-3 6.6-6.6-.1-3.7-3-6.6-6.6-6.6zM377.1 36.6c-3.6 0-6.6 3-6.6 6.6 0 3.6 3 6.6 6.6 6.6 3.6 0 6.6-3 6.6-6.6 0-3.6-2.9-6.6-6.6-6.6zM394.9 36.6c-3.6 0-6.6 3-6.6 6.6 0 3.6 3 6.6 6.6 6.6 3.6 0 6.6-3 6.6-6.6-.1-3.6-3-6.6-6.6-6.6zM483.5 18.9c-3.6 0-6.6 3-6.6 6.6 0 3.6 3 6.6 6.6 6.6 3.6 0 6.6-3 6.6-6.6 0-3.7-3-6.6-6.6-6.6zM483.5 36.6c-3.6 0-6.6 3-6.6 6.6 0 3.6 3 6.6 6.6 6.6 3.6 0 6.6-3 6.6-6.6 0-3.6-3-6.6-6.6-6.6zM501.3 36.6c-3.6 0-6.6 3-6.6 6.6 0 3.6 3 6.6 6.6 6.6 3.6 0 6.6-3 6.6-6.6-.1-3.6-3-6.6-6.6-6.6zM501.3 18.9c-3.6 0-6.6 3-6.6 6.6 0 3.6 3 6.6 6.6 6.6 3.6 0 6.6-3 6.6-6.6-.1-3.7-3-6.6-6.6-6.6zM519 18.9c-3.6 0-6.6 3-6.6 6.6 0 3.6 3 6.6 6.6 6.6 3.6 0 6.6-3 6.6-6.6 0-3.7-3-6.6-6.6-6.6zM519 36.6c-3.6 0-6.6 3-6.6 6.6 0 3.6 3 6.6 6.6 6.6 3.6 0 6.6-3 6.6-6.6 0-3.6-3-6.6-6.6-6.6zM536.7 36.6c-3.6 0-6.6 3-6.6 6.6 0 3.6 3 6.6 6.6 6.6 3.6 0 6.6-3 6.6-6.6 0-3.6-3-6.6-6.6-6.6zM554.4 36.6c-3.6 0-6.6 3-6.6 6.6 0 3.6 3 6.6 6.6 6.6 3.6 0 6.6-3 6.6-6.6 0-3.6-2.9-6.6-6.6-6.6zM483.5 143c-3.6 0-6.6 3-6.6 6.6 0 3.6 3 6.6 6.6 6.6 3.6 0 6.6-3 6.6-6.6 0-3.7-3-6.6-6.6-6.6zM536.7 125.2c-3.6 0-6.6 3-6.6 6.6 0 3.6 3 6.6 6.6 6.6 3.6 0 6.6-3 6.6-6.6 0-3.6-3-6.6-6.6-6.6zM554.4 125.2c-3.6 0-6.6 3-6.6 6.6 0 3.6 3 6.6 6.6 6.6 3.6 0 6.6-3 6.6-6.6 0-3.6-2.9-6.6-6.6-6.6zM501.3 107.5c-3.6 0-6.6 3-6.6 6.6 0 3.6 3 6.6 6.6 6.6 3.6 0 6.6-3 6.6-6.6-.1-3.6-3-6.6-6.6-6.6zM519 107.5c-3.6 0-6.6 3-6.6 6.6 0 3.6 3 6.6 6.6 6.6 3.6 0 6.6-3 6.6-6.6 0-3.6-3-6.6-6.6-6.6zM536.7 107.5c-3.6 0-6.6 3-6.6 6.6 0 3.6 3 6.6 6.6 6.6 3.6 0 6.6-3 6.6-6.6 0-3.6-3-6.6-6.6-6.6zM554.4 107.5c-3.6 0-6.6 3-6.6 6.6 0 3.6 3 6.6 6.6 6.6 3.6 0 6.6-3 6.6-6.6 0-3.6-2.9-6.6-6.6-6.6zM519 125.2c-3.6 0-6.6 3-6.6 6.6 0 3.6 3 6.6 6.6 6.6 3.6 0 6.6-3 6.6-6.6 0-3.6-3-6.6-6.6-6.6zM501.3 125.2c-3.6 0-6.6 3-6.6 6.6 0 3.6 3 6.6 6.6 6.6 3.6 0 6.6-3 6.6-6.6-.1-3.6-3-6.6-6.6-6.6zM501.3 143c-3.6 0-6.6 3-6.6 6.6 0 3.6 3 6.6 6.6 6.6 3.6 0 6.6-3 6.6-6.6-.1-3.7-3-6.6-6.6-6.6zM519 143c-3.6 0-6.6 3-6.6 6.6 0 3.6 3 6.6 6.6 6.6 3.6 0 6.6-3 6.6-6.6 0-3.7-3-6.6-6.6-6.6zM536.7 143c-3.6 0-6.6 3-6.6 6.6 0 3.6 3 6.6 6.6 6.6 3.6 0 6.6-3 6.6-6.6 0-3.7-3-6.6-6.6-6.6zM554.4 143c-3.6 0-6.6 3-6.6 6.6 0 3.6 3 6.6 6.6 6.6 3.6 0 6.6-3 6.6-6.6 0-3.7-2.9-6.6-6.6-6.6zM483.5 160.7c-3.6 0-6.6 3-6.6 6.6 0 3.6 3 6.6 6.6 6.6 3.6 0 6.6-3 6.6-6.6 0-3.6-3-6.6-6.6-6.6zM501.3 160.7c-3.6 0-6.6 3-6.6 6.6 0 3.6 3 6.6 6.6 6.6 3.6 0 6.6-3 6.6-6.6-.1-3.6-3-6.6-6.6-6.6zM519 160.7c-3.6 0-6.6 3-6.6 6.6 0 3.6 3 6.6 6.6 6.6 3.6 0 6.6-3 6.6-6.6 0-3.6-3-6.6-6.6-6.6zM536.7 160.7c-3.6 0-6.6 3-6.6 6.6 0 3.6 3 6.6 6.6 6.6 3.6 0 6.6-3 6.6-6.6 0-3.6-3-6.6-6.6-6.6zM554.4 160.7c-3.6 0-6.6 3-6.6 6.6 0 3.6 3 6.6 6.6 6.6 3.6 0 6.6-3 6.6-6.6 0-3.6-2.9-6.6-6.6-6.6zM572.2 89.8c-3.6 0-6.6 3-6.6 6.6 0 3.6 3 6.6 6.6 6.6 3.6 0 6.6-3 6.6-6.6-.1-3.7-3-6.6-6.6-6.6zM572.2 72.1c-3.6 0-6.6 3-6.6 6.6 0 3.6 3 6.6 6.6 6.6 3.6 0 6.6-3 6.6-6.6-.1-3.7-3-6.6-6.6-6.6zM572.2 54.3c-3.6 0-6.6 3-6.6 6.6 0 3.6 3 6.6 6.6 6.6 3.6 0 6.6-3 6.6-6.6-.1-3.6-3-6.6-6.6-6.6zM572.2 125.2c-3.6 0-6.6 3-6.6 6.6 0 3.6 3 6.6 6.6 6.6 3.6 0 6.6-3 6.6-6.6-.1-3.6-3-6.6-6.6-6.6zM572.2 107.5c-3.6 0-6.6 3-6.6 6.6 0 3.6 3 6.6 6.6 6.6 3.6 0 6.6-3 6.6-6.6-.1-3.6-3-6.6-6.6-6.6zM572.2 143c-3.6 0-6.6 3-6.6 6.6 0 3.6 3 6.6 6.6 6.6 3.6 0 6.6-3 6.6-6.6-.1-3.7-3-6.6-6.6-6.6zM572.2 160.7c-3.6 0-6.6 3-6.6 6.6 0 3.6 3 6.6 6.6 6.6 3.6 0 6.6-3 6.6-6.6-.1-3.6-3-6.6-6.6-6.6zM589.9 125.2c-3.6 0-6.6 3-6.6 6.6 0 3.6 3 6.6 6.6 6.6 3.6 0 6.6-3 6.6-6.6 0-3.6-3-6.6-6.6-6.6zM589.9 107.5c-3.6 0-6.6 3-6.6 6.6 0 3.6 3 6.6 6.6 6.6 3.6 0 6.6-3 6.6-6.6 0-3.6-3-6.6-6.6-6.6zM589.9 72.1c-3.6 0-6.6 3-6.6 6.6 0 3.6 3 6.6 6.6 6.6 3.6 0 6.6-3 6.6-6.6 0-3.7-3-6.6-6.6-6.6zM589.9 89.8c-3.6 0-6.6 3-6.6 6.6 0 3.6 3 6.6 6.6 6.6 3.6 0 6.6-3 6.6-6.6 0-3.7-3-6.6-6.6-6.6zM607.6 89.8c-3.6 0-6.6 3-6.6 6.6 0 3.6 3 6.6 6.6 6.6 3.6 0 6.6-3 6.6-6.6 0-3.7-3-6.6-6.6-6.6zM607.6 72.1c-3.6 0-6.6 3-6.6 6.6 0 3.6 3 6.6 6.6 6.6 3.6 0 6.6-3 6.6-6.6 0-3.7-3-6.6-6.6-6.6zM625.4 72.1c-3.6 0-6.6 3-6.6 6.6 0 3.6 3 6.6 6.6 6.6 3.6 0 6.6-3 6.6-6.6-.1-3.7-3-6.6-6.6-6.6zM625.4 89.8c-3.6 0-6.6 3-6.6 6.6 0 3.6 3 6.6 6.6 6.6 3.6 0 6.6-3 6.6-6.6-.1-3.7-3-6.6-6.6-6.6zM643.1 89.8c-3.6 0-6.6 3-6.6 6.6 0 3.6 3 6.6 6.6 6.6 3.6 0 6.6-3 6.6-6.6 0-3.7-3-6.6-6.6-6.6zM660.8 89.8c-3.6 0-6.6 3-6.6 6.6 0 3.6 3 6.6 6.6 6.6 3.6 0 6.6-3 6.6-6.6 0-3.7-3-6.6-6.6-6.6zM660.8 72.1c-3.6 0-6.6 3-6.6 6.6 0 3.6 3 6.6 6.6 6.6 3.6 0 6.6-3 6.6-6.6 0-3.7-3-6.6-6.6-6.6zM643.1 72.1c-3.6 0-6.6 3-6.6 6.6 0 3.6 3 6.6 6.6 6.6 3.6 0 6.6-3 6.6-6.6 0-3.7-3-6.6-6.6-6.6zM589.9 54.3c-3.6 0-6.6 3-6.6 6.6 0 3.6 3 6.6 6.6 6.6 3.6 0 6.6-3 6.6-6.6 0-3.6-3-6.6-6.6-6.6zM607.6 54.3c-3.6 0-6.6 3-6.6 6.6 0 3.6 3 6.6 6.6 6.6 3.6 0 6.6-3 6.6-6.6 0-3.6-3-6.6-6.6-6.6zM625.4 54.3c-3.6 0-6.6 3-6.6 6.6 0 3.6 3 6.6 6.6 6.6 3.6 0 6.6-3 6.6-6.6-.1-3.6-3-6.6-6.6-6.6zM660.8 54.3c-3.6 0-6.6 3-6.6 6.6 0 3.6 3 6.6 6.6 6.6 3.6 0 6.6-3 6.6-6.6 0-3.6-3-6.6-6.6-6.6zM643.1 54.3c-3.6 0-6.6 3-6.6 6.6 0 3.6 3 6.6 6.6 6.6 3.6 0 6.6-3 6.6-6.6 0-3.6-3-6.6-6.6-6.6zM678.5 72.1c-3.6 0-6.6 3-6.6 6.6 0 3.6 3 6.6 6.6 6.6 3.6 0 6.6-3 6.6-6.6 0-3.7-2.9-6.6-6.6-6.6zM678.5 54.3c-3.6 0-6.6 3-6.6 6.6 0 3.6 3 6.6 6.6 6.6 3.6 0 6.6-3 6.6-6.6 0-3.6-2.9-6.6-6.6-6.6zM678.5 36.6c-3.6 0-6.6 3-6.6 6.6 0 3.6 3 6.6 6.6 6.6 3.6 0 6.6-3 6.6-6.6 0-3.6-2.9-6.6-6.6-6.6zM696.3 72.1c-3.6 0-6.6 3-6.6 6.6 0 3.6 3 6.6 6.6 6.6 3.6 0 6.6-3 6.6-6.6 0-3.7-3-6.6-6.6-6.6zM696.3 54.3c-3.6 0-6.6 3-6.6 6.6 0 3.6 3 6.6 6.6 6.6 3.6 0 6.6-3 6.6-6.6 0-3.6-3-6.6-6.6-6.6zM696.3 36.6c-3.6 0-6.6 3-6.6 6.6 0 3.6 3 6.6 6.6 6.6 3.6 0 6.6-3 6.6-6.6 0-3.6-3-6.6-6.6-6.6zM714 54.3c-3.6 0-6.6 3-6.6 6.6 0 3.6 3 6.6 6.6 6.6 3.6 0 6.6-3 6.6-6.6 0-3.6-3-6.6-6.6-6.6zM714 72.1c-3.6 0-6.6 3-6.6 6.6 0 3.6 3 6.6 6.6 6.6 3.6 0 6.6-3 6.6-6.6 0-3.7-3-6.6-6.6-6.6zM731.7 72.1c-3.6 0-6.6 3-6.6 6.6 0 3.6 3 6.6 6.6 6.6 3.6 0 6.6-3 6.6-6.6 0-3.7-2.9-6.6-6.6-6.6zM731.7 54.3c-3.6 0-6.6 3-6.6 6.6 0 3.6 3 6.6 6.6 6.6 3.6 0 6.6-3 6.6-6.6 0-3.6-2.9-6.6-6.6-6.6zM749.5 54.3c-3.6 0-6.6 3-6.6 6.6 0 3.6 3 6.6 6.6 6.6 3.6 0 6.6-3 6.6-6.6-.1-3.6-3-6.6-6.6-6.6zM749.5 72.1c-3.6 0-6.6 3-6.6 6.6 0 3.6 3 6.6 6.6 6.6 3.6 0 6.6-3 6.6-6.6-.1-3.7-3-6.6-6.6-6.6zM767.2 72.1c-3.6 0-6.6 3-6.6 6.6 0 3.6 3 6.6 6.6 6.6 3.6 0 6.6-3 6.6-6.6 0-3.7-3-6.6-6.6-6.6zM784.9 72.1c-3.6 0-6.6 3-6.6 6.6 0 3.6 3 6.6 6.6 6.6 3.6 0 6.6-3 6.6-6.6 0-3.7-3-6.6-6.6-6.6zM784.9 54.3c-3.6 0-6.6 3-6.6 6.6 0 3.6 3 6.6 6.6 6.6 3.6 0 6.6-3 6.6-6.6 0-3.6-3-6.6-6.6-6.6zM767.2 54.3c-3.6 0-6.6 3-6.6 6.6 0 3.6 3 6.6 6.6 6.6 3.6 0 6.6-3 6.6-6.6 0-3.6-3-6.6-6.6-6.6zM802.7 54.3c-3.6 0-6.6 3-6.6 6.6 0 3.6 3 6.6 6.6 6.6 3.6 0 6.6-3 6.6-6.6-.1-3.6-3-6.6-6.6-6.6zM802.7 72.1c-3.6 0-6.6 3-6.6 6.6 0 3.6 3 6.6 6.6 6.6 3.6 0 6.6-3 6.6-6.6-.1-3.7-3-6.6-6.6-6.6zM820.4 72.1c-3.6 0-6.6 3-6.6 6.6 0 3.6 3 6.6 6.6 6.6 3.6 0 6.6-3 6.6-6.6 0-3.7-3-6.6-6.6-6.6zM749.5 89.8c-3.6 0-6.6 3-6.6 6.6 0 3.6 3 6.6 6.6 6.6 3.6 0 6.6-3 6.6-6.6-.1-3.7-3-6.6-6.6-6.6zM767.2 89.8c-3.6 0-6.6 3-6.6 6.6 0 3.6 3 6.6 6.6 6.6 3.6 0 6.6-3 6.6-6.6 0-3.7-3-6.6-6.6-6.6zM749.5 107.5c-3.6 0-6.6 3-6.6 6.6 0 3.6 3 6.6 6.6 6.6 3.6 0 6.6-3 6.6-6.6-.1-3.6-3-6.6-6.6-6.6zM731.7 107.5c-3.6 0-6.6 3-6.6 6.6 0 3.6 3 6.6 6.6 6.6 3.6 0 6.6-3 6.6-6.6 0-3.6-2.9-6.6-6.6-6.6zM731.7 125.2c-3.6 0-6.6 3-6.6 6.6 0 3.6 3 6.6 6.6 6.6 3.6 0 6.6-3 6.6-6.6 0-3.6-2.9-6.6-6.6-6.6zM838.1 54.3c-3.6 0-6.6 3-6.6 6.6 0 3.6 3 6.6 6.6 6.6 3.6 0 6.6-3 6.6-6.6 0-3.6-3-6.6-6.6-6.6zM820.4 54.3c-3.6 0-6.6 3-6.6 6.6 0 3.6 3 6.6 6.6 6.6 3.6 0 6.6-3 6.6-6.6 0-3.6-3-6.6-6.6-6.6zM714 36.6c-3.6 0-6.6 3-6.6 6.6 0 3.6 3 6.6 6.6 6.6 3.6 0 6.6-3 6.6-6.6 0-3.6-3-6.6-6.6-6.6zM731.7 36.6c-3.6 0-6.6 3-6.6 6.6 0 3.6 3 6.6 6.6 6.6 3.6 0 6.6-3 6.6-6.6 0-3.6-2.9-6.6-6.6-6.6zM678.5 89.8c-3.6 0-6.6 3-6.6 6.6 0 3.6 3 6.6 6.6 6.6 3.6 0 6.6-3 6.6-6.6 0-3.7-2.9-6.6-6.6-6.6zM714 89.8c-3.6 0-6.6 3-6.6 6.6 0 3.6 3 6.6 6.6 6.6 3.6 0 6.6-3 6.6-6.6 0-3.7-3-6.6-6.6-6.6zM696.3 89.8c-3.6 0-6.6 3-6.6 6.6 0 3.6 3 6.6 6.6 6.6 3.6 0 6.6-3 6.6-6.6 0-3.7-3-6.6-6.6-6.6zM572.2 36.6c-3.6 0-6.6 3-6.6 6.6 0 3.6 3 6.6 6.6 6.6 3.6 0 6.6-3 6.6-6.6-.1-3.6-3-6.6-6.6-6.6zM589.9 36.6c-3.6 0-6.6 3-6.6 6.6 0 3.6 3 6.6 6.6 6.6 3.6 0 6.6-3 6.6-6.6 0-3.6-3-6.6-6.6-6.6zM572.2 178.4c-3.6 0-6.6 3-6.6 6.6 0 3.6 3 6.6 6.6 6.6 3.6 0 6.6-3 6.6-6.6-.1-3.6-3-6.6-6.6-6.6zM589.9 178.4c-3.6 0-6.6 3-6.6 6.6 0 3.6 3 6.6 6.6 6.6 3.6 0 6.6-3 6.6-6.6 0-3.6-3-6.6-6.6-6.6zM643.1 36.6c-3.6 0-6.6 3-6.6 6.6 0 3.6 3 6.6 6.6 6.6 3.6 0 6.6-3 6.6-6.6 0-3.6-3-6.6-6.6-6.6zM660.8 36.6c-3.6 0-6.6 3-6.6 6.6 0 3.6 3 6.6 6.6 6.6 3.6 0 6.6-3 6.6-6.6 0-3.6-3-6.6-6.6-6.6zM589.9 143c-3.6 0-6.6 3-6.6 6.6 0 3.6 3 6.6 6.6 6.6 3.6 0 6.6-3 6.6-6.6 0-3.7-3-6.6-6.6-6.6zM643.1 125.2c-3.6 0-6.6 3-6.6 6.6 0 3.6 3 6.6 6.6 6.6 3.6 0 6.6-3 6.6-6.6 0-3.6-3-6.6-6.6-6.6zM660.8 125.2c-3.6 0-6.6 3-6.6 6.6 0 3.6 3 6.6 6.6 6.6 3.6 0 6.6-3 6.6-6.6 0-3.6-3-6.6-6.6-6.6zM607.6 107.5c-3.6 0-6.6 3-6.6 6.6 0 3.6 3 6.6 6.6 6.6 3.6 0 6.6-3 6.6-6.6 0-3.6-3-6.6-6.6-6.6zM625.4 107.5c-3.6 0-6.6 3-6.6 6.6 0 3.6 3 6.6 6.6 6.6 3.6 0 6.6-3 6.6-6.6-.1-3.6-3-6.6-6.6-6.6zM643.1 107.5c-3.6 0-6.6 3-6.6 6.6 0 3.6 3 6.6 6.6 6.6 3.6 0 6.6-3 6.6-6.6 0-3.6-3-6.6-6.6-6.6zM660.8 18.9c-3.6 0-6.6 3-6.6 6.6 0 3.6 3 6.6 6.6 6.6 3.6 0 6.6-3 6.6-6.6 0-3.7-3-6.6-6.6-6.6zM625.4 125.2c-3.6 0-6.6 3-6.6 6.6 0 3.6 3 6.6 6.6 6.6 3.6 0 6.6-3 6.6-6.6-.1-3.6-3-6.6-6.6-6.6zM607.6 125.2c-3.6 0-6.6 3-6.6 6.6 0 3.6 3 6.6 6.6 6.6 3.6 0 6.6-3 6.6-6.6 0-3.6-3-6.6-6.6-6.6zM607.6 143c-3.6 0-6.6 3-6.6 6.6 0 3.6 3 6.6 6.6 6.6 3.6 0 6.6-3 6.6-6.6 0-3.7-3-6.6-6.6-6.6zM625.4 143c-3.6 0-6.6 3-6.6 6.6 0 3.6 3 6.6 6.6 6.6 3.6 0 6.6-3 6.6-6.6-.1-3.7-3-6.6-6.6-6.6zM643.1 143c-3.6 0-6.6 3-6.6 6.6 0 3.6 3 6.6 6.6 6.6 3.6 0 6.6-3 6.6-6.6 0-3.7-3-6.6-6.6-6.6zM660.8 143c-3.6 0-6.6 3-6.6 6.6 0 3.6 3 6.6 6.6 6.6 3.6 0 6.6-3 6.6-6.6 0-3.7-3-6.6-6.6-6.6zM589.9 160.7c-3.6 0-6.6 3-6.6 6.6 0 3.6 3 6.6 6.6 6.6 3.6 0 6.6-3 6.6-6.6 0-3.6-3-6.6-6.6-6.6zM607.6 160.7c-3.6 0-6.6 3-6.6 6.6 0 3.6 3 6.6 6.6 6.6 3.6 0 6.6-3 6.6-6.6 0-3.6-3-6.6-6.6-6.6zM625.4 160.7c-3.6 0-6.6 3-6.6 6.6 0 3.6 3 6.6 6.6 6.6 3.6 0 6.6-3 6.6-6.6-.1-3.6-3-6.6-6.6-6.6zM589.9 196.2c-3.6 0-6.6 3-6.6 6.6 0 3.6 3 6.6 6.6 6.6 3.6 0 6.6-3 6.6-6.6 0-3.7-3-6.6-6.6-6.6zM660.8 160.7c-3.6 0-6.6 3-6.6 6.6 0 3.6 3 6.6 6.6 6.6 3.6 0 6.6-3 6.6-6.6 0-3.6-3-6.6-6.6-6.6zM660.8 178.4c-3.6 0-6.6 3-6.6 6.6 0 3.6 3 6.6 6.6 6.6 3.6 0 6.6-3 6.6-6.6 0-3.6-3-6.6-6.6-6.6zM643.1 196.2c-3.6 0-6.6 3-6.6 6.6 0 3.6 3 6.6 6.6 6.6 3.6 0 6.6-3 6.6-6.6 0-3.7-3-6.6-6.6-6.6zM625.4 213.9c-3.6 0-6.6 3-6.6 6.6 0 3.6 3 6.6 6.6 6.6 3.6 0 6.6-3 6.6-6.6-.1-3.6-3-6.6-6.6-6.6zM536.7 249.4c-3.6 0-6.6 3-6.6 6.6 0 3.6 3 6.6 6.6 6.6 3.6 0 6.6-3 6.6-6.6 0-3.7-3-6.6-6.6-6.6zM501.3 267.1c-3.6 0-6.6 3-6.6 6.6 0 3.6 3 6.6 6.6 6.6 3.6 0 6.6-3 6.6-6.6-.1-3.7-3-6.6-6.6-6.6zM519 267.1c-3.6 0-6.6 3-6.6 6.6 0 3.6 3 6.6 6.6 6.6 3.6 0 6.6-3 6.6-6.6 0-3.7-3-6.6-6.6-6.6zM536.7 267.1c-3.6 0-6.6 3-6.6 6.6 0 3.6 3 6.6 6.6 6.6 3.6 0 6.6-3 6.6-6.6 0-3.7-3-6.6-6.6-6.6zM554.4 249.4c-3.6 0-6.6 3-6.6 6.6 0 3.6 3 6.6 6.6 6.6 3.6 0 6.6-3 6.6-6.6 0-3.7-2.9-6.6-6.6-6.6zM536.7 231.6c-3.6 0-6.6 3-6.6 6.6 0 3.6 3 6.6 6.6 6.6 3.6 0 6.6-3 6.6-6.6 0-3.6-3-6.6-6.6-6.6zM554.4 231.6c-3.6 0-6.6 3-6.6 6.6 0 3.6 3 6.6 6.6 6.6 3.6 0 6.6-3 6.6-6.6 0-3.6-2.9-6.6-6.6-6.6zM536.7 213.9c-3.6 0-6.6 3-6.6 6.6 0 3.6 3 6.6 6.6 6.6 3.6 0 6.6-3 6.6-6.6 0-3.6-3-6.6-6.6-6.6zM554.4 213.9c-3.6 0-6.6 3-6.6 6.6 0 3.6 3 6.6 6.6 6.6 3.6 0 6.6-3 6.6-6.6 0-3.6-2.9-6.6-6.6-6.6zM-12.9 125.2c-3.6 0-6.6 3-6.6 6.6 0 3.6 3 6.6 6.6 6.6 3.6 0 6.6-3 6.6-6.6 0-3.6-3-6.6-6.6-6.6zM182.1 249.4c-3.6 0-6.6 3-6.6 6.6 0 3.6 3 6.6 6.6 6.6 3.6 0 6.6-3 6.6-6.6 0-3.7-3-6.6-6.6-6.6zM199.8 249.4c-3.6 0-6.6 3-6.6 6.6 0 3.6 3 6.6 6.6 6.6 3.6 0 6.6-3 6.6-6.6 0-3.7-2.9-6.6-6.6-6.6zM217.6 249.4c-3.6 0-6.6 3-6.6 6.6 0 3.6 3 6.6 6.6 6.6 3.6 0 6.6-3 6.6-6.6-.1-3.7-3-6.6-6.6-6.6zM217.6 267.1c-3.6 0-6.6 3-6.6 6.6 0 3.6 3 6.6 6.6 6.6 3.6 0 6.6-3 6.6-6.6-.1-3.7-3-6.6-6.6-6.6zM199.8 267.1c-3.6 0-6.6 3-6.6 6.6 0 3.6 3 6.6 6.6 6.6 3.6 0 6.6-3 6.6-6.6 0-3.7-2.9-6.6-6.6-6.6zM199.8 284.8c-3.6 0-6.6 3-6.6 6.6 0 3.6 3 6.6 6.6 6.6 3.6 0 6.6-3 6.6-6.6 0-3.6-2.9-6.6-6.6-6.6zM217.6 284.8c-3.6 0-6.6 3-6.6 6.6 0 3.6 3 6.6 6.6 6.6 3.6 0 6.6-3 6.6-6.6-.1-3.6-3-6.6-6.6-6.6zM199.8 302.5c-3.6 0-6.6 3-6.6 6.6 0 3.6 3 6.6 6.6 6.6 3.6 0 6.6-3 6.6-6.6 0-3.6-2.9-6.6-6.6-6.6zM217.6 302.5c-3.6 0-6.6 3-6.6 6.6 0 3.6 3 6.6 6.6 6.6 3.6 0 6.6-3 6.6-6.6-.1-3.6-3-6.6-6.6-6.6zM253 267.1c-3.6 0-6.6 3-6.6 6.6 0 3.6 3 6.6 6.6 6.6 3.6 0 6.6-3 6.6-6.6 0-3.7-2.9-6.6-6.6-6.6zM235.3 267.1c-3.6 0-6.6 3-6.6 6.6 0 3.6 3 6.6 6.6 6.6 3.6 0 6.6-3 6.6-6.6 0-3.7-3-6.6-6.6-6.6zM235.3 284.8c-3.6 0-6.6 3-6.6 6.6 0 3.6 3 6.6 6.6 6.6 3.6 0 6.6-3 6.6-6.6 0-3.6-3-6.6-6.6-6.6zM253 284.8c-3.6 0-6.6 3-6.6 6.6 0 3.6 3 6.6 6.6 6.6 3.6 0 6.6-3 6.6-6.6 0-3.6-2.9-6.6-6.6-6.6zM111.2 249.4c-3.6 0-6.6 3-6.6 6.6 0 3.6 3 6.6 6.6 6.6 3.6 0 6.6-3 6.6-6.6 0-3.7-3-6.6-6.6-6.6zM128.9 249.4c-3.6 0-6.6 3-6.6 6.6 0 3.6 3 6.6 6.6 6.6 3.6 0 6.6-3 6.6-6.6 0-3.7-3-6.6-6.6-6.6zM146.7 249.4c-3.6 0-6.6 3-6.6 6.6 0 3.6 3 6.6 6.6 6.6 3.6 0 6.6-3 6.6-6.6-.1-3.7-3-6.6-6.6-6.6zM164.4 302.5c-3.6 0-6.6 3-6.6 6.6 0 3.6 3 6.6 6.6 6.6 3.6 0 6.6-3 6.6-6.6 0-3.6-3-6.6-6.6-6.6zM75.7 355.7c-3.6 0-6.6 3-6.6 6.6 0 3.6 3 6.6 6.6 6.6 3.6 0 6.6-3 6.6-6.6 0-3.6-2.9-6.6-6.6-6.6zM111.2 355.7c-3.6 0-6.6 3-6.6 6.6 0 3.6 3 6.6 6.6 6.6 3.6 0 6.6-3 6.6-6.6 0-3.6-3-6.6-6.6-6.6zM128.9 355.7c-3.6 0-6.6 3-6.6 6.6 0 3.6 3 6.6 6.6 6.6 3.6 0 6.6-3 6.6-6.6 0-3.6-3-6.6-6.6-6.6zM75.7 497.6c-3.6 0-6.6 3-6.6 6.6 0 3.6 3 6.6 6.6 6.6 3.6 0 6.6-3 6.6-6.6 0-3.7-2.9-6.6-6.6-6.6zM93.5 497.6c-3.6 0-6.6 3-6.6 6.6 0 3.6 3 6.6 6.6 6.6 3.6 0 6.6-3 6.6-6.6-.1-3.7-3-6.6-6.6-6.6zM111.2 497.6c-3.6 0-6.6 3-6.6 6.6 0 3.6 3 6.6 6.6 6.6 3.6 0 6.6-3 6.6-6.6 0-3.7-3-6.6-6.6-6.6zM128.9 497.6c-3.6 0-6.6 3-6.6 6.6 0 3.6 3 6.6 6.6 6.6 3.6 0 6.6-3 6.6-6.6 0-3.7-3-6.6-6.6-6.6zM40.3 373.5c-3.6 0-6.6 3-6.6 6.6 0 3.6 3 6.6 6.6 6.6 3.6 0 6.6-3 6.6-6.6 0-3.7-3-6.6-6.6-6.6zM58 373.5c-3.6 0-6.6 3-6.6 6.6 0 3.6 3 6.6 6.6 6.6 3.6 0 6.6-3 6.6-6.6 0-3.7-3-6.6-6.6-6.6zM75.7 515.3c-3.6 0-6.6 3-6.6 6.6 0 3.6 3 6.6 6.6 6.6 3.6 0 6.6-3 6.6-6.6 0-3.6-2.9-6.6-6.6-6.6zM93.5 515.3c-3.6 0-6.6 3-6.6 6.6 0 3.6 3 6.6 6.6 6.6 3.6 0 6.6-3 6.6-6.6-.1-3.6-3-6.6-6.6-6.6zM111.2 515.3c-3.6 0-6.6 3-6.6 6.6 0 3.6 3 6.6 6.6 6.6 3.6 0 6.6-3 6.6-6.6 0-3.6-3-6.6-6.6-6.6zM75.7 373.5c-3.6 0-6.6 3-6.6 6.6 0 3.6 3 6.6 6.6 6.6 3.6 0 6.6-3 6.6-6.6 0-3.7-2.9-6.6-6.6-6.6zM93.5 373.5c-3.6 0-6.6 3-6.6 6.6 0 3.6 3 6.6 6.6 6.6 3.6 0 6.6-3 6.6-6.6-.1-3.7-3-6.6-6.6-6.6zM111.2 373.5c-3.6 0-6.6 3-6.6 6.6 0 3.6 3 6.6 6.6 6.6 3.6 0 6.6-3 6.6-6.6 0-3.7-3-6.6-6.6-6.6zM128.9 373.5c-3.6 0-6.6 3-6.6 6.6 0 3.6 3 6.6 6.6 6.6 3.6 0 6.6-3 6.6-6.6 0-3.7-3-6.6-6.6-6.6zM93.5 533c-3.6 0-6.6 3-6.6 6.6 0 3.6 3 6.6 6.6 6.6 3.6 0 6.6-3 6.6-6.6-.1-3.6-3-6.6-6.6-6.6zM111.2 533c-3.6 0-6.6 3-6.6 6.6 0 3.6 3 6.6 6.6 6.6 3.6 0 6.6-3 6.6-6.6 0-3.6-3-6.6-6.6-6.6zM128.9 515.3c-3.6 0-6.6 3-6.6 6.6 0 3.6 3 6.6 6.6 6.6 3.6 0 6.6-3 6.6-6.6 0-3.6-3-6.6-6.6-6.6z"/></g></g><path class="st5" d="M1.3 0H897v604H1.3z"/></g><g class="st2"><path class="st4" d="M146.7 483.8c-3.6 0-6.6 3-6.6 6.6 0 3.6 3 6.6 6.6 6.6 3.6 0 6.6-3 6.6-6.6-.1-3.6-3-6.6-6.6-6.6zM58 483.8c-3.6 0-6.6 3-6.6 6.6 0 3.6 3 6.6 6.6 6.6 3.6 0 6.6-3 6.6-6.6 0-3.6-3-6.6-6.6-6.6zM75.7 483.8c-3.6 0-6.6 3-6.6 6.6 0 3.6 3 6.6 6.6 6.6 3.6 0 6.6-3 6.6-6.6 0-3.6-2.9-6.6-6.6-6.6zM93.5 483.8c-3.6 0-6.6 3-6.6 6.6 0 3.6 3 6.6 6.6 6.6 3.6 0 6.6-3 6.6-6.6-.1-3.6-3-6.6-6.6-6.6zM111.2 483.8c-3.6 0-6.6 3-6.6 6.6 0 3.6 3 6.6 6.6 6.6 3.6 0 6.6-3 6.6-6.6 0-3.6-3-6.6-6.6-6.6zM128.9 483.8c-3.6 0-6.6 3-6.6 6.6 0 3.6 3 6.6 6.6 6.6 3.6 0 6.6-3 6.6-6.6 0-3.6-3-6.6-6.6-6.6zM660.8 483.8c-3.6 0-6.6 3-6.6 6.6 0 3.6 3 6.6 6.6 6.6 3.6 0 6.6-3 6.6-6.6 0-3.6-3-6.6-6.6-6.6zM678.5 483.8c-3.6 0-6.6 3-6.6 6.6 0 3.6 3 6.6 6.6 6.6 3.6 0 6.6-3 6.6-6.6 0-3.6-2.9-6.6-6.6-6.6zM625.4 483.8c-3.6 0-6.6 3-6.6 6.6 0 3.6 3 6.6 6.6 6.6 3.6 0 6.6-3 6.6-6.6-.1-3.6-3-6.6-6.6-6.6zM643.1 483.8c-3.6 0-6.6 3-6.6 6.6 0 3.6 3 6.6 6.6 6.6 3.6 0 6.6-3 6.6-6.6 0-3.6-3-6.6-6.6-6.6zM696.3 483.8c-3.6 0-6.6 3-6.6 6.6 0 3.6 3 6.6 6.6 6.6 3.6 0 6.6-3 6.6-6.6 0-3.6-3-6.6-6.6-6.6zM660.8 501.6c-3.6 0-6.6 3-6.6 6.6 0 3.6 3 6.6 6.6 6.6 3.6 0 6.6-3 6.6-6.6 0-3.7-3-6.6-6.6-6.6zM678.5 501.6c-3.6 0-6.6 3-6.6 6.6 0 3.6 3 6.6 6.6 6.6 3.6 0 6.6-3 6.6-6.6 0-3.7-2.9-6.6-6.6-6.6zM696.3 501.6c-3.6 0-6.6 3-6.6 6.6 0 3.6 3 6.6 6.6 6.6 3.6 0 6.6-3 6.6-6.6 0-3.7-3-6.6-6.6-6.6zM625.4 519.3c-3.6 0-6.6 3-6.6 6.6 0 3.6 3 6.6 6.6 6.6 3.6 0 6.6-3 6.6-6.6-.1-3.6-3-6.6-6.6-6.6zM643.1 519.3c-3.6 0-6.6 3-6.6 6.6 0 3.6 3 6.6 6.6 6.6 3.6 0 6.6-3 6.6-6.6 0-3.6-3-6.6-6.6-6.6zM660.8 519.3c-3.6 0-6.6 3-6.6 6.6 0 3.6 3 6.6 6.6 6.6 3.6 0 6.6-3 6.6-6.6 0-3.6-3-6.6-6.6-6.6zM643.1 537c-3.6 0-6.6 3-6.6 6.6 0 3.6 3 6.6 6.6 6.6 3.6 0 6.6-3 6.6-6.6 0-3.6-3-6.6-6.6-6.6zM660.8 537c-3.6 0-6.6 3-6.6 6.6 0 3.6 3 6.6 6.6 6.6 3.6 0 6.6-3 6.6-6.6 0-3.6-3-6.6-6.6-6.6zM678.5 537c-3.6 0-6.6 3-6.6 6.6 0 3.6 3 6.6 6.6 6.6 3.6 0 6.6-3 6.6-6.6 0-3.6-2.9-6.6-6.6-6.6zM696.3 537c-3.6 0-6.6 3-6.6 6.6 0 3.6 3 6.6 6.6 6.6 3.6 0 6.6-3 6.6-6.6 0-3.6-3-6.6-6.6-6.6zM678.5 519.3c-3.6 0-6.6 3-6.6 6.6 0 3.6 3 6.6 6.6 6.6 3.6 0 6.6-3 6.6-6.6 0-3.6-2.9-6.6-6.6-6.6zM696.3 519.3c-3.6 0-6.6 3-6.6 6.6 0 3.6 3 6.6 6.6 6.6 3.6 0 6.6-3 6.6-6.6 0-3.6-3-6.6-6.6-6.6zM802.7 554.8c-3.6 0-6.6 3-6.6 6.6 0 3.6 3 6.6 6.6 6.6 3.6 0 6.6-3 6.6-6.6-.1-3.7-3-6.6-6.6-6.6zM820.4 554.8c-3.6 0-6.6 3-6.6 6.6 0 3.6 3 6.6 6.6 6.6 3.6 0 6.6-3 6.6-6.6 0-3.7-3-6.6-6.6-6.6zM784.9 590.2c-3.6 0-6.6 3-6.6 6.6 0 3.6 3 6.6 6.6 6.6 3.6 0 6.6-3 6.6-6.6 0-3.6-3-6.6-6.6-6.6zM802.7 590.2c-3.6 0-6.6 3-6.6 6.6 0 3.6 3 6.6 6.6 6.6 3.6 0 6.6-3 6.6-6.6-.1-3.6-3-6.6-6.6-6.6zM820.4 572.5c-3.6 0-6.6 3-6.6 6.6 0 3.6 3 6.6 6.6 6.6 3.6 0 6.6-3 6.6-6.6 0-3.7-3-6.6-6.6-6.6zM802.7 572.5c-3.6 0-6.6 3-6.6 6.6 0 3.6 3 6.6 6.6 6.6 3.6 0 6.6-3 6.6-6.6-.1-3.7-3-6.6-6.6-6.6zM625.4 501.6c-3.6 0-6.6 3-6.6 6.6 0 3.6 3 6.6 6.6 6.6 3.6 0 6.6-3 6.6-6.6-.1-3.7-3-6.6-6.6-6.6zM643.1 501.6c-3.6 0-6.6 3-6.6 6.6 0 3.6 3 6.6 6.6 6.6 3.6 0 6.6-3 6.6-6.6 0-3.7-3-6.6-6.6-6.6zM660.8 448.4c-3.6 0-6.6 3-6.6 6.6 0 3.6 3 6.6 6.6 6.6 3.6 0 6.6-3 6.6-6.6 0-3.7-3-6.6-6.6-6.6zM660.8 430.7c-3.6 0-6.6 3-6.6 6.6 0 3.6 3 6.6 6.6 6.6 3.6 0 6.6-3 6.6-6.6 0-3.7-3-6.6-6.6-6.6zM678.5 554.8c-3.6 0-6.6 3-6.6 6.6 0 3.6 3 6.6 6.6 6.6 3.6 0 6.6-3 6.6-6.6 0-3.7-2.9-6.6-6.6-6.6zM625.4 466.1c-3.6 0-6.6 3-6.6 6.6 0 3.6 3 6.6 6.6 6.6 3.6 0 6.6-3 6.6-6.6-.1-3.6-3-6.6-6.6-6.6zM643.1 466.1c-3.6 0-6.6 3-6.6 6.6 0 3.6 3 6.6 6.6 6.6 3.6 0 6.6-3 6.6-6.6 0-3.6-3-6.6-6.6-6.6zM660.8 466.1c-3.6 0-6.6 3-6.6 6.6 0 3.6 3 6.6 6.6 6.6 3.6 0 6.6-3 6.6-6.6 0-3.6-3-6.6-6.6-6.6zM678.5 466.1c-3.6 0-6.6 3-6.6 6.6 0 3.6 3 6.6 6.6 6.6 3.6 0 6.6-3 6.6-6.6 0-3.6-2.9-6.6-6.6-6.6zM660.8 554.8c-3.6 0-6.6 3-6.6 6.6 0 3.6 3 6.6 6.6 6.6 3.6 0 6.6-3 6.6-6.6 0-3.7-3-6.6-6.6-6.6zM678.5 572.5c-3.6 0-6.6 3-6.6 6.6 0 3.6 3 6.6 6.6 6.6 3.6 0 6.6-3 6.6-6.6 0-3.7-2.9-6.6-6.6-6.6zM625.4 448.4c-3.6 0-6.6 3-6.6 6.6 0 3.6 3 6.6 6.6 6.6 3.6 0 6.6-3 6.6-6.6-.1-3.7-3-6.6-6.6-6.6zM643.1 448.4c-3.6 0-6.6 3-6.6 6.6 0 3.6 3 6.6 6.6 6.6 3.6 0 6.6-3 6.6-6.6 0-3.7-3-6.6-6.6-6.6zM554.4 483.8c-3.6 0-6.6 3-6.6 6.6 0 3.6 3 6.6 6.6 6.6 3.6 0 6.6-3 6.6-6.6 0-3.6-2.9-6.6-6.6-6.6zM572.2 483.8c-3.6 0-6.6 3-6.6 6.6 0 3.6 3 6.6 6.6 6.6 3.6 0 6.6-3 6.6-6.6-.1-3.6-3-6.6-6.6-6.6zM536.7 483.8c-3.6 0-6.6 3-6.6 6.6 0 3.6 3 6.6 6.6 6.6 3.6 0 6.6-3 6.6-6.6 0-3.6-3-6.6-6.6-6.6zM589.9 483.8c-3.6 0-6.6 3-6.6 6.6 0 3.6 3 6.6 6.6 6.6 3.6 0 6.6-3 6.6-6.6 0-3.6-3-6.6-6.6-6.6zM607.6 483.8c-3.6 0-6.6 3-6.6 6.6 0 3.6 3 6.6 6.6 6.6 3.6 0 6.6-3 6.6-6.6 0-3.6-3-6.6-6.6-6.6zM554.4 501.6c-3.6 0-6.6 3-6.6 6.6 0 3.6 3 6.6 6.6 6.6 3.6 0 6.6-3 6.6-6.6 0-3.7-2.9-6.6-6.6-6.6zM572.2 501.6c-3.6 0-6.6 3-6.6 6.6 0 3.6 3 6.6 6.6 6.6 3.6 0 6.6-3 6.6-6.6-.1-3.7-3-6.6-6.6-6.6zM589.9 501.6c-3.6 0-6.6 3-6.6 6.6 0 3.6 3 6.6 6.6 6.6 3.6 0 6.6-3 6.6-6.6 0-3.7-3-6.6-6.6-6.6zM607.6 501.6c-3.6 0-6.6 3-6.6 6.6 0 3.6 3 6.6 6.6 6.6 3.6 0 6.6-3 6.6-6.6 0-3.7-3-6.6-6.6-6.6zM554.4 519.3c-3.6 0-6.6 3-6.6 6.6 0 3.6 3 6.6 6.6 6.6 3.6 0 6.6-3 6.6-6.6 0-3.6-2.9-6.6-6.6-6.6zM572.2 537c-3.6 0-6.6 3-6.6 6.6 0 3.6 3 6.6 6.6 6.6 3.6 0 6.6-3 6.6-6.6-.1-3.6-3-6.6-6.6-6.6zM536.7 537c-3.6 0-6.6 3-6.6 6.6 0 3.6 3 6.6 6.6 6.6 3.6 0 6.6-3 6.6-6.6 0-3.6-3-6.6-6.6-6.6zM572.2 519.3c-3.6 0-6.6 3-6.6 6.6 0 3.6 3 6.6 6.6 6.6 3.6 0 6.6-3 6.6-6.6-.1-3.6-3-6.6-6.6-6.6zM589.9 519.3c-3.6 0-6.6 3-6.6 6.6 0 3.6 3 6.6 6.6 6.6 3.6 0 6.6-3 6.6-6.6 0-3.6-3-6.6-6.6-6.6zM554.4 537c-3.6 0-6.6 3-6.6 6.6 0 3.6 3 6.6 6.6 6.6 3.6 0 6.6-3 6.6-6.6 0-3.6-2.9-6.6-6.6-6.6zM607.6 519.3c-3.6 0-6.6 3-6.6 6.6 0 3.6 3 6.6 6.6 6.6 3.6 0 6.6-3 6.6-6.6 0-3.6-3-6.6-6.6-6.6zM536.7 501.6c-3.6 0-6.6 3-6.6 6.6 0 3.6 3 6.6 6.6 6.6 3.6 0 6.6-3 6.6-6.6 0-3.7-3-6.6-6.6-6.6zM554.4 448.4c-3.6 0-6.6 3-6.6 6.6 0 3.6 3 6.6 6.6 6.6 3.6 0 6.6-3 6.6-6.6 0-3.7-2.9-6.6-6.6-6.6zM607.6 448.4c-3.6 0-6.6 3-6.6 6.6 0 3.6 3 6.6 6.6 6.6 3.6 0 6.6-3 6.6-6.6 0-3.7-3-6.6-6.6-6.6zM536.7 466.1c-3.6 0-6.6 3-6.6 6.6 0 3.6 3 6.6 6.6 6.6 3.6 0 6.6-3 6.6-6.6 0-3.6-3-6.6-6.6-6.6zM554.4 466.1c-3.6 0-6.6 3-6.6 6.6 0 3.6 3 6.6 6.6 6.6 3.6 0 6.6-3 6.6-6.6 0-3.6-2.9-6.6-6.6-6.6zM572.2 466.1c-3.6 0-6.6 3-6.6 6.6 0 3.6 3 6.6 6.6 6.6 3.6 0 6.6-3 6.6-6.6-.1-3.6-3-6.6-6.6-6.6zM589.9 466.1c-3.6 0-6.6 3-6.6 6.6 0 3.6 3 6.6 6.6 6.6 3.6 0 6.6-3 6.6-6.6 0-3.6-3-6.6-6.6-6.6zM607.6 466.1c-3.6 0-6.6 3-6.6 6.6 0 3.6 3 6.6 6.6 6.6 3.6 0 6.6-3 6.6-6.6 0-3.6-3-6.6-6.6-6.6zM288.5 217.9c-3.6 0-6.6 3-6.6 6.6 0 3.6 3 6.6 6.6 6.6 3.6 0 6.6-3 6.6-6.6 0-3.6-3-6.6-6.6-6.6zM288.5 235.6c-3.6 0-6.6 3-6.6 6.6 0 3.6 3 6.6 6.6 6.6 3.6 0 6.6-3 6.6-6.6 0-3.6-3-6.6-6.6-6.6zM288.5 253.4c-3.6 0-6.6 3-6.6 6.6 0 3.6 3 6.6 6.6 6.6 3.6 0 6.6-3 6.6-6.6 0-3.7-3-6.6-6.6-6.6zM288.5 200.2c-3.6 0-6.6 3-6.6 6.6 0 3.6 3 6.6 6.6 6.6 3.6 0 6.6-3 6.6-6.6 0-3.7-3-6.6-6.6-6.6zM288.5 182.4c-3.6 0-6.6 3-6.6 6.6 0 3.6 3 6.6 6.6 6.6 3.6 0 6.6-3 6.6-6.6 0-3.6-3-6.6-6.6-6.6zM306.2 200.2c-3.6 0-6.6 3-6.6 6.6 0 3.6 3 6.6 6.6 6.6 3.6 0 6.6-3 6.6-6.6 0-3.7-3-6.6-6.6-6.6zM324 200.2c-3.6 0-6.6 3-6.6 6.6 0 3.6 3 6.6 6.6 6.6 3.6 0 6.6-3 6.6-6.6-.1-3.7-3-6.6-6.6-6.6zM306.2 182.4c-3.6 0-6.6 3-6.6 6.6 0 3.6 3 6.6 6.6 6.6 3.6 0 6.6-3 6.6-6.6 0-3.6-3-6.6-6.6-6.6zM324 182.4c-3.6 0-6.6 3-6.6 6.6 0 3.6 3 6.6 6.6 6.6 3.6 0 6.6-3 6.6-6.6-.1-3.6-3-6.6-6.6-6.6zM288.5 76.1c-3.6 0-6.6 3-6.6 6.6 0 3.6 3 6.6 6.6 6.6 3.6 0 6.6-3 6.6-6.6 0-3.7-3-6.6-6.6-6.6zM288.5 93.8c-3.6 0-6.6 3-6.6 6.6 0 3.6 3 6.6 6.6 6.6 3.6 0 6.6-3 6.6-6.6 0-3.7-3-6.6-6.6-6.6zM306.2 93.8c-3.6 0-6.6 3-6.6 6.6 0 3.6 3 6.6 6.6 6.6 3.6 0 6.6-3 6.6-6.6 0-3.7-3-6.6-6.6-6.6zM324 93.8c-3.6 0-6.6 3-6.6 6.6 0 3.6 3 6.6 6.6 6.6 3.6 0 6.6-3 6.6-6.6-.1-3.7-3-6.6-6.6-6.6zM324 76.1c-3.6 0-6.6 3-6.6 6.6 0 3.6 3 6.6 6.6 6.6 3.6 0 6.6-3 6.6-6.6-.1-3.7-3-6.6-6.6-6.6zM306.2 76.1c-3.6 0-6.6 3-6.6 6.6 0 3.6 3 6.6 6.6 6.6 3.6 0 6.6-3 6.6-6.6 0-3.7-3-6.6-6.6-6.6zM288.5 22.9c-3.6 0-6.6 3-6.6 6.6 0 3.6 3 6.6 6.6 6.6 3.6 0 6.6-3 6.6-6.6 0-3.7-3-6.6-6.6-6.6zM288.5 58.3c-3.6 0-6.6 3-6.6 6.6 0 3.6 3 6.6 6.6 6.6 3.6 0 6.6-3 6.6-6.6 0-3.6-3-6.6-6.6-6.6zM324 58.3c-3.6 0-6.6 3-6.6 6.6 0 3.6 3 6.6 6.6 6.6 3.6 0 6.6-3 6.6-6.6-.1-3.6-3-6.6-6.6-6.6zM324 40.6c-3.6 0-6.6 3-6.6 6.6 0 3.6 3 6.6 6.6 6.6 3.6 0 6.6-3 6.6-6.6-.1-3.6-3-6.6-6.6-6.6zM306.2 58.3c-3.6 0-6.6 3-6.6 6.6 0 3.6 3 6.6 6.6 6.6 3.6 0 6.6-3 6.6-6.6 0-3.6-3-6.6-6.6-6.6zM306.2 129.2c-3.6 0-6.6 3-6.6 6.6 0 3.6 3 6.6 6.6 6.6 3.6 0 6.6-3 6.6-6.6 0-3.6-3-6.6-6.6-6.6zM324 129.2c-3.6 0-6.6 3-6.6 6.6 0 3.6 3 6.6 6.6 6.6 3.6 0 6.6-3 6.6-6.6-.1-3.6-3-6.6-6.6-6.6zM288.5 111.5c-3.6 0-6.6 3-6.6 6.6 0 3.6 3 6.6 6.6 6.6 3.6 0 6.6-3 6.6-6.6 0-3.6-3-6.6-6.6-6.6zM306.2 111.5c-3.6 0-6.6 3-6.6 6.6 0 3.6 3 6.6 6.6 6.6 3.6 0 6.6-3 6.6-6.6 0-3.6-3-6.6-6.6-6.6zM324 111.5c-3.6 0-6.6 3-6.6 6.6 0 3.6 3 6.6 6.6 6.6 3.6 0 6.6-3 6.6-6.6-.1-3.6-3-6.6-6.6-6.6zM288.5 129.2c-3.6 0-6.6 3-6.6 6.6 0 3.6 3 6.6 6.6 6.6 3.6 0 6.6-3 6.6-6.6 0-3.6-3-6.6-6.6-6.6zM288.5 147c-3.6 0-6.6 3-6.6 6.6 0 3.6 3 6.6 6.6 6.6 3.6 0 6.6-3 6.6-6.6 0-3.7-3-6.6-6.6-6.6zM306.2 147c-3.6 0-6.6 3-6.6 6.6 0 3.6 3 6.6 6.6 6.6 3.6 0 6.6-3 6.6-6.6 0-3.7-3-6.6-6.6-6.6zM324 147c-3.6 0-6.6 3-6.6 6.6 0 3.6 3 6.6 6.6 6.6 3.6 0 6.6-3 6.6-6.6-.1-3.7-3-6.6-6.6-6.6zM288.5 164.7c-3.6 0-6.6 3-6.6 6.6 0 3.6 3 6.6 6.6 6.6 3.6 0 6.6-3 6.6-6.6 0-3.6-3-6.6-6.6-6.6zM306.2 164.7c-3.6 0-6.6 3-6.6 6.6 0 3.6 3 6.6 6.6 6.6 3.6 0 6.6-3 6.6-6.6 0-3.6-3-6.6-6.6-6.6zM324 164.7c-3.6 0-6.6 3-6.6 6.6 0 3.6 3 6.6 6.6 6.6 3.6 0 6.6-3 6.6-6.6-.1-3.6-3-6.6-6.6-6.6zM306.2 253.4c-3.6 0-6.6 3-6.6 6.6 0 3.6 3 6.6 6.6 6.6 3.6 0 6.6-3 6.6-6.6 0-3.7-3-6.6-6.6-6.6zM324 253.4c-3.6 0-6.6 3-6.6 6.6 0 3.6 3 6.6 6.6 6.6 3.6 0 6.6-3 6.6-6.6-.1-3.7-3-6.6-6.6-6.6zM341.7 253.4c-3.6 0-6.6 3-6.6 6.6 0 3.6 3 6.6 6.6 6.6 3.6 0 6.6-3 6.6-6.6 0-3.7-3-6.6-6.6-6.6zM306.2 235.6c-3.6 0-6.6 3-6.6 6.6 0 3.6 3 6.6 6.6 6.6 3.6 0 6.6-3 6.6-6.6 0-3.6-3-6.6-6.6-6.6zM324 235.6c-3.6 0-6.6 3-6.6 6.6 0 3.6 3 6.6 6.6 6.6 3.6 0 6.6-3 6.6-6.6-.1-3.6-3-6.6-6.6-6.6zM306.2 217.9c-3.6 0-6.6 3-6.6 6.6 0 3.6 3 6.6 6.6 6.6 3.6 0 6.6-3 6.6-6.6 0-3.6-3-6.6-6.6-6.6zM324 217.9c-3.6 0-6.6 3-6.6 6.6 0 3.6 3 6.6 6.6 6.6 3.6 0 6.6-3 6.6-6.6-.1-3.6-3-6.6-6.6-6.6zM341.7 217.9c-3.6 0-6.6 3-6.6 6.6 0 3.6 3 6.6 6.6 6.6 3.6 0 6.6-3 6.6-6.6 0-3.6-3-6.6-6.6-6.6zM359.4 217.9c-3.6 0-6.6 3-6.6 6.6 0 3.6 3 6.6 6.6 6.6 3.6 0 6.6-3 6.6-6.6 0-3.6-3-6.6-6.6-6.6zM377.1 217.9c-3.6 0-6.6 3-6.6 6.6 0 3.6 3 6.6 6.6 6.6 3.6 0 6.6-3 6.6-6.6 0-3.6-2.9-6.6-6.6-6.6zM341.7 235.6c-3.6 0-6.6 3-6.6 6.6 0 3.6 3 6.6 6.6 6.6 3.6 0 6.6-3 6.6-6.6 0-3.6-3-6.6-6.6-6.6zM359.4 235.6c-3.6 0-6.6 3-6.6 6.6 0 3.6 3 6.6 6.6 6.6 3.6 0 6.6-3 6.6-6.6 0-3.6-3-6.6-6.6-6.6zM377.1 235.6c-3.6 0-6.6 3-6.6 6.6 0 3.6 3 6.6 6.6 6.6 3.6 0 6.6-3 6.6-6.6 0-3.6-2.9-6.6-6.6-6.6zM359.4 253.4c-3.6 0-6.6 3-6.6 6.6 0 3.6 3 6.6 6.6 6.6 3.6 0 6.6-3 6.6-6.6 0-3.7-3-6.6-6.6-6.6zM377.1 253.4c-3.6 0-6.6 3-6.6 6.6 0 3.6 3 6.6 6.6 6.6 3.6 0 6.6-3 6.6-6.6 0-3.7-2.9-6.6-6.6-6.6zM341.7 200.2c-3.6 0-6.6 3-6.6 6.6 0 3.6 3 6.6 6.6 6.6 3.6 0 6.6-3 6.6-6.6 0-3.7-3-6.6-6.6-6.6zM359.4 200.2c-3.6 0-6.6 3-6.6 6.6 0 3.6 3 6.6 6.6 6.6 3.6 0 6.6-3 6.6-6.6 0-3.7-3-6.6-6.6-6.6zM341.7 182.4c-3.6 0-6.6 3-6.6 6.6 0 3.6 3 6.6 6.6 6.6 3.6 0 6.6-3 6.6-6.6 0-3.6-3-6.6-6.6-6.6zM359.4 182.4c-3.6 0-6.6 3-6.6 6.6 0 3.6 3 6.6 6.6 6.6 3.6 0 6.6-3 6.6-6.6 0-3.6-3-6.6-6.6-6.6zM377.1 200.2c-3.6 0-6.6 3-6.6 6.6 0 3.6 3 6.6 6.6 6.6 3.6 0 6.6-3 6.6-6.6 0-3.7-2.9-6.6-6.6-6.6zM377.1 182.4c-3.6 0-6.6 3-6.6 6.6 0 3.6 3 6.6 6.6 6.6 3.6 0 6.6-3 6.6-6.6 0-3.6-2.9-6.6-6.6-6.6zM341.7 129.2c-3.6 0-6.6 3-6.6 6.6 0 3.6 3 6.6 6.6 6.6 3.6 0 6.6-3 6.6-6.6 0-3.6-3-6.6-6.6-6.6zM341.7 111.5c-3.6 0-6.6 3-6.6 6.6 0 3.6 3 6.6 6.6 6.6 3.6 0 6.6-3 6.6-6.6 0-3.6-3-6.6-6.6-6.6zM341.7 76.1c-3.6 0-6.6 3-6.6 6.6 0 3.6 3 6.6 6.6 6.6 3.6 0 6.6-3 6.6-6.6 0-3.7-3-6.6-6.6-6.6zM341.7 93.8c-3.6 0-6.6 3-6.6 6.6 0 3.6 3 6.6 6.6 6.6 3.6 0 6.6-3 6.6-6.6 0-3.7-3-6.6-6.6-6.6zM359.4 93.8c-3.6 0-6.6 3-6.6 6.6 0 3.6 3 6.6 6.6 6.6 3.6 0 6.6-3 6.6-6.6 0-3.7-3-6.6-6.6-6.6zM359.4 76.1c-3.6 0-6.6 3-6.6 6.6 0 3.6 3 6.6 6.6 6.6 3.6 0 6.6-3 6.6-6.6 0-3.7-3-6.6-6.6-6.6zM377.1 76.1c-3.6 0-6.6 3-6.6 6.6 0 3.6 3 6.6 6.6 6.6 3.6 0 6.6-3 6.6-6.6 0-3.7-2.9-6.6-6.6-6.6zM377.1 93.8c-3.6 0-6.6 3-6.6 6.6 0 3.6 3 6.6 6.6 6.6 3.6 0 6.6-3 6.6-6.6 0-3.7-2.9-6.6-6.6-6.6zM341.7 58.3c-3.6 0-6.6 3-6.6 6.6 0 3.6 3 6.6 6.6 6.6 3.6 0 6.6-3 6.6-6.6 0-3.6-3-6.6-6.6-6.6zM359.4 58.3c-3.6 0-6.6 3-6.6 6.6 0 3.6 3 6.6 6.6 6.6 3.6 0 6.6-3 6.6-6.6 0-3.6-3-6.6-6.6-6.6zM377.1 58.3c-3.6 0-6.6 3-6.6 6.6 0 3.6 3 6.6 6.6 6.6 3.6 0 6.6-3 6.6-6.6 0-3.6-2.9-6.6-6.6-6.6zM341.7 147c-3.6 0-6.6 3-6.6 6.6 0 3.6 3 6.6 6.6 6.6 3.6 0 6.6-3 6.6-6.6 0-3.7-3-6.6-6.6-6.6zM359.4 111.5c-3.6 0-6.6 3-6.6 6.6 0 3.6 3 6.6 6.6 6.6 3.6 0 6.6-3 6.6-6.6 0-3.6-3-6.6-6.6-6.6zM377.1 111.5c-3.6 0-6.6 3-6.6 6.6 0 3.6 3 6.6 6.6 6.6 3.6 0 6.6-3 6.6-6.6 0-3.6-2.9-6.6-6.6-6.6zM377.1 129.2c-3.6 0-6.6 3-6.6 6.6 0 3.6 3 6.6 6.6 6.6 3.6 0 6.6-3 6.6-6.6 0-3.6-2.9-6.6-6.6-6.6zM359.4 129.2c-3.6 0-6.6 3-6.6 6.6 0 3.6 3 6.6 6.6 6.6 3.6 0 6.6-3 6.6-6.6 0-3.6-3-6.6-6.6-6.6zM359.4 147c-3.6 0-6.6 3-6.6 6.6 0 3.6 3 6.6 6.6 6.6 3.6 0 6.6-3 6.6-6.6 0-3.7-3-6.6-6.6-6.6zM377.1 147c-3.6 0-6.6 3-6.6 6.6 0 3.6 3 6.6 6.6 6.6 3.6 0 6.6-3 6.6-6.6 0-3.7-2.9-6.6-6.6-6.6zM341.7 164.7c-3.6 0-6.6 3-6.6 6.6 0 3.6 3 6.6 6.6 6.6 3.6 0 6.6-3 6.6-6.6 0-3.6-3-6.6-6.6-6.6zM359.4 164.7c-3.6 0-6.6 3-6.6 6.6 0 3.6 3 6.6 6.6 6.6 3.6 0 6.6-3 6.6-6.6 0-3.6-3-6.6-6.6-6.6zM377.1 164.7c-3.6 0-6.6 3-6.6 6.6 0 3.6 3 6.6 6.6 6.6 3.6 0 6.6-3 6.6-6.6 0-3.6-2.9-6.6-6.6-6.6zM341.7 342c-3.6 0-6.6 3-6.6 6.6 0 3.6 3 6.6 6.6 6.6 3.6 0 6.6-3 6.6-6.6 0-3.6-3-6.6-6.6-6.6zM341.7 306.5c-3.6 0-6.6 3-6.6 6.6 0 3.6 3 6.6 6.6 6.6 3.6 0 6.6-3 6.6-6.6 0-3.6-3-6.6-6.6-6.6zM359.4 306.5c-3.6 0-6.6 3-6.6 6.6 0 3.6 3 6.6 6.6 6.6 3.6 0 6.6-3 6.6-6.6 0-3.6-3-6.6-6.6-6.6zM377.1 306.5c-3.6 0-6.6 3-6.6 6.6 0 3.6 3 6.6 6.6 6.6 3.6 0 6.6-3 6.6-6.6 0-3.6-2.9-6.6-6.6-6.6zM341.7 324.3c-3.6 0-6.6 3-6.6 6.6 0 3.6 3 6.6 6.6 6.6 3.6 0 6.6-3 6.6-6.6 0-3.7-3-6.6-6.6-6.6zM359.4 324.3c-3.6 0-6.6 3-6.6 6.6 0 3.6 3 6.6 6.6 6.6 3.6 0 6.6-3 6.6-6.6 0-3.7-3-6.6-6.6-6.6zM359.4 342c-3.6 0-6.6 3-6.6 6.6 0 3.6 3 6.6 6.6 6.6 3.6 0 6.6-3 6.6-6.6 0-3.6-3-6.6-6.6-6.6zM483.5 324.3c-3.6 0-6.6 3-6.6 6.6 0 3.6 3 6.6 6.6 6.6 3.6 0 6.6-3 6.6-6.6 0-3.7-3-6.6-6.6-6.6zM341.7 288.8c-3.6 0-6.6 3-6.6 6.6 0 3.6 3 6.6 6.6 6.6 3.6 0 6.6-3 6.6-6.6 0-3.6-3-6.6-6.6-6.6zM359.4 288.8c-3.6 0-6.6 3-6.6 6.6 0 3.6 3 6.6 6.6 6.6 3.6 0 6.6-3 6.6-6.6 0-3.6-3-6.6-6.6-6.6zM341.7 271.1c-3.6 0-6.6 3-6.6 6.6 0 3.6 3 6.6 6.6 6.6 3.6 0 6.6-3 6.6-6.6 0-3.7-3-6.6-6.6-6.6zM359.4 271.1c-3.6 0-6.6 3-6.6 6.6 0 3.6 3 6.6 6.6 6.6 3.6 0 6.6-3 6.6-6.6 0-3.7-3-6.6-6.6-6.6zM377.1 288.8c-3.6 0-6.6 3-6.6 6.6 0 3.6 3 6.6 6.6 6.6 3.6 0 6.6-3 6.6-6.6 0-3.6-2.9-6.6-6.6-6.6zM377.1 271.1c-3.6 0-6.6 3-6.6 6.6 0 3.6 3 6.6 6.6 6.6 3.6 0 6.6-3 6.6-6.6 0-3.7-2.9-6.6-6.6-6.6zM501.3 324.3c-3.6 0-6.6 3-6.6 6.6 0 3.6 3 6.6 6.6 6.6 3.6 0 6.6-3 6.6-6.6-.1-3.7-3-6.6-6.6-6.6zM483.5 395.2c-3.6 0-6.6 3-6.6 6.6 0 3.6 3 6.6 6.6 6.6 3.6 0 6.6-3 6.6-6.6 0-3.7-3-6.6-6.6-6.6zM465.8 342c-3.6 0-6.6 3-6.6 6.6 0 3.6 3 6.6 6.6 6.6 3.6 0 6.6-3 6.6-6.6 0-3.6-3-6.6-6.6-6.6zM465.8 359.7c-3.6 0-6.6 3-6.6 6.6 0 3.6 3 6.6 6.6 6.6 3.6 0 6.6-3 6.6-6.6 0-3.6-3-6.6-6.6-6.6zM501.3 412.9c-3.6 0-6.6 3-6.6 6.6 0 3.6 3 6.6 6.6 6.6 3.6 0 6.6-3 6.6-6.6-.1-3.6-3-6.6-6.6-6.6zM519 412.9c-3.6 0-6.6 3-6.6 6.6 0 3.6 3 6.6 6.6 6.6 3.6 0 6.6-3 6.6-6.6 0-3.6-3-6.6-6.6-6.6zM465.8 377.5c-3.6 0-6.6 3-6.6 6.6 0 3.6 3 6.6 6.6 6.6 3.6 0 6.6-3 6.6-6.6 0-3.7-3-6.6-6.6-6.6zM448.1 359.7c-3.6 0-6.6 3-6.6 6.6 0 3.6 3 6.6 6.6 6.6 3.6 0 6.6-3 6.6-6.6-.1-3.6-3-6.6-6.6-6.6zM483.5 377.5c-3.6 0-6.6 3-6.6 6.6 0 3.6 3 6.6 6.6 6.6 3.6 0 6.6-3 6.6-6.6 0-3.7-3-6.6-6.6-6.6zM519 377.5c-3.6 0-6.6 3-6.6 6.6 0 3.6 3 6.6 6.6 6.6 3.6 0 6.6-3 6.6-6.6 0-3.7-3-6.6-6.6-6.6zM536.7 377.5c-3.6 0-6.6 3-6.6 6.6 0 3.6 3 6.6 6.6 6.6 3.6 0 6.6-3 6.6-6.6 0-3.7-3-6.6-6.6-6.6zM572.2 377.5c-3.6 0-6.6 3-6.6 6.6 0 3.6 3 6.6 6.6 6.6 3.6 0 6.6-3 6.6-6.6-.1-3.7-3-6.6-6.6-6.6zM554.4 395.2c-3.6 0-6.6 3-6.6 6.6 0 3.6 3 6.6 6.6 6.6 3.6 0 6.6-3 6.6-6.6 0-3.7-2.9-6.6-6.6-6.6zM554.4 377.5c-3.6 0-6.6 3-6.6 6.6 0 3.6 3 6.6 6.6 6.6 3.6 0 6.6-3 6.6-6.6 0-3.7-2.9-6.6-6.6-6.6zM572.2 395.2c-3.6 0-6.6 3-6.6 6.6 0 3.6 3 6.6 6.6 6.6 3.6 0 6.6-3 6.6-6.6-.1-3.7-3-6.6-6.6-6.6zM678.5 412.9c-3.6 0-6.6 3-6.6 6.6 0 3.6 3 6.6 6.6 6.6 3.6 0 6.6-3 6.6-6.6 0-3.6-2.9-6.6-6.6-6.6zM660.8 412.9c-3.6 0-6.6 3-6.6 6.6 0 3.6 3 6.6 6.6 6.6 3.6 0 6.6-3 6.6-6.6 0-3.6-3-6.6-6.6-6.6zM660.8 395.2c-3.6 0-6.6 3-6.6 6.6 0 3.6 3 6.6 6.6 6.6 3.6 0 6.6-3 6.6-6.6 0-3.7-3-6.6-6.6-6.6zM625.4 395.2c-3.6 0-6.6 3-6.6 6.6 0 3.6 3 6.6 6.6 6.6 3.6 0 6.6-3 6.6-6.6-.1-3.7-3-6.6-6.6-6.6zM625.4 377.5c-3.6 0-6.6 3-6.6 6.6 0 3.6 3 6.6 6.6 6.6 3.6 0 6.6-3 6.6-6.6-.1-3.7-3-6.6-6.6-6.6zM643.1 395.2c-3.6 0-6.6 3-6.6 6.6 0 3.6 3 6.6 6.6 6.6 3.6 0 6.6-3 6.6-6.6 0-3.7-3-6.6-6.6-6.6zM324 271.1c-3.6 0-6.6 3-6.6 6.6 0 3.6 3 6.6 6.6 6.6 3.6 0 6.6-3 6.6-6.6-.1-3.7-3-6.6-6.6-6.6zM359.4 40.6c-3.6 0-6.6 3-6.6 6.6 0 3.6 3 6.6 6.6 6.6 3.6 0 6.6-3 6.6-6.6 0-3.6-3-6.6-6.6-6.6zM377.1 40.6c-3.6 0-6.6 3-6.6 6.6 0 3.6 3 6.6 6.6 6.6 3.6 0 6.6-3 6.6-6.6 0-3.6-2.9-6.6-6.6-6.6zM678.5 40.6c-3.6 0-6.6 3-6.6 6.6 0 3.6 3 6.6 6.6 6.6 3.6 0 6.6-3 6.6-6.6 0-3.6-2.9-6.6-6.6-6.6zM696.3 40.6c-3.6 0-6.6 3-6.6 6.6 0 3.6 3 6.6 6.6 6.6 3.6 0 6.6-3 6.6-6.6 0-3.6-3-6.6-6.6-6.6zM802.7 58.3c-3.6 0-6.6 3-6.6 6.6 0 3.6 3 6.6 6.6 6.6 3.6 0 6.6-3 6.6-6.6-.1-3.6-3-6.6-6.6-6.6zM802.7 76.1c-3.6 0-6.6 3-6.6 6.6 0 3.6 3 6.6 6.6 6.6 3.6 0 6.6-3 6.6-6.6-.1-3.7-3-6.6-6.6-6.6zM820.4 76.1c-3.6 0-6.6 3-6.6 6.6 0 3.6 3 6.6 6.6 6.6 3.6 0 6.6-3 6.6-6.6 0-3.7-3-6.6-6.6-6.6zM838.1 58.3c-3.6 0-6.6 3-6.6 6.6 0 3.6 3 6.6 6.6 6.6 3.6 0 6.6-3 6.6-6.6 0-3.6-3-6.6-6.6-6.6zM820.4 58.3c-3.6 0-6.6 3-6.6 6.6 0 3.6 3 6.6 6.6 6.6 3.6 0 6.6-3 6.6-6.6 0-3.6-3-6.6-6.6-6.6zM714 40.6c-3.6 0-6.6 3-6.6 6.6 0 3.6 3 6.6 6.6 6.6 3.6 0 6.6-3 6.6-6.6 0-3.6-3-6.6-6.6-6.6zM731.7 40.6c-3.6 0-6.6 3-6.6 6.6 0 3.6 3 6.6 6.6 6.6 3.6 0 6.6-3 6.6-6.6 0-3.6-2.9-6.6-6.6-6.6zM660.8 40.6c-3.6 0-6.6 3-6.6 6.6 0 3.6 3 6.6 6.6 6.6 3.6 0 6.6-3 6.6-6.6 0-3.6-3-6.6-6.6-6.6zM660.8 22.9c-3.6 0-6.6 3-6.6 6.6 0 3.6 3 6.6 6.6 6.6 3.6 0 6.6-3 6.6-6.6 0-3.7-3-6.6-6.6-6.6zM75.7 501.6c-3.6 0-6.6 3-6.6 6.6 0 3.6 3 6.6 6.6 6.6 3.6 0 6.6-3 6.6-6.6 0-3.7-2.9-6.6-6.6-6.6zM93.5 501.6c-3.6 0-6.6 3-6.6 6.6 0 3.6 3 6.6 6.6 6.6 3.6 0 6.6-3 6.6-6.6-.1-3.7-3-6.6-6.6-6.6zM111.2 501.6c-3.6 0-6.6 3-6.6 6.6 0 3.6 3 6.6 6.6 6.6 3.6 0 6.6-3 6.6-6.6 0-3.7-3-6.6-6.6-6.6zM128.9 501.6c-3.6 0-6.6 3-6.6 6.6 0 3.6 3 6.6 6.6 6.6 3.6 0 6.6-3 6.6-6.6 0-3.7-3-6.6-6.6-6.6zM75.7 519.3c-3.6 0-6.6 3-6.6 6.6 0 3.6 3 6.6 6.6 6.6 3.6 0 6.6-3 6.6-6.6 0-3.6-2.9-6.6-6.6-6.6zM93.5 519.3c-3.6 0-6.6 3-6.6 6.6 0 3.6 3 6.6 6.6 6.6 3.6 0 6.6-3 6.6-6.6-.1-3.6-3-6.6-6.6-6.6zM111.2 519.3c-3.6 0-6.6 3-6.6 6.6 0 3.6 3 6.6 6.6 6.6 3.6 0 6.6-3 6.6-6.6 0-3.6-3-6.6-6.6-6.6zM93.5 537c-3.6 0-6.6 3-6.6 6.6 0 3.6 3 6.6 6.6 6.6 3.6 0 6.6-3 6.6-6.6-.1-3.6-3-6.6-6.6-6.6zM111.2 537c-3.6 0-6.6 3-6.6 6.6 0 3.6 3 6.6 6.6 6.6 3.6 0 6.6-3 6.6-6.6 0-3.6-3-6.6-6.6-6.6zM128.9 519.3c-3.6 0-6.6 3-6.6 6.6 0 3.6 3 6.6 6.6 6.6 3.6 0 6.6-3 6.6-6.6 0-3.6-3-6.6-6.6-6.6z"/></g><g><path class="st6" d="M268.4 11.3h-426.6c-9.4 0-12.8 5.5-12.8 14.9v292.2H289.7V26.2c0-9.4-11.9-14.9-21.3-14.9z"/><path class="st6" d="M-158.2 369.6h426.6c9.4 0 21.3-9.8 21.3-19.2v-34.1 17.1-14.9H-171v14.9-17.1 34.1c0 9.4 3.5 19.2 12.8 19.2z"/><path class="st7" d="M-153.9 36.9h426.6v264.5h-426.6z"/><path class="st8" d="M-17.4 369.6h136.5v8.5H-17.4z"/><path class="st9" d="M-132.6 71H42.3v12.8h-174.9zM-132.6 117.9H42.3v12.8h-174.9zM-132.6 164.8H42.3v12.8h-174.9zM-132.6 211.7H42.3v12.8h-174.9zM-132.6 258.7H42.3v12.8h-174.9zM76.4 71h174.9v12.8H76.4zM76.4 117.9h174.9v12.8H76.4zM76.4 164.8h174.9v12.8H76.4zM76.4 211.7h174.9v12.8H76.4zM76.4 258.7h174.9v12.8H76.4z"/><path class="st10" d="M52 450.3h38.1v27.2H52z"/><path class="st7" d="M-41.7 171.5h223.2v276.6H-41.7z"/><path class="st11" d="M168.2 158.9h-195c-14.6 0-26.4 11.8-26.4 26.4v286h18.3V177.6h211.3v266.8H-53v39.7h221.2c14.6 0 26.4-11.8 26.4-26.4V185.3c.1-14.6-11.8-26.4-26.4-26.4zM70.7 475.3c-5.8 0-10.5-4.7-10.5-10.5s4.7-10.5 10.5-10.5 10.5 4.7 10.5 10.5-4.7 10.5-10.5 10.5z"/><path class="st9" d="M-9.4 225.5h52.5v12.8H-9.4zM-9.4 271.2h52.5V284H-9.4zM-9.4 317h52.5v12.8H-9.4zM-9.4 362.8h52.5v12.8H-9.4z"/><path class="st12" d="M62.2 386h-99.9c-10.2 0-18.3 7.7-18.3 17.9V484H80v-80.1c0-10.2-7.6-17.9-17.8-17.9z"/><path class="st7" d="M-63 403.9H65.5v155.4H-63z"/><path class="st10" d="M-18.7 385.9h46.1v14h-46.1z"/><path class="st11" d="M51.9 374H-48c-10.2 0-18.4 8.3-18.4 18.4v179.8c0 10.2 8.3 18.4 18.4 18.4h99.9c10.2 0 18.4-8.3 18.4-18.4V392.5c0-10.2-8.2-18.5-18.4-18.5zm-62.7 15.8h25.6c1.3 0 2.4 1.1 2.4 2.4 0 1.3-1.1 2.4-2.4 2.4h-25.6c-1.3 0-2.4-1.1-2.4-2.4 0-1.3 1.1-2.4 2.4-2.4zm74.2 166.8h-123V408.2h123v148.4z"/><path class="st9" d="M-43.7 429.1h86.8v12.8h-86.8zM-43.7 470.3h86.8v12.8h-86.8zM-43.7 511.5h86.8v12.8h-86.8z"/><path class="st13" d="M71.1 204.9h84.7v69.8H71.1zM71.1 296.4h84.7v69.8H71.1z"/><path class="st14" d="M253.2 353.1c-6.1 0-11-5-11-11 0-6.1 5-11 11-11 6.1 0 11 5 11 11s-4.9 11-11 11z"/><path class="st9" d="M88.5 554H80v17h8.5c3.6 0 6.5-3.6 6.5-7.3v-2.9c0-3.6-2.9-6.8-6.5-6.8zM74.4 572.4h2.3c.6 0 1.1-.5 1.1-1.1v-17.8c0-.6-.5-1.1-1.1-1.1h-2.3c-.6 0-1.1.5-1.1 1.1v17.8c0 .7.5 1.1 1.1 1.1z"/><path class="st9" d="M74.4 572.4h2.3c.6 0 1.1-.5 1.1-1.1v-17.8c0-.6-.5-1.1-1.1-1.1h-2.3c-.6 0-1.1.5-1.1 1.1v17.8c0 .7.5 1.1 1.1 1.1z"/><path class="st6" d="M80 563v8h8.5c3.6 0 6.5-3.6 6.5-7.3v-.7H80z"/><path class="st9" d="M136 502.5V493h17v9.5c0 3.6-3.3 6.5-6.9 6.5h-2.9c-3.6 0-7.2-2.8-7.2-6.5zM154.8 487.6v2.3c0 .6-.5 1.1-1.1 1.1h-17.8c-.6 0-1.1-.5-1.1-1.1v-2.3c0-.6.5-1.1 1.1-1.1h17.8c.6.1 1.1.5 1.1 1.1z"/><path class="st9" d="M154.8 487.6v2.3c0 .6-.5 1.1-1.1 1.1h-17.8c-.6 0-1.1-.5-1.1-1.1v-2.3c0-.6.5-1.1 1.1-1.1h17.8c.6.1 1.1.5 1.1 1.1z"/><path class="st6" d="M145 493h8v9.5c0 3.6-3.3 6.5-6.9 6.5H145v-16z"/><path class="st15" d="M1.9 585.1c-6.1 0-11.9-5-11.9-11 0-6.1 5.8-11 11.9-11 6.1 0 11 5 11 11 0 6.1-4.9 11-11 11z"/><path class="st13" d="M98.5 563h415.8c38 0 68.9-30.7 69.1-68.8l.3-41.1v2.3"/><path class="st13" d="M248.2 397.5v92.2c0 22.8 18.5 41.3 41.3 41.3h238.1c30.9 0 56-25.1 56-56v-36.7 17.2"/><path class="st9" d="M239 388.1V379h17v9.1c0 3.6-3.3 6.9-6.9 6.9h-2.9c-3.7 0-7.2-3.3-7.2-6.9zM257.8 373.2v2.3c0 .6-.5 1.1-1.1 1.1h-17.8c-.6 0-1.1-.5-1.1-1.1v-2.3c0-.6.5-1.1 1.1-1.1h17.8c.6 0 1.1.5 1.1 1.1z"/><path class="st9" d="M257.8 373.2v2.3c0 .6-.5 1.1-1.1 1.1h-17.8c-.6 0-1.1-.5-1.1-1.1v-2.3c0-.6.5-1.1 1.1-1.1h17.8c.6 0 1.1.5 1.1 1.1z"/><path class="st6" d="M248 379h8v9.1c0 3.6-3.3 6.9-6.9 6.9H248v-16z"/><path class="st13" d="M145.4 511.5v19.7c0 17.6 14.2 31.8 31.8 31.8h16.2"/><path class="st16" d="M837.2 405.7V434h28.3zM866.6 432.9v-28.2h-28.3zM867.7 405.7V434h28.2zM897 463.9v-28.3h-28.3zM867.7 436.7v28.2h28.2z"/><path class="st17" d="M585.8 480.5l54.9-67.6-67.3 1.4 8.5 60z"/><path class="st4" d="M585.9 480.2h-5.5l-51.6-72.4h108.7z"/><path class="st11" d="M582.8 480h3.1l51.6-71h-38.7z"/></g><g><path class="st18" d="M789.5 54.2H512c-3.2 0-5.8 2.6-5.8 5.8v11.6h289V60c.1-3.2-2.5-5.8-5.7-5.8z"/><circle class="st9" cx="518.8" cy="62.9" r="3.8"/><circle class="st9" cx="536.3" cy="62.9" r="3.8"/><circle class="st9" cx="553.8" cy="62.9" r="3.8"/><path class="st9" d="M573.3 57.1h210.3v11.7H573.3z"/><path class="st14" d="M506.2 71.7v309.9c0 3.2 2.6 5.8 5.8 5.8h277.4c3.2 0 5.8-2.6 5.8-5.8V71.7h-289z"/><path class="st9" d="M667.9 276.3h109.2v8.8H667.9zM667.9 308.4h109.2v8.8H667.9zM667.9 340.5h109.2v8.8H667.9z"/><path class="st7" d="M614.2 89.2h70.1v49.6h-70.1zM706.3 89.2h70.1v49.6h-70.1z"/><path class="st9" d="M754.7 125.2l-11.1-11.1 9.7-9.7-1.4-1.4-9.7 9.7-9.7-9.7-1.4 1.4 9.7 9.7-11.1 11.1 1.4 1.4 11.1-11.1 11.1 11.1z"/><path class="st7" d="M668.6 171h109.2v73H668.6z"/><path class="st9" d="M735.7 218.7l-11.1-11.1 9.7-9.7-1.4-1.4-9.7 9.7-9.7-9.7-1.4 1.4 9.7 9.7-11.1 11.1 1.4 1.4 11.1-11.1 11.1 11.1z"/><path class="st7" d="M524.6 275.8h108.3v75.4H524.6z"/><path class="st19" d="M512 73.2c-3.2 0-5.8 2.6-5.8 5.8v261.2h160.4c3.2 0 5.8-2.6 5.8-5.8V73.2H512z"/><g><path class="st14" d="M656.6 0H378.8c-3.2 0-5.8 2.6-5.8 5.8v11.6h289.3V5.8c.1-3.2-2.5-5.8-5.7-5.8z"/><circle class="st9" cx="385.6" cy="8.8" r="3.8"/><circle class="st9" cx="403.1" cy="8.8" r="3.8"/><circle class="st9" cx="420.7" cy="8.8" r="3.8"/><path class="st9" d="M440.2 2.9h210.5v11.7H440.2z"/><path class="st7" d="M373 17.5v307.6c0 3.2 2.6 5.8 5.8 5.8h277.7c3.2 0 5.8-2.6 5.8-5.8V17.5H373z"/><path class="st9" d="M529.7 43.9H639v8.8H529.7zM529.7 76H639v8.8H529.7zM529.7 108.2H639v8.8H529.7zM529.7 140.3H639v8.8H529.7zM529.7 172.5H639v8.8H529.7zM392.9 215.2h109.3v8.8H392.9zM392.9 247.3h109.3v8.8H392.9zM392.9 279.5h109.3v8.8H392.9z"/><path class="st20" d="M393.5 43.9h109v61.4h-109z"/><path class="st9" d="M461.7 85.4l-11.1-11.2 9.7-9.7-1.3-1.4-9.8 9.7-9.7-9.7-1.4 1.4 9.7 9.7-11.1 11.2 1.4 1.3 11.1-11.1 11.1 11.1z"/><path class="st20" d="M393.5 118.1h109v61.4h-109zM531 212.9h108.3v75.4H531z"/><path class="st9" d="M461.7 159.6l-11.1-11.1 9.7-9.7-1.3-1.4-9.8 9.7-9.7-9.7-1.4 1.4 9.7 9.7-11.1 11.1 1.4 1.4 11.1-11.1 11.1 11.1zM597.6 261.6l-11.1-11.1 9.7-9.7-1.3-1.4-9.8 9.7-9.7-9.7-1.4 1.4 9.7 9.7-11.1 11.1 1.4 1.4 11.1-11.1 11.1 11.1z"/></g></g></svg>