<svg xmlns="http://www.w3.org/2000/svg" viewBox="0 0 263 47.7"><path fill="#EEE" d="M.7 7.1c-.4.2-.7.7-.7 1.1v30.2c0 .4.3.9.7 1.1l13.7 7.3c.4.2 1 .2 1.3 0l20.6-11.1c.4-.2.7-.7.7-1.1V12.3c0-.4-.3-.9-.7-1.1L15.4.1c-.4-.2-1-.2-1.3 0L.7 7.1z"/><g fill="#0084B5"><path d="M57.3 17.6c1.3-2.1 3.2-3.8 6.2-3.8 2.6 0 3.9 1.7 4.3 3.6h.1c1.1-1.9 3.3-3.6 5.9-3.6 4.5 0 4.5 4.2 4.5 7v14.6h-6.9V23.9c0-1.1.3-4.2-1.7-4.2-1.6 0-1.9 1.4-1.9 2.4v13.3h-6.9V23.5c0-1 .3-3.7-1.6-3.7-1.7 0-2 1.3-2 2.4v13.1h-6.9V14.2h6.9v3.4zM98.4 26.3h-11c0 1.5 0 4.9 2.6 4.9 1.8 0 2.2-1.2 2.2-2.4h5.9c-.6 3.9-2.8 6.9-7.8 6.9-7 0-9.5-5.3-9.5-10.6 0-5.1 2.2-11.4 9.4-11.4 4.6 0 8.8 3.5 8.4 10.1l-.2 2.5zm-5.9-4.1c0-1.4-.3-3.9-2.5-3.9-2.1 0-2.6 2.4-2.6 3.8v.6h5.1v-.5zM111.9 33c-1 1.6-2.5 2.8-4.7 2.8-5.6 0-6.7-7.6-6.7-11 0-3.6.8-11 6.6-11 2.3 0 3.9 1.3 4.7 3h.1V1.6h6.9v33.8h-6.9V33zm.5-8.3c0-1.2-.1-5.7-2.5-5.7-2.3 0-2.5 4.4-2.5 5.7 0 1.3.1 5.7 2.6 5.7 2.2 0 2.4-4.6 2.4-5.7zM120.8 7.9c0-2.1 2-3.7 4.5-3.7 2.4 0 4.3 1.8 4.3 3.8s-2 3.7-4.4 3.7c-2.5 0-4.4-1.7-4.4-3.8zm7.8 6.3v21.1h-6.9V14.2h6.9zM142.4 33c-1 1.6-2.5 2.8-4.7 2.8-5.6 0-6.7-7.6-6.7-11 0-3.6.8-11 6.6-11 2.3 0 3.9 1.3 4.7 3h.1v-2.6h6.9v21.1h-6.9V33zm.5-8.3c0-1.2-.1-5.7-2.5-5.7-2.3 0-2.5 4.4-2.5 5.7 0 1.3.1 5.7 2.6 5.7 2.2 0 2.4-4.6 2.4-5.7z"/><g><path d="M57.3 17.6c1.3-2.1 3.2-3.8 6.2-3.8 2.6 0 3.9 1.7 4.3 3.6h.1c1.1-1.9 3.3-3.6 5.9-3.6 4.5 0 4.5 4.2 4.5 7v14.6h-6.9V23.9c0-1.1.3-4.2-1.7-4.2-1.6 0-1.9 1.4-1.9 2.4v13.3h-6.9V23.5c0-1 .3-3.7-1.6-3.7-1.7 0-2 1.3-2 2.4v13.1h-6.9V14.2h6.9v3.4zM98.4 26.3h-11c0 1.5 0 4.9 2.6 4.9 1.8 0 2.2-1.2 2.2-2.4h5.9c-.6 3.9-2.8 6.9-7.8 6.9-7 0-9.5-5.3-9.5-10.6 0-5.1 2.2-11.4 9.4-11.4 4.6 0 8.8 3.5 8.4 10.1l-.2 2.5zm-5.9-4.1c0-1.4-.3-3.9-2.5-3.9-2.1 0-2.6 2.4-2.6 3.8v.6h5.1v-.5zM111.9 33c-1 1.6-2.5 2.8-4.7 2.8-5.6 0-6.7-7.6-6.7-11 0-3.6.8-11 6.6-11 2.3 0 3.9 1.3 4.7 3h.1V1.6h6.9v33.8h-6.9V33zm.5-8.3c0-1.2-.1-5.7-2.5-5.7-2.3 0-2.5 4.4-2.5 5.7 0 1.3.1 5.7 2.6 5.7 2.2 0 2.4-4.6 2.4-5.7zM120.8 7.9c0-2.1 2-3.7 4.5-3.7 2.4 0 4.3 1.8 4.3 3.8s-2 3.7-4.4 3.7c-2.5 0-4.4-1.7-4.4-3.8zm7.8 6.3v21.1h-6.9V14.2h6.9zM142.4 33c-1 1.6-2.5 2.8-4.7 2.8-5.6 0-6.7-7.6-6.7-11 0-3.6.8-11 6.6-11 2.3 0 3.9 1.3 4.7 3h.1v-2.6h6.9v21.1h-6.9V33zm.5-8.3c0-1.2-.1-5.7-2.5-5.7-2.3 0-2.5 4.4-2.5 5.7 0 1.3.1 5.7 2.6 5.7 2.2 0 2.4-4.6 2.4-5.7z"/></g></g><g fill="#565656"><path d="M166.7 19.6c-1-.8-1.9-1.4-3.3-1.4-1.2 0-1.9.6-1.9 1.5.1 2.5 7.9 2 7.9 8.3 0 4.2-2.8 7.4-7.9 7.4-2.6 0-5.4-1-7.5-2.4l3-4.2c1 .8 2.1 1.4 3.4 1.4 1.1 0 2-.7 2-1.8.1-2.8-7.9-2.1-7.9-8.8 0-4 3.9-6.2 8.3-6.2 2.5 0 4.6.5 6.6 1.8l-2.7 4.4zM189.4 26.1h-10.9c0 1.5 0 4.9 2.6 4.9 1.8 0 2.2-1.2 2.2-2.4h5.9c-.6 3.9-2.8 6.9-7.8 6.9-7 0-9.5-5.3-9.5-10.6 0-5.1 2.2-11.4 9.4-11.4 4.6 0 8.8 3.5 8.4 10.1l-.3 2.5zm-5.9-4.2c0-1.4-.3-3.9-2.5-3.9-2.1 0-2.5 2.4-2.5 3.8v.6h5.1v-.5zM198.9 13.9v2.6h.1c1.3-1.8 2.9-3.1 5.6-3.3v5.7c-.3 0-.7-.1-1.1-.1-4.6 0-4.7 2.6-4.7 5.7v10.6H192V13.9h6.9zM213.7 13.9l3.3 11.6v.3h.1l.5-2.2 2.7-9.8h7.2l-7.2 21.1H214l-7.1-21.1h6.8zM246.7 26.1h-10.9c0 1.5 0 4.9 2.6 4.9 1.8 0 2.2-1.2 2.2-2.4h5.9c-.6 3.9-2.8 6.9-7.8 6.9-7 0-9.5-5.3-9.5-10.6 0-5.1 2.2-11.4 9.4-11.4 4.6 0 8.8 3.5 8.4 10.1l-.3 2.5zm-5.8-4.2c0-1.4-.3-3.9-2.5-3.9-2.1 0-2.6 2.4-2.6 3.8v.6h5.1v-.5zM256.3 13.9v2.6h.1c1.3-1.8 2.9-3.1 5.6-3.3v5.7c-.3 0-.7-.1-1.1-.1-4.6 0-4.7 2.6-4.7 5.7v10.6h-6.9V13.9h7z"/></g><path fill="#0099C9" d="M17 2.6c-.4-.2-.7 0-.7.4v10.4c0 .4.3.8.7.9l18.4 4.1c.4.1.7-.2.7-.6v-4.7c0-.4-.3-.9-.7-1.1L17 2.6z"/><path fill="#0084B5" d="M17.1 16.9c-.4-.1-.8.2-.8.6v11.3c0 .4.3.7.8.6l18.4-2.6c.4-.1.8-.4.8-.9v-5.2c0-.4-.3-.8-.8-.9l-18.4-2.9zM17.1 32c-.4.1-.7.5-.7.9v11.3c0 .4.3.6.7.4l18.6-9.5c.4-.2.7-.7.7-1.1v-5.2c0-.4-.3-.7-.7-.6L17.1 32z"/><path fill="#565656" d="M.8 9.1c0-.4.3-.9.7-1.1l12.3-6.3c.4-.2.7 0 .7.4v11c0 .4-.3.8-.7.9L1.5 16.7c-.4.1-.7-.2-.7-.6v-7zM.8 19c0-.4.3-.8.8-.9l12.2-2c.4-.1.8.2.8.6v11.9c0 .4-.3.7-.8.6L1.5 27.5c-.4-.1-.8-.4-.8-.9V19zM.8 30c0-.4.3-.7.7-.6l12.2 2.5c.4.1.7.5.7.9v11.8c0 .4-.3.6-.7.4L1.4 38.8c-.4-.2-.7-.7-.7-1.1V30z"/></svg>