<svg xmlns="http://www.w3.org/2000/svg" width="464" height="574" viewBox="0 0 464 574"><path fill="#EEE" d="M6.6 100.9c-.6.3-1.2 1.2-1.2 1.9v52.7c0 .7.5 1.6 1.2 1.9l24 12.8c.6.3 1.7.3 2.3 0l35.9-19.3c.6-.3 1.2-1.2 1.2-1.9v-39c0-.7-.5-1.6-1.2-1.9L32.3 88.8c-.6-.3-1.7-.3-2.3 0L6.6 100.9z"/><g fill="#0084B5"><path d="M105.4 119.2h.2c2.1-3.6 5.5-6.6 10.6-6.6 4.4 0 6.8 2.9 7.4 6.3h.2c2-3.3 5.7-6.3 10.4-6.3 7.8 0 7.8 7.4 7.8 12.1v25.5h-12.1v-20c0-1.9.6-7.3-3-7.3-2.8 0-3.3 2.5-3.3 4.2v23.2h-12.1v-20.7c0-1.8.6-6.5-2.8-6.5-3 0-3.4 2.3-3.4 4.2v22.9h-12v-36.9h12.1v5.9zM177 134.5h-19c.1 2.7-.1 8.5 4.5 8.5 3.1 0 3.9-2 3.9-4.2h10.3c-1 6.8-4.9 12.1-13.7 12.1-12.2 0-16.6-9.3-16.6-18.4 0-8.8 3.8-19.9 16.3-19.9 8 0 15.3 6.1 14.6 17.7l-.3 4.2zm-10.1-7.3c0-2.4-.6-6.8-4.4-6.8-3.7 0-4.4 4.2-4.4 6.6v1.1h8.8v-.9zM200.7 146h-.2c-1.6 2.8-4.1 4.9-8 4.9-9.8 0-11.7-13.3-11.7-19.2 0-6.4 1.5-19.1 11.6-19.1 4 0 6.8 2.3 8.1 5.3h.2V91.2h12.1v58.9h-12.1V146zm.9-14.5c0-2-.3-9.9-4.4-9.9-4 0-4.3 7.7-4.3 9.9 0 2.3.2 9.9 4.5 9.9 3.9.1 4.2-7.9 4.2-9.9zM216.1 102.3c0-3.7 3.5-6.5 7.9-6.5 4.2 0 7.4 3.1 7.4 6.6s-3.5 6.5-7.7 6.5-7.6-3-7.6-6.6zm13.7 11v36.9h-12.1v-36.9h12.1zM254 146h-.2c-1.6 2.8-4.1 4.9-8 4.9-9.8 0-11.7-13.3-11.7-19.2 0-6.4 1.5-19.1 11.6-19.1 4 0 6.8 2.3 8.1 5.3h.2v-4.5h12v36.9h-12V146zm.8-14.5c0-2-.3-9.9-4.4-9.9-4 0-4.3 7.7-4.3 9.9 0 2.3.2 9.9 4.5 9.9 3.9.1 4.2-7.9 4.2-9.9z"/><g><path d="M105.4 119.2h.2c2.1-3.6 5.5-6.6 10.6-6.6 4.4 0 6.8 2.9 7.4 6.3h.2c2-3.3 5.7-6.3 10.4-6.3 7.8 0 7.8 7.4 7.8 12.1v25.5h-12.1v-20c0-1.9.6-7.3-3-7.3-2.8 0-3.3 2.5-3.3 4.2v23.2h-12.1v-20.7c0-1.8.6-6.5-2.8-6.5-3 0-3.4 2.3-3.4 4.2v22.9h-12v-36.9h12.1v5.9zM177 134.5h-19c.1 2.7-.1 8.5 4.5 8.5 3.1 0 3.9-2 3.9-4.2h10.3c-1 6.8-4.9 12.1-13.7 12.1-12.2 0-16.6-9.3-16.6-18.4 0-8.8 3.8-19.9 16.3-19.9 8 0 15.3 6.1 14.6 17.7l-.3 4.2zm-10.1-7.3c0-2.4-.6-6.8-4.4-6.8-3.7 0-4.4 4.2-4.4 6.6v1.1h8.8v-.9zM200.7 146h-.2c-1.6 2.8-4.1 4.9-8 4.9-9.8 0-11.7-13.3-11.7-19.2 0-6.4 1.5-19.1 11.6-19.1 4 0 6.8 2.3 8.1 5.3h.2V91.2h12.1v58.9h-12.1V146zm.9-14.5c0-2-.3-9.9-4.4-9.9-4 0-4.3 7.7-4.3 9.9 0 2.3.2 9.9 4.5 9.9 3.9.1 4.2-7.9 4.2-9.9zM216.1 102.3c0-3.7 3.5-6.5 7.9-6.5 4.2 0 7.4 3.1 7.4 6.6s-3.5 6.5-7.7 6.5-7.6-3-7.6-6.6zm13.7 11v36.9h-12.1v-36.9h12.1zM254 146h-.2c-1.6 2.8-4.1 4.9-8 4.9-9.8 0-11.7-13.3-11.7-19.2 0-6.4 1.5-19.1 11.6-19.1 4 0 6.8 2.3 8.1 5.3h.2v-4.5h12v36.9h-12V146zm.8-14.5c0-2-.3-9.9-4.4-9.9-4 0-4.3 7.7-4.3 9.9 0 2.3.2 9.9 4.5 9.9 3.9.1 4.2-7.9 4.2-9.9z"/></g></g><g fill="#565656"><path d="M296.3 122.7c-1.7-1.3-3.3-2.4-5.8-2.4-2.1 0-3.3 1.1-3.3 2.7.2 4.3 13.8 3.4 13.8 14.5 0 7.3-5 12.9-13.9 12.9-4.6 0-9.4-1.7-13-4.2l5.3-7.3c1.8 1.3 3.6 2.4 6 2.4 1.9 0 3.5-1.2 3.5-3.1.2-4.9-13.8-3.7-13.8-15.3 0-7 6.8-10.8 14.5-10.8 4.4 0 8 .9 11.6 3.1l-4.9 7.5zM335.8 134h-19.1c.1 2.7-.1 8.5 4.5 8.5 3.1 0 3.9-2 3.9-4.2h10.3c-1 6.8-4.9 12.1-13.7 12.1-12.2 0-16.6-9.3-16.6-18.4 0-8.8 3.8-19.9 16.3-19.9 8 0 15.3 6.1 14.6 17.7l-.2 4.2zm-10.2-7.2c0-2.4-.6-6.8-4.4-6.8-3.7 0-4.4 4.2-4.4 6.6v1.1h8.8v-.9zM352.5 112.8v4.5h.2c2.2-3.2 5.1-5.5 9.8-5.8v10c-.6-.1-1.2-.1-1.9-.1-8 0-8.1 4.5-8.1 10v18.4h-12.1v-36.9h12.1zM378.4 112.8l5.7 20.2.1.6h.2l.9-3.8 4.7-17h12.5L390 149.7h-11.2l-12.4-36.9h12zM435.9 134h-19.1c.1 2.7-.1 8.5 4.5 8.5 3.1 0 3.8-2 3.8-4.2h10.3c-1 6.8-4.9 12.1-13.7 12.1-12.2 0-16.6-9.3-16.6-18.4 0-8.8 3.8-19.9 16.3-19.9 8 0 15.3 6.1 14.6 17.7l-.1 4.2zm-10.2-7.2c0-2.4-.6-6.8-4.4-6.8-3.7 0-4.5 4.2-4.5 6.6v1.1h8.8v-.9zM452.5 112.8v4.5h.2c2.2-3.2 5.1-5.5 9.8-5.8v10c-.6-.1-1.2-.1-1.9-.1-8 0-8.1 4.5-8.1 10v18.4h-12.1v-36.9h12.1z"/></g><path fill="#0099C9" d="M35.1 93.1c-.6-.3-1.2 0-1.2.7V112c0 .7.6 1.4 1.3 1.6l32.2 7.2c.7.2 1.3-.3 1.3-1v-8.3c0-.7-.5-1.6-1.2-1.9L35.1 93.1z"/><path fill="#0084B5" d="M35.2 118c-.7-.1-1.3.4-1.3 1.1v19.7c0 .7.6 1.2 1.3 1.1l32.1-4.6c.7-.1 1.3-.8 1.3-1.5v-9c0-.7-.6-1.4-1.3-1.5L35.2 118zM35.2 144.3c-.7.1-1.3.9-1.3 1.6v19.7c0 .7.5 1 1.2.7l32.4-16.6c.6-.3 1.2-1.2 1.2-1.9v-9c0-.7-.6-1.2-1.3-1l-32.2 6.5z"/><path fill="#565656" d="M6.8 104.4c0-.7.5-1.6 1.2-1.9l21.5-11c.6-.3 1.2 0 1.2.7v19.1c0 .7-.6 1.4-1.3 1.6l-21.3 4.8c-.7.2-1.3-.3-1.3-1v-12.3zM6.8 121.7c0-.7.6-1.4 1.3-1.5l21.3-3.5c.7-.1 1.3.4 1.3 1.1v20.7c0 .7-.6 1.2-1.3 1.1l-21.3-3c-.7-.1-1.3-.8-1.3-1.5v-13.4zM6.8 140.8c0-.7.6-1.2 1.3-1l21.3 4.4c.7.1 1.3.9 1.3 1.6v20.7c0 .7-.5 1-1.2.7L8 156.1c-.6-.3-1.2-1.2-1.2-1.9v-13.4z"/><g><g fill="#0084B5"><path d="M19.3 321.5h.2c2.2-3.8 5.8-7 11.2-7 4.7 0 7.3 3.1 7.9 6.7h.2c2.1-3.5 6.1-6.7 11-6.7 8.2 0 8.2 7.8 8.2 12.8v27H45.2v-21.2c0-2 .6-7.7-3.2-7.7-3 0-3.4 2.6-3.4 4.4v24.5H25.8v-21.9c0-1.9.6-6.9-3-6.9-3.2 0-3.6 2.5-3.6 4.5v24.3H6.4v-39.1h12.8l.1 6.3zM95.2 337.7H75c.1 2.9-.1 9.1 4.8 9.1 3.3 0 4.1-2.2 4.1-4.5h10.9c-1.1 7.2-5.2 12.8-14.5 12.8-13 0-17.6-9.8-17.6-19.5 0-9.4 4-21.1 17.3-21.1 8.4 0 16.2 6.4 15.5 18.7l-.3 4.5zM84.4 330c0-2.6-.6-7.2-4.6-7.2-3.9 0-4.7 4.5-4.7 7v1.2h9.3v-1zM120.3 349.9h-.2c-1.7 2.9-4.4 5.2-8.4 5.2-10.3 0-12.4-14.1-12.4-20.3 0-6.7 1.5-20.3 12.2-20.3 4.3 0 7.2 2.4 8.6 5.6h.2v-28.2H133v62.4h-12.8v-4.4zm.9-15.3c0-2.2-.3-10.4-4.6-10.4s-4.5 8.2-4.5 10.4c0 2.5.2 10.5 4.7 10.5 4 0 4.4-8.4 4.4-10.5zM136.6 303.6c0-3.9 3.7-6.9 8.3-6.9 4.4 0 7.9 3.3 7.9 7s-3.7 6.9-8.2 6.9-8-3.2-8-7zm14.5 11.7v39.1h-12.8v-39.1h12.8zM176.6 349.9h-.2c-1.7 2.9-4.3 5.2-8.4 5.2-10.3 0-12.4-14.1-12.4-20.3 0-6.7 1.5-20.3 12.2-20.3 4.3 0 7.2 2.4 8.6 5.6h.2v-4.8h12.8v39.1h-12.8v-4.5zm.9-15.3c0-2.2-.3-10.4-4.6-10.4s-4.5 8.2-4.5 10.4c0 2.5.2 10.5 4.7 10.5 4.1 0 4.4-8.4 4.4-10.5z"/><g><path d="M19.3 321.5h.2c2.2-3.8 5.8-7 11.2-7 4.7 0 7.3 3.1 7.9 6.7h.2c2.1-3.5 6.1-6.7 11-6.7 8.2 0 8.2 7.8 8.2 12.8v27H45.2v-21.2c0-2 .6-7.7-3.2-7.7-3 0-3.4 2.6-3.4 4.4v24.5H25.8v-21.9c0-1.9.6-6.9-3-6.9-3.2 0-3.6 2.5-3.6 4.5v24.3H6.4v-39.1h12.8l.1 6.3zM95.2 337.7H75c.1 2.9-.1 9.1 4.8 9.1 3.3 0 4.1-2.2 4.1-4.5h10.9c-1.1 7.2-5.2 12.8-14.5 12.8-13 0-17.6-9.8-17.6-19.5 0-9.4 4-21.1 17.3-21.1 8.4 0 16.2 6.4 15.5 18.7l-.3 4.5zM84.4 330c0-2.6-.6-7.2-4.6-7.2-3.9 0-4.7 4.5-4.7 7v1.2h9.3v-1zM120.3 349.9h-.2c-1.7 2.9-4.4 5.2-8.4 5.2-10.3 0-12.4-14.1-12.4-20.3 0-6.7 1.5-20.3 12.2-20.3 4.3 0 7.2 2.4 8.6 5.6h.2v-28.2H133v62.4h-12.8v-4.4zm.9-15.3c0-2.2-.3-10.4-4.6-10.4s-4.5 8.2-4.5 10.4c0 2.5.2 10.5 4.7 10.5 4 0 4.4-8.4 4.4-10.5zM136.6 303.6c0-3.9 3.7-6.9 8.3-6.9 4.4 0 7.9 3.3 7.9 7s-3.7 6.9-8.2 6.9-8-3.2-8-7zm14.5 11.7v39.1h-12.8v-39.1h12.8zM176.6 349.9h-.2c-1.7 2.9-4.3 5.2-8.4 5.2-10.3 0-12.4-14.1-12.4-20.3 0-6.7 1.5-20.3 12.2-20.3 4.3 0 7.2 2.4 8.6 5.6h.2v-4.8h12.8v39.1h-12.8v-4.5zm.9-15.3c0-2.2-.3-10.4-4.6-10.4s-4.5 8.2-4.5 10.4c0 2.5.2 10.5 4.7 10.5 4.1 0 4.4-8.4 4.4-10.5z"/></g></g><g fill="#565656"><path d="M221.5 325.3c-1.8-1.4-3.5-2.6-6.2-2.6-2.3 0-3.4 1.2-3.4 2.9.2 4.6 14.6 3.6 14.6 15.3 0 7.7-5.3 13.7-14.7 13.7-4.9 0-10-1.8-13.8-4.5l5.6-7.7c1.9 1.4 3.8 2.6 6.3 2.6 2 0 3.7-1.2 3.7-3.2.2-5.2-14.6-3.9-14.6-16.2 0-7.4 7.2-11.5 15.3-11.5 4.6 0 8.5 1 12.2 3.3l-5 7.9zM263.3 337.2h-20.2c.1 2.9-.1 9.1 4.8 9.1 3.3 0 4.1-2.2 4.1-4.5h10.9c-1.1 7.2-5.2 12.8-14.5 12.8-13 0-17.6-9.8-17.6-19.5 0-9.4 4-21.1 17.3-21.1 8.4 0 16.2 6.4 15.5 18.7l-.3 4.5zm-10.7-7.7c0-2.6-.6-7.2-4.6-7.2-3.9 0-4.7 4.5-4.7 7v1.2h9.3v-1zM281 314.8v4.7h.2c2.4-3.4 5.4-5.8 10.4-6.2v10.6c-.6-.1-1.3-.2-2-.2-8.5 0-8.6 4.8-8.6 10.6v19.5h-12.8v-39.1H281zM308.4 314.8l6.1 21.4.1.6h.2l1-4 5-18H334l-13.2 39.1h-11.9l-13.1-39.1h12.6zM369.3 337.2h-20.2c.1 2.9-.1 9.1 4.8 9.1 3.3 0 4.1-2.2 4.1-4.5h10.9c-1.1 7.2-5.2 12.8-14.5 12.8-13 0-17.6-9.8-17.6-19.5 0-9.4 4-21.1 17.3-21.1 8.4 0 16.2 6.4 15.5 18.7l-.3 4.5zm-10.8-7.7c0-2.6-.6-7.2-4.6-7.2-3.9 0-4.7 4.5-4.7 7v1.2h9.3v-1zM387 314.8v4.7h.2c2.4-3.4 5.4-5.8 10.4-6.2v10.6c-.6-.1-1.3-.2-2-.2-8.5 0-8.6 4.8-8.6 10.6v19.5h-12.8v-39.1H387z"/></g></g><g><path fill="#EEE" d="M16.2 472c-.9.5-1.7 1.7-1.7 2.7V549c0 1 .7 2.2 1.6 2.7l33.8 18c.9.5 2.4.5 3.3 0l50.6-27.2c.9-.5 1.6-1.7 1.6-2.7v-55c0-1-.7-2.2-1.7-2.7l-51.4-27.2c-.9-.5-2.4-.5-3.3 0L16.2 472z"/><path fill="#0099C9" d="M56.3 461c-.9-.5-1.7 0-1.7 1v25.7c0 1 .8 2 1.8 2.3l45.4 10.2c1 .2 1.8-.4 1.8-1.4v-11.6c0-1-.7-2.2-1.7-2.7L56.3 461z"/><path fill="#0084B5" d="M56.5 496.1c-1-.2-1.9.5-1.9 1.5v27.8c0 1 .8 1.7 1.9 1.6l45.3-6.5c1-.1 1.9-1.1 1.9-2.1v-12.7c0-1-.8-2-1.9-2.1l-45.3-7.5zM56.5 533.2c-1 .2-1.8 1.2-1.8 2.2v27.8c0 1 .7 1.5 1.7 1l45.7-23.4c.9-.5 1.7-1.7 1.7-2.7v-12.7c0-1-.8-1.7-1.8-1.5l-45.5 9.3z"/><path fill="#565656" d="M16.4 476.9c0-1 .7-2.2 1.7-2.7l30.4-15.5c.9-.5 1.7 0 1.7 1v27c0 1-.8 2-1.8 2.3l-30 6.8c-1 .2-1.8-.4-1.8-1.4v-17.5zM16.4 501.3c0-1 .8-2 1.9-2.1l30-4.9c1-.2 1.9.5 1.9 1.5V525c0 1-.8 1.7-1.9 1.6l-30-4.3c-1-.1-1.9-1.1-1.9-2.1v-18.9zM16.4 528.3c0-1 .8-1.7 1.8-1.5l30 6.1c1 .2 1.8 1.2 1.8 2.2v29.2c0 1-.7 1.5-1.7 1l-30.4-15.5c-.9-.5-1.7-1.7-1.7-2.7v-18.8z"/></g></svg>