<svg xmlns="http://www.w3.org/2000/svg" xmlns:xlink="http://www.w3.org/1999/xlink" width="1188" height="1928" viewBox="0 0 1188 1928"><style><![CDATA[
.st34{fill:#0023A0}
.st35{fill:#005BA0}
.st4,.st40{fill:#0283B4}
.st38{fill:#06326E}
.st29,.st33{fill:#333333}
.st13{fill:#525252}
.st24{fill:#99D4E7}
.st30{fill:#9ACDEC}
.st31{fill:#9ACEE8}
.st47{fill:#CFCED2}
.st5{fill:#E40520}
.st19{fill:#FAB31E}
.st18,.st32,.st45{fill:#F18F09}
.st23{fill:#FA8A3B}
.st21{fill:#FFA000}
.st14,.st22{fill:#FEFEFE}
.st10,.st27,.st37{fill:#FFFFFF}
.st11{fill:#000000}
.st15,.st16{fill:none}
.st4,.st32,.st47{fill-rule:evenodd;clip-rule:evenodd}
.st16{stroke:#FFFFFF;stroke-width:4;stroke-miterlimit:10}
.st15{stroke:#FFFFFF;stroke-width:8.471;stroke-miterlimit:10}
.st10{clip-path:url(#SVGID_13_)}
.st8{fill:url(#SVGID_16_)}
.st8,.st14{clip-path:url(#SVGID_15_)}
]]></style><path class="st33" d="M82.292 1993.84c0-5.133-5.67-9.294-12.667-9.294-6.995 0-12.666 4.16-12.666 9.294 0 2.972 1.908 5.612 4.867 7.313-.19.256-.348.54-.442.853 0 0-2.38 7.86-1.692 8.183.632.294 6.75-6.168 7.728-7.206.718.094 1.452.15 2.205.15 6.996 0 12.667-4.16 12.667-9.294"/><path class="st33" d="M94.958 1998.95c0-4.952-5.28-8.988-11.934-9.268.682 1.284 1.066 2.687 1.066 4.156 0 5.39-5.056 9.89-11.725 10.872 2.32 2.15 5.9 3.532 9.926 3.532.755 0 1.49-.057 2.206-.15.977 1.038 7.095 7.5 7.728 7.205.688-.32-1.692-8.183-1.692-8.183-.095-.313-.25-.596-.442-.853 2.96-1.698 4.868-4.34 4.868-7.31"/><path class="st4" d="M230.292 1993.84c0-5.133-5.67-9.294-12.667-9.294-6.995 0-12.666 4.16-12.666 9.294 0 2.972 1.908 5.612 4.867 7.313-.19.256-.348.54-.442.853 0 0-2.38 7.86-1.692 8.183.632.294 6.75-6.168 7.728-7.206.718.094 1.452.15 2.205.15 6.996 0 12.667-4.16 12.667-9.294"/><path class="st4" d="M242.958 1998.95c0-4.952-5.28-8.988-11.934-9.268.682 1.284 1.066 2.687 1.066 4.156 0 5.39-5.056 9.89-11.725 10.872 2.32 2.15 5.9 3.532 9.926 3.532.755 0 1.49-.057 2.206-.15.977 1.038 7.095 7.5 7.728 7.205.688-.32-1.692-8.183-1.692-8.183-.095-.313-.25-.596-.442-.853 2.96-1.698 4.868-4.34 4.868-7.31"/><path class="st40" d="M230.292 1993.84c0-5.133-5.67-9.294-12.667-9.294-6.995 0-12.666 4.16-12.666 9.294 0 2.972 1.908 5.612 4.867 7.313-.19.256-.348.54-.442.853 0 0-2.38 7.86-1.692 8.183.632.294 6.75-6.168 7.728-7.206.718.094 1.452.15 2.205.15 6.996 0 12.667-4.16 12.667-9.294"/><path class="st40" d="M242.958 1998.95c0-4.952-5.28-8.988-11.934-9.268.682 1.284 1.066 2.687 1.066 4.156 0 5.39-5.056 9.89-11.725 10.872 2.32 2.15 5.9 3.532 9.926 3.532.755 0 1.49-.057 2.206-.15.977 1.038 7.095 7.5 7.728 7.205.688-.32-1.692-8.183-1.692-8.183-.095-.313-.25-.596-.442-.853 2.96-1.698 4.868-4.34 4.868-7.31"/><path class="st27" d="M378.292 1993.84c0-5.133-5.67-9.294-12.667-9.294-6.995 0-12.666 4.16-12.666 9.294 0 2.972 1.908 5.612 4.867 7.313-.19.256-.348.54-.442.853 0 0-2.38 7.86-1.692 8.183.632.294 6.75-6.168 7.728-7.206.718.094 1.452.15 2.205.15 6.996 0 12.667-4.16 12.667-9.294"/><path class="st27" d="M390.958 1998.95c0-4.952-5.28-8.988-11.934-9.268.682 1.284 1.066 2.687 1.066 4.156 0 5.39-5.056 9.89-11.725 10.872 2.32 2.15 5.9 3.532 9.926 3.532.755 0 1.49-.057 2.206-.15.977 1.038 7.095 7.5 7.728 7.205.688-.32-1.692-8.183-1.692-8.183-.095-.313-.25-.596-.442-.853 2.96-1.698 4.868-4.34 4.868-7.31"/><path class="st33" d="M499.958 2012.198h2.157v2.157h-2.157zM504.272 2012.198h2.157v2.157h-2.158zM508.585 2012.198h2.157v2.157h-2.157zM512.9 2012.198h2.156v2.157H512.9zM539.958 1989.47l-6.105-3.972-12.2 18.752-.005.006h.002l-2.175 10.018 8.276-6.046h.003l.003-.004 12.202-18.753zm-19.235 22.885l1.473-6.782 4.13 2.688-5.603 4.095z"/><path class="st33" d="M499.958 2012.198h2.157v2.157h-2.157zM504.272 2012.198h2.157v2.157h-2.158zM508.585 2012.198h2.157v2.157h-2.157zM512.9 2012.198h2.156v2.157H512.9zM539.958 1989.47l-6.105-3.972-12.2 18.752-.005.006h.002l-2.175 10.018 8.276-6.046h.003l.003-.004 12.202-18.753zm-19.235 22.885l1.473-6.782 4.13 2.688-5.603 4.095z"/><path class="st40" d="M647.958 2012.198h2.157v2.157h-2.157zM652.27 2012.198h2.158v2.157h-2.157zM656.585 2012.198h2.157v2.157h-2.157zM660.9 2012.198h2.155v2.157H660.9zM687.958 1989.47l-6.104-3.972-12.2 18.752-.005.006-2.174 10.018 8.275-6.046h.003l.003-.004h.002l12.2-18.753zm-19.234 22.885l1.473-6.782 4.13 2.688-5.603 4.095z"/><path class="st40" d="M647.958 2012.198h2.157v2.157h-2.157zM652.27 2012.198h2.158v2.157h-2.157zM656.585 2012.198h2.157v2.157h-2.157zM660.9 2012.198h2.155v2.157H660.9zM687.958 1989.47l-6.104-3.972-12.2 18.752-.005.006-2.174 10.018 8.275-6.046h.003l.003-.004h.002l12.2-18.753zm-19.234 22.885l1.473-6.782 4.13 2.688-5.603 4.095z"/><path class="st27" d="M103.5 835.78l-12.405-12.402c2.106-3.543 3.338-7.663 3.338-12.075 0-13.088-10.65-23.735-23.738-23.735s-23.737 10.647-23.737 23.735 10.65 23.738 23.737 23.738c5.074 0 9.77-1.614 13.633-4.336l12.124 12.123c.973.973 2.248 1.46 3.523 1.46s2.55-.487 3.524-1.46c1.945-1.947 1.945-5.1 0-7.047m-49.067-24.477c0-8.966 7.295-16.26 16.262-16.26s16.263 7.294 16.263 16.26c0 8.97-7.296 16.263-16.263 16.263-8.967 0-16.262-7.294-16.262-16.263"/><path class="st4" d="M251.5 835.78l-12.405-12.402c2.106-3.543 3.338-7.663 3.338-12.075 0-13.088-10.65-23.735-23.738-23.735s-23.737 10.647-23.737 23.735 10.65 23.738 23.737 23.738c5.074 0 9.77-1.614 13.633-4.336l12.124 12.123c.973.973 2.248 1.46 3.523 1.46s2.55-.487 3.524-1.46c1.945-1.947 1.945-5.1 0-7.047m-49.067-24.477c0-8.966 7.295-16.26 16.262-16.26s16.263 7.294 16.263 16.26c0 8.97-7.296 16.263-16.263 16.263-8.967 0-16.262-7.294-16.262-16.263"/><g class="st42"><defs><path id="SVGID_10_" d="M236.47 826.165h13.676v13.68H236.47z"/></defs><clipPath id="SVGID_13_"><use xlink:href="#SVGID_10_" overflow="visible"/></clipPath><path class="st10" d="M249.79 839.485c-.6.6-1.743.428-2.554-.383l-10.024-10.023c-.81-.812-.982-1.955-.383-2.554.6-.6 1.742-.428 2.553.382l10.023 10.024c.81.81.982 1.954.383 2.553"/></g><g class="st42"><defs><path id="SVGID_8_" d="M204.86 796.895h24.943v25.12H204.86z"/></defs><clipPath id="SVGID_14_"><use xlink:href="#SVGID_8_" overflow="visible"/></clipPath><path class="st37" d="M206.292 804.78c-2.966 6.07-1.16 13.225 3.95 17.23l3.503-4.396c-3.092-2.397-4.188-6.71-2.402-10.364 2.046-4.184 7.097-5.918 11.282-3.873 1.15.562 2.105 1.355 2.857 2.29l4.32-3.592c-1.244-1.528-2.82-2.826-4.707-3.75-6.975-3.408-15.393-.518-18.803 6.456"/></g><path class="st27" d="M94.958 517.005h-16v-16h-6v16h-16v6h16v16h6v-16h16M204.958 517.005h38v6h-38zM512.964 541.005l-17.006-20.718 4.646-3.71 12.325 15.017 26.354-32.59 4.674 3.675"/><path class="st33" d="M391.958 391.927h-40v-40h40v40zm-38.277-1.722h36.556V353.65H353.68v36.555z"/><path class="st4" d="M499.958 351.927h40v40h-40z"/><path class="st27" d="M515.878 384.084L505.958 372l2.71-2.165 7.19 8.76 15.374-19.01 2.726 2.142"/><path class="st33" d="M686.958 368.927h-16v-16h-6v16h-16v6h16v16h6v-16h16M168.04 2192.75c0-9.987-8.095-18.082-18.08-18.082-9.988 0-18.083 8.095-18.083 18.082 0 8.23 5.505 15.165 13.03 17.353L84.91 2339.1h8.752l56.297-37.53 56.296 37.53h8.752l-59.998-128.997c7.525-2.188 13.03-9.122 13.03-17.353m-69.645 134.504l21.323-45.844 23.722 15.813-45.045 30.03zm103.126 0l-45.043-30.03 23.72-15.813 21.324 45.844zm-24.407-52.48l-27.154 18.104-27.156-18.103 27.155-58.382 27.153 58.382z"/><path class="st33" d="M106.775 2269.337l3.017-6.614c-24.22-13.96-40.6-40.066-40.6-69.974 0-44.534 36.232-80.77 80.766-80.77 44.534 0 80.766 36.235 80.766 80.77 0 29.906-16.38 56.012-40.6 69.973l3.017 6.614c26.715-15.12 44.818-43.76 44.818-76.588 0-48.525-39.478-87.998-88-87.998s-88 39.473-88 87.997c0 32.828 18.104 61.466 44.817 76.587"/><path class="st33" d="M177.546 2235.148l3.018 6.615c16.337-10.236 27.257-28.352 27.257-49.015 0-31.907-25.957-57.86-57.862-57.86-31.906 0-57.863 25.953-57.863 57.86 0 20.663 10.92 38.778 27.257 49.015l3.018-6.615c-13.85-9.045-23.04-24.657-23.04-42.4 0-27.916 22.71-50.63 50.628-50.63s50.63 22.714 50.63 50.63c0 17.743-9.19 33.356-23.042 42.4"/><path class="st13" d="M208.715 222.708h6.507c.54-3.894 3.626-6.977 7.518-7.52v-6.508c-7.466.593-13.433 6.56-14.025 14.028M232.694 222.708h6.507c-.59-7.468-6.557-13.436-14.024-14.028v6.51c3.892.542 6.977 3.625 7.518 7.518M215.223 225.144h-6.507c.592 7.468 6.56 13.436 14.025 14.028v-6.51c-3.89-.54-6.976-3.624-7.517-7.518M225.176 232.663v6.51c7.466-.593 13.433-6.56 14.025-14.03h-6.506c-.54 3.895-3.626 6.978-7.518 7.52"/><path class="st18" d="M1004.948 1555.927l-2.714 3.55 2.023 3.983-3.32 2.99 1.252 4.29-3.815 2.323.437 4.447-4.177 1.583-.386 4.45-4.397.792-1.192 4.305-4.467-.026-1.96 4.013-4.386-.847-2.67 3.582-4.152-1.645-3.285 3.027-3.78-2.38-3.783 2.38-3.285-3.027-4.154 1.644-2.67-3.58-4.386.846-1.96-4.013-4.468.025-1.192-4.305-4.396-.792-.385-4.45-4.176-1.582.437-4.445-3.813-2.325 1.25-4.288-3.317-2.99 2.022-3.984-2.713-3.55 2.712-3.548-2.022-3.984 3.318-2.99-1.25-4.29 3.814-2.324-.438-4.446 4.178-1.583.386-4.45 4.395-.79 1.193-4.306 4.467.026 1.96-4.013 4.386.847 2.668-3.582 4.154 1.645 3.285-3.027 3.782 2.38 3.78-2.38 3.284 3.027 4.155-1.644 2.67 3.582 4.384-.847 1.96 4.013 4.47-.024 1.19 4.305 4.397.793.386 4.45 4.177 1.583-.437 4.445 3.813 2.326-1.252 4.288 3.32 2.99-2.024 3.984"/><path class="st27" d="M953.135 1551.18c0 3.63-.78 6.26-2.348 7.884s-4.07 2.437-7.516 2.437c-1.134 0-1.996-.042-2.59-.126v-3.974c.73.136 1.456.203 2.186.203 1.795 0 3.177-.37 4.15-1.11.975-.74 1.503-1.91 1.587-3.51h-.15c-.332.607-.658 1.05-.98 1.318-.32.272-.716.48-1.18.624-.465.146-1.046.218-1.74.218-1.607 0-2.864-.54-3.77-1.613-.907-1.076-1.36-2.56-1.36-4.445 0-2.056.588-3.67 1.76-4.838s2.777-1.75 4.818-1.75c2.27 0 4.025.752 5.27 2.258 1.244 1.507 1.865 3.648 1.865 6.425m-6.994-4.672c-.55 0-.995.197-1.34.597-.34.397-.513 1.037-.513 1.916 0 .695.148 1.25.446 1.658.295.41.747.615 1.356.615.55 0 1.03-.2 1.436-.598.405-.396.608-.874.608-1.434 0-.753-.188-1.398-.565-1.94s-.853-.812-1.43-.812M967.668 1551.18c0 3.63-.78 6.26-2.348 7.884s-4.07 2.437-7.516 2.437c-1.135 0-1.997-.042-2.59-.126v-3.974c.73.136 1.455.203 2.185.203 1.794 0 3.176-.37 4.15-1.11.974-.74 1.502-1.91 1.586-3.51h-.15c-.332.607-.658 1.05-.98 1.318-.32.272-.716.48-1.18.624-.465.146-1.046.218-1.74.218-1.607 0-2.864-.54-3.77-1.613-.907-1.076-1.36-2.56-1.36-4.445 0-2.056.588-3.67 1.76-4.838s2.777-1.75 4.818-1.75c2.268 0 4.024.752 5.268 2.258 1.245 1.507 1.866 3.648 1.866 6.425m-6.994-4.672c-.55 0-.996.197-1.34.597-.342.397-.514 1.037-.514 1.916 0 .695.148 1.25.446 1.658.295.41.747.615 1.356.615.55 0 1.03-.2 1.437-.598.404-.396.607-.874.607-1.434 0-.753-.188-1.398-.565-1.94s-.852-.812-1.428-.812M968.908 1559.14c0-.78.23-1.38.69-1.804s1.134-.635 2.015-.635c.836 0 1.48.212 1.93.636.447.424.673 1.024.673 1.803 0 .762-.23 1.354-.692 1.782s-1.097.64-1.91.64c-.84 0-1.5-.21-1.98-.632-.486-.424-.726-1.02-.726-1.79M989.014 1551.18c0 3.63-.78 6.26-2.348 7.884s-4.07 2.437-7.516 2.437c-1.135 0-1.997-.042-2.59-.126v-3.974c.73.136 1.455.203 2.185.203 1.795 0 3.177-.37 4.15-1.11.975-.74 1.503-1.91 1.587-3.51h-.15c-.332.607-.658 1.05-.98 1.318-.32.272-.716.48-1.18.624-.465.146-1.046.218-1.74.218-1.607 0-2.864-.54-3.77-1.613-.907-1.076-1.36-2.56-1.36-4.445 0-2.056.588-3.67 1.76-4.838s2.777-1.75 4.818-1.75c2.268 0 4.024.752 5.268 2.258 1.245 1.507 1.866 3.648 1.866 6.425m-6.994-4.672c-.55 0-.996.197-1.34.597-.342.397-.514 1.037-.514 1.916 0 .695.148 1.25.446 1.658.295.41.747.615 1.356.615.55 0 1.03-.2 1.437-.598.405-.396.608-.874.608-1.434 0-.753-.188-1.398-.565-1.94s-.852-.812-1.428-.812M962.812 1569.227c0 1.498-.27 2.62-.808 3.375-.534.75-1.328 1.127-2.377 1.127-.99 0-1.756-.39-2.3-1.167-.544-.78-.814-1.89-.814-3.336 0-2.974 1.038-4.463 3.114-4.463 1.022 0 1.81.385 2.357 1.16.55.767.828 1.872.828 3.303m-4.396.02c0 .97.095 1.692.283 2.167.19.475.497.714.927.714.86 0 1.29-.962 1.29-2.882s-.43-2.88-1.29-2.88c-.43 0-.737.237-.928.712-.19.476-.284 1.197-.284 2.168m10.79-4.276l-7.92 14.276h-1.893l7.92-14.276h1.894zm2.902 9.98c0 1.497-.27 2.62-.812 3.368s-1.327 1.123-2.362 1.123c-.99 0-1.76-.386-2.306-1.155-.547-.772-.82-1.885-.82-3.336 0-2.976 1.042-4.464 3.126-4.464 1.002 0 1.78.385 2.34 1.152.554.768.834 1.873.834 3.31m-4.395 0c0 .973.097 1.696.287 2.18.193.48.504.722.935.722.853 0 1.278-.966 1.278-2.9 0-1.908-.426-2.86-1.278-2.86-.43 0-.74.233-.935.702-.19.47-.287 1.187-.287 2.157"/><path class="st32" d="M102.005 1401.685c0 1.162-.94 2.105-2.1 2.105-1.162 0-2.103-.943-2.103-2.105s.94-2.105 2.102-2.105c1.16 0 2.1.942 2.1 2.105M102.005 1416.41c0 1.163-.94 2.106-2.1 2.106-1.162 0-2.103-.943-2.103-2.105 0-1.16.94-2.103 2.102-2.103 1.16 0 2.1.943 2.1 2.104"/><path class="st31" d="M102.753 1408.327h-20.39c-.1 4.835-2.03 9.22-5.125 12.487h25.515c1.213 0 2.205-.994 2.205-2.21v-8.068c0-1.215-.992-2.21-2.205-2.21m-2.85 11.092c-1.657 0-3-1.346-3-3.007 0-1.66 1.343-3.005 3-3.005 1.66 0 3.003 1.346 3.003 3.006 0 1.662-1.344 3.008-3.002 3.008M102.753 1393.6h-27.04c3.63 3.065 6.08 7.488 6.566 12.487h20.473c1.213 0 2.205-.994 2.205-2.21v-8.067c0-1.216-.992-2.21-2.205-2.21m-2.85 11.09c-1.657 0-3-1.346-3-3.006s1.343-3.007 3-3.007c1.66 0 3.003 1.347 3.003 3.007s-1.344 3.007-3.002 3.007"/><path class="st27" d="M78.816 1407.927c0 8.38-6.782 15.17-15.148 15.17s-15.148-6.79-15.148-15.17 6.782-15.17 15.148-15.17 15.148 6.79 15.148 15.17"/><path class="st31" d="M63.668 1424.662c-9.214 0-16.71-7.507-16.71-16.734 0-9.23 7.496-16.736 16.71-16.736s16.71 7.507 16.71 16.736c0 9.227-7.496 16.734-16.71 16.734m0-30.342c-7.49 0-13.586 6.104-13.586 13.607 0 7.502 6.095 13.605 13.586 13.605 7.49 0 13.586-6.104 13.586-13.605 0-7.502-6.095-13.607-13.586-13.607"/><path class="st18" d="M63.103 1419.72l-8.575-10.285 1.11-4.98 7.465 9.85 8.94-15.156 2.26 5.903"/><path class="st27" d="M213.23 1409.438h23.69v24.705h-23.69z"/><path class="st31" d="M241.375 1402.885h-7.334v-5.47c-.004-.182-.1-2.89-1.445-5.442-1.656-3.144-4.48-4.672-8.637-4.672-4.234 0-7.09 1.59-8.73 4.856-1.284 2.554-1.354 5.22-1.354 5.246v5.482h-7.333v-5.5c.003-.457.08-4.433 2.134-8.52 2.882-5.738 8.31-8.897 15.284-8.897s12.402 3.16 15.284 8.896c2.053 4.088 2.13 8.063 2.133 8.504v5.518zM242.292 1405.635h-36.667c-2.016 0-3.666 1.65-3.666 3.667v22.917c0 2.017 1.65 3.666 3.665 3.666h36.667c2.017 0 3.667-1.65 3.667-3.667V1409.3c-.002-2.017-1.65-3.667-3.668-3.667m-25.89 26.77l2.345-11.087c-1.006-1.206-1.565-2.727-1.565-4.332 0-3.736 3.04-6.776 6.777-6.776 3.735 0 6.775 3.04 6.775 6.776 0 1.605-.56 3.126-1.564 4.332l2.344 11.086h-15.11z"/><path class="st18" d="M227.383 1429.65l-1.545-9.65c.8-.637 1.313-1.62 1.313-2.722 0-1.924-1.558-3.483-3.482-3.483-1.923 0-3.483 1.56-3.483 3.483 0 1.103.513 2.085 1.313 2.723l-1.545 9.65h7.43z"/><path class="st31" d="M396.61 1387.937h-49.304c-2.95 0-5.348 2.4-5.348 5.35v29.283c0 2.95 2.4 5.348 5.348 5.348h49.304c2.95 0 5.348-2.398 5.348-5.348v-29.284c0-2.95-2.398-5.35-5.348-5.35"/><path class="st27" d="M387.385 1408.052c0 8.52-6.907 15.427-15.427 15.427s-15.426-6.908-15.426-15.428 6.906-15.428 15.426-15.428 15.427 6.907 15.427 15.428"/><path class="st18" d="M378.115 1417.308c-1.02.57-2.76 1.14-4.68 1.14-2.94 0-5.64-1.2-7.32-3.42-.81-1.02-1.41-2.31-1.68-3.9h-1.95V1409h1.65v-.51c0-.3.03-.6.03-.9h-1.68v-2.13h2.01c.39-1.62 1.11-3 2.07-4.11 1.71-1.92 4.11-3.06 6.93-3.06 1.83 0 3.42.42 4.5.9l-.84 3.42c-.78-.33-2.01-.72-3.33-.72-1.44 0-2.76.48-3.69 1.62-.42.48-.75 1.17-.96 1.95h7.47v2.13h-7.92c-.03.3-.03.63-.03.93v.48h7.95v2.13h-7.53c.21.9.54 1.59.99 2.1.96 1.08 2.37 1.53 3.87 1.53 1.38 0 2.79-.45 3.42-.78l.72 3.33z"/><path class="st27" d="M549.958 1407.927c0 16.57-13.43 30-30 30s-30-13.43-30-30c0-16.568 13.43-30 30-30s30 13.43 30 30"/><path class="st31" d="M519.958 1391.502c-1.076 0-1.95-.873-1.95-1.95v-1.604c0-1.077.874-1.95 1.95-1.95 1.077 0 1.95.873 1.95 1.95v1.605c0 1.076-.873 1.95-1.95 1.95M519.958 1430.018c-1.076 0-1.95-.873-1.95-1.95v-1.604c0-1.077.874-1.95 1.95-1.95 1.077 0 1.95.873 1.95 1.95v1.605c0 1.075-.873 1.948-1.95 1.948M540.02 1409.957h-1.606c-1.077 0-1.95-.873-1.95-1.95 0-1.076.873-1.95 1.95-1.95h1.606c1.076 0 1.95.874 1.95 1.95-.002 1.077-.875 1.95-1.95 1.95M501.503 1409.957h-1.606c-1.077 0-1.95-.873-1.95-1.95 0-1.076.873-1.95 1.95-1.95h1.606c1.076 0 1.95.874 1.95 1.95 0 1.077-.873 1.95-1.95 1.95"/><path class="st18" d="M505.308 1404.56c.028-2.047.28-3.7 1.233-4.877.954-1.177 2.58-1.85 5.27-1.85 5.212 0 6.388 2.438 6.388 5.41 0 2.688-.98 4.397-2.466 5.884l-3.082 2.998c-.448.45-1.093 1.037-1.29 1.625h6.838v3.924H505.14c0-2.747.7-5.27 2.97-7.594l3.475-3.53c1.01-1.01 1.4-1.767 1.4-3.252 0-1.682-.53-2.214-1.344-2.214-.727 0-1.456.392-1.456 2.634v.84h-4.876zM519.626 1410.052l6.277-11.826h5.66v11.994h1.738v3.755h-1.736v3.698h-4.876v-3.698h-7.062v-3.923zm7.23.168v-6.613h-.056l-3.25 6.613h3.306z"/><path class="st31" d="M499.155 1424.097l3.76-1.253c-3.495-3.99-5.617-9.21-5.617-14.917 0-12.495 10.165-22.66 22.66-22.66 5.716 0 10.944 2.128 14.934 5.632l3.91-1.304 1.302-3.84c-5.325-4.845-12.397-7.8-20.145-7.8-16.527 0-29.972 13.444-29.972 29.97 0 7.757 2.962 14.835 7.813 20.162l1.355-3.99zM542.4 1388.087l-1.296 3.823-3.922 1.308c3.388 3.962 5.437 9.1 5.437 14.71 0 12.495-10.166 22.66-22.66 22.66-5.612 0-10.75-2.05-14.713-5.44l-3.79 1.264-1.342 3.956c5.29 4.684 12.24 7.53 19.844 7.53 16.524 0 29.97-13.445 29.97-29.97 0-7.604-2.847-14.553-7.53-19.84M649.567 1409.2c-2.403.03-8.353.275-8.353.275s-.616 8.042.062 13.065c.678 5.02 3.05 10.537 3.05 10.537h11.435v-23.51c0 .002-3.79-.4-6.193-.368M657.556 1431.512s.49-.45 1.623-.324c4.38.486 10.95 3.65 14.277 3.895 3.325.243 11.438.404 12.736.243 1.298-.162 3.527-2.48 4.3-4.382 1.055-2.596.08-4.3.08-4.3s2.426-1.323 2.92-2.92c.73-2.353-.647-3.975-.647-3.975s1.866-2.68 1.947-5.842c.025-1.005-1.137-1.704-1.137-1.704s1.38-2.678 1.3-4.705c-.082-2.03-1.785-4.626-2.68-4.626-.89 0-12.816.893-14.034.893-1.217 0-2.19-1.136-2.19-1.46 0-.325.325-1.948 1.623-3.73.96-1.322 3.73-8.195 3.65-10.468-.08-2.272-1.622-7.545-5.76-7.627-2.353-.323-1.622 3.49-2.27 6.328-.65 2.84-.814 4.544-2.192 5.76-1.38 1.22-5.354 5.112-6.41 7.14-1.054 2.03-2.27 5.193-3.406 6.815-1.136 1.623-3.73 4.38-3.73 4.38v20.607z"/><path class="st18" d="M653.665 1427.19c0 2.303-1.867 4.17-4.17 4.17-2.302 0-4.168-1.867-4.168-4.17 0-2.304 1.866-4.17 4.17-4.17 2.3 0 4.168 1.867 4.168 4.17"/><path class="st27" d="M649.496 1431.947c-2.624 0-4.758-2.134-4.758-4.758 0-2.623 2.134-4.757 4.758-4.757 2.623 0 4.757 2.134 4.757 4.756 0 2.623-2.134 4.757-4.757 4.757m0-8.338c-1.974 0-3.58 1.605-3.58 3.58 0 1.974 1.606 3.58 3.58 3.58 1.975 0 3.58-1.606 3.58-3.58s-1.605-3.58-3.58-3.58M835.675 1407.305c0 11.543-9.357 20.9-20.9 20.9s-20.9-9.357-20.9-20.9 9.357-20.9 20.9-20.9 20.9 9.357 20.9 20.9"/><path class="st18" d="M808.57 1395.455c.535-.595 5.415-2.5 10.174.595 4.648 3.022 1.488 8.092 3.57 11.006 2.023 2.835 2.975 3.867 2.975 3.867l17.668 19.1s-.238 2.557-1.784 3.687c-1.547 1.13-4.046 1.428-4.046 1.428s-15.825-16.776-17.967-19.097c-.914-.99-2.26-3.044-8.328-2.736-3.51.18-7.972-7.853-7.258-8.686.55-.642.95-.476 1.13-.476.178 0 4.343 2.796 4.343 2.796s.773.417 1.19.417c.416 0 1.605-.655 2.2-1.19.596-.536 2.32-3.808 2.262-4.82-.062-1.01-.757-1.62-1.132-2.02-.832-.894-5.55-3.254-4.997-3.87"/><path class="st31" d="M839.324 1402.688l-2.938-.562c-.604-.116-1.268-.685-1.476-1.264l-2.072-4.55c-.303-.534-.27-1.388.077-1.896l1.85-2.73c.347-.508.273-1.28-.16-1.714l-3.44-3.44c-.435-.434-1.206-.507-1.714-.162l-2.974 2.02c-.51.344-1.376.404-1.927.132l-4.126-1.635c-.587-.183-1.162-.826-1.278-1.43l-.696-3.643c-.116-.604-.715-1.098-1.328-1.098h-4.863c-.616 0-1.214.494-1.33 1.098l-.697 3.643c-.114.604-.69 1.247-1.276 1.43l-4.125 1.635c-.553.272-1.42.212-1.93-.133l-2.972-2.02c-.51-.345-1.28-.27-1.716.163l-3.438 3.44c-.435.433-.508 1.205-.162 1.714l1.852 2.73c.345.508.38 1.36.077 1.895l-2.072 4.55c-.207.58-.87 1.147-1.475 1.264l-2.938.562c-.603.116-1.097.713-1.097 1.328v4.863c0 .614.494 1.21 1.097 1.327l2.54.485c.604.116 1.23.696 1.393 1.29l2.024 5.434c.27.552.21 1.42-.136 1.93l-1.264 1.862c-.346.51-.272 1.28.162 1.715l3.438 3.438c.435.436 1.207.51 1.716.163l1.634-1.107c.51-.346 1.363-.38 1.9-.08l5.85 2.517c.584.188 1.158.834 1.274 1.438l.343 1.79c.116.605.714 1.1 1.33 1.1h4.862c.613 0 1.212-.495 1.328-1.1l.343-1.79c.115-.603.688-1.25 1.274-1.437l4.71-2.027-4.86-4.858c-1.632.588-3.393.91-5.228.91-8.522 0-15.43-6.908-15.43-15.43 0-8.522 6.908-15.43 15.43-15.43 8.52 0 15.43 6.908 15.43 15.43 0 1.902-.348 3.725-.978 5.407l4.587 4.587 1.662-4.46c.16-.593.787-1.173 1.392-1.29l2.54-.484c.604-.116 1.098-.713 1.098-1.328v-4.863c0-.616-.494-1.212-1.098-1.33"/><path class="st13" d="M978.185 219.534h-.43v1.624c0 1.93-1.57 3.5-3.5 3.5H953.66c-1.93 0-3.5-1.57-3.5-3.5v-1.624h-.428c-2.084 0-3.774 1.69-3.774 3.774v7.433c0 2.085 1.69 3.775 3.774 3.775h.43v-.653c0-1.922 1.563-3.486 3.485-3.486h20.62c1.924 0 3.488 1.564 3.488 3.486v.653h.43c2.083 0 3.772-1.69 3.772-3.774v-7.432c0-2.084-1.688-3.774-3.772-3.774"/><path class="st13" d="M953.66 222.335h20.596c.648 0 1.178-.528 1.178-1.178v-10.792c0-.65-.53-1.18-1.178-1.18H953.66c-.65 0-1.178.53-1.178 1.18v10.792c0 .65.53 1.178 1.18 1.178M974.27 232.697h-20.622c-.643 0-1.165.522-1.165 1.165v3.64c0 .643.522 1.165 1.165 1.165h20.62c.645 0 1.166-.522 1.166-1.165v-3.64c0-.643-.522-1.165-1.165-1.165"/><path class="st27" d="M1126.185 219.534h-.43v1.624c0 1.93-1.57 3.5-3.5 3.5h-20.595c-1.93 0-3.5-1.57-3.5-3.5v-1.624h-.428c-2.084 0-3.774 1.69-3.774 3.774v7.433c0 2.085 1.69 3.775 3.774 3.775h.428v-.653c0-1.922 1.565-3.486 3.487-3.486h20.62c1.924 0 3.488 1.564 3.488 3.486v.653h.43c2.083 0 3.772-1.69 3.772-3.774v-7.432c0-2.084-1.688-3.774-3.772-3.774"/><path class="st27" d="M1101.66 222.335h20.596c.65 0 1.178-.528 1.178-1.178v-10.792c0-.65-.528-1.18-1.178-1.18h-20.596c-.65 0-1.178.53-1.178 1.18v10.792c0 .65.53 1.178 1.178 1.178M1122.27 232.697h-20.622c-.643 0-1.165.522-1.165 1.165v3.64c0 .643.522 1.165 1.165 1.165h20.62c.645 0 1.166-.522 1.166-1.165v-3.64c0-.643-.522-1.165-1.165-1.165"/><path class="st23" d="M963.958 1875.164c-2.767 0-5.03-2.265-5.03-5.03v-10.064c0-2.767 2.264-5.03 5.03-5.03 2.768 0 5.03 2.264 5.03 5.03v10.063c0 2.766-2.262 5.03-5.03 5.03"/><path class="st24" d="M999.962 1831.67l-19.493-2.07v-6.384c0-4.163-3.388-7.55-7.55-7.55h-17.923c-4.163 0-7.55 3.387-7.55 7.55v6.383l-19.492 2.07c-3.216.4-5.45 3.398-4.918 6.594l3.003 18.02c.362 2.172 1.942 3.94 4.058 4.546l25.182 6.01v-7.228c0-4.786 3.895-8.68 8.68-8.68 4.786 0 8.68 3.894 8.68 8.68v7.228l25.18-6.01c2.116-.605 3.696-2.374 4.06-4.545l3.002-18.02c.53-3.197-1.704-6.194-4.92-6.596m-25.08-2.664l-10.216-1.085c-.47-.057-.945-.057-1.415 0l-10.214 1.086v-5.79c0-1.082.88-1.96 1.96-1.96h17.923c1.08 0 1.96.878 1.96 1.96v5.79z"/><path class="st24" d="M997.818 1863.75l-4.41 1.054-2.966 14.826c-.345 1.72-1.867 2.97-3.622 2.97h-45.723c-1.757 0-3.28-1.25-3.623-2.97l-2.966-14.826-4.41-1.054c-.548-.155-1.058-.394-1.522-.692l-.112.022 3.53 17.645c.863 4.325 4.692 7.463 9.103 7.463h45.723c4.41 0 8.238-3.138 9.102-7.462l3.53-17.646-.113-.022c-.465.298-.974.537-1.522.692M966.688 1667.07v73.714l-27.3-24.57h-18.43v-24.573h18.43"/><path class="st23" d="M966.688 1694.713v18.43c5.09 0 9.214-4.127 9.214-9.216s-4.125-9.214-9.214-9.214"/><path class="st27" d="M986.658 1668.98l-3.385 5.922c10.062 5.772 16.86 16.616 16.86 29.024s-6.8 23.252-16.86 29.024l3.385 5.923c12.115-6.95 20.3-20.006 20.3-34.947 0-14.94-8.185-27.996-20.3-34.947M413.333 960.56h-8.61v-8.61h-6.89v8.61h-8.61v6.89h8.61v8.61h6.89v-8.61h8.61m-55.11-8.612v10.747h15.02c-1.156 6.476-6.77 11.194-15.02 11.194-9.093 0-16.482-7.7-16.482-16.792 0-9.094 7.39-16.775 16.483-16.775 4.1 0 7.767 1.413 10.66 4.167v.017l7.768-7.767c-4.77-4.443-10.986-7.18-18.427-7.18-15.225 0-27.556 12.33-27.556 27.554s12.33 27.555 27.556 27.555c15.913 0 26.452-11.195 26.452-26.937 0-2.015-.188-3.942-.533-5.786h-25.92z"/><path class="st27" d="M980.002 1680.63l-2.257 3.948c6.708 3.848 11.24 11.076 11.24 19.35 0 8.27-4.532 15.5-11.24 19.35l2.257 3.947c8.077-4.633 13.533-13.338 13.533-23.298s-5.456-18.664-13.533-23.298"/><path class="st15" d="M254.71 1530.94l-30.752-15.376-30.752 15.376s-3.79 65.35 30.752 65.35 30.752-65.35 30.752-65.35z"/><path class="st31" d="M223.958 1515.564l-30.752 15.376s-3.79 65.35 30.752 65.35v-80.726z"/><path class="st18" d="M223.958 1515.564l30.752 15.376s3.79 65.35-30.752 65.35v-80.726z"/><path class="st27" d="M85.305 1594.39H76.68v-4.045h8.625c3.42 0 6.633-1.33 9.052-3.75l16.22-16.22 2.86 2.86-16.22 16.22c-3.182 3.184-7.412 4.936-11.912 4.936M42.02 1548.98c.11-18.607 15.28-33.71 33.91-33.71 18.634 0 33.8 15.103 33.913 33.71h4.045c-.112-20.838-17.094-37.757-37.957-37.757s-37.844 16.92-37.957 37.757h4.046z"/><path class="st31" d="M45.11 1534.82c-10.35.357-18.63 8.854-18.63 19.292 0 10.436 8.28 18.934 18.63 19.29v-38.582zM106.805 1574.415c10.35-.358 18.63-8.855 18.63-19.292s-8.28-18.935-18.63-19.29v38.582z"/><path class="st32" d="M82.843 1592.794c0 4.328-3.508 7.836-7.836 7.836-4.327 0-7.835-3.508-7.835-7.836s3.508-7.836 7.835-7.836c4.328 0 7.836 3.508 7.836 7.836"/><path class="st27" d="M369.374 1551.68l7.357-7.358 38.316 38.315-7.358 7.357z"/><path class="st31" d="M360.21 1526.52l8.79-4.623-1.68 9.788 7.11 6.93-9.826 1.428-4.395 8.904-4.396-8.904-9.826-1.428 7.11-6.93-1.678-9.788"/><path class="st18" d="M366.93 1567.105l7.31.132-4.552 5.722 2.134 6.992-6.85-2.56-5.99 4.19.318-7.304-5.836-4.403 7.045-1.955 2.383-6.912M340.872 1554.95l6.5.117-4.046 5.09 1.898 6.22-6.09-2.277-5.33 3.726.283-6.497-5.19-3.917 6.265-1.737 2.12-6.148M668.184 1746.457c-23.45 0-42.53-19.08-42.53-42.53s19.08-42.53 42.53-42.53 42.53 19.08 42.53 42.53-19.08 42.53-42.53 42.53m0-67.067c-13.53 0-24.537 11.008-24.537 24.537s11.008 24.536 24.537 24.536 24.537-11.007 24.537-24.536-11.007-24.537-24.536-24.537"/><path class="st31" d="M643.647 1703.927c0-13.126 10.36-23.877 23.335-24.506v-17.993c-22.896.64-41.33 19.452-41.33 42.5 0 .052.005.104.005.156h17.994c0-.053-.003-.104-.003-.156M692.717 1704.083c-.086 13.458-11.056 24.38-24.533 24.38-.283 0-.563-.01-.845-.02v17.993c.28.005.56.02.844.02 23.398 0 42.44-18.994 42.526-42.373h-17.993z"/><path class="st27" d="M643.647 1703.927c0-.26.012-.517.02-.775h-17.994c-.004.26-.02.516-.02.775 0 .384.02.764.03 1.145h17.992c-.016-.38-.028-.76-.028-1.145M692.72 1703.927c0 .384-.012.766-.028 1.145h17.993c.01-.38.028-.76.028-1.145 0-.26-.015-.516-.02-.775H692.7c.008.258.02.515.02.775M665.875 1679.502c.634-.06 1.274-.092 1.92-.102v-17.994c-.643.006-1.283.02-1.92.055v18.042zM667.796 1728.453c-.646-.01-1.287-.043-1.92-.102v18.04c.636.036 1.276.05 1.92.056v-17.993z"/><path class="st18" d="M550.615 1698.294c-.31-1.707-.75-3.37-1.323-4.972l6.677-6.96c-.863-1.772-1.846-3.473-2.946-5.09l-9.373 2.303c-1.108-1.308-2.325-2.522-3.632-3.633l2.304-9.372c-1.616-1.1-3.317-2.085-5.092-2.944l-6.96 6.675c-1.602-.57-3.263-1.014-4.972-1.32l-2.685-9.255c-.974-.07-1.956-.12-2.947-.12-.99 0-1.97.05-2.944.12l-2.688 9.254c-1.71.307-3.372.75-4.97 1.32l-6.962-6.674c-1.773.858-3.473 1.844-5.09 2.943l2.302 9.37c-1.306 1.112-2.52 2.326-3.632 3.635l-9.37-2.305c-1.1 1.616-2.09 3.317-2.947 5.09l6.675 6.962c-.57 1.6-1.014 3.265-1.324 4.972l-9.252 2.687c-.072.976-.12 1.955-.12 2.948 0 .99.048 1.97.12 2.942l9.252 2.688c.31 1.71.753 3.372 1.324 4.97l-6.675 6.964c.858 1.773 1.844 3.472 2.945 5.088l9.372-2.302c1.11 1.308 2.326 2.52 3.632 3.633l-2.3 9.373c1.615 1.1 3.315 2.086 5.088 2.944l6.96-6.677c1.6.573 3.263 1.016 4.972 1.324l2.688 9.254c.974.07 1.953.12 2.944.12.99 0 1.973-.05 2.945-.12l2.688-9.254c1.71-.31 3.37-.75 4.97-1.323l6.962 6.677c1.775-.858 3.476-1.846 5.092-2.945l-2.304-9.37c1.307-1.112 2.524-2.328 3.633-3.634l9.374 2.302c1.1-1.616 2.085-3.317 2.945-5.09l-6.678-6.96c.574-1.6 1.014-3.263 1.323-4.972l9.254-2.688c.068-.974.116-1.95.116-2.942 0-.993-.048-1.973-.117-2.947l-9.255-2.686zm-30.95 27.635c-12.15 0-22.002-9.852-22.002-22.004 0-12.15 9.852-22.002 22.003-22.002 12.152 0 22.002 9.85 22.002 22.002s-9.85 22.003-22.002 22.003"/><path class="st27" d="M405.642 1679.504c0 4.162-15.08 7.536-33.685 7.536s-33.685-3.374-33.685-7.536 15.08-7.536 33.685-7.536 33.685 3.374 33.685 7.536"/><path class="st31" d="M405.65 1685.726h-.01c-.137 4.137-15.164 7.48-33.683 7.48-18.52 0-33.546-3.344-33.682-7.48h-.007v18.613l-.002.03c0 4.163 15.082 7.537 33.685 7.537 18.582 0 33.648-3.366 33.685-7.52h.016v-18.66z"/><path class="st18" d="M405.65 1709.705h-.01c-.137 4.137-15.164 7.48-33.683 7.48-18.52 0-33.546-3.344-33.682-7.48h-.007v18.613l-.002.032c0 4.162 15.082 7.536 33.685 7.536 18.582 0 33.648-3.366 33.685-7.52h.016v-18.66z"/><path class="st31" d="M185.294 1703.926c0 15.418 8.96 28.743 21.954 35.058l-18.58-50.91c-2.162 4.843-3.374 10.204-3.374 15.852M250.543 1701.96c0-4.813-1.73-8.147-3.212-10.742-1.973-3.208-3.825-5.927-3.825-9.136 0-3.58 2.716-6.914 6.54-6.914.174 0 .338.022.506.032-6.93-6.35-16.162-10.226-26.303-10.226-13.608 0-25.58 6.98-32.546 17.557.916.03 1.777.048 2.508.048 4.074 0 10.38-.496 10.38-.496 2.1-.123 2.35 2.96.25 3.21 0 0-2.11.247-4.457.37l14.186 42.194 8.525-25.566-6.07-16.627c-2.096-.124-4.084-.372-4.084-.372-2.098-.122-1.853-3.33.247-3.208 0 0 6.432.496 10.26.496 4.073 0 10.38-.496 10.38-.496 2.102-.123 2.35 2.96.25 3.21 0 0-2.114.247-4.458.37l14.077 41.873 3.886-12.98c1.683-5.392 2.965-9.26 2.965-12.595"/><path class="st31" d="M224.93 1707.333l-11.687 33.96c3.49 1.027 7.18 1.588 11.004 1.588 4.536 0 8.886-.783 12.935-2.207-.104-.167-.2-.343-.277-.536l-11.974-32.804zM258.427 1685.238c.168 1.24.262 2.572.262 4.005 0 3.952-.74 8.395-2.962 13.952l-11.9 34.4c11.582-6.754 19.37-19.3 19.37-33.67 0-6.77-1.728-13.14-4.77-18.687"/><path class="st27" d="M224.247 1658.52c-25.037 0-45.407 20.37-45.407 45.406 0 25.04 20.37 45.408 45.407 45.408 25.036 0 45.41-20.368 45.41-45.408 0-25.037-20.374-45.406-45.41-45.406m0 88.732c-23.89 0-43.325-19.436-43.325-43.326s19.436-43.324 43.325-43.324c23.888 0 43.323 19.436 43.323 43.324 0 23.89-19.435 43.326-43.323 43.326"/><path class="st18" d="M125.846 1726.566L26.07 1738.75s.86 8.172 7.026 10.61c6.164-2.15 15.77-7.168 24.8-7.455 9.03-.287 12.472 3.727 15.912 3.87 2.867-1.434 11.182-2.58 15.913.86 3.01-1.576 6.452-2.294 6.452-2.294s3.423-7.21 11.898-11.754c9.89-5.303 17.776-3.01 17.776-6.02"/><path class="st31" d="M119.968 1725.133l-39.547-64.555s-.016.712 0 .766c.807 1.74 2.222 4.095 3.942 6.962 2.82 7.795 5 19.886 4.355 32.6 3.802 6.72 4.987 8.632 4.987 8.632s9.976 9.658 23.278 12.392c1.434 2.007 2.05 3.37 2.05 3.37l.936-.167zM103.493 1727.498l-19.625 2.166s2.93-25.295-4.842-45.366l.127-.255 24.34 43.455zM74.63 1729.92s-22.237 1.21-27.653 1.528c25.423-38.548 31.412-71.362 31.986-71.426-.064.892-4.333 69.897-4.333 69.897M43.79 1733.04l-17.585 1.722 21.41-61.105"/><path class="st27" d="M48.748 1673.382c.472 0 .49.563.49.563l-3.79 60.307s-.28.18-.584.174c-.32-.004-.37-.174-.37-.174l3.694-60.403s.097-.468.56-.468M80.026 1658.494c.472 0 .49.563.49.563l-4.102 71.37s-.282.18-.585.175c-.32-.005-.372-.174-.372-.174l4.008-71.468s.097-.466.56-.466"/><path class="st18" d="M850.764 1742.523h-69.61c-2.812 0-5.112-2.3-5.112-5.11v-10.2c0-2.812 2.3-5.112 5.112-5.112h69.61c2.812 0 5.11 2.302 5.11 5.113v10.2c0 2.81-2.3 5.11-5.11 5.11"/><path class="st27" d="M850.163 1732.313c0 2.76-2.238 5-5 5-2.76 0-4.997-2.24-4.997-5s2.238-5 4.998-5c2.76 0 5 2.24 5 5"/><path class="st31" d="M784.952 1718.573h62.02c3.107 0 5.964 1.077 8.23 2.867l-15.662-52.087c-.633-2.373-2.782-4.023-5.237-4.023h-38.23c-2.496 0-4.67 1.708-5.26 4.134l-14.287 52.125c2.296-1.884 5.23-3.017 8.426-3.017"/><path class="st27" d="M816.393 1680.063c-10.464 0-18.946 6.154-18.946 13.745 0 7.592 8.482 13.746 18.946 13.746s18.947-6.154 18.947-13.746c0-7.59-8.484-13.745-18.947-13.745m0 17.87c-3.14 0-5.684-1.847-5.684-4.125 0-2.277 2.544-4.123 5.683-4.123s5.684 1.846 5.684 4.123c0 2.278-2.546 4.124-5.684 4.124m15.625-4.076c-.007.49-.555.887-1.232.887-.68 0-1.233-.4-1.233-.896 0-.01.004-.02.005-.033v-.007c0-5.266-5.905-9.55-13.164-9.55h-.045v-.002h-.017c-.682 0-1.233-.4-1.233-.895 0-.493.552-.895 1.233-.895h.016l.044-.002c8.62 0 15.635 5.09 15.635 11.343 0 .018-.003.033-.003.05h-.01z"/><path class="st18" d="M523.523 1847.804l-19.016-26.907c-.96-1.36-2.978-1.36-3.94 0l-19.015 26.907h14.575v35.354h12.82v-35.354h14.576z"/><path class="st31" d="M543.79 1856.05v-35.354h-12.82v35.353h-14.576l19.016 26.907c.96 1.36 2.978 1.36 3.94 0l19.015-26.908H543.79z"/><path class="st18" d="M412.458 1851.927c0 22.368-18.132 40.5-40.5 40.5s-40.5-18.132-40.5-40.5c0-22.367 18.132-40.5 40.5-40.5s40.5 18.133 40.5 40.5"/><path class="st27" d="M371.8 1828.793c-13.163 0-23.87 10.708-23.87 23.87v.066h-6.463c-.858 0-1.288 1.036-.68 1.644l9.76 9.76c.108.11.237.178.373.224l.047.1.077-.076c.304.06.63-.01.865-.246l9.76-9.76c.607-.608.177-1.646-.68-1.646h-6.73l-.002-.066c0-9.672 7.87-17.54 17.54-17.54 9.674 0 17.543 7.868 17.543 17.54s-7.868 17.54-17.54 17.54c-4.077 0-8.053-1.437-11.195-4.05l-.952-.79-4.472 4.474 1.114.953c4.323 3.705 9.83 5.744 15.505 5.744 13.16 0 23.87-10.708 23.87-23.87s-10.71-23.87-23.87-23.87"/><path class="st18" d="M774.205 1820.24v63.373l46.78 8.092V1812.148l-46.78 8.093zm31.44 48.13l-17.752-1.66v-33.243l17.07-1.827v6.726l-10.403.73v7.692l9.68-.248v6.673l-9.68-.107v7.91l11.084.63v6.725z"/><path class="st31" d="M853.54 1827.663H825.4v5.902h1.197c.276 0 .542.11.736.306l4.204 4.21c.285.285.284.747 0 1.032l-1.52 1.52c-.284.284-.746.284-1.032 0l-1.896-1.873c-.04-.04-.093-.06-.147-.06H825.4v11.316c2.894 2.61 5.34 4.556 4.598 5.348-.48.513-2.344-.323-4.6-1.696v11.486h.72c5.227-3.896 9.49-10.976 10.768-9.778 1.506 1.412-8.608 14.742-9.856 14.912h-1.63v5.903h28.142c2.304 0 4.17-1.866 4.17-4.17v-40.188c0-2.302-1.867-4.17-4.17-4.17m-1.732 37.492v4.092c0 .576-.468 1.042-1.043 1.042h-10.469c-.276 0-.542-.11-.737-.306l-4.202-4.21c-.285-.284-.285-.746 0-1.03l1.52-1.52c.284-.285.746-.285 1.03 0l1.898 1.87c.04.04.09.062.146.062h6.725v-5.898c-3.896-5.226-10.976-9.49-9.778-10.767 1.41-1.507 14.74 8.606 14.91 9.854v6.81zm0-26.455v6.376c0 .277-.11.542-.307.738l-4.21 4.203c-.283.284-.746.284-1.03 0l-1.52-1.52c-.285-.285-.285-.747 0-1.032l1.872-1.896c.038-.04.06-.092.06-.147v-6.724h-5.897c-5.227 3.894-9.49 10.974-10.767 9.778-1.506-1.413 8.608-14.743 9.856-14.913H850.766c.576 0 1.044.467 1.044 1.043v4.09zM647.083 1841.43h14.027c3.07 0 5.56 2.488 5.56 5.557 0 3.07-2.488 5.558-5.56 5.558h-14.027c-3.068 0-5.558-2.486-5.558-5.558 0-3.07 2.49-5.556 5.558-5.556m-16.23 19.793c0-2.98 2.414-5.394 5.39-5.394h29.553c2.978 0 5.392 2.414 5.392 5.393 0 2.977-2.414 5.39-5.392 5.39h-29.552c-2.977 0-5.39-2.414-5.39-5.39m28.845 34.54h-11.877c-2.78 0-5.032-2.252-5.032-5.032s2.253-5.032 5.033-5.032H659.7c2.78 0 5.032 2.253 5.032 5.033s-2.253 5.034-5.033 5.034m-19.912-13.58c-3.37 0-6.104-2.735-6.104-6.106 0-3.373 2.733-6.105 6.104-6.105h25.105c3.373 0 6.104 2.732 6.104 6.105 0 3.37-2.73 6.105-6.104 6.105h-25.105zm65.2-1.995c0 2.857-3.56 13.814-12.69 14.53s-20.026.716-21.886.716c-1.855 0-1.758-1.905-1.758-1.905v-5.082s-.672-2.86 1.758-4.764c2.432-1.906 4.87-4.284 4.973-6.512.16-3.495-2.383-5.712-2.383-8.1 0-3.97 2.214-4.446 2.067-8.736-.162-4.604-3.23-5.24-3.973-8.574-.745-3.334.158-5.24-.686-8.26-.555-1.99-5.576-13.02-5.666-18.897-.165-10.54 1.27-16.515 7.305-16.515 11.91 0 8.14 15.544 10.957 21.916 7.307 16.516 20.487 13.656 21.76 26.044.5 4.898.22 21.28.22 24.14"/><path class="st30" d="M75.958 1827.09c-16.86 0-30.577 13.718-30.577 30.577s13.718 30.576 30.578 30.576 30.577-13.717 30.577-30.576-13.717-30.577-30.577-30.577"/><path class="st30" d="M82.458 1821.576v-4.584h5.32v-7.484h-23.64v7.484h5.32v4.584c-17.134 3.078-30.18 18.084-30.18 36.09 0 20.227 16.455 36.68 36.68 36.68s36.68-16.453 36.68-36.68c0-18.006-13.046-33.012-30.18-36.09m-6.5 68.165c-17.686 0-32.075-14.388-32.075-32.073 0-17.687 14.39-32.074 32.075-32.074s32.075 14.388 32.075 32.074-14.388 32.074-32.075 32.074"/><path class="st31" d="M75.958 1827.09c-16.86 0-30.577 13.718-30.577 30.577s13.718 30.576 30.578 30.576 30.577-13.717 30.577-30.576-13.717-30.577-30.577-30.577"/><path class="st31" d="M82.458 1821.576v-4.584h5.32v-7.484h-23.64v7.484h5.32v4.584c-17.134 3.078-30.18 18.084-30.18 36.09 0 20.227 16.455 36.68 36.68 36.68s36.68-16.453 36.68-36.68c0-18.006-13.046-33.012-30.18-36.09m-6.5 68.165c-17.686 0-32.075-14.388-32.075-32.073 0-17.687 14.39-32.074 32.075-32.074s32.075 14.388 32.075 32.074-14.388 32.074-32.075 32.074"/><path class="st18" d="M83.493 1857.667c0 4.16-3.373 7.534-7.534 7.534-4.163 0-7.536-3.372-7.536-7.533s3.373-7.534 7.535-7.534c4.16 0 7.533 3.373 7.533 7.534"/><path class="st18" d="M82.112 1858.365c-2.003 2.385-5.226 2.75-7.164.813-1.938-1.938-1.572-5.162.813-7.164l12.583-10.565c2.385-2.004 5.155-2.823 6.155-1.822 1 1 .182 3.77-1.82 6.155l-10.566 12.582z"/><path class="st27" d="M55.595 1866.938c-3.774-11.34 2.36-23.593 13.7-27.367 4.473-1.488 9.075-1.402 13.254-.09l4.897-4.02.182-.362c-5.838-2.924-12.79-3.618-19.473-1.395-13.366 4.448-20.595 18.89-16.146 32.255 2.225 6.684 6.948 11.832 12.786 14.753l.852-1.7c-4.58-2.537-8.27-6.713-10.053-12.072M209.987 1853.894h30.848v32.17h-30.848z"/><path class="st31" d="M246.637 1845.36h-9.55v-7.123c-.006-.234-.133-3.76-1.883-7.084-2.155-4.094-5.834-6.084-11.246-6.084-5.513 0-9.232 2.067-11.368 6.32-1.67 3.326-1.762 6.798-1.762 6.832v7.14h-9.55v-7.162c.004-.596.105-5.772 2.78-11.096 3.75-7.47 10.82-11.584 19.9-11.584s16.15 4.114 19.9 11.584c2.675 5.323 2.776 10.5 2.78 11.073v7.184z"/><path class="st31" d="M246.637 1845.36h-9.55v-7.123c-.006-.234-.133-3.76-1.883-7.084-2.155-4.094-5.834-6.084-11.246-6.084-5.513 0-9.232 2.067-11.368 6.32-1.67 3.326-1.762 6.798-1.762 6.832v7.14h-9.55v-7.162c.004-.596.105-5.772 2.78-11.096 3.75-7.47 10.82-11.584 19.9-11.584s16.15 4.114 19.9 11.584c2.675 5.323 2.776 10.5 2.78 11.073v7.184zM247.83 1848.942h-47.743c-2.627 0-4.775 2.15-4.775 4.775v29.84c0 2.626 2.148 4.775 4.775 4.775h47.743c2.626 0 4.775-2.15 4.775-4.775v-29.84c0-2.625-2.15-4.775-4.775-4.775m-33.71 34.857l3.052-14.437c-1.31-1.57-2.037-3.55-2.037-5.64 0-4.866 3.958-8.824 8.823-8.824 4.866 0 8.824 3.957 8.824 8.822 0 2.09-.727 4.07-2.037 5.64l3.052 14.437H214.12z"/><path class="st31" d="M247.83 1848.942h-47.743c-2.627 0-4.775 2.15-4.775 4.775v29.84c0 2.626 2.148 4.775 4.775 4.775h47.743c2.626 0 4.775-2.15 4.775-4.775v-29.84c0-2.625-2.15-4.775-4.775-4.775m-33.71 34.857l3.052-14.437c-1.31-1.57-2.037-3.55-2.037-5.64 0-4.866 3.958-8.824 8.823-8.824 4.866 0 8.824 3.957 8.824 8.822 0 2.09-.727 4.07-2.037 5.64l3.052 14.437H214.12z"/><path class="st18" d="M228.417 1880.214l-2.012-12.565c1.042-.832 1.71-2.11 1.71-3.547 0-2.505-2.03-4.535-4.535-4.535-2.505 0-4.535 2.03-4.535 4.535 0 1.437.668 2.715 1.71 3.546l-2.012 12.564h9.674z"/><path class="st31" d="M488.88 1568.167h-5.444c-.192-9.188-.722-17.828-1.59-25.923h-.047l-8.29 25.923h-4.145l-8.24-25.923h-.047c-.61 7.773-.995 16.414-1.155 25.923h-4.964c.32-11.564 1.123-22.406 2.408-32.525h6.746l7.854 23.9h.05l7.9-23.9h6.457c1.414 11.852 2.248 22.696 2.505 32.525M512.49 1544.17c-2.216 12.028-5.14 20.77-8.77 26.223-2.828 4.202-5.926 6.303-9.3 6.303-.9 0-2.008-.27-3.324-.81v-2.9c.643.095 1.398.145 2.265.145 1.575 0 2.843-.433 3.808-1.302 1.156-1.058 1.734-2.247 1.734-3.563 0-.9-.45-2.747-1.35-5.54l-5.974-18.554h5.35l4.286 13.876c.964 3.15 1.366 5.35 1.205 6.604 2.344-6.264 3.982-13.09 4.915-20.48h5.155z"/><path class="st18" d="M584.958 1568.167H569.49v-32.525h5.205v28.524h10.263"/><path class="st32" d="M565.444 1568.95l-5.98-2.946c.533-.438 1.04-.907 1.497-1.453 2.54-2.982 3.81-7.4 3.81-13.248 0-10.76-4.225-16.144-12.673-16.144-4.144 0-7.373 1.365-9.686 4.098-2.538 2.987-3.805 7.388-3.805 13.202 0 5.718 1.123 9.912 3.37 12.576 2.058 2.41 5.158 3.614 9.303 3.614 1.547 0 2.967-.19 4.258-.57l7.785 4.53 2.124-3.657zm-19.37-7.29c-1.318-2.12-1.977-5.522-1.977-10.213 0-8.19 2.49-12.29 7.468-12.29 2.603 0 4.514.98 5.736 2.94 1.317 2.12 1.976 5.492 1.976 10.118 0 8.256-2.49 12.386-7.47 12.386-2.6.002-4.512-.977-5.732-2.94"/><path class="st18" d="M536.337 1559.15c0 2.76-1.013 5.024-3.034 6.796-2.022 1.764-4.738 2.648-8.14 2.648-3.18 0-6.265-1.017-9.25-3.037l1.396-2.794c2.57 1.285 4.895 1.926 6.984 1.926 1.96 0 3.49-.436 4.6-1.298 1.108-.867 1.77-2.077 1.77-3.612 0-1.932-1.346-3.582-3.817-4.967-2.282-1.252-6.84-3.865-6.84-3.865-2.472-1.803-3.71-3.736-3.71-6.923 0-2.634.923-4.764 2.77-6.384 1.848-1.623 4.233-2.435 7.155-2.435 3.02 0 5.764.806 8.237 2.412l-1.257 2.79c-2.116-.896-4.202-1.347-6.26-1.347-1.67 0-2.955.4-3.852 1.207-.9.8-1.458 1.828-1.458 3.082 0 1.925 1.376 3.597 3.916 5.007 2.31 1.253 6.982 3.917 6.982 3.917 2.54 1.8 3.807 3.72 3.807 6.877M835.54 1528.12v9.154c0 2.776-2.272 5.047-5.048 5.047s-5.047-2.27-5.047-5.046v-9.154h-18.948v9.154c0 2.776-2.27 5.047-5.047 5.047s-5.046-2.27-5.046-5.046v-9.154h-14.67v68.447h68.447v-68.447h-14.64z"/><path class="st27" d="M792.174 1552.282h9.5v9.5h-9.5zM804.88 1552.282h9.5v9.5h-9.5zM817.586 1552.282h9.5v9.5h-9.5zM830.292 1552.282h9.5v9.5h-9.5zM792.174 1564.986h9.5v9.5h-9.5zM804.88 1564.986h9.5v9.5h-9.5zM817.586 1564.986h9.5v9.5h-9.5zM830.292 1564.986h9.5v9.5h-9.5zM792.174 1577.692h9.5v9.5h-9.5zM804.88 1577.692h9.5v9.5h-9.5zM817.586 1577.692h9.5v9.5h-9.5zM830.292 1577.692h9.5v9.5h-9.5z"/><path class="st31" d="M803.146 1539.82h-3.393c-.918 0-1.67-.752-1.67-1.67v-21.196c0-.917.752-1.668 1.67-1.668h3.393c.917 0 1.668.75 1.668 1.668v21.197c0 .918-.75 1.67-1.668 1.67M832.188 1539.82h-3.394c-.917 0-1.668-.752-1.668-1.67v-21.196c0-.917.75-1.668 1.668-1.668h3.394c.918 0 1.668.75 1.668 1.668v21.197c0 .918-.75 1.67-1.668 1.67M708.458 1555.927c0 22.368-18.132 40.5-40.5 40.5s-40.5-18.132-40.5-40.5 18.132-40.5 40.5-40.5 40.5 18.132 40.5 40.5"/><path class="st27" d="M685.405 1573.116h-19.638c-.64 0-1.16-.52-1.16-1.16v-2.413c0-.64.52-1.16 1.16-1.16h19.638c.64 0 1.16.52 1.16 1.16v2.413c0 .64-.52 1.16-1.16 1.16M665.568 1551.59c-.027-.026-.06-.046-.09-.072l-12.09-12.09c-.92-.92-2.427-.92-3.348 0-.92.92-.92 2.427 0 3.348l10.498 10.498-10.498 10.498c-.92.92-.92 2.427 0 3.348.92.92 2.427.92 3.348 0l12.09-12.09c.03-.027.063-.046.09-.074.463-.462.692-1.072.69-1.682.003-.61-.227-1.22-.69-1.683"/><path class="st13" d="M101.217 103.927H74.312c-6.542 0-11.103-4.436-12.767-7.054-.157-.25-.29-.51-.396-.784L47.215 60.31c-.69-1.336-1.764-2.825-2.41-3.365H36.42c-2.465 0-4.46-2.02-4.46-4.51 0-2.488 1.995-4.508 4.46-4.508h8.92c5.17 0 8.67 5.948 9.935 8.504.058.122.11.242.16.365L69.24 92.252c.567.71 2.367 2.657 5.072 2.657h26.905c2.863 0 4.273-2.394 4.424-2.667l6.034-10.175c1.268-2.134 4.006-2.836 6.12-1.547 2.11 1.28 2.796 4.052 1.528 6.187l-5.927 9.987c-1.28 2.527-5.47 7.233-12.178 7.233"/><path class="st27" d="M249.217 103.927h-26.905c-6.542 0-11.103-4.436-12.767-7.054-.157-.25-.29-.51-.396-.784l-13.934-35.78c-.69-1.336-1.764-2.825-2.41-3.365h-8.387c-2.465 0-4.46-2.02-4.46-4.51 0-2.488 1.995-4.508 4.46-4.508h8.92c5.17 0 8.67 5.948 9.935 8.504.058.122.11.242.16.365l13.806 35.457c.567.71 2.367 2.657 5.072 2.657h26.905c2.863 0 4.273-2.394 4.424-2.667l6.034-10.175c1.268-2.134 4.006-2.836 6.12-1.547 2.11 1.28 2.796 4.052 1.528 6.187l-5.927 9.987c-1.28 2.527-5.47 7.233-12.178 7.233"/><path class="st4" d="M331.958 94.927h80c3.314 0 6 2.686 6 6v2c0 3.314-2.686 6-6 6h-80c-3.314 0-6-2.686-6-6v-2c0-3.314 2.687-6 6-6M331.958 68.927h80c3.314 0 6 2.687 6 6v2c0 3.314-2.686 6-6 6h-80c-3.314 0-6-2.686-6-6v-2c0-3.314 2.687-6 6-6M331.958 42.927h80c3.314 0 6 2.687 6 6v2c0 3.314-2.686 6-6 6h-80c-3.314 0-6-2.686-6-6v-2c0-3.313 2.687-6 6-6"/><path class="st4" d="M331.958 94.927h80c3.314 0 6 2.686 6 6v2c0 3.314-2.686 6-6 6h-80c-3.314 0-6-2.686-6-6v-2c0-3.314 2.687-6 6-6M331.958 68.927h80c3.314 0 6 2.687 6 6v2c0 3.314-2.686 6-6 6h-80c-3.314 0-6-2.686-6-6v-2c0-3.314 2.687-6 6-6M331.958 42.927h80c3.314 0 6 2.687 6 6v2c0 3.314-2.686 6-6 6h-80c-3.314 0-6-2.686-6-6v-2c0-3.313 2.687-6 6-6M529.858 75.927l23.334-23.334c2.344-2.343 2.344-6.142 0-8.485l-1.414-1.414c-2.343-2.344-6.142-2.344-8.485 0l-23.335 23.334-23.334-23.334c-2.343-2.344-6.142-2.344-8.485 0l-1.416 1.414c-2.343 2.344-2.343 6.143 0 8.485l23.335 23.334-23.336 23.334c-2.343 2.345-2.343 6.144 0 8.487l1.415 1.414c2.342 2.344 6.14 2.344 8.484 0l23.334-23.334 23.335 23.335c2.343 2.344 6.142 2.344 8.485 0l1.414-1.413c2.344-2.343 2.344-6.142 0-8.486l-23.334-23.333z"/><path class="st33" d="M223.958 389.927c-9.925 0-18-8.074-18-18 0-9.925 8.075-18 18-18s18 8.075 18 18c0 9.926-8.075 18-18 18m0-34.106c-8.88 0-16.105 7.227-16.105 16.106 0 8.88 7.224 16.106 16.105 16.106 8.88 0 16.105-7.225 16.105-16.106 0-8.88-7.224-16.105-16.105-16.105M75.958 389.927c-9.925 0-18-8.074-18-18 0-9.925 8.075-18 18-18s18 8.075 18 18c0 9.926-8.075 18-18 18m0-34.106c-8.88 0-16.105 7.227-16.105 16.106 0 8.88 7.224 16.106 16.105 16.106 8.88 0 16.105-7.225 16.105-16.106 0-8.88-7.224-16.105-16.105-16.105"/><path class="st4" d="M235.958 371.927c0 6.627-5.373 12-12 12s-12-5.373-12-12 5.373-12 12-12 12 5.373 12 12"/><path class="st27" d="M979.958 383.563l-11.636-11.636 11.636-11.637-4.363-4.363-11.637 11.636-11.636-11.636-4.364 4.363 11.637 11.637-11.637 11.636 4.364 4.364 11.636-11.637 11.637 11.637M796.958 368.927h38v6h-38zM516.46 678.427l-8.502-10.36 2.324-1.853 6.16 7.507 13.18-16.293 2.336 1.837M367.146 656.427l-1.876 1.877 9.624 9.623-9.624 9.624 1.876 1.877 11.5-11.5M363.8 500.505l-3.183 3.182 16.318 16.318-16.318 16.318 3.182 3.182 19.5-19.5M212.958 666.21h22v3.435h-22zM86.958 666.21h-9.282v-9.283H74.24v9.282h-9.282v3.435h9.282v9.282h3.436v-9.282h9.282"/><path class="st47" d="M388.958 852.927h-13.356l-20.644-37.137 20.644-36.863h13.356l-20.643 37.052M502.958 778.927h13.357l20.643 37.137-20.643 36.863h-13.357l20.643-37.052"/><path class="st13" d="M391.705 210.926h-39.493l19.746 15.242"/><path class="st13" d="M372.786 228.846c-.242.187-.535.28-.827.28-.294 0-.587-.093-.83-.28l-19.17-14.8v22.88h40v-22.88l-19.174 14.8zM666.323 232.987c-1.478-1.725-2.877-3.754-3.895-6.087-1.017-2.333-1.554-4.745-1.815-7.01l4.23-1.882-5.354-12.35s-2.414 1.27-2.7 2.557c-.106.645-2.598 10.818 1.586 20.414 4.183 9.596 13.396 14.74 13.785 14.952 1.38.886 3.745-.215 3.745-.215l-5.354-12.27-4.227 1.89zM674.605 229.304l-3.242 1.442 5.353 12.28 3.242-1.443M668.896 216.206l-5.353-12.28-3.242 1.442 5.353 12.28"/><path class="st27" d="M71.728 203.926v5h-6.77v30h6.77v5l15.23-6.666v-26.667l-15.23-6.667zm-3.385 8.334h3.385v23.333h-3.385V212.26zM814.077 234.346c-1.698-1.984-3.308-4.317-4.478-7s-1.788-5.457-2.09-8.062l4.865-2.164-6.156-14.204s-2.776 1.463-3.104 2.942c-.124.74-2.988 12.44 1.822 23.477 4.812 11.036 15.405 16.95 15.854 17.195 1.586 1.02 4.305-.247 4.305-.247l-6.156-14.11-4.863 2.173zM823.603 230.11l-3.73 1.658 6.156 14.12 3.73-1.657M817.036 215.047l-6.156-14.12-3.728 1.657 6.155 14.122M539.705 210.926h-39.493l19.746 15.242"/><polygon class="st16" points="634.571,547.678 701.428,547.678 668,492.332 668,492.332"/><path class="st27" d="M665 510.005h6v21h-6zM665 535.005h6v6h-6zM520.786 228.846c-.242.187-.535.28-.828.28-.292 0-.585-.093-.827-.28l-19.17-14.8v22.88h39.998v-22.88l-19.172 14.8zM83.114 1009.927v-41.965h14.152l2.12-16.355H83.113v-10.442c0-4.735 1.32-7.962 8.143-7.962l8.7-.004v-14.63c-1.504-.198-6.67-.643-12.678-.643-12.545 0-21.134 7.622-21.134 21.62v12.06H51.958v16.355h14.188v41.965h16.968zM482.24 950.826h16.18v52.1h-16.18v-52.1zm8.095-25.9c5.17 0 9.368 4.208 9.368 9.39 0 5.185-4.198 9.392-9.368 9.392-5.19 0-9.377-4.207-9.377-9.39 0-5.184 4.187-9.39 9.377-9.39M508.56 950.826h15.495v7.123h.22c2.156-4.097 7.43-8.417 15.294-8.417 16.364 0 19.39 10.788 19.39 24.82v28.574h-16.163V977.59c0-6.042-.103-13.814-8.398-13.814-8.412 0-9.695 6.585-9.695 13.382v25.77H508.56v-52.102zM264.958 938.74c-3.017 1.325-6.26 2.22-9.662 2.624 3.473-2.062 6.14-5.328 7.397-9.218-3.25 1.91-6.85 3.296-10.683 4.043-3.07-3.24-7.44-5.263-12.28-5.263-9.29 0-16.824 7.46-16.824 16.662 0 1.305.15 2.576.436 3.796-13.982-.695-26.378-7.328-34.676-17.41-1.448 2.462-2.277 5.324-2.277 8.378 0 5.78 2.97 10.88 7.483 13.868-2.758-.087-5.352-.836-7.62-2.084l-.002.21c0 8.072 5.8 14.807 13.497 16.337-1.412.38-2.898.584-4.433.584-1.084 0-2.138-.105-3.165-.3 2.14 6.62 8.353 11.437 15.715 11.572-5.758 4.47-13.012 7.132-20.894 7.132-1.357 0-2.696-.08-4.012-.232 7.445 4.727 16.288 7.485 25.79 7.485 30.943 0 47.864-25.39 47.864-47.406 0-.722-.016-1.44-.048-2.155 3.286-2.35 6.14-5.284 8.394-8.625"/><g class="st42"><path class="st29" d="M996.99 1252.467h-44.725c-3.71 0-6.73 3.018-6.73 6.728v25.633c0 3.71 3.02 6.73 6.73 6.73h44.726c3.71 0 6.73-3.02 6.73-6.73v-25.633c0-3.71-3.02-6.728-6.73-6.728m5.394 20.813h-55.49v-10.745h55.49v10.745z"/><path class="st29" d="M979.277 1232.726c-1.27-3.486-5.138-5.29-8.623-4.02l-42.03 15.298c-3.485 1.268-5.29 5.136-4.02 8.623l8.767 24.084c1.27 3.488 5.14 5.292 8.625 4.023l1-.364v-22.74c0-4.253 3.458-7.71 7.71-7.71h34.832l-6.26-17.194zm-12.57 14.313l-3.42-9.397 9.396-3.42 3.42 9.396-9.396 3.42z"/></g><g class="st42"><path class="st29" d="M696.586 1230.747c-2.207-.98-4.814.023-5.795 2.23l-15.54 35.05 8.025 3.565 15.54-35.05c.983-2.207-.022-4.814-2.23-5.795"/><path class="st29" d="M695.426 1250.37l-3.858 8.684h4.74v11.267h-9.745l-1.685 3.793c-.438.985-5.75 9.955-10.27 10.292v.032h-6.182c-2.322 0-3.304-1.224-3.953-2.034-.513-.64-.67-.81-1.238-.81-1.04 0-2.076.598-3.174 1.23-1.313.758-2.804 1.613-4.614 1.613-2.042 0-2.846-1.95-3.434-3.38-.697-1.696-1.07-2.3-1.77-2.306h-.005c-.67 0-1.74 1.08-2.688 2.035-1.614 1.627-3.622 3.65-6.384 3.65v-2.715c1.63 0 3.066-1.447 4.454-2.85 1.448-1.458 2.815-2.838 4.616-2.838h.027c2.63.022 3.61 2.41 4.26 3.99.228.552.65 1.58.91 1.697 1.097 0 2.152-.608 3.27-1.254 1.297-.745 2.766-1.59 4.53-1.59 1.897 0 2.776 1.098 3.36 1.825.543.68.814 1.02 1.832 1.02h2.44c-1.136-3.276.092-8.632.88-11.402h-33.622v-11.267h38.39l4.69-10.556h-37.425c-3.89 0-7.055 3.164-7.055 7.054v26.877c0 3.892 3.164 7.056 7.055 7.056h46.896c3.89 0 7.056-3.163 7.056-7.055v-26.877c0-2.053-.897-3.89-2.304-5.18"/><path class="st29" d="M674.53 1269.66c-.992 2.386-2.792 11.235-.62 12.2s7.53-6.305 8.635-8.638l-8.016-3.56zm-.294 11.466c-.643-.284-.848-1.436-.814-2.864l3.485 1.548c-1.038.982-2.03 1.6-2.67 1.316"/></g><g class="st42"><path class="st29" d="M395.593 1245.188c-.523-.645-1.13-1.234-1.803-1.76.09 1.668-.065 3.446-.467 5.328-1.098 5.144-3.722 9.512-7.59 12.636-3.865 3.122-8.692 4.772-13.957 4.772h-7.68l-2.484 11.645c-.49 2.284-2.538 3.94-4.874 3.94h-3.46l-.624 2.863c-.16.735.02 1.506.494 2.093.473.588 1.186.93 1.94.93h8.462c1.176 0 2.192-.823 2.437-1.973l2.906-13.616h9.695c4.69 0 8.974-1.46 12.39-4.218 3.42-2.763 5.744-6.643 6.72-11.22.99-4.63.28-8.47-2.105-11.422"/><path class="st29" d="M359.176 1277.288l2.906-13.616h9.694c4.69 0 8.974-1.46 12.392-4.22 3.42-2.76 5.742-6.64 6.72-11.217.988-4.63.28-8.472-2.107-11.423-2.29-2.833-6.207-4.593-10.22-4.593h-21.122c-1.172 0-2.185.815-2.435 1.96l-9.16 42.058c-.16.735.02 1.507.494 2.094.472.586 1.186.928 1.94.928h8.462c1.174 0 2.19-.822 2.436-1.972m7.754-35.488h6.646c1.563 0 2.962.655 3.836 1.797.928 1.215 1.2 2.894.744 4.606l-.016.064c-.836 3.528-4.313 6.4-7.75 6.4h-6.368l2.908-12.867z"/></g><path class="st33" d="M84.765 1230.927H56.958c-1.012 0-4 0-4 3.71v50.896c0 3.41 3.604 3.394 3.942 3.394h36.906c3.41 0 5.152-.255 5.152-3.666v-37.654l-14.193-16.68zm-23.645 9.193c.023-.066-.792-.058-.76-.713.03-.532.25-.748.804-.748l.186-.772c.497-2 1.58-3.7 3.064-4.676 3.567-2.35 8.276-1.022 8.8-.795 1.015.436 1.483 1.32 1.048 2.335-.438 1.015-1.617 1.333-2.623.9-.89-.374-3.416-1.232-4.93-.225-.425.28-2.05 1.23-2.277 3.23h6.85c.552 0 .812.103.812.655s-.213.72-.766.72h-7.046c-.05 0-.126-.075-.126.343 0 .22-.012.677 0 .677h5.61c.554 0 .817.26.817.813s-.23.73-.784.73h-5.704c.426 2.27 1.81 2.763 2.363 3.124 1.49.976 4.584.114 5.416-.25 1.014-.444 2.137-.573 2.583.437.446 1.007-.212 1.59-1.218 2.04-.338.152-2.4.956-4.78.956-1.335 0-2.767-.312-4.054-1.145-1.644-1.065-2.68-2.813-3.11-5.162-.538-.018-.917-.15-.917-.69 0-.48.293-.675.745-.77-.01-.25-.005-.756-.005-1.016m32.143 42.807h-32.2c-.74 0-1.34-1.105-1.34-2 0-.896.6-2 1.34-2h32.2c.74 0 1.34 1.104 1.34 2 0 1.033-.6 2-1.34 2m0-8h-32.2c-.74 0-1.34-1.105-1.34-2 0-.896.6-2 1.34-2h32.2c.74 0 1.34 1.104 1.34 2 0 1.033-.6 2-1.34 2m0-8h-32.2c-.74 0-1.34-1.105-1.34-2 0-.896.6-2 1.34-2h32.2c.74 0 1.34 1.104 1.34 2 0 1.033-.6 2-1.34 2m0-8h-32.2c-.74 0-1.34-1.105-1.34-2 0-.896.6-2 1.34-2h32.2c.74 0 1.34 1.104 1.34 2 0 1.033-.6 2-1.34 2m-8.14-16.285c-1.344-.534-2.182-1.882-2.067-3.323l1.69-7.668 13.694 16.29-13.318-5.3z"/><g class="st42"><path class="st27" d="M1144.99 1252.467h-44.725c-3.71 0-6.73 3.018-6.73 6.728v25.633c0 3.71 3.02 6.73 6.73 6.73h44.726c3.71 0 6.73-3.02 6.73-6.73v-25.633c0-3.71-3.02-6.728-6.73-6.728m5.394 20.813h-55.49v-10.745h55.49v10.745z"/><path class="st27" d="M1127.277 1232.726c-1.27-3.486-5.138-5.29-8.623-4.02l-42.03 15.298c-3.485 1.268-5.29 5.136-4.02 8.623l8.767 24.084c1.27 3.488 5.14 5.292 8.625 4.023l1-.364v-22.74c0-4.253 3.458-7.71 7.71-7.71h34.832l-6.26-17.194zm-12.57 14.313l-3.42-9.397 9.396-3.42 3.42 9.396-9.396 3.42z"/></g><g class="st42"><path class="st27" d="M844.586 1230.747c-2.207-.98-4.814.023-5.795 2.23l-15.54 35.05 8.025 3.565 15.54-35.05c.983-2.207-.022-4.814-2.23-5.795"/><path class="st27" d="M843.426 1250.37l-3.858 8.684h4.74v11.267h-9.745l-1.685 3.793c-.438.985-5.75 9.955-10.27 10.292v.032h-6.182c-2.322 0-3.304-1.224-3.953-2.034-.513-.64-.67-.81-1.238-.81-1.04 0-2.076.598-3.174 1.23-1.313.758-2.804 1.613-4.614 1.613-2.042 0-2.846-1.95-3.434-3.38-.697-1.696-1.07-2.3-1.77-2.306h-.005c-.67 0-1.74 1.08-2.688 2.035-1.614 1.627-3.622 3.65-6.384 3.65v-2.715c1.63 0 3.066-1.447 4.454-2.85 1.448-1.458 2.815-2.838 4.616-2.838h.027c2.63.022 3.61 2.41 4.26 3.99.228.552.65 1.58.91 1.697 1.097 0 2.152-.608 3.27-1.254 1.297-.745 2.766-1.59 4.53-1.59 1.897 0 2.776 1.098 3.36 1.825.543.68.814 1.02 1.832 1.02h2.44c-1.136-3.276.092-8.632.88-11.402h-33.622v-11.267h38.39l4.69-10.556h-37.425c-3.89 0-7.055 3.164-7.055 7.054v26.877c0 3.892 3.164 7.056 7.055 7.056h46.896c3.89 0 7.056-3.163 7.056-7.055v-26.877c0-2.053-.897-3.89-2.304-5.18"/><path class="st27" d="M822.53 1269.66c-.992 2.386-2.792 11.235-.62 12.2s7.53-6.305 8.635-8.638l-8.016-3.56zm-.294 11.466c-.643-.284-.848-1.436-.814-2.864l3.485 1.548c-1.038.982-2.03 1.6-2.67 1.316"/></g><g class="st42"><path class="st27" d="M543.593 1245.188c-.523-.645-1.13-1.234-1.803-1.76.09 1.668-.065 3.446-.467 5.328-1.098 5.144-3.722 9.512-7.59 12.636-3.865 3.122-8.692 4.772-13.957 4.772h-7.68l-2.484 11.645c-.49 2.284-2.538 3.94-4.874 3.94h-3.46l-.624 2.863c-.16.735.02 1.506.494 2.093.473.588 1.186.93 1.94.93h8.462c1.176 0 2.192-.823 2.437-1.973l2.906-13.616h9.695c4.69 0 8.974-1.46 12.39-4.218 3.42-2.763 5.744-6.643 6.72-11.22.99-4.63.28-8.47-2.105-11.422"/><path class="st27" d="M507.176 1277.288l2.906-13.616h9.694c4.69 0 8.974-1.46 12.392-4.22 3.42-2.76 5.742-6.64 6.72-11.217.988-4.63.28-8.472-2.107-11.423-2.29-2.833-6.207-4.593-10.22-4.593h-21.122c-1.172 0-2.185.815-2.435 1.96l-9.16 42.058c-.16.735.02 1.507.494 2.094.472.586 1.186.928 1.94.928h8.462c1.174 0 2.19-.822 2.436-1.972m7.754-35.488h6.646c1.563 0 2.962.655 3.836 1.797.928 1.215 1.2 2.894.744 4.606l-.016.064c-.836 3.528-4.313 6.4-7.75 6.4h-6.368l2.908-12.867z"/></g><path class="st27" d="M232.765 1230.927H204.96c-1.013 0-4 0-4 3.71v50.896c0 3.41 3.603 3.394 3.94 3.394h36.907c3.41 0 5.152-.255 5.152-3.666v-37.654l-14.195-16.68zm-23.645 9.193c.023-.066-.792-.058-.76-.713.03-.532.25-.748.804-.748l.186-.772c.497-2 1.58-3.7 3.064-4.676 3.567-2.35 8.276-1.022 8.8-.795 1.015.436 1.483 1.32 1.048 2.335-.438 1.015-1.617 1.333-2.623.9-.89-.374-3.416-1.232-4.93-.225-.425.28-2.05 1.23-2.277 3.23h6.85c.552 0 .812.103.812.655s-.213.72-.766.72h-7.046c-.05 0-.126-.075-.126.343 0 .22-.012.677 0 .677h5.61c.554 0 .817.26.817.813s-.23.73-.784.73h-5.704c.426 2.27 1.81 2.763 2.363 3.124 1.49.976 4.584.114 5.416-.25 1.014-.444 2.137-.573 2.583.437.446 1.007-.212 1.59-1.218 2.04-.338.152-2.4.956-4.78.956-1.335 0-2.767-.312-4.054-1.145-1.644-1.065-2.68-2.813-3.11-5.162-.538-.018-.917-.15-.917-.69 0-.48.293-.675.745-.77-.01-.25-.005-.756-.005-1.016m32.143 42.807h-32.198c-.74 0-1.34-1.105-1.34-2 0-.896.6-2 1.34-2h32.198c.74 0 1.34 1.104 1.34 2 0 1.033-.6 2-1.34 2m0-8h-32.198c-.74 0-1.34-1.105-1.34-2 0-.896.6-2 1.34-2h32.198c.74 0 1.34 1.104 1.34 2 0 1.033-.6 2-1.34 2m0-8h-32.198c-.74 0-1.34-1.105-1.34-2 0-.896.6-2 1.34-2h32.198c.74 0 1.34 1.104 1.34 2 0 1.033-.6 2-1.34 2m0-8h-32.198c-.74 0-1.34-1.105-1.34-2 0-.896.6-2 1.34-2h32.198c.74 0 1.34 1.104 1.34 2 0 1.033-.6 2-1.34 2m-8.14-16.285c-1.344-.534-2.182-1.882-2.067-3.323l1.69-7.668 13.694 16.29-13.318-5.3z"/><g class="st42"><defs><path id="SVGID_4_" d="M349.908 1089.927v44h43.84v-14.52c.175-.253.26-.574.26-.968 0-.452-.085-.73-.26-.966v-27.547h-43.84z"/></defs><clipPath id="SVGID_15_"><use xlink:href="#SVGID_4_" overflow="visible"/></clipPath><radialGradient id="SVGID_16_" cx="-14.39" cy="2368.247" r="1" gradientTransform="translate(949.652 -96333.508) scale(41.1406)" gradientUnits="userSpaceOnUse"><stop offset="0" stop-color="#9FD3F4"/><stop offset=".071" stop-color="#99D2F3"/><stop offset=".158" stop-color="#8CCDF2"/><stop offset=".252" stop-color="#71C5F0"/><stop offset=".351" stop-color="#51BAEB"/><stop offset=".455" stop-color="#2CACE3"/><stop offset=".5" stop-color="#21A5DF"/><stop offset="1" stop-color="#3676BB"/></radialGradient><path class="st8" d="M349.908 1089.927h44.1v44h-44.1z"/><path class="st14" d="M353.86 1108.967l-.845-2.056-.838 2.057m20.262-.82c-.17.104-.37.107-.61.107h-1.496v-1.146h1.517c.216 0 .44.01.585.093.16.076.26.236.26.456-.002.228-.095.408-.256.49m10.68.82l-.855-2.055-.848 2.057h1.702zm-19.907 2.224h-1.265l-.004-4.037-1.786 4.037h-1.082l-1.79-4.04v4.04h-2.51l-.472-1.148h-2.566l-.478 1.148h-1.34l2.208-5.154h1.83l2.097 4.88v-4.88h2.01l1.613 3.496 1.482-3.496h2.052v5.154zm5.034 0h-4.116v-5.154h4.117v1.073h-2.885v.93h2.815v1.056h-2.815v1.03h2.885v1.064zm5.804-3.766c0 .822-.547 1.247-.867 1.375.27.1.5.283.61.433.174.256.204.485.204.946v1.01h-1.243l-.005-.648c0-.31.028-.757-.195-1.005-.18-.18-.455-.22-.9-.22h-1.32v1.874h-1.233v-5.153h2.835c.63 0 1.094.017 1.492.246.387.23.62.566.62 1.14m1.972 3.767h-1.257v-5.154h1.257v5.154zm14.587 0h-1.747l-2.336-3.87v3.87h-2.51l-.478-1.148h-2.562l-.465 1.148h-1.442c-.598 0-1.355-.132-1.784-.57-.435-.437-.66-1.03-.66-1.968 0-.765.136-1.464.665-2.016.4-.41 1.023-.6 1.873-.6h1.192v1.103h-1.168c-.45 0-.704.066-.948.304-.212.218-.355.628-.355 1.168 0 .553.11.95.34 1.212.19.203.534.265.858.265h.553l1.737-4.055h1.847l2.086 4.875v-4.875h1.876l2.166 3.59v-3.59h1.262v5.155zm-40.702 1.014h2.104l.475-1.146h1.063l.473 1.146h4.144v-.875l.37.878h2.15l.37-.894v.89h10.294l-.004-1.88h.2c.14.005.18.018.18.247v1.634h5.324v-.438c.43.23 1.098.438 1.977.438h2.24l.48-1.146h1.062l.468 1.146h4.317v-1.088l.653 1.088h3.46v-7.19h-3.424v.85l-.48-.85h-3.512v.85l-.44-.85h-4.745c-.794 0-1.493.11-2.057.42v-.42h-3.274v.42c-.358-.32-.848-.42-1.392-.42h-11.962l-.803 1.857-.825-1.856h-3.77v.85l-.413-.85h-3.214l-1.49 3.418v3.772zM393.75 1116.007h-2.246c-.225 0-.373.008-.5.093-.13.083-.18.207-.18.37 0 .195.11.327.27.385.13.045.27.06.475.06l.667.017c.674.018 1.124.132 1.398.415.05.04.08.084.114.128m0 1.93c-.3.438-.884.66-1.674.66h-2.38v-1.105h2.37c.236 0 .4-.03.5-.128.085-.08.145-.195.145-.336 0-.15-.06-.27-.148-.34-.09-.08-.22-.116-.436-.116-1.156-.04-2.6.035-2.6-1.596 0-.748.475-1.535 1.768-1.535h2.454v-1.027h-2.28c-.687 0-1.187.165-1.54.422v-.422h-3.375c-.54 0-1.172.134-1.473.422v-.422h-6.022v.422c-.48-.346-1.288-.422-1.662-.422h-3.974v.422c-.38-.368-1.223-.422-1.736-.422h-4.446l-1.018 1.102-.953-1.102h-6.645v7.195h6.52l1.047-1.118.988 1.118 4.018.004v-1.692h.395c.533.008 1.162-.014 1.717-.253v1.94h3.313v-1.874h.16c.204 0 .225.01.225.212v1.663h10.066c.64 0 1.307-.163 1.677-.46v.46h3.194c.664 0 1.313-.094 1.807-.33v-1.343zm-4.917-2.06c.24.25.37.563.37 1.094 0 1.108-.693 1.626-1.937 1.626h-2.4v-1.105h2.39c.234 0 .4-.03.505-.127.085-.08.146-.195.146-.336 0-.15-.065-.27-.15-.34-.094-.08-.224-.116-.438-.116-1.152-.038-2.596.036-2.596-1.595 0-.748.47-1.535 1.762-1.535h2.47v1.098h-2.26c-.224 0-.37.008-.494.093-.134.085-.185.208-.185.372 0 .195.115.327.27.384.13.045.27.06.48.06l.663.017c.668.015 1.127.13 1.405.413m-11.118-.32c-.165.1-.37.107-.608.107h-1.497v-1.158h1.517c.22 0 .44.005.59.093.158.083.254.243.254.464s-.096.4-.255.495m.743.642c.274.1.5.282.604.432.174.252.2.487.204.942v1.02h-1.237v-.644c0-.312.03-.77-.2-1.01-.18-.185-.455-.23-.903-.23h-1.317v1.885h-1.238v-5.156h2.845c.624 0 1.078.026 1.482.242.39.235.633.557.633 1.146 0 .823-.55 1.243-.875 1.37m1.558-2.76h4.113v1.067h-2.888v.938h2.815v1.052h-2.815v1.026l2.887.006v1.07h-4.114v-5.157zm-8.315 2.38h-1.59v-1.312h1.605c.444 0 .754.182.754.632 0 .446-.295.68-.77.68m-2.818 2.31l-1.893-2.102 1.892-2.033v4.134zm-4.887-.607h-3.028v-1.025h2.705v-1.052h-2.705v-.938h3.09l1.347 1.502-1.41 1.514zm9.797-2.383c0 1.433-1.068 1.73-2.146 1.73h-1.537v1.728h-2.397l-1.517-1.707-1.577 1.707h-4.882v-5.156h4.956l1.516 1.688 1.568-1.69h3.938c.977 0 2.076.272 2.076 1.7"/></g><g class="st42"><path class="st34" d="M37.906 1089.927h76.104v44H37.906z"/><path class="st22" d="M69.015 1119.266l2.37-14.685h3.793l-2.37 14.686zM86.56 1104.94c-.75-.294-1.93-.615-3.398-.615-3.748 0-6.387 1.992-6.41 4.847-.022 2.11 1.884 3.288 3.322 3.99 1.477.718 1.974 1.18 1.968 1.82-.01.984-1.18 1.436-2.27 1.436-1.52 0-2.324-.223-3.57-.77l-.49-.234-.53 3.286c.886.41 2.524.765 4.226.782 3.983 0 6.572-1.968 6.603-5.015.016-1.674-.996-2.943-3.184-3.99-1.325-.68-2.14-1.132-2.128-1.82 0-.61.687-1.265 2.172-1.265 1.24-.02 2.138.267 2.837.564l.34.168.512-3.183M96.286 1104.597h-2.93c-.91 0-1.59.26-1.99 1.217l-5.63 13.457h3.983s.65-1.81.796-2.206l4.856.007c.113.514.462 2.2.462 2.2h3.52l-3.068-14.673m-4.68 9.463c.315-.845 1.51-4.104 1.51-4.104-.02.038.314-.85.506-1.4l.256 1.266s.728 3.505.878 4.24h-3.15zM65.833 1104.594l-3.71 10.01-.398-2.034c-.69-2.345-2.845-4.886-5.252-6.16l3.395 12.844 4.013-.004 5.973-14.655h-4.02"/><path class="st21" d="M58.677 1104.583h-6.113l-.052.305c4.76 1.217 7.906 4.152 9.213 7.682l-1.328-6.747c-.23-.93-.897-1.207-1.72-1.24"/><path class="st22" d="M100.584 1117.52c.47 0 .837.374.837.836s-.367.84-.836.84-.837-.378-.837-.84.368-.837.837-.837m0 1.547c.38 0 .68-.316.68-.712 0-.394-.3-.71-.68-.71-.38 0-.68.316-.68.71 0 .396.3.712.68.712m-.307-1.136h.37c.086 0 .276.024.276.242 0 .058-.017.14-.14.192v.005c.105.017.11.117.117.2.01.13 0 .15.033.197h-.16c-.03-.03-.023-.055-.03-.19 0-.077-.01-.156-.184-.156h-.13v.348h-.154v-.837zm.156.376h.18c.126 0 .153-.074.153-.134 0-.103-.066-.126-.17-.126h-.163v.26z"/></g><g class="st42"><path class="st11" d="M569.39 1099.435c0-2.08-1.086-1.942-2.125-1.966v-.6c.9.044 1.825.044 2.727.044.97 0 2.29-.043 4-.043 5.986 0 9.246 3.997 9.246 8.09 0 2.29-1.34 8.046-9.523 8.046-1.177 0-2.267-.045-3.352-.045-1.04 0-2.06.024-3.098.046v-.603c1.384-.14 2.057-.185 2.125-1.756v-11.212zm2.265 10.842c0 1.78 1.273 1.987 2.404 1.987 4.995 0 6.633-3.767 6.633-7.21 0-4.322-2.773-7.443-7.235-7.443-.948 0-1.385.067-1.803.093v12.574zM584.047 1112.403h.44c.646 0 1.107 0 1.107-.765v-6.262c0-1.018-.345-1.158-1.203-1.616v-.37c1.09-.327 2.383-.762 2.477-.834.163-.09.298-.114.416-.114.113 0 .16.137.16.322v8.875c0 .764.51.764 1.156.764h.392v.603c-.785 0-1.595-.045-2.426-.045-.833 0-1.665.023-2.52.045v-.604zm2.476-13.522c-.604 0-1.135-.554-1.135-1.155 0-.58.554-1.112 1.135-1.112.598 0 1.132.486 1.132 1.112 0 .625-.51 1.156-1.132 1.156zM591.19 1105.514c0-.853-.253-1.085-1.34-1.522v-.44c.993-.325 1.94-.627 3.05-1.11.072 0 .138.046.138.228v1.507c1.32-.95 2.454-1.734 4.002-1.734 1.966 0 2.658 1.432 2.658 3.235v5.96c0 .766.51.766 1.155.766h.418v.603c-.812 0-1.62-.045-2.448-.045-.834 0-1.666.023-2.498.045v-.603h.416c.646 0 1.107 0 1.107-.765v-5.984c0-1.32-.808-1.966-2.126-1.966-.738 0-1.916.6-2.683 1.11v6.838c0 .765.513.765 1.16.765h.415v.603c-.81 0-1.62-.045-2.454-.045-.83 0-1.664.024-2.495.046v-.603h.42c.646 0 1.106 0 1.106-.765v-6.124zM603.03 1106.626c-.05.208-.05.553 0 1.34.134 2.197 1.547 4 3.395 4 1.272 0 2.27-.694 3.123-1.55l.323.324c-1.064 1.41-2.38 2.612-4.275 2.612-3.677 0-4.416-3.56-4.416-5.04 0-4.53 3.05-5.87 4.665-5.87 1.874 0 3.89 1.176 3.908 3.626 0 .142 0 .28-.02.418l-.212.14h-6.49zm4.09-.74c.578 0 .645-.3.645-.578 0-1.18-.716-2.128-2.01-2.128-1.41 0-2.38 1.04-2.657 2.706h4.023zM610.285 1112.403h.63c.644 0 1.103 0 1.103-.765v-6.493c0-.716-.854-.855-1.2-1.042v-.343c1.687-.718 2.615-1.318 2.823-1.318.138 0 .206.066.206.3v2.08h.05c.577-.9 1.548-2.38 2.958-2.38.577 0 1.316.39 1.316 1.224 0 .624-.438 1.18-1.087 1.18-.718 0-.718-.557-1.526-.557-.393 0-1.687.53-1.687 1.92v5.428c0 .765.46.765 1.11.765h1.293v.603c-1.27-.02-2.24-.045-3.235-.045-.947 0-1.92.024-2.753.046v-.603zM619.186 1109.792c.303 1.524 1.227 2.82 2.916 2.82 1.36 0 1.867-.833 1.867-1.64 0-2.728-5.036-1.854-5.036-5.573 0-1.298 1.04-2.96 3.584-2.96.74 0 1.732.21 2.635.67l.162 2.358h-.53c-.232-1.456-1.043-2.29-2.522-2.29-.926 0-1.803.534-1.803 1.526 0 2.708 5.363 1.874 5.363 5.502 0 1.524-1.226 3.144-3.977 3.144-.928 0-2.012-.323-2.82-.784l-.256-2.66.416-.114zM646.695 1101.053h-.576c-.44-2.703-2.36-3.79-4.946-3.79-2.66 0-6.523 1.78-6.523 7.325 0 4.673 3.337 8.025 6.893 8.025 2.288 0 4.185-1.57 4.647-4l.53.137-.53 3.376c-.97.602-3.586 1.225-5.112 1.225-5.41 0-8.825-3.49-8.825-8.69 0-4.74 4.227-8.14 8.76-8.14 1.873 0 3.673.603 5.455 1.226l.227 3.307zM647.527 1112.403h.44c.648 0 1.11 0 1.11-.765v-12.87c0-1.506-.346-1.553-1.225-1.806v-.37c.924-.3 1.895-.715 2.38-.996.255-.137.44-.255.51-.255.142 0 .185.14.185.327v15.97c0 .765.51.765 1.156.765h.393v.603c-.782 0-1.592-.045-2.428-.045-.83 0-1.662.023-2.52.045v-.602zM662.373 1111.732c0 .418.252.44.646.44.274 0 .624-.022.925-.022v.486c-.996.092-2.89.577-3.334.715l-.112-.068v-1.87c-1.385 1.132-2.452 1.94-4.094 1.94-1.248 0-2.54-.808-2.54-2.748v-5.92c0-.603-.093-1.182-1.386-1.296v-.44c.834-.025 2.678-.16 2.982-.16.255 0 .255.16.255.67v5.962c0 .692 0 2.682 2.01 2.682.786 0 1.825-.603 2.796-1.406v-6.223c0-.46-1.108-.714-1.938-.948v-.416c2.08-.14 3.377-.323 3.605-.323.186 0 .186.16.186.416v8.53zM666.973 1104.103c.924-.782 2.176-1.66 3.443-1.66 2.684 0 4.3 2.335 4.3 4.852 0 3.027-2.218 6.057-5.526 6.057-1.71 0-2.61-.554-3.213-.807l-.69.53-.485-.254c.203-1.362.322-2.707.322-4.115v-9.938c0-1.505-.346-1.552-1.225-1.805v-.37c.925-.3 1.894-.715 2.38-.996.252-.137.438-.255.51-.255.14 0 .184.14.184.327v8.436zm0 6.29c0 .88.832 2.358 2.383 2.358 2.475 0 3.514-2.428 3.514-4.486 0-2.495-1.896-4.574-3.697-4.574-.86 0-1.576.555-2.2 1.09v5.613zM567.24 1126.445h.175c.452 0 .932-.06.932-.716v-6.59c0-.657-.48-.717-.932-.717h-.176v-.382c.49 0 1.244.053 1.862.053.628 0 1.383-.052 1.973-.052v.383h-.176c-.453 0-.932.06-.932.716v6.59c0 .655.48.715.93.715h.177v.38c-.604 0-1.36-.05-1.986-.05-.62 0-1.36.05-1.85.05v-.38z"/><path class="st11" d="M571.075 1126.878c-.607 0-1.36-.05-1.986-.05-.618 0-1.357.05-1.85.05h-.057v-.485H567.414c.456-.01.873-.05.875-.664v-6.59c-.002-.616-.42-.657-.875-.666h-.23v-.484h.055c.494 0 1.247.05 1.863.05.626 0 1.378-.05 1.973-.05h.056v.486H570.9c-.457.008-.875.048-.877.664v6.59c.002.615.42.653.877.664h.23v.484h-.055zm-.054-.107l.002-.267h-.122c-.45 0-.985-.08-.987-.773v-6.59c.002-.694.54-.77.987-.77h.12v-.27c-.58 0-1.308.05-1.918.05-.597 0-1.32-.047-1.808-.05v.27h.12c.45 0 .985.076.985.77v6.59c0 .694-.537.773-.985.773h-.12v.268c.486-.005 1.197-.05 1.793-.05.613 0 1.34.047 1.933.05zM579.717 1124.347l.025-.026v-4.715c0-1.03-.718-1.18-1.097-1.18h-.275v-.383c.59 0 1.17.052 1.762.052.514 0 1.033-.052 1.545-.052v.382h-.186c-.528 0-1.12.1-1.12 1.595v5.725c0 .44.014.88.075 1.27h-.478l-6.477-7.22v5.18c0 1.098.21 1.47 1.18 1.47h.215v.38c-.54 0-1.082-.05-1.624-.05-.56 0-1.142.05-1.707.05v-.38h.176c.867 0 1.132-.586 1.132-1.594v-5.296c0-.706-.58-1.13-1.145-1.13h-.164v-.382c.477 0 .968.052 1.445.052.378 0 .745-.052 1.12-.052l5.6 6.305z"/><path class="st11" d="M580.445 1127.07l-.52-.02-6.383-7.116v5.04c.016 1.096.183 1.406 1.128 1.42h.27v.484h-.056c-.544 0-1.086-.05-1.624-.05-.56 0-1.14.05-1.71.05h-.055v-.484H571.728c.833-.007 1.07-.54 1.08-1.544v-5.297c-.002-.67-.553-1.076-1.092-1.08h-.22v-.485h.055c.483 0 .973.05 1.448.05.374 0 .738-.05 1.163-.03l5.528 6.22v-4.625c-.006-1-.673-1.12-1.042-1.13h-.332v-.486h.057c.594 0 1.174.05 1.763.05.51 0 1.027-.05 1.545-.05h.058v.484h-.244c-.52.015-1.052.062-1.067 1.543v5.726c0 .44.013.878.074 1.262l.01.064h-.065v.003zm-.478-.112h.417c-.058-.377-.066-.797-.066-1.213v-5.726c0-1.51.63-1.65 1.173-1.65h.134v-.27c-.498.003-.993.05-1.492.05-.576 0-1.137-.047-1.707-.05v.27h.22c.388 0 1.15.17 1.15 1.236l-.016 4.754-.028.023-.042.04-5.593-6.323c-.374 0-.738.05-1.12.05-.46 0-.936-.048-1.39-.05l-.003.268h.11c.59 0 1.198.45 1.198 1.186v5.297c0 1.008-.28 1.65-1.186 1.653l-.12-.004v.27c.543-.005 1.103-.05 1.652-.05.527 0 1.05.045 1.568.05v-.267h-.16c-.99-.004-1.235-.433-1.235-1.528v-5.322l6.537 7.305zm-.25-2.61l.04-.038-.04.037zm-.03-.027v-.003l-.01-.008.01.01zM583.56 1118.672c-.942 0-.977.227-1.167 1.145h-.377c.052-.352.114-.703.153-1.07.047-.352.073-.706.073-1.068h.302c.102.376.416.36.757.36h6.49c.337 0 .653-.01.678-.387l.3.05c-.047.337-.1.678-.137 1.02-.026.338-.026.68-.026 1.018l-.375.143c-.026-.468-.09-1.21-.933-1.21h-2.063v6.69c0 .972.44 1.082 1.044 1.082h.24v.38c-.49 0-1.373-.05-2.05-.05-.753 0-1.635.05-2.127.05v-.38h.24c.693 0 1.043-.06 1.043-1.053v-6.72h-2.065z"/><path class="st11" d="M588.52 1126.878c-.494 0-1.375-.05-2.05-.05-.754 0-1.632.05-2.128.05h-.053v-.484h.292c.693-.018.973-.026.987-1.002v-6.667h-2.01v-.107h2.12v6.774c0 1.01-.407 1.11-1.1 1.11h-.185v.267c.498-.004 1.342-.05 2.073-.05.656 0 1.497.046 1.994.05v-.266h-.182c-.61 0-1.1-.146-1.1-1.137v-6.746h2.118c.845.002.956.718.982 1.186l.274-.1c0-.327.002-.657.023-.99.035-.32.082-.642.13-.964l-.192-.033c-.062.364-.414.386-.73.38h-6.551c-.296 0-.618-.014-.73-.364h-.21c0 .348-.025.684-.074 1.02-.037.346-.092.68-.14 1.01h.27c.166-.876.273-1.16 1.21-1.146v.109c-.928.02-.908.173-1.115 1.104l-.006.042h-.488l.01-.064c.047-.352.114-.703.152-1.07.05-.35.075-.7.075-1.06v-.055H582.587l.008.04c.087.318.317.32.64.327H589.787c.35-.006.607-.013.628-.34l.004-.06.055.012.354.056-.007.054c-.05.34-.1.678-.135 1.014-.026.336-.026.677-.026 1.016v.04l-.036.014-.446.163-.002-.076c-.034-.472-.083-1.158-.88-1.158h-2.007v6.64c.014.95.39 1.015.99 1.028h.293v.485h-.052v-.002z"/><g><path class="st11" d="M591.173 1126.445h.176c.452 0 .93-.06.93-.716v-6.59c0-.657-.478-.717-.93-.717h-.177v-.382c.766 0 2.077.053 3.132.053 1.057 0 2.365-.052 3.218-.052-.02.543-.01 1.375.028 1.928l-.38.1c-.06-.816-.21-1.47-1.53-1.47h-1.747v3.292h1.492c.758 0 .922-.424.995-1.104h.375c-.023.49-.036.98-.036 1.47 0 .48.012.957.035 1.435l-.375.076c-.073-.754-.11-1.245-.98-1.245h-1.507v2.93c0 .82.728.82 1.53.82 1.513 0 2.177-.1 2.554-1.535l.352.088c-.163.67-.314 1.33-.427 2-.805 0-2.252-.05-3.385-.05s-2.628.05-3.345.05v-.378z"/><path class="st11" d="M597.902 1126.878c-.81 0-2.254-.052-3.385-.052-1.133 0-2.626.052-3.345.052h-.056v-.484H591.348c.455-.01.87-.05.875-.665v-6.59c-.004-.614-.42-.655-.875-.666h-.23v-.484h.055c.768 0 2.077.05 3.132.05 1.055 0 2.362-.05 3.218-.05h.056v.056c-.012.19-.017.412-.017.652 0 .433.016.91.04 1.267v.045l-.042.013-.44.116-.002-.067c-.074-.814-.182-1.408-1.48-1.42h-1.694v3.184h1.44c.728-.004.855-.377.942-1.055l.004-.05h.483v.057c-.025.49-.04.978-.04 1.47 0 .476.015.954.04 1.434v.043l-.045.01-.438.086-.004-.058c-.088-.768-.092-1.188-.928-1.198l-1.455-.002v2.88c.002.764.66.76 1.48.764 1.516-.01 2.122-.084 2.5-1.497l.012-.05.055.01.402.105-.01.05c-.164.666-.313 1.333-.428 1.997l-.008.045h-.044v-.002zm-.045-.11c.107-.634.25-1.27.406-1.903l-.248-.062c-.377 1.408-1.105 1.533-2.592 1.522-.793 0-1.586 0-1.59-.873v-2.984h1.564c.88-.01.967.52 1.03 1.237l.27-.056c-.02-.464-.034-.93-.034-1.392 0-.472.013-.943.034-1.42h-.27c-.07.66-.274 1.118-1.044 1.11h-1.55v-3.407h1.804c1.307-.005 1.525.67 1.58 1.46l.27-.074c-.02-.356-.033-.808-.033-1.228 0-.22.005-.42.01-.598-.854.002-2.128.05-3.16.05-1.034 0-2.31-.048-3.08-.05v.268h.123c.448 0 .984.077.986.77v6.59c-.002.695-.538.77-.986.774h-.122v.266c.73-.002 2.187-.05 3.29-.05 1.112.002 2.528.05 3.342.05z"/></g><g><path class="st11" d="M600.028 1119.378c0-.92-.503-.954-.894-.954h-.23v-.382c.404 0 1.184.052 1.953.052.753 0 1.357-.052 2.026-.052 1.582 0 2.99.43 2.99 2.217 0 1.13-.753 1.82-1.745 2.215l2.15 3.215c.352.534.6.682 1.22.755v.38c-.416 0-.817-.05-1.232-.05-.393 0-.794.05-1.184.05-.967-1.27-1.798-2.63-2.617-4.078h-.827v2.692c0 .97.45 1.004 1.03 1.004h.228v.38c-.72 0-1.45-.05-2.165-.05-.603 0-1.193.05-1.825.05v-.38h.23c.462 0 .893-.21.893-.678v-6.388zm1.61 2.917h.616c1.258 0 1.936-.476 1.936-1.96 0-1.118-.717-1.838-1.838-1.838-.38 0-.54.04-.713.05v3.748z"/><path class="st11" d="M607.5 1126.878c-.424 0-.822-.05-1.238-.05-.38 0-.784.05-1.224.03-.962-1.266-1.79-2.616-2.603-4.055h-.744v2.637c.015.947.396.94.978.954h.282v.485h-.058c-.72 0-1.45-.05-2.163-.05-.604 0-1.19.05-1.825.05h-.052v-.485H599.135c.45-.005.83-.202.835-.627v-6.39c-.01-.892-.445-.89-.836-.903h-.28v-.484h.05c.41 0 1.186.05 1.953.05.75 0 1.355-.05 2.026-.05 1.584 0 3.044.443 3.048 2.267 0 1.136-.75 1.846-1.72 2.24l2.113 3.164c.352.524.568.655 1.182.734l.045.004v.48h-.05zm-5.863-4.184h.86l.014.028c.82 1.447 1.647 2.804 2.573 4.05.386 0 .79-.052 1.18-.052.402 0 .79.043 1.18.05v-.278c-.59-.07-.865-.25-1.208-.77l-2.19-3.275.063-.025c.984-.388 1.713-1.06 1.715-2.165-.002-1.743-1.36-2.15-2.938-2.157-.665 0-1.27.05-2.026.05-.742 0-1.485-.048-1.897-.05v.268h.174c.39 0 .945.064.945 1.01v6.39c0 .506-.472.735-.945.735h-.174v.266c.606-.003 1.177-.05 1.77-.05.704 0 1.412.047 2.108.05v-.267h-.17c-.573 0-1.086-.07-1.086-1.063v-2.746h.053zm0-.345h-.055v-3.853l.048-.004c.17-.015.34-.047.722-.047 1.145 0 1.89.744 1.894 1.89-.005 1.5-.725 2.014-1.99 2.014h-.62zm.617-.108c1.242-.013 1.873-.444 1.884-1.906-.007-1.098-.69-1.78-1.786-1.786-.34 0-.5.03-.66.047v3.644h.562v.002z"/></g><g><path class="st11" d="M616.037 1124.347l.023-.026v-4.715c0-1.03-.716-1.18-1.09-1.18h-.28v-.383c.595 0 1.17.052 1.763.052.517 0 1.03-.052 1.55-.052v.382h-.188c-.53 0-1.12.1-1.12 1.595v5.725c0 .44.01.88.07 1.27h-.475l-6.478-7.22v5.18c0 1.098.214 1.47 1.183 1.47h.214v.38c-.542 0-1.085-.05-1.625-.05-.565 0-1.146.05-1.708.05v-.38h.17c.87 0 1.135-.586 1.135-1.594v-5.296c0-.706-.578-1.13-1.143-1.13h-.163v-.382c.475 0 .97.052 1.444.052.378 0 .742-.052 1.12-.052l5.597 6.305z"/><path class="st11" d="M616.766 1127.07l-.516-.02-6.385-7.116v5.04c.018 1.098.183 1.406 1.13 1.42h.27v.484h-.058c-.544 0-1.084-.052-1.622-.052-.562 0-1.146.052-1.708.052h-.06v-.484h.23c.832-.005 1.07-.54 1.08-1.546v-5.294c-.003-.67-.55-1.076-1.088-1.08h-.224v-.483h.06c.48 0 .972.05 1.445.05.37 0 .736-.05 1.156-.034l5.53 6.225v-4.625c0-1-.673-1.124-1.037-1.13h-.334v-.484h.055c.597 0 1.175.05 1.763.05.512 0 1.03-.05 1.547-.05h.055v.487h-.241c-.52.012-1.055.06-1.068 1.542v5.725c0 .438.012.873.076 1.26l.006.065h-.062zm-.476-.112h.41c-.05-.375-.063-.797-.063-1.213v-5.726c0-1.51.637-1.65 1.178-1.65h.13v-.27c-.495.003-.99.05-1.49.05-.577 0-1.14-.047-1.708-.05v.27h.224c.387 0 1.15.17 1.15 1.236l-.018 4.754-.023.023-.042.043-5.598-6.326c-.373 0-.738.05-1.118.05-.466 0-.937-.048-1.394-.05v.268h.11c.59.002 1.197.448 1.197 1.186v5.294c0 1.01-.285 1.65-1.188 1.655h-.12v.266c.545-.005 1.105-.05 1.657-.05.524 0 1.048.045 1.57.05v-.267h-.16c-.99 0-1.24-.43-1.24-1.528v-5.322l6.536 7.305zm-.253-2.61l.04-.038-.04.037zm-.03-.027v-.003l-.007-.008.008.01z"/></g><g><path class="st11" d="M620.026 1125.026c-.126.426-.28.756-.28.98 0 .378.53.438.945.438h.14v.38c-.506-.027-1.02-.05-1.523-.05-.453 0-.905.023-1.357.05v-.38h.075c.49 0 .907-.29 1.09-.817l2.017-5.77c.162-.468.393-1.096.465-1.564.402-.137.906-.388 1.146-.54.04-.013.06-.023.1-.023.035 0 .062 0 .09.036.035.1.072.215.113.315l2.313 6.58c.15.44.302.907.464 1.284.152.352.416.5.832.5h.073v.38c-.564-.027-1.133-.05-1.735-.05-.615 0-1.245.023-1.884.05v-.38h.138c.287 0 .778-.047.778-.362 0-.165-.112-.504-.253-.907l-.488-1.46h-2.857l-.402 1.31zm1.835-5.573h-.024l-1.17 3.56h2.352l-1.157-3.56z"/><path class="st11" d="M626.723 1126.878c-.56-.024-1.127-.052-1.73-.052-.614 0-1.24.028-1.883.052l-.06.004v-.493h.197c.29 0 .72-.065.72-.308.003-.144-.106-.49-.246-.888l-.477-1.423h-2.776l-.392 1.27c-.13.43-.277.763-.277.967.004.307.477.382.895.382h.192v.493l-.058-.004c-.504-.025-1.02-.053-1.52-.053-.45 0-.905.028-1.355.052l-.056.003v-.493h.129c.468 0 .857-.268 1.038-.778l2.017-5.773c.165-.468.39-1.094.5-1.593.392-.138.897-.39 1.142-.542.037-.013.068-.03.12-.03.03-.002.1.01.138.075.04.103.076.214.115.315l2.317 6.58c.147.44.298.906.46 1.276.147.338.38.47.783.47h.13v.495l-.062-.007zm-3.563-.113c.622-.02 1.232-.045 1.833-.045.585 0 1.132.025 1.68.045v-.262h-.02c-.43.004-.726-.167-.882-.536-.162-.38-.313-.85-.462-1.29l-2.317-6.578c-.037-.102-.074-.215-.106-.305-.013-.013-.01-.013-.02-.013h-.022c-.026 0-.04.01-.07.017-.246.156-.752.404-1.125.503-.074.478-.302 1.104-.467 1.57l-2.01 5.774c-.193.546-.633.855-1.146.855h-.02v.262c.43-.02.866-.045 1.302-.045.486 0 .983.024 1.463.044v-.262h-.08c-.41-.004-.98-.05-.996-.495 0-.25.15-.574.276-.997l.056.015-.056-.018.416-1.344h2.93l.504 1.494c.145.405.258.74.258.924-.02.387-.55.415-.832.42h-.086v.265zm-2.572-3.696l1.205-3.67h.068v.053l-.012.004.013-.004v-.053h.04l1.193 3.67h-2.505zm.152-.11h2.2l-1.095-3.372-1.105 3.372zm1.066-3.49l.03-.008-.03.008z"/></g><g><path class="st11" d="M627.283 1118.672c-.945 0-.98.227-1.17 1.145h-.38c.05-.352.115-.703.15-1.07.053-.352.08-.706.08-1.068h.298c.103.376.417.36.757.36h6.49c.34 0 .652-.01.678-.387l.302.05c-.047.337-.097.678-.138 1.02-.03.338-.03.68-.03 1.018l-.373.143c-.02-.468-.088-1.21-.93-1.21h-2.063v6.69c0 .972.44 1.082 1.043 1.082h.238v.38c-.488 0-1.37-.05-2.05-.05-.754 0-1.638.05-2.128.05v-.38h.24c.694 0 1.05-.06 1.05-1.053v-6.72h-2.064z"/><path class="st11" d="M632.236 1126.878c-.49 0-1.37-.05-2.05-.05-.75 0-1.63.05-2.128.05h-.05v-.484h.29c.694-.018.97-.026.988-1.002v-6.667h-2.004v-.107h2.113v6.774c0 1.01-.405 1.107-1.098 1.11h-.185v.27c.497-.007 1.343-.052 2.073-.052.656 0 1.498.045 1.996.05v-.267h-.187c-.604-.003-1.093-.146-1.096-1.137v-6.746h2.117c.846.002.953.718.98 1.186l.274-.1c0-.327 0-.657.025-.987.034-.324.084-.645.13-.964l-.19-.034c-.06.364-.414.386-.73.38h-6.553c-.297.003-.615-.014-.73-.368h-.207c-.004.352-.025.688-.077 1.024-.034.348-.097.678-.142 1.008h.27c.166-.875.273-1.162 1.217-1.145v.109c-.935.017-.913.173-1.116 1.104l-.01.042h-.488l.01-.064c.05-.352.115-.703.15-1.065.053-.354.076-.703.076-1.063v-.056h.4l.01.04c.09.318.32.32.64.327h6.554c.348-.005.604-.012.623-.34l.002-.058.06.01.358.057-.01.053c-.055.34-.1.678-.138 1.014-.023.336-.023.677-.023 1.016v.04l-.04.014-.445.163v-.075c-.033-.472-.084-1.158-.88-1.158h-2.01v6.64c.015.95.392 1.015.99 1.028h.293v.485h-.052v-.002z"/></g><g><path class="st11" d="M634.953 1126.445h.176c.453 0 .93-.06.93-.716v-6.59c0-.657-.477-.717-.93-.717h-.177v-.382c.49 0 1.242.053 1.86.053.628 0 1.382-.052 1.976-.052v.383h-.177c-.453 0-.934.06-.934.716v6.59c0 .655.48.715.933.715h.176v.38c-.605 0-1.36-.05-1.987-.05-.62 0-1.36.05-1.85.05v-.38z"/><path class="st11" d="M638.79 1126.878c-.606 0-1.36-.052-1.987-.052-.617 0-1.36.052-1.85.052h-.055v-.484H635.13c.453-.01.868-.05.87-.665v-6.59c-.002-.614-.417-.657-.87-.666h-.23v-.484h.054c.49 0 1.245.05 1.86.05.628 0 1.38-.05 1.976-.05h.053v.484H638.614c-.458.01-.874.05-.88.665v6.59c.006.614.422.655.88.663h.23v.485h-.055zm-.058-.11v-.265h-.12c-.448 0-.984-.08-.984-.773v-6.59c0-.694.536-.77.985-.77h.12v-.27c-.58.003-1.308.05-1.92.05-.6 0-1.32-.047-1.808-.05v.27h.123c.445 0 .983.076.983.77v6.59c0 .694-.537.773-.982.773h-.123v.266c.486-.007 1.196-.05 1.797-.05.61 0 1.34.045 1.93.05z"/></g><g><path class="st11" d="M643.806 1117.855c2.683 0 4.82 1.662 4.82 4.34 0 2.895-2.076 4.818-4.756 4.818-2.67 0-4.703-1.81-4.703-4.517 0-2.612 2.023-4.64 4.64-4.64zm.188 8.605c2.443 0 2.866-2.152 2.866-3.985 0-1.84-.99-4.064-3.078-4.064-2.202 0-2.855 1.962-2.855 3.645 0 2.253 1.03 4.405 3.067 4.405z"/><path class="st11" d="M639.11 1122.497c.005-2.645 2.052-4.692 4.695-4.697v.112c-2.587 0-4.59 1.998-4.59 4.585.005 2.675 2.013 4.46 4.654 4.46 2.65 0 4.695-1.896 4.702-4.762-.002-2.645-2.106-4.28-4.768-4.283v-.112c2.7.004 4.868 1.683 4.872 4.395-.002 2.924-2.102 4.868-4.808 4.875-2.688-.007-4.753-1.84-4.76-4.573zm1.76-.442c.005-1.69.667-3.702 2.912-3.702 2.138.004 3.132 2.272 3.134 4.122-.002 1.833-.433 4.037-2.922 4.037v-.105c2.395-.002 2.81-2.1 2.814-3.932 0-1.824-.983-4.008-3.026-4.01-2.16 0-2.798 1.916-2.802 3.59.002 2.242 1.025 4.345 3.014 4.352v.105c-2.086-.002-3.12-2.19-3.123-4.457z"/></g><g><path class="st11" d="M657.104 1124.347l.025-.026v-4.715c0-1.03-.72-1.18-1.1-1.18h-.272v-.383c.587 0 1.17.052 1.758.052.52 0 1.032-.052 1.548-.052v.382h-.19c-.528 0-1.12.1-1.12 1.595v5.725c0 .44.016.88.078 1.27h-.48l-6.477-7.22v5.18c0 1.098.213 1.47 1.184 1.47h.212v.38c-.54 0-1.08-.05-1.623-.05-.567 0-1.146.05-1.714.05v-.38h.178c.87 0 1.13-.586 1.13-1.594v-5.296c0-.706-.575-1.13-1.145-1.13h-.164v-.382c.48 0 .97.052 1.45.052.374 0 .738-.052 1.116-.052l5.602 6.305z"/><path class="st11" d="M657.832 1127.07l-.52-.02-6.384-7.116v5.04c.014 1.098.182 1.404 1.127 1.415h.27v.487h-.054c-.542 0-1.084-.048-1.622-.048-.564 0-1.14.048-1.713.048h-.05v-.489H649.112c.83-.003 1.07-.537 1.076-1.54v-5.297c0-.67-.55-1.076-1.092-1.08h-.214v-.483h.05c.483 0 .974.05 1.45.05.37 0 .732-.05 1.162-.03l5.523 6.22v-4.626c-.003-1-.67-1.12-1.042-1.13h-.328v-.484h.056c.59 0 1.175.05 1.755.05.52 0 1.03-.05 1.554-.05h.053v.484h-.243c-.515.015-1.05.062-1.062 1.543v5.726c0 .438.01.877.068 1.26l.01.065h-.058zm-.48-.112h.416c-.057-.377-.066-.797-.066-1.213v-5.726c0-1.512.637-1.65 1.174-1.65h.14v-.27c-.5.003-1 .05-1.503.05-.567 0-1.13-.047-1.7-.05v.27h.218c.394 0 1.15.172 1.15 1.236l-.014 4.754-.02.023-.04.043-5.603-6.326c-.37 0-.738.05-1.117.05-.465 0-.94-.048-1.394-.05v.268h.107c.593.002 1.2.448 1.2 1.186v5.297c0 1.008-.28 1.65-1.187 1.653h-.122v.266c.548-.005 1.105-.05 1.658-.05.525 0 1.05.045 1.568.05v-.267h-.162c-.988 0-1.234-.43-1.234-1.528v-5.322l6.532 7.305zm-.248-2.61l.04-.038-.04.037zm-.034-.027v-.003l-.01-.008.01.01z"/></g><g><path class="st11" d="M661.086 1125.026c-.123.426-.275.756-.275.98 0 .378.534.438.942.438h.143v.38c-.504-.027-1.02-.05-1.523-.05-.457 0-.908.023-1.355.05v-.38h.068c.492 0 .91-.29 1.098-.817l2.014-5.77c.164-.468.39-1.096.463-1.564.404-.137.908-.388 1.146-.54.037-.013.063-.023.102-.023.035 0 .06 0 .086.036.04.1.076.215.115.315l2.313 6.58c.146.44.3.907.465 1.284.15.352.418.5.832.5h.074v.38c-.566-.027-1.135-.05-1.736-.05-.615 0-1.248.023-1.89.05v-.38h.14c.29 0 .783-.047.783-.362 0-.165-.114-.504-.255-.907l-.488-1.46h-2.854l-.407 1.31zm1.836-5.573h-.023l-1.17 3.56h2.354l-1.162-3.56z"/><path class="st11" d="M667.79 1126.878c-.567-.02-1.136-.05-1.733-.05-.613 0-1.246.03-1.887.05l-.055.004v-.488h.19c.295 0 .727-.07.73-.312.002-.144-.11-.486-.254-.888l-.478-1.423h-2.775l-.39 1.27c-.122.433-.274.763-.27.965 0 .31.47.388.885.388h.193v.49l-.057-.004c-.5-.022-1.018-.05-1.518-.05-.453 0-.904.028-1.355.05l-.057.003v-.488h.125c.47-.005.863-.275 1.045-.783l2.014-5.773c.16-.468.39-1.094.498-1.593.396-.138.902-.39 1.145-.542.03-.013.07-.028.12-.028.032-.004.1.006.138.075.037.1.074.212.115.313l2.314 6.58c.15.44.303.906.465 1.28.148.333.375.466.78.47h.126v.49l-.054-.007zm-3.565-.11c.62-.022 1.234-.048 1.832-.048.586 0 1.133.025 1.678.045v-.262h-.018c-.426 0-.725-.167-.883-.536-.166-.38-.316-.85-.467-1.29l-2.31-6.578c-.04-.102-.08-.215-.11-.3-.01-.018-.01-.018-.02-.018h-.02c-.028 0-.042.01-.075.017-.242.153-.744.406-1.12.503-.077.478-.306 1.104-.466 1.57l-2.016 5.774c-.19.546-.63.855-1.146.855h-.02v.262c.436-.02.867-.045 1.307-.045.49 0 .983.024 1.47.044v-.262h-.088c-.406-.004-.98-.05-.996-.497.002-.25.158-.57.283-.995l.046.015-.047-.018.41-1.344h2.935l.502 1.494c.14.405.252.74.252.924-.017.387-.544.415-.835.42h-.08v.267zm-2.573-3.704l1.21-3.665h.059v.052l-.01.004.01-.004v-.053h.042l1.19 3.664h-2.5zm.153-.106h2.2l-1.095-3.368-1.105 3.368zm1.07-3.488l.023-.008-.023.008z"/></g><g><path class="st11" d="M670.963 1125.592c0 .504.35.654.754.706.516.04 1.08.04 1.662-.026.524-.06.98-.364 1.204-.68.2-.278.31-.628.39-.906h.364c-.14.718-.314 1.423-.467 2.14-1.104 0-2.214-.05-3.315-.05-1.11 0-2.217.05-3.324.05v-.38h.175c.457 0 .947-.06.947-.843v-6.463c0-.656-.49-.716-.947-.716h-.174v-.382c.667 0 1.323.052 1.987.052.645 0 1.27-.052 1.916-.052v.382h-.318c-.477 0-.852.013-.852.68v6.488z"/><path class="st11" d="M674.87 1126.878c-1.106 0-2.214-.05-3.315-.05-1.11 0-2.217.05-3.326.05h-.052v-.484H668.405c.457-.012.89-.043.895-.792v-6.465c-.006-.61-.434-.654-.895-.663h-.227v-.484h.05c.67 0 1.325.05 1.99.05.642 0 1.27-.05 1.915-.05h.05v.484h-.368c-.486.013-.79-.008-.8.628v6.488c.005.47.31.594.706.652.22.015.454.024.694.024.31 0 .63-.015.957-.05.51-.062.95-.355 1.17-.656.194-.27.304-.615.378-.89l.014-.042h.473l-.012.068c-.14.718-.313 1.42-.465 2.14l-.014.04h-.043v.002zm-.042-.11c.146-.68.31-1.35.443-2.03h-.257c-.076.278-.19.614-.39.886-.233.328-.698.635-1.245.7-.33.038-.656.053-.965.053-.242 0-.482-.01-.707-.026-.406-.046-.805-.22-.8-.758v-6.488c0-.7.44-.735.907-.735h.262v-.27c-.62.003-1.232.05-1.86.05-.65 0-1.288-.047-1.933-.05v.27h.12c.45 0 1 .076 1 .77v6.464c0 .815-.548.9-1 .9h-.12v.266c1.086-.002 2.176-.05 3.27-.05 1.094 0 2.186.047 3.276.05z"/></g><path class="st11" d="M675.184 1117.688c.76 0 1.326.583 1.326 1.327s-.566 1.32-1.326 1.32c-.754 0-1.324-.577-1.324-1.32 0-.744.57-1.327 1.324-1.327zm0 2.4c.594 0 1.05-.503 1.05-1.073s-.446-1.08-1.05-1.08c-.596 0-1.05.51-1.05 1.08 0 .57.454 1.074 1.05 1.074zm-.66-.374v-.066c.163-.02.194-.015.194-.118v-.98c0-.138-.014-.186-.188-.177v-.068h.68c.23 0 .445.114.445.352 0 .2-.13.343-.313.4l.215.305c.104.135.22.266.295.31v.044h-.258c-.125 0-.23-.262-.477-.61h-.145v.44c0 .09.03.082.19.104v.066h-.637zm.45-.698h.155c.17 0 .25-.13.25-.337 0-.213-.124-.286-.26-.286h-.146v.622z"/><path class="st35" d="M533.66 1133.933c-12.16.058-22.17-9.794-22.17-21.787 0-13.106 10.01-22.17 22.17-22.17h5.7c12.015 0 22.983 9.06 22.983 22.17 0 11.988-10.968 21.787-22.984 21.787h-5.7zm.048-42.14c-11.113.005-20.115 9.01-20.118 20.124.002 11.11 9.005 20.115 20.118 20.117 11.113-.002 20.12-9.005 20.122-20.117-.002-11.113-9.008-20.118-20.122-20.123zm-4.567 32.022v-23.8c-4.78 1.84-8.172 6.47-8.185 11.902.013 5.43 3.404 10.06 8.186 11.898zm17.324-11.898c-.01-5.435-3.406-10.07-8.19-11.904v23.806c4.784-1.838 8.18-6.468 8.19-11.903z"/></g><g class="st42"><path class="st38" d="M189.18 1089.927h69.558v44H189.18z"/><path class="st5" d="M230.22 1111.927c0 10.516-8.523 19.04-19.04 19.04-10.514 0-19.04-8.524-19.04-19.04 0-10.515 8.526-19.04 19.04-19.04 10.516 0 19.04 8.525 19.04 19.04"/><path class="st19" d="M236.742 1092.888c-4.92 0-9.403 1.866-12.782 4.928-.687.624-1.33 1.298-1.92 2.017h3.845c.525.64 1.01 1.312 1.452 2.016h-6.75c-.403.646-.77 1.32-1.097 2.016h8.943c.306.652.574 1.325.806 2.016h-10.557c-.22.656-.405 1.33-.554 2.016h11.66c.28 1.3.43 2.648.43 4.032 0 2.113-.346 4.147-.98 6.048h-10.557c.23.69.5 1.363.806 2.016h8.943c-.327.696-.692 1.37-1.1 2.018h-6.747c.44.702.926 1.375 1.452 2.014h3.846c-.592.718-1.234 1.393-1.924 2.016 3.38 3.063 7.86 4.928 12.78 4.928 10.516 0 19.04-8.523 19.04-19.038s-8.523-19.044-19.038-19.044"/><path class="st19" d="M253.243 1122.54c0-.34.276-.614.615-.614.34 0 .615.275.615.614 0 .34-.274.616-.615.616-.338 0-.615-.276-.615-.616m.615.468c.258 0 .468-.21.468-.468 0-.26-.21-.467-.468-.467s-.467.208-.467.467c.002.258.21.468.468.468m-.083-.198h-.126v-.54h.228c.047 0 .096 0 .138.026.043.03.068.083.068.136 0 .062-.035.118-.095.14l.1.238h-.14l-.084-.213h-.092v.213zm0-.306h.07c.025 0 .053.002.077-.01.02-.015.03-.038.03-.064 0-.02-.013-.045-.03-.055-.022-.014-.057-.01-.08-.01h-.067v.14z"/><path class="st38" d="M206.734 1114.01c-.216-.022-.313-.03-.46-.03-1.173 0-1.765.4-1.765 1.195 0 .49.288.8.738.8.845 0 1.45-.802 1.486-1.964m1.504 3.5h-1.713l.04-.812c-.523.643-1.22.95-2.167.95-1.12 0-1.888-.875-1.888-2.146 0-1.913 1.336-3.028 3.63-3.028.233 0 .534.02.84.06.064-.258.082-.368.082-.508 0-.52-.36-.716-1.325-.716-1.012-.01-1.846.242-2.188.354l.285-1.766c1.03-.304 1.71-.416 2.475-.416 1.774 0 2.715.797 2.713 2.303.004.404-.063.9-.167 1.556-.18 1.138-.566 3.577-.618 4.17M201.646 1117.51h-2.068l1.186-7.422-2.646 7.423h-1.408l-.174-7.38-1.245 7.38h-1.934l1.617-9.656h2.972l.18 5.405 1.813-5.406h3.306zM239.297 1114.01c-.217-.022-.313-.03-.46-.03-1.173 0-1.766.4-1.766 1.195 0 .49.29.8.742.8.84 0 1.45-.802 1.485-1.964m1.504 3.5h-1.71l.037-.812c-.522.643-1.22.95-2.165.95-1.12 0-1.89-.875-1.89-2.146 0-1.913 1.336-3.028 3.63-3.028.233 0 .533.02.842.06.063-.258.08-.368.08-.508 0-.52-.36-.716-1.325-.716-1.012-.01-1.846.242-2.19.354.023-.13.29-1.766.29-1.766 1.028-.304 1.708-.416 2.472-.416 1.776 0 2.716.797 2.714 2.303.003.404-.063.9-.168 1.556-.18 1.138-.565 3.577-.617 4.17M217.425 1117.392c-.566.178-1.008.255-1.485.255-1.057 0-1.633-.606-1.633-1.725-.016-.35.15-1.26.283-2.094.118-.734.896-5.36.896-5.36h2.054l-.238 1.19h1.24l-.28 1.887h-1.245c-.238 1.494-.58 3.354-.582 3.6 0 .406.216.583.707.583.235 0 .418-.023.558-.074l-.275 1.738zM223.724 1117.328c-.706.216-1.386.32-2.108.318-2.3-.002-3.498-1.203-3.498-3.503 0-2.686 1.524-4.662 3.596-4.662 1.692 0 2.775 1.107 2.775 2.843 0 .577-.074 1.14-.255 1.932h-4.092c-.138 1.14.59 1.614 1.787 1.614.735 0 1.4-.152 2.136-.495l-.342 1.953zm-1.156-4.656c.013-.163.22-1.4-.956-1.4-.653 0-1.123.498-1.312 1.4h2.268zM209.48 1112.14c0 .993.48 1.68 1.572 2.194.837.393.968.51.968.865 0 .488-.37.71-1.188.71-.617 0-1.19-.097-1.853-.31 0 0-.272 1.73-.284 1.814.47.102.888.195 2.15.23 2.18 0 3.188-.83 3.188-2.624 0-1.08-.422-1.712-1.457-2.188-.867-.397-.967-.486-.967-.854 0-.424.344-.64 1.012-.64.406 0 .96.042 1.485.116l.294-1.82c-.534-.086-1.346-.154-1.818-.154-2.31 0-3.11 1.21-3.103 2.66M233.776 1109.69c.574 0 1.11.147 1.847.52l.338-2.096c-.302-.12-1.367-.817-2.27-.817-1.383 0-2.554.688-3.375 1.82-1.2-.398-1.694.405-2.298 1.205l-.537.125c.04-.263.077-.525.066-.79h-1.9c-.258 2.43-.718 4.893-1.077 7.326l-.095.527h2.066c.347-2.242.535-3.678.65-4.65l.78-.432c.116-.434.478-.578 1.21-.562-.097.512-.147 1.052-.147 1.61 0 2.57 1.39 4.17 3.612 4.17.573 0 1.064-.076 1.828-.283l.36-2.2c-.685.336-1.245.495-1.755.495-1.2 0-1.93-.888-1.93-2.354.003-2.125 1.084-3.615 2.628-3.615M251.276 1107.854l-.46 2.79c-.564-.745-1.17-1.282-1.973-1.282-1.043 0-1.99.79-2.613 1.955-.866-.18-1.76-.485-1.76-.485l-.002.008c.07-.65.1-1.047.092-1.183h-1.898c-.258 2.432-.718 4.894-1.078 7.326l-.095.527h2.068c.278-1.812.49-3.318.65-4.512.706-.64 1.06-1.195 1.772-1.16-.316.766-.5 1.647-.5 2.55 0 1.962.992 3.26 2.495 3.26.758 0 1.34-.264 1.905-.868l-.097.73h1.955l1.575-9.656h-2.037zm-2.585 7.843c-.702 0-1.06-.522-1.06-1.548 0-1.546.666-2.64 1.604-2.64.71 0 1.095.54 1.095 1.537 0 1.56-.677 2.65-1.64 2.65"/><path class="st22" d="M202.24 1116.938h-2.067l1.184-7.423-2.643 7.423h-1.41l-.173-7.38-1.244 7.38h-1.934l1.616-9.656h2.972l.083 5.977 2.006-5.978h3.21zM207.33 1113.44c-.217-.026-.313-.033-.462-.033-1.17 0-1.764.402-1.764 1.195 0 .487.29.8.74.8.844 0 1.45-.8 1.486-1.962m1.503 3.498h-1.712l.04-.813c-.522.642-1.22.95-2.166.95-1.12 0-1.89-.876-1.89-2.147 0-1.913 1.337-3.026 3.63-3.026.234 0 .535.02.843.062.063-.26.08-.37.08-.51 0-.522-.36-.714-1.325-.714-1.012-.012-1.845.24-2.188.352.02-.13.286-1.766.286-1.766 1.03-.302 1.71-.416 2.474-.416 1.774 0 2.715.797 2.714 2.303.003.403-.064.902-.168 1.557-.18 1.135-.564 3.575-.617 4.168M236.557 1107.542l-.34 2.096c-.737-.372-1.27-.522-1.846-.522-1.542 0-2.625 1.492-2.625 3.62 0 1.465.73 2.35 1.93 2.35.51 0 1.07-.156 1.756-.494l-.362 2.2c-.76.208-1.254.283-1.827.283-2.224 0-3.61-1.6-3.61-4.17 0-3.452 1.917-5.864 4.655-5.864.903 0 1.97.383 2.272.502M239.892 1113.44c-.216-.026-.313-.033-.46-.033-1.172 0-1.766.402-1.766 1.195 0 .487.29.8.74.8.842 0 1.45-.8 1.486-1.962m1.504 3.498h-1.712l.038-.813c-.522.642-1.22.95-2.165.95-1.12 0-1.89-.876-1.89-2.147 0-1.913 1.335-3.026 3.63-3.026.233 0 .533.02.84.062.064-.26.083-.37.083-.51 0-.522-.36-.714-1.326-.714-1.01-.012-1.844.24-2.188.352l.287-1.766c1.03-.302 1.71-.416 2.475-.416 1.773 0 2.715.797 2.713 2.303.005.403-.062.902-.166 1.557-.18 1.135-.566 3.575-.618 4.168M218.02 1116.818c-.565.18-1.008.257-1.485.257-1.056 0-1.633-.608-1.633-1.726-.016-.35.15-1.26.282-2.095.12-.734.897-5.36.897-5.36h2.055l-.24 1.19h1.056l-.28 1.886h-1.058c-.24 1.496-.58 3.355-.583 3.603 0 .405.215.582.707.582.234 0 .418-.023.557-.074l-.274 1.738zM224.32 1116.756c-.707.218-1.39.32-2.11.318-2.3 0-3.5-1.203-3.5-3.503 0-2.686 1.526-4.66 3.597-4.66 1.694 0 2.776 1.104 2.776 2.842 0 .576-.075 1.138-.253 1.932h-4.092c-.14 1.14.59 1.614 1.786 1.614.735 0 1.398-.15 2.137-.496l-.34 1.954zm-1.156-4.657c.012-.164.218-1.402-.956-1.402-.653 0-1.123.5-1.313 1.4h2.27zM210.073 1111.567c0 .995.48 1.678 1.573 2.193.837.394.967.51.967.866 0 .49-.368.712-1.187.712-.617 0-1.19-.097-1.853-.31l-.283 1.812c.47.104.888.197 2.15.233 2.182 0 3.188-.83 3.188-2.625 0-1.08-.422-1.712-1.457-2.188-.866-.4-.965-.487-.965-.854 0-.424.343-.643 1.01-.643.407 0 .96.045 1.486.12l.296-1.822c-.535-.083-1.348-.153-1.82-.153-2.31 0-3.11 1.21-3.103 2.66M252.335 1116.938h-1.955l.097-.73c-.566.605-1.147.866-1.905.866-1.503 0-2.495-1.295-2.495-3.26 0-2.61 1.54-4.813 3.362-4.813.8 0 1.407.328 1.974 1.072l.458-2.79h2.04l-1.577 9.656zm-3.05-1.815c.964 0 1.64-1.09 1.64-2.646 0-.998-.385-1.54-1.095-1.54-.938 0-1.604 1.094-1.604 2.64 0 1.027.357 1.546 1.06 1.546M243.257 1109.085c-.26 2.43-.718 4.893-1.078 7.325l-.095.527h2.068c.738-4.802.917-5.74 2.077-5.623.185-.982.527-1.843.784-2.276-.865-.182-1.35.308-1.982 1.237.05-.4.14-.792.124-1.19h-1.9zM226.242 1109.085c-.26 2.43-.72 4.893-1.078 7.325l-.095.527h2.067c.74-4.802.917-5.74 2.076-5.623.185-.982.53-1.843.785-2.276-.865-.182-1.35.308-1.98 1.237.05-.4.14-.792.122-1.19h-1.898zM253.243 1116.323c0-.34.276-.615.614-.615.34 0 .615.274.615.615 0 .338-.275.615-.615.615-.337 0-.614-.277-.614-.615m.614.467c.26 0 .468-.21.468-.467 0-.258-.21-.468-.468-.468s-.467.21-.467.468c0 .257.21.467.467.467m-.083-.197h-.126v-.54h.23c.047 0 .096.002.137.027.045.03.068.08.068.135 0 .06-.034.117-.093.14l.1.238h-.14l-.083-.215h-.093v.215zm0-.307h.07c.024 0 .055.002.077-.01.02-.014.03-.04.03-.063 0-.02-.01-.043-.03-.057-.02-.012-.056-.01-.078-.01h-.068v.14z"/></g></svg>
