<svg xmlns="http://www.w3.org/2000/svg" width="925" height="606" viewBox="0 0 925 606"><style>.st0{opacity:0.82;} .st1{fill:#FFFFFF;} .st2{fill-rule:evenodd;clip-rule:evenodd;fill:#F3F3F2;} .st3{fill-rule:evenodd;clip-rule:evenodd;fill:#9ACEE8;} .st4{fill-rule:evenodd;clip-rule:evenodd;fill:#FFFFFF;} .st5{opacity:0.6;fill:#030202;} .st6{fill:#F18F09;} .st7{fill:#F3F3F2;} .st8{fill-rule:evenodd;clip-rule:evenodd;fill:#F18F09;} .st9{fill-rule:evenodd;clip-rule:evenodd;fill:#F18F09;stroke:#FFFFFF;stroke-width:2.2886;stroke-miterlimit:10;} .st10{fill-rule:evenodd;clip-rule:evenodd;fill:none;stroke:#FFFFFF;stroke-width:3.4329;stroke-miterlimit:10;} .st11{opacity:0.5;fill:#030202;} .st12{fill-rule:evenodd;clip-rule:evenodd;fill:#9BD4E3;} .st13{fill-rule:evenodd;clip-rule:evenodd;fill:none;} .st14{fill:#EF8E0E;} .st15{fill-rule:evenodd;clip-rule:evenodd;fill:none;stroke:#FFFFFF;stroke-width:5.9374;stroke-miterlimit:10;} .st16{fill-rule:evenodd;clip-rule:evenodd;fill:none;stroke:#EF8E0E;stroke-width:4.6937;stroke-miterlimit:10;}</style><g class="st0" id="Ebene_5"><path class="st1" d="M655.5 475.8c-3.6 0-6.6 3-6.6 6.6 0 3.6 3 6.6 6.6 6.6 3.6 0 6.6-3 6.6-6.6 0-3.6-3-6.6-6.6-6.6zM673.3 475.8c-3.6 0-6.6 3-6.6 6.6 0 3.6 3 6.6 6.6 6.6 3.6 0 6.6-3 6.6-6.6-.1-3.6-3-6.6-6.6-6.6zM620.1 475.8c-3.6 0-6.6 3-6.6 6.6 0 3.6 3 6.6 6.6 6.6 3.6 0 6.6-3 6.6-6.6-.1-3.6-3-6.6-6.6-6.6zM637.8 475.8c-3.6 0-6.6 3-6.6 6.6 0 3.6 3 6.6 6.6 6.6 3.6 0 6.6-3 6.6-6.6 0-3.6-3-6.6-6.6-6.6zM691 475.8c-3.6 0-6.6 3-6.6 6.6 0 3.6 3 6.6 6.6 6.6 3.6 0 6.6-3 6.6-6.6 0-3.6-3-6.6-6.6-6.6zM655.5 493.6c-3.6 0-6.6 3-6.6 6.6 0 3.6 3 6.6 6.6 6.6 3.6 0 6.6-3 6.6-6.6 0-3.7-3-6.6-6.6-6.6zM673.3 493.6c-3.6 0-6.6 3-6.6 6.6 0 3.6 3 6.6 6.6 6.6 3.6 0 6.6-3 6.6-6.6-.1-3.7-3-6.6-6.6-6.6zM691 493.6c-3.6 0-6.6 3-6.6 6.6 0 3.6 3 6.6 6.6 6.6 3.6 0 6.6-3 6.6-6.6 0-3.7-3-6.6-6.6-6.6zM620.1 511.3c-3.6 0-6.6 3-6.6 6.6 0 3.6 3 6.6 6.6 6.6 3.6 0 6.6-3 6.6-6.6-.1-3.6-3-6.6-6.6-6.6zM637.8 511.3c-3.6 0-6.6 3-6.6 6.6 0 3.6 3 6.6 6.6 6.6 3.6 0 6.6-3 6.6-6.6 0-3.6-3-6.6-6.6-6.6zM655.5 511.3c-3.6 0-6.6 3-6.6 6.6 0 3.6 3 6.6 6.6 6.6 3.6 0 6.6-3 6.6-6.6 0-3.6-3-6.6-6.6-6.6zM637.8 529c-3.6 0-6.6 3-6.6 6.6 0 3.6 3 6.6 6.6 6.6 3.6 0 6.6-3 6.6-6.6 0-3.6-3-6.6-6.6-6.6zM655.5 529c-3.6 0-6.6 3-6.6 6.6 0 3.6 3 6.6 6.6 6.6 3.6 0 6.6-3 6.6-6.6 0-3.6-3-6.6-6.6-6.6zM673.3 529c-3.6 0-6.6 3-6.6 6.6 0 3.6 3 6.6 6.6 6.6 3.6 0 6.6-3 6.6-6.6-.1-3.6-3-6.6-6.6-6.6zM691 529c-3.6 0-6.6 3-6.6 6.6 0 3.6 3 6.6 6.6 6.6 3.6 0 6.6-3 6.6-6.6 0-3.6-3-6.6-6.6-6.6zM673.3 511.3c-3.6 0-6.6 3-6.6 6.6 0 3.6 3 6.6 6.6 6.6 3.6 0 6.6-3 6.6-6.6-.1-3.6-3-6.6-6.6-6.6zM691 511.3c-3.6 0-6.6 3-6.6 6.6 0 3.6 3 6.6 6.6 6.6 3.6 0 6.6-3 6.6-6.6 0-3.6-3-6.6-6.6-6.6zM797.4 546.8c-3.6 0-6.6 3-6.6 6.6 0 3.6 3 6.6 6.6 6.6 3.6 0 6.6-3 6.6-6.6-.1-3.7-3-6.6-6.6-6.6zM815.1 546.8c-3.6 0-6.6 3-6.6 6.6 0 3.6 3 6.6 6.6 6.6 3.6 0 6.6-3 6.6-6.6 0-3.7-3-6.6-6.6-6.6zM779.6 582.2c-3.6 0-6.6 3-6.6 6.6 0 3.6 3 6.6 6.6 6.6 3.6 0 6.6-3 6.6-6.6 0-3.6-2.9-6.6-6.6-6.6zM797.4 582.2c-3.6 0-6.6 3-6.6 6.6 0 3.6 3 6.6 6.6 6.6 3.6 0 6.6-3 6.6-6.6-.1-3.6-3-6.6-6.6-6.6zM815.1 564.5c-3.6 0-6.6 3-6.6 6.6 0 3.6 3 6.6 6.6 6.6 3.6 0 6.6-3 6.6-6.6 0-3.7-3-6.6-6.6-6.6zM797.4 564.5c-3.6 0-6.6 3-6.6 6.6 0 3.6 3 6.6 6.6 6.6 3.6 0 6.6-3 6.6-6.6-.1-3.7-3-6.6-6.6-6.6zM620.1 493.6c-3.6 0-6.6 3-6.6 6.6 0 3.6 3 6.6 6.6 6.6 3.6 0 6.6-3 6.6-6.6-.1-3.7-3-6.6-6.6-6.6zM637.8 493.6c-3.6 0-6.6 3-6.6 6.6 0 3.6 3 6.6 6.6 6.6 3.6 0 6.6-3 6.6-6.6 0-3.7-3-6.6-6.6-6.6zM655.5 440.4c-3.6 0-6.6 3-6.6 6.6 0 3.6 3 6.6 6.6 6.6 3.6 0 6.6-3 6.6-6.6 0-3.7-3-6.6-6.6-6.6zM655.5 422.7c-3.6 0-6.6 3-6.6 6.6 0 3.6 3 6.6 6.6 6.6 3.6 0 6.6-3 6.6-6.6 0-3.7-3-6.6-6.6-6.6zM673.3 546.8c-3.6 0-6.6 3-6.6 6.6 0 3.6 3 6.6 6.6 6.6 3.6 0 6.6-3 6.6-6.6-.1-3.7-3-6.6-6.6-6.6zM620.1 458.1c-3.6 0-6.6 3-6.6 6.6 0 3.6 3 6.6 6.6 6.6 3.6 0 6.6-3 6.6-6.6-.1-3.6-3-6.6-6.6-6.6zM637.8 458.1c-3.6 0-6.6 3-6.6 6.6 0 3.6 3 6.6 6.6 6.6 3.6 0 6.6-3 6.6-6.6 0-3.6-3-6.6-6.6-6.6zM655.5 458.1c-3.6 0-6.6 3-6.6 6.6 0 3.6 3 6.6 6.6 6.6 3.6 0 6.6-3 6.6-6.6 0-3.6-3-6.6-6.6-6.6zM673.3 458.1c-3.6 0-6.6 3-6.6 6.6 0 3.6 3 6.6 6.6 6.6 3.6 0 6.6-3 6.6-6.6-.1-3.6-3-6.6-6.6-6.6zM655.5 546.8c-3.6 0-6.6 3-6.6 6.6 0 3.6 3 6.6 6.6 6.6 3.6 0 6.6-3 6.6-6.6 0-3.7-3-6.6-6.6-6.6zM673.3 564.5c-3.6 0-6.6 3-6.6 6.6 0 3.6 3 6.6 6.6 6.6 3.6 0 6.6-3 6.6-6.6-.1-3.7-3-6.6-6.6-6.6zM620.1 440.4c-3.6 0-6.6 3-6.6 6.6 0 3.6 3 6.6 6.6 6.6 3.6 0 6.6-3 6.6-6.6-.1-3.7-3-6.6-6.6-6.6zM637.8 440.4c-3.6 0-6.6 3-6.6 6.6 0 3.6 3 6.6 6.6 6.6 3.6 0 6.6-3 6.6-6.6 0-3.7-3-6.6-6.6-6.6zM549.2 475.8c-3.6 0-6.6 3-6.6 6.6 0 3.6 3 6.6 6.6 6.6 3.6 0 6.6-3 6.6-6.6-.1-3.6-3-6.6-6.6-6.6zM566.9 475.8c-3.6 0-6.6 3-6.6 6.6 0 3.6 3 6.6 6.6 6.6 3.6 0 6.6-3 6.6-6.6 0-3.6-3-6.6-6.6-6.6zM531.4 475.8c-3.6 0-6.6 3-6.6 6.6 0 3.6 3 6.6 6.6 6.6 3.6 0 6.6-3 6.6-6.6 0-3.6-3-6.6-6.6-6.6zM584.6 475.8c-3.6 0-6.6 3-6.6 6.6 0 3.6 3 6.6 6.6 6.6 3.6 0 6.6-3 6.6-6.6 0-3.6-3-6.6-6.6-6.6zM602.3 475.8c-3.6 0-6.6 3-6.6 6.6 0 3.6 3 6.6 6.6 6.6 3.6 0 6.6-3 6.6-6.6 0-3.6-2.9-6.6-6.6-6.6zM549.2 493.6c-3.6 0-6.6 3-6.6 6.6 0 3.6 3 6.6 6.6 6.6 3.6 0 6.6-3 6.6-6.6-.1-3.7-3-6.6-6.6-6.6zM566.9 493.6c-3.6 0-6.6 3-6.6 6.6 0 3.6 3 6.6 6.6 6.6 3.6 0 6.6-3 6.6-6.6 0-3.7-3-6.6-6.6-6.6zM584.6 493.6c-3.6 0-6.6 3-6.6 6.6 0 3.6 3 6.6 6.6 6.6 3.6 0 6.6-3 6.6-6.6 0-3.7-3-6.6-6.6-6.6zM602.3 493.6c-3.6 0-6.6 3-6.6 6.6 0 3.6 3 6.6 6.6 6.6 3.6 0 6.6-3 6.6-6.6 0-3.7-2.9-6.6-6.6-6.6zM549.2 511.3c-3.6 0-6.6 3-6.6 6.6 0 3.6 3 6.6 6.6 6.6 3.6 0 6.6-3 6.6-6.6-.1-3.6-3-6.6-6.6-6.6zM566.9 529c-3.6 0-6.6 3-6.6 6.6 0 3.6 3 6.6 6.6 6.6 3.6 0 6.6-3 6.6-6.6 0-3.6-3-6.6-6.6-6.6zM531.4 529c-3.6 0-6.6 3-6.6 6.6 0 3.6 3 6.6 6.6 6.6 3.6 0 6.6-3 6.6-6.6 0-3.6-3-6.6-6.6-6.6zM566.9 511.3c-3.6 0-6.6 3-6.6 6.6 0 3.6 3 6.6 6.6 6.6 3.6 0 6.6-3 6.6-6.6 0-3.6-3-6.6-6.6-6.6zM584.6 511.3c-3.6 0-6.6 3-6.6 6.6 0 3.6 3 6.6 6.6 6.6 3.6 0 6.6-3 6.6-6.6 0-3.6-3-6.6-6.6-6.6zM549.2 529c-3.6 0-6.6 3-6.6 6.6 0 3.6 3 6.6 6.6 6.6 3.6 0 6.6-3 6.6-6.6-.1-3.6-3-6.6-6.6-6.6zM602.3 511.3c-3.6 0-6.6 3-6.6 6.6 0 3.6 3 6.6 6.6 6.6 3.6 0 6.6-3 6.6-6.6 0-3.6-2.9-6.6-6.6-6.6zM531.4 493.6c-3.6 0-6.6 3-6.6 6.6 0 3.6 3 6.6 6.6 6.6 3.6 0 6.6-3 6.6-6.6 0-3.7-3-6.6-6.6-6.6zM584.6 440.4c-3.6 0-6.6 3-6.6 6.6 0 3.6 3 6.6 6.6 6.6 3.6 0 6.6-3 6.6-6.6 0-3.7-3-6.6-6.6-6.6zM602.3 440.4c-3.6 0-6.6 3-6.6 6.6 0 3.6 3 6.6 6.6 6.6 3.6 0 6.6-3 6.6-6.6 0-3.7-2.9-6.6-6.6-6.6zM531.4 458.1c-3.6 0-6.6 3-6.6 6.6 0 3.6 3 6.6 6.6 6.6 3.6 0 6.6-3 6.6-6.6 0-3.6-3-6.6-6.6-6.6zM566.9 458.1c-3.6 0-6.6 3-6.6 6.6 0 3.6 3 6.6 6.6 6.6 3.6 0 6.6-3 6.6-6.6 0-3.6-3-6.6-6.6-6.6zM584.6 458.1c-3.6 0-6.6 3-6.6 6.6 0 3.6 3 6.6 6.6 6.6 3.6 0 6.6-3 6.6-6.6 0-3.6-3-6.6-6.6-6.6zM602.3 458.1c-3.6 0-6.6 3-6.6 6.6 0 3.6 3 6.6 6.6 6.6 3.6 0 6.6-3 6.6-6.6 0-3.6-2.9-6.6-6.6-6.6zM300.9 192.2c-3.6 0-6.6 3-6.6 6.6 0 3.6 3 6.6 6.6 6.6 3.6 0 6.6-3 6.6-6.6 0-3.7-2.9-6.6-6.6-6.6zM318.7 192.2c-3.6 0-6.6 3-6.6 6.6 0 3.6 3 6.6 6.6 6.6 3.6 0 6.6-3 6.6-6.6-.1-3.7-3-6.6-6.6-6.6zM300.9 174.4c-3.6 0-6.6 3-6.6 6.6 0 3.6 3 6.6 6.6 6.6 3.6 0 6.6-3 6.6-6.6 0-3.6-2.9-6.6-6.6-6.6zM318.7 174.4c-3.6 0-6.6 3-6.6 6.6 0 3.6 3 6.6 6.6 6.6 3.6 0 6.6-3 6.6-6.6-.1-3.6-3-6.6-6.6-6.6zM300.9 85.8c-3.6 0-6.6 3-6.6 6.6 0 3.6 3 6.6 6.6 6.6 3.6 0 6.6-3 6.6-6.6 0-3.7-2.9-6.6-6.6-6.6zM318.7 85.8c-3.6 0-6.6 3-6.6 6.6 0 3.6 3 6.6 6.6 6.6 3.6 0 6.6-3 6.6-6.6-.1-3.7-3-6.6-6.6-6.6zM318.7 68.1c-3.6 0-6.6 3-6.6 6.6 0 3.6 3 6.6 6.6 6.6 3.6 0 6.6-3 6.6-6.6-.1-3.7-3-6.6-6.6-6.6zM300.9 68.1c-3.6 0-6.6 3-6.6 6.6 0 3.6 3 6.6 6.6 6.6 3.6 0 6.6-3 6.6-6.6 0-3.7-2.9-6.6-6.6-6.6zM283.2 14.9c-3.6 0-6.6 3-6.6 6.6 0 3.6 3 6.6 6.6 6.6 3.6 0 6.6-3 6.6-6.6 0-3.7-3-6.6-6.6-6.6zM247.7 14.9c-3.6 0-6.6 3-6.6 6.6 0 3.6 3 6.6 6.6 6.6 3.6 0 6.6-3 6.6-6.6 0-3.7-2.9-6.6-6.6-6.6zM265.5 14.9c-3.6 0-6.6 3-6.6 6.6 0 3.6 3 6.6 6.6 6.6 3.6 0 6.6-3 6.6-6.6 0-3.7-3-6.6-6.6-6.6zM318.7 50.3c-3.6 0-6.6 3-6.6 6.6 0 3.6 3 6.6 6.6 6.6 3.6 0 6.6-3 6.6-6.6-.1-3.6-3-6.6-6.6-6.6zM318.7 32.6c-3.6 0-6.6 3-6.6 6.6 0 3.6 3 6.6 6.6 6.6 3.6 0 6.6-3 6.6-6.6-.1-3.6-3-6.6-6.6-6.6zM300.9 50.3c-3.6 0-6.6 3-6.6 6.6 0 3.6 3 6.6 6.6 6.6 3.6 0 6.6-3 6.6-6.6 0-3.6-2.9-6.6-6.6-6.6zM300.9 121.2c-3.6 0-6.6 3-6.6 6.6 0 3.6 3 6.6 6.6 6.6 3.6 0 6.6-3 6.6-6.6 0-3.6-2.9-6.6-6.6-6.6zM318.7 121.2c-3.6 0-6.6 3-6.6 6.6 0 3.6 3 6.6 6.6 6.6 3.6 0 6.6-3 6.6-6.6-.1-3.6-3-6.6-6.6-6.6zM300.9 103.5c-3.6 0-6.6 3-6.6 6.6 0 3.6 3 6.6 6.6 6.6 3.6 0 6.6-3 6.6-6.6 0-3.6-2.9-6.6-6.6-6.6zM318.7 103.5c-3.6 0-6.6 3-6.6 6.6 0 3.6 3 6.6 6.6 6.6 3.6 0 6.6-3 6.6-6.6-.1-3.6-3-6.6-6.6-6.6zM300.9 139c-3.6 0-6.6 3-6.6 6.6 0 3.6 3 6.6 6.6 6.6 3.6 0 6.6-3 6.6-6.6 0-3.7-2.9-6.6-6.6-6.6zM318.7 139c-3.6 0-6.6 3-6.6 6.6 0 3.6 3 6.6 6.6 6.6 3.6 0 6.6-3 6.6-6.6-.1-3.7-3-6.6-6.6-6.6zM300.9 156.7c-3.6 0-6.6 3-6.6 6.6 0 3.6 3 6.6 6.6 6.6 3.6 0 6.6-3 6.6-6.6 0-3.6-2.9-6.6-6.6-6.6zM318.7 156.7c-3.6 0-6.6 3-6.6 6.6 0 3.6 3 6.6 6.6 6.6 3.6 0 6.6-3 6.6-6.6-.1-3.6-3-6.6-6.6-6.6zM300.9 245.4c-3.6 0-6.6 3-6.6 6.6 0 3.6 3 6.6 6.6 6.6 3.6 0 6.6-3 6.6-6.6 0-3.7-2.9-6.6-6.6-6.6zM318.7 245.4c-3.6 0-6.6 3-6.6 6.6 0 3.6 3 6.6 6.6 6.6 3.6 0 6.6-3 6.6-6.6-.1-3.7-3-6.6-6.6-6.6zM336.4 245.4c-3.6 0-6.6 3-6.6 6.6 0 3.6 3 6.6 6.6 6.6 3.6 0 6.6-3 6.6-6.6 0-3.7-3-6.6-6.6-6.6zM300.9 227.6c-3.6 0-6.6 3-6.6 6.6 0 3.6 3 6.6 6.6 6.6 3.6 0 6.6-3 6.6-6.6 0-3.6-2.9-6.6-6.6-6.6zM318.7 227.6c-3.6 0-6.6 3-6.6 6.6 0 3.6 3 6.6 6.6 6.6 3.6 0 6.6-3 6.6-6.6-.1-3.6-3-6.6-6.6-6.6zM300.9 209.9c-3.6 0-6.6 3-6.6 6.6 0 3.6 3 6.6 6.6 6.6 3.6 0 6.6-3 6.6-6.6 0-3.6-2.9-6.6-6.6-6.6zM318.7 209.9c-3.6 0-6.6 3-6.6 6.6 0 3.6 3 6.6 6.6 6.6 3.6 0 6.6-3 6.6-6.6-.1-3.6-3-6.6-6.6-6.6zM336.4 209.9c-3.6 0-6.6 3-6.6 6.6 0 3.6 3 6.6 6.6 6.6 3.6 0 6.6-3 6.6-6.6 0-3.6-3-6.6-6.6-6.6zM354.1 209.9c-3.6 0-6.6 3-6.6 6.6 0 3.6 3 6.6 6.6 6.6 3.6 0 6.6-3 6.6-6.6 0-3.6-3-6.6-6.6-6.6zM371.9 209.9c-3.6 0-6.6 3-6.6 6.6 0 3.6 3 6.6 6.6 6.6 3.6 0 6.6-3 6.6-6.6-.1-3.6-3-6.6-6.6-6.6zM336.4 227.6c-3.6 0-6.6 3-6.6 6.6 0 3.6 3 6.6 6.6 6.6 3.6 0 6.6-3 6.6-6.6 0-3.6-3-6.6-6.6-6.6zM354.1 227.6c-3.6 0-6.6 3-6.6 6.6 0 3.6 3 6.6 6.6 6.6 3.6 0 6.6-3 6.6-6.6 0-3.6-3-6.6-6.6-6.6zM371.9 227.6c-3.6 0-6.6 3-6.6 6.6 0 3.6 3 6.6 6.6 6.6 3.6 0 6.6-3 6.6-6.6-.1-3.6-3-6.6-6.6-6.6zM354.1 245.4c-3.6 0-6.6 3-6.6 6.6 0 3.6 3 6.6 6.6 6.6 3.6 0 6.6-3 6.6-6.6 0-3.7-3-6.6-6.6-6.6zM371.9 245.4c-3.6 0-6.6 3-6.6 6.6 0 3.6 3 6.6 6.6 6.6 3.6 0 6.6-3 6.6-6.6-.1-3.7-3-6.6-6.6-6.6zM336.4 192.2c-3.6 0-6.6 3-6.6 6.6 0 3.6 3 6.6 6.6 6.6 3.6 0 6.6-3 6.6-6.6 0-3.7-3-6.6-6.6-6.6zM354.1 192.2c-3.6 0-6.6 3-6.6 6.6 0 3.6 3 6.6 6.6 6.6 3.6 0 6.6-3 6.6-6.6 0-3.7-3-6.6-6.6-6.6zM336.4 174.4c-3.6 0-6.6 3-6.6 6.6 0 3.6 3 6.6 6.6 6.6 3.6 0 6.6-3 6.6-6.6 0-3.6-3-6.6-6.6-6.6zM354.1 174.4c-3.6 0-6.6 3-6.6 6.6 0 3.6 3 6.6 6.6 6.6 3.6 0 6.6-3 6.6-6.6 0-3.6-3-6.6-6.6-6.6zM371.9 192.2c-3.6 0-6.6 3-6.6 6.6 0 3.6 3 6.6 6.6 6.6 3.6 0 6.6-3 6.6-6.6-.1-3.7-3-6.6-6.6-6.6zM371.9 174.4c-3.6 0-6.6 3-6.6 6.6 0 3.6 3 6.6 6.6 6.6 3.6 0 6.6-3 6.6-6.6-.1-3.6-3-6.6-6.6-6.6zM389.6 192.2c-3.6 0-6.6 3-6.6 6.6 0 3.6 3 6.6 6.6 6.6 3.6 0 6.6-3 6.6-6.6 0-3.7-3-6.6-6.6-6.6zM407.3 192.2c-3.6 0-6.6 3-6.6 6.6 0 3.6 3 6.6 6.6 6.6 3.6 0 6.6-3 6.6-6.6 0-3.7-3-6.6-6.6-6.6zM389.6 174.4c-3.6 0-6.6 3-6.6 6.6 0 3.6 3 6.6 6.6 6.6 3.6 0 6.6-3 6.6-6.6 0-3.6-3-6.6-6.6-6.6zM407.3 174.4c-3.6 0-6.6 3-6.6 6.6 0 3.6 3 6.6 6.6 6.6 3.6 0 6.6-3 6.6-6.6 0-3.6-3-6.6-6.6-6.6zM336.4 121.2c-3.6 0-6.6 3-6.6 6.6 0 3.6 3 6.6 6.6 6.6 3.6 0 6.6-3 6.6-6.6 0-3.6-3-6.6-6.6-6.6zM336.4 103.5c-3.6 0-6.6 3-6.6 6.6 0 3.6 3 6.6 6.6 6.6 3.6 0 6.6-3 6.6-6.6 0-3.6-3-6.6-6.6-6.6zM336.4 68.1c-3.6 0-6.6 3-6.6 6.6 0 3.6 3 6.6 6.6 6.6 3.6 0 6.6-3 6.6-6.6 0-3.7-3-6.6-6.6-6.6zM336.4 85.8c-3.6 0-6.6 3-6.6 6.6 0 3.6 3 6.6 6.6 6.6 3.6 0 6.6-3 6.6-6.6 0-3.7-3-6.6-6.6-6.6zM354.1 85.8c-3.6 0-6.6 3-6.6 6.6 0 3.6 3 6.6 6.6 6.6 3.6 0 6.6-3 6.6-6.6 0-3.7-3-6.6-6.6-6.6zM354.1 68.1c-3.6 0-6.6 3-6.6 6.6 0 3.6 3 6.6 6.6 6.6 3.6 0 6.6-3 6.6-6.6 0-3.7-3-6.6-6.6-6.6zM407.3 85.8c-3.6 0-6.6 3-6.6 6.6 0 3.6 3 6.6 6.6 6.6 3.6 0 6.6-3 6.6-6.6 0-3.7-3-6.6-6.6-6.6zM407.3 68.1c-3.6 0-6.6 3-6.6 6.6 0 3.6 3 6.6 6.6 6.6 3.6 0 6.6-3 6.6-6.6 0-3.7-3-6.6-6.6-6.6zM389.6 68.1c-3.6 0-6.6 3-6.6 6.6 0 3.6 3 6.6 6.6 6.6 3.6 0 6.6-3 6.6-6.6 0-3.7-3-6.6-6.6-6.6zM336.4 50.3c-3.6 0-6.6 3-6.6 6.6 0 3.6 3 6.6 6.6 6.6 3.6 0 6.6-3 6.6-6.6 0-3.6-3-6.6-6.6-6.6zM354.1 50.3c-3.6 0-6.6 3-6.6 6.6 0 3.6 3 6.6 6.6 6.6 3.6 0 6.6-3 6.6-6.6 0-3.6-3-6.6-6.6-6.6zM407.3 50.3c-3.6 0-6.6 3-6.6 6.6 0 3.6 3 6.6 6.6 6.6 3.6 0 6.6-3 6.6-6.6 0-3.6-3-6.6-6.6-6.6zM336.4 139c-3.6 0-6.6 3-6.6 6.6 0 3.6 3 6.6 6.6 6.6 3.6 0 6.6-3 6.6-6.6 0-3.7-3-6.6-6.6-6.6zM407.3 121.2c-3.6 0-6.6 3-6.6 6.6 0 3.6 3 6.6 6.6 6.6 3.6 0 6.6-3 6.6-6.6 0-3.6-3-6.6-6.6-6.6zM354.1 103.5c-3.6 0-6.6 3-6.6 6.6 0 3.6 3 6.6 6.6 6.6 3.6 0 6.6-3 6.6-6.6 0-3.6-3-6.6-6.6-6.6zM371.9 103.5c-3.6 0-6.6 3-6.6 6.6 0 3.6 3 6.6 6.6 6.6 3.6 0 6.6-3 6.6-6.6-.1-3.6-3-6.6-6.6-6.6zM371.9 121.2c-3.6 0-6.6 3-6.6 6.6 0 3.6 3 6.6 6.6 6.6 3.6 0 6.6-3 6.6-6.6-.1-3.6-3-6.6-6.6-6.6zM354.1 121.2c-3.6 0-6.6 3-6.6 6.6 0 3.6 3 6.6 6.6 6.6 3.6 0 6.6-3 6.6-6.6 0-3.6-3-6.6-6.6-6.6zM354.1 139c-3.6 0-6.6 3-6.6 6.6 0 3.6 3 6.6 6.6 6.6 3.6 0 6.6-3 6.6-6.6 0-3.7-3-6.6-6.6-6.6zM371.9 139c-3.6 0-6.6 3-6.6 6.6 0 3.6 3 6.6 6.6 6.6 3.6 0 6.6-3 6.6-6.6-.1-3.7-3-6.6-6.6-6.6zM389.6 139c-3.6 0-6.6 3-6.6 6.6 0 3.6 3 6.6 6.6 6.6 3.6 0 6.6-3 6.6-6.6 0-3.7-3-6.6-6.6-6.6zM407.3 139c-3.6 0-6.6 3-6.6 6.6 0 3.6 3 6.6 6.6 6.6 3.6 0 6.6-3 6.6-6.6 0-3.7-3-6.6-6.6-6.6zM336.4 156.7c-3.6 0-6.6 3-6.6 6.6 0 3.6 3 6.6 6.6 6.6 3.6 0 6.6-3 6.6-6.6 0-3.6-3-6.6-6.6-6.6zM354.1 156.7c-3.6 0-6.6 3-6.6 6.6 0 3.6 3 6.6 6.6 6.6 3.6 0 6.6-3 6.6-6.6 0-3.6-3-6.6-6.6-6.6zM371.9 156.7c-3.6 0-6.6 3-6.6 6.6 0 3.6 3 6.6 6.6 6.6 3.6 0 6.6-3 6.6-6.6-.1-3.6-3-6.6-6.6-6.6zM389.6 156.7c-3.6 0-6.6 3-6.6 6.6 0 3.6 3 6.6 6.6 6.6 3.6 0 6.6-3 6.6-6.6 0-3.6-3-6.6-6.6-6.6zM407.3 156.7c-3.6 0-6.6 3-6.6 6.6 0 3.6 3 6.6 6.6 6.6 3.6 0 6.6-3 6.6-6.6 0-3.6-3-6.6-6.6-6.6zM389.6 245.4c-3.6 0-6.6 3-6.6 6.6 0 3.6 3 6.6 6.6 6.6 3.6 0 6.6-3 6.6-6.6 0-3.7-3-6.6-6.6-6.6zM407.3 245.4c-3.6 0-6.6 3-6.6 6.6 0 3.6 3 6.6 6.6 6.6 3.6 0 6.6-3 6.6-6.6 0-3.7-3-6.6-6.6-6.6zM389.6 227.6c-3.6 0-6.6 3-6.6 6.6 0 3.6 3 6.6 6.6 6.6 3.6 0 6.6-3 6.6-6.6 0-3.6-3-6.6-6.6-6.6zM407.3 227.6c-3.6 0-6.6 3-6.6 6.6 0 3.6 3 6.6 6.6 6.6 3.6 0 6.6-3 6.6-6.6 0-3.6-3-6.6-6.6-6.6zM389.6 209.9c-3.6 0-6.6 3-6.6 6.6 0 3.6 3 6.6 6.6 6.6 3.6 0 6.6-3 6.6-6.6 0-3.6-3-6.6-6.6-6.6zM336.4 334c-3.6 0-6.6 3-6.6 6.6 0 3.6 3 6.6 6.6 6.6 3.6 0 6.6-3 6.6-6.6 0-3.6-3-6.6-6.6-6.6zM336.4 298.5c-3.6 0-6.6 3-6.6 6.6 0 3.6 3 6.6 6.6 6.6 3.6 0 6.6-3 6.6-6.6 0-3.6-3-6.6-6.6-6.6zM354.1 298.5c-3.6 0-6.6 3-6.6 6.6 0 3.6 3 6.6 6.6 6.6 3.6 0 6.6-3 6.6-6.6 0-3.6-3-6.6-6.6-6.6zM371.9 298.5c-3.6 0-6.6 3-6.6 6.6 0 3.6 3 6.6 6.6 6.6 3.6 0 6.6-3 6.6-6.6-.1-3.6-3-6.6-6.6-6.6zM336.4 316.3c-3.6 0-6.6 3-6.6 6.6 0 3.6 3 6.6 6.6 6.6 3.6 0 6.6-3 6.6-6.6 0-3.7-3-6.6-6.6-6.6zM354.1 316.3c-3.6 0-6.6 3-6.6 6.6 0 3.6 3 6.6 6.6 6.6 3.6 0 6.6-3 6.6-6.6 0-3.7-3-6.6-6.6-6.6zM460.5 298.5c-3.6 0-6.6 3-6.6 6.6 0 3.6 3 6.6 6.6 6.6 3.6 0 6.6-3 6.6-6.6 0-3.6-3-6.6-6.6-6.6zM354.1 334c-3.6 0-6.6 3-6.6 6.6 0 3.6 3 6.6 6.6 6.6 3.6 0 6.6-3 6.6-6.6 0-3.6-3-6.6-6.6-6.6zM336.4 280.8c-3.6 0-6.6 3-6.6 6.6 0 3.6 3 6.6 6.6 6.6 3.6 0 6.6-3 6.6-6.6 0-3.6-3-6.6-6.6-6.6zM354.1 280.8c-3.6 0-6.6 3-6.6 6.6 0 3.6 3 6.6 6.6 6.6 3.6 0 6.6-3 6.6-6.6 0-3.6-3-6.6-6.6-6.6zM336.4 263.1c-3.6 0-6.6 3-6.6 6.6 0 3.6 3 6.6 6.6 6.6 3.6 0 6.6-3 6.6-6.6 0-3.7-3-6.6-6.6-6.6zM354.1 263.1c-3.6 0-6.6 3-6.6 6.6 0 3.6 3 6.6 6.6 6.6 3.6 0 6.6-3 6.6-6.6 0-3.7-3-6.6-6.6-6.6zM371.9 280.8c-3.6 0-6.6 3-6.6 6.6 0 3.6 3 6.6 6.6 6.6 3.6 0 6.6-3 6.6-6.6-.1-3.6-3-6.6-6.6-6.6zM371.9 263.1c-3.6 0-6.6 3-6.6 6.6 0 3.6 3 6.6 6.6 6.6 3.6 0 6.6-3 6.6-6.6-.1-3.7-3-6.6-6.6-6.6zM407.3 263.1c-3.6 0-6.6 3-6.6 6.6 0 3.6 3 6.6 6.6 6.6 3.6 0 6.6-3 6.6-6.6 0-3.7-3-6.6-6.6-6.6zM389.6 263.1c-3.6 0-6.6 3-6.6 6.6 0 3.6 3 6.6 6.6 6.6 3.6 0 6.6-3 6.6-6.6 0-3.7-3-6.6-6.6-6.6zM478.2 387.2c-3.6 0-6.6 3-6.6 6.6 0 3.6 3 6.6 6.6 6.6 3.6 0 6.6-3 6.6-6.6 0-3.7-3-6.6-6.6-6.6zM460.5 351.7c-3.6 0-6.6 3-6.6 6.6 0 3.6 3 6.6 6.6 6.6 3.6 0 6.6-3 6.6-6.6 0-3.6-3-6.6-6.6-6.6zM496 404.9c-3.6 0-6.6 3-6.6 6.6 0 3.6 3 6.6 6.6 6.6 3.6 0 6.6-3 6.6-6.6-.1-3.6-3-6.6-6.6-6.6zM513.7 404.9c-3.6 0-6.6 3-6.6 6.6 0 3.6 3 6.6 6.6 6.6 3.6 0 6.6-3 6.6-6.6 0-3.6-3-6.6-6.6-6.6zM566.9 404.9c-3.6 0-6.6 3-6.6 6.6 0 3.6 3 6.6 6.6 6.6 3.6 0 6.6-3 6.6-6.6 0-3.6-3-6.6-6.6-6.6zM584.6 404.9c-3.6 0-6.6 3-6.6 6.6 0 3.6 3 6.6 6.6 6.6 3.6 0 6.6-3 6.6-6.6 0-3.6-3-6.6-6.6-6.6zM460.5 369.5c-3.6 0-6.6 3-6.6 6.6 0 3.6 3 6.6 6.6 6.6 3.6 0 6.6-3 6.6-6.6 0-3.7-3-6.6-6.6-6.6zM442.8 351.7c-3.6 0-6.6 3-6.6 6.6 0 3.6 3 6.6 6.6 6.6 3.6 0 6.6-3 6.6-6.6-.1-3.6-3-6.6-6.6-6.6zM478.2 369.5c-3.6 0-6.6 3-6.6 6.6 0 3.6 3 6.6 6.6 6.6 3.6 0 6.6-3 6.6-6.6 0-3.7-3-6.6-6.6-6.6zM531.4 369.5c-3.6 0-6.6 3-6.6 6.6 0 3.6 3 6.6 6.6 6.6 3.6 0 6.6-3 6.6-6.6 0-3.7-3-6.6-6.6-6.6zM549.2 387.2c-3.6 0-6.6 3-6.6 6.6 0 3.6 3 6.6 6.6 6.6 3.6 0 6.6-3 6.6-6.6-.1-3.7-3-6.6-6.6-6.6zM549.2 369.5c-3.6 0-6.6 3-6.6 6.6 0 3.6 3 6.6 6.6 6.6 3.6 0 6.6-3 6.6-6.6-.1-3.7-3-6.6-6.6-6.6zM566.9 387.2c-3.6 0-6.6 3-6.6 6.6 0 3.6 3 6.6 6.6 6.6 3.6 0 6.6-3 6.6-6.6 0-3.7-3-6.6-6.6-6.6zM673.3 404.9c-3.6 0-6.6 3-6.6 6.6 0 3.6 3 6.6 6.6 6.6 3.6 0 6.6-3 6.6-6.6-.1-3.6-3-6.6-6.6-6.6zM655.5 404.9c-3.6 0-6.6 3-6.6 6.6 0 3.6 3 6.6 6.6 6.6 3.6 0 6.6-3 6.6-6.6 0-3.6-3-6.6-6.6-6.6zM655.5 387.2c-3.6 0-6.6 3-6.6 6.6 0 3.6 3 6.6 6.6 6.6 3.6 0 6.6-3 6.6-6.6 0-3.7-3-6.6-6.6-6.6zM620.1 387.2c-3.6 0-6.6 3-6.6 6.6 0 3.6 3 6.6 6.6 6.6 3.6 0 6.6-3 6.6-6.6-.1-3.7-3-6.6-6.6-6.6zM620.1 369.5c-3.6 0-6.6 3-6.6 6.6 0 3.6 3 6.6 6.6 6.6 3.6 0 6.6-3 6.6-6.6-.1-3.7-3-6.6-6.6-6.6zM637.8 387.2c-3.6 0-6.6 3-6.6 6.6 0 3.6 3 6.6 6.6 6.6 3.6 0 6.6-3 6.6-6.6 0-3.7-3-6.6-6.6-6.6zM566.9 298.5c-3.6 0-6.6 3-6.6 6.6 0 3.6 3 6.6 6.6 6.6 3.6 0 6.6-3 6.6-6.6 0-3.6-3-6.6-6.6-6.6zM549.2 316.3c-3.6 0-6.6 3-6.6 6.6 0 3.6 3 6.6 6.6 6.6 3.6 0 6.6-3 6.6-6.6-.1-3.7-3-6.6-6.6-6.6zM549.2 298.5c-3.6 0-6.6 3-6.6 6.6 0 3.6 3 6.6 6.6 6.6 3.6 0 6.6-3 6.6-6.6-.1-3.6-3-6.6-6.6-6.6zM566.9 316.3c-3.6 0-6.6 3-6.6 6.6 0 3.6 3 6.6 6.6 6.6 3.6 0 6.6-3 6.6-6.6 0-3.7-3-6.6-6.6-6.6zM425 263.1c-3.6 0-6.6 3-6.6 6.6 0 3.6 3 6.6 6.6 6.6 3.6 0 6.6-3 6.6-6.6 0-3.7-2.9-6.6-6.6-6.6zM318.7 263.1c-3.6 0-6.6 3-6.6 6.6 0 3.6 3 6.6 6.6 6.6 3.6 0 6.6-3 6.6-6.6-.1-3.7-3-6.6-6.6-6.6zM407.3 209.9c-3.6 0-6.6 3-6.6 6.6 0 3.6 3 6.6 6.6 6.6 3.6 0 6.6-3 6.6-6.6 0-3.6-3-6.6-6.6-6.6zM425 209.9c-3.6 0-6.6 3-6.6 6.6 0 3.6 3 6.6 6.6 6.6 3.6 0 6.6-3 6.6-6.6 0-3.6-2.9-6.6-6.6-6.6zM425 227.6c-3.6 0-6.6 3-6.6 6.6 0 3.6 3 6.6 6.6 6.6 3.6 0 6.6-3 6.6-6.6 0-3.6-2.9-6.6-6.6-6.6zM425 245.4c-3.6 0-6.6 3-6.6 6.6 0 3.6 3 6.6 6.6 6.6 3.6 0 6.6-3 6.6-6.6 0-3.7-2.9-6.6-6.6-6.6zM425 192.2c-3.6 0-6.6 3-6.6 6.6 0 3.6 3 6.6 6.6 6.6 3.6 0 6.6-3 6.6-6.6 0-3.7-2.9-6.6-6.6-6.6zM425 174.4c-3.6 0-6.6 3-6.6 6.6 0 3.6 3 6.6 6.6 6.6 3.6 0 6.6-3 6.6-6.6 0-3.6-2.9-6.6-6.6-6.6zM442.8 192.2c-3.6 0-6.6 3-6.6 6.6 0 3.6 3 6.6 6.6 6.6 3.6 0 6.6-3 6.6-6.6-.1-3.7-3-6.6-6.6-6.6zM460.5 192.2c-3.6 0-6.6 3-6.6 6.6 0 3.6 3 6.6 6.6 6.6 3.6 0 6.6-3 6.6-6.6 0-3.7-3-6.6-6.6-6.6zM442.8 174.4c-3.6 0-6.6 3-6.6 6.6 0 3.6 3 6.6 6.6 6.6 3.6 0 6.6-3 6.6-6.6-.1-3.6-3-6.6-6.6-6.6zM460.5 174.4c-3.6 0-6.6 3-6.6 6.6 0 3.6 3 6.6 6.6 6.6 3.6 0 6.6-3 6.6-6.6 0-3.6-3-6.6-6.6-6.6zM425 68.1c-3.6 0-6.6 3-6.6 6.6 0 3.6 3 6.6 6.6 6.6 3.6 0 6.6-3 6.6-6.6 0-3.7-2.9-6.6-6.6-6.6zM425 85.8c-3.6 0-6.6 3-6.6 6.6 0 3.6 3 6.6 6.6 6.6 3.6 0 6.6-3 6.6-6.6 0-3.7-2.9-6.6-6.6-6.6zM442.8 68.1c-3.6 0-6.6 3-6.6 6.6 0 3.6 3 6.6 6.6 6.6 3.6 0 6.6-3 6.6-6.6-.1-3.7-3-6.6-6.6-6.6zM425 50.3c-3.6 0-6.6 3-6.6 6.6 0 3.6 3 6.6 6.6 6.6 3.6 0 6.6-3 6.6-6.6 0-3.6-2.9-6.6-6.6-6.6zM442.8 121.2c-3.6 0-6.6 3-6.6 6.6 0 3.6 3 6.6 6.6 6.6 3.6 0 6.6-3 6.6-6.6-.1-3.6-3-6.6-6.6-6.6zM460.5 121.2c-3.6 0-6.6 3-6.6 6.6 0 3.6 3 6.6 6.6 6.6 3.6 0 6.6-3 6.6-6.6 0-3.6-3-6.6-6.6-6.6zM460.5 103.5c-3.6 0-6.6 3-6.6 6.6 0 3.6 3 6.6 6.6 6.6 3.6 0 6.6-3 6.6-6.6 0-3.6-3-6.6-6.6-6.6zM425 121.2c-3.6 0-6.6 3-6.6 6.6 0 3.6 3 6.6 6.6 6.6 3.6 0 6.6-3 6.6-6.6 0-3.6-2.9-6.6-6.6-6.6zM425 139c-3.6 0-6.6 3-6.6 6.6 0 3.6 3 6.6 6.6 6.6 3.6 0 6.6-3 6.6-6.6 0-3.7-2.9-6.6-6.6-6.6zM442.8 139c-3.6 0-6.6 3-6.6 6.6 0 3.6 3 6.6 6.6 6.6 3.6 0 6.6-3 6.6-6.6-.1-3.7-3-6.6-6.6-6.6zM460.5 139c-3.6 0-6.6 3-6.6 6.6 0 3.6 3 6.6 6.6 6.6 3.6 0 6.6-3 6.6-6.6 0-3.7-3-6.6-6.6-6.6zM425 156.7c-3.6 0-6.6 3-6.6 6.6 0 3.6 3 6.6 6.6 6.6 3.6 0 6.6-3 6.6-6.6 0-3.6-2.9-6.6-6.6-6.6zM442.8 156.7c-3.6 0-6.6 3-6.6 6.6 0 3.6 3 6.6 6.6 6.6 3.6 0 6.6-3 6.6-6.6-.1-3.6-3-6.6-6.6-6.6zM460.5 156.7c-3.6 0-6.6 3-6.6 6.6 0 3.6 3 6.6 6.6 6.6 3.6 0 6.6-3 6.6-6.6 0-3.6-3-6.6-6.6-6.6zM442.8 245.4c-3.6 0-6.6 3-6.6 6.6 0 3.6 3 6.6 6.6 6.6 3.6 0 6.6-3 6.6-6.6-.1-3.7-3-6.6-6.6-6.6zM460.5 245.4c-3.6 0-6.6 3-6.6 6.6 0 3.6 3 6.6 6.6 6.6 3.6 0 6.6-3 6.6-6.6 0-3.7-3-6.6-6.6-6.6zM442.8 227.6c-3.6 0-6.6 3-6.6 6.6 0 3.6 3 6.6 6.6 6.6 3.6 0 6.6-3 6.6-6.6-.1-3.6-3-6.6-6.6-6.6zM442.8 209.9c-3.6 0-6.6 3-6.6 6.6 0 3.6 3 6.6 6.6 6.6 3.6 0 6.6-3 6.6-6.6-.1-3.6-3-6.6-6.6-6.6zM460.5 209.9c-3.6 0-6.6 3-6.6 6.6 0 3.6 3 6.6 6.6 6.6 3.6 0 6.6-3 6.6-6.6 0-3.6-3-6.6-6.6-6.6zM478.2 209.9c-3.6 0-6.6 3-6.6 6.6 0 3.6 3 6.6 6.6 6.6 3.6 0 6.6-3 6.6-6.6 0-3.6-3-6.6-6.6-6.6zM496 209.9c-3.6 0-6.6 3-6.6 6.6 0 3.6 3 6.6 6.6 6.6 3.6 0 6.6-3 6.6-6.6-.1-3.6-3-6.6-6.6-6.6zM478.2 192.2c-3.6 0-6.6 3-6.6 6.6 0 3.6 3 6.6 6.6 6.6 3.6 0 6.6-3 6.6-6.6 0-3.7-3-6.6-6.6-6.6zM496 192.2c-3.6 0-6.6 3-6.6 6.6 0 3.6 3 6.6 6.6 6.6 3.6 0 6.6-3 6.6-6.6-.1-3.7-3-6.6-6.6-6.6zM478.2 174.4c-3.6 0-6.6 3-6.6 6.6 0 3.6 3 6.6 6.6 6.6 3.6 0 6.6-3 6.6-6.6 0-3.6-3-6.6-6.6-6.6zM496 174.4c-3.6 0-6.6 3-6.6 6.6 0 3.6 3 6.6 6.6 6.6 3.6 0 6.6-3 6.6-6.6-.1-3.6-3-6.6-6.6-6.6zM513.7 174.4c-3.6 0-6.6 3-6.6 6.6 0 3.6 3 6.6 6.6 6.6 3.6 0 6.6-3 6.6-6.6 0-3.6-3-6.6-6.6-6.6zM549.2 192.2c-3.6 0-6.6 3-6.6 6.6 0 3.6 3 6.6 6.6 6.6 3.6 0 6.6-3 6.6-6.6-.1-3.7-3-6.6-6.6-6.6zM531.4 174.4c-3.6 0-6.6 3-6.6 6.6 0 3.6 3 6.6 6.6 6.6 3.6 0 6.6-3 6.6-6.6 0-3.6-3-6.6-6.6-6.6zM549.2 174.4c-3.6 0-6.6 3-6.6 6.6 0 3.6 3 6.6 6.6 6.6 3.6 0 6.6-3 6.6-6.6-.1-3.6-3-6.6-6.6-6.6zM478.2 121.2c-3.6 0-6.6 3-6.6 6.6 0 3.6 3 6.6 6.6 6.6 3.6 0 6.6-3 6.6-6.6 0-3.6-3-6.6-6.6-6.6zM478.2 103.5c-3.6 0-6.6 3-6.6 6.6 0 3.6 3 6.6 6.6 6.6 3.6 0 6.6-3 6.6-6.6 0-3.6-3-6.6-6.6-6.6zM478.2 68.1c-3.6 0-6.6 3-6.6 6.6 0 3.6 3 6.6 6.6 6.6 3.6 0 6.6-3 6.6-6.6 0-3.7-3-6.6-6.6-6.6zM478.2 85.8c-3.6 0-6.6 3-6.6 6.6 0 3.6 3 6.6 6.6 6.6 3.6 0 6.6-3 6.6-6.6 0-3.7-3-6.6-6.6-6.6zM496 85.8c-3.6 0-6.6 3-6.6 6.6 0 3.6 3 6.6 6.6 6.6 3.6 0 6.6-3 6.6-6.6-.1-3.7-3-6.6-6.6-6.6zM496 68.1c-3.6 0-6.6 3-6.6 6.6 0 3.6 3 6.6 6.6 6.6 3.6 0 6.6-3 6.6-6.6-.1-3.7-3-6.6-6.6-6.6zM513.7 68.1c-3.6 0-6.6 3-6.6 6.6 0 3.6 3 6.6 6.6 6.6 3.6 0 6.6-3 6.6-6.6 0-3.7-3-6.6-6.6-6.6zM513.7 85.8c-3.6 0-6.6 3-6.6 6.6 0 3.6 3 6.6 6.6 6.6 3.6 0 6.6-3 6.6-6.6 0-3.7-3-6.6-6.6-6.6zM531.4 85.8c-3.6 0-6.6 3-6.6 6.6 0 3.6 3 6.6 6.6 6.6 3.6 0 6.6-3 6.6-6.6 0-3.7-3-6.6-6.6-6.6zM549.2 85.8c-3.6 0-6.6 3-6.6 6.6 0 3.6 3 6.6 6.6 6.6 3.6 0 6.6-3 6.6-6.6-.1-3.7-3-6.6-6.6-6.6zM549.2 68.1c-3.6 0-6.6 3-6.6 6.6 0 3.6 3 6.6 6.6 6.6 3.6 0 6.6-3 6.6-6.6-.1-3.7-3-6.6-6.6-6.6zM531.4 68.1c-3.6 0-6.6 3-6.6 6.6 0 3.6 3 6.6 6.6 6.6 3.6 0 6.6-3 6.6-6.6 0-3.7-3-6.6-6.6-6.6zM478.2 50.3c-3.6 0-6.6 3-6.6 6.6 0 3.6 3 6.6 6.6 6.6 3.6 0 6.6-3 6.6-6.6 0-3.6-3-6.6-6.6-6.6zM496 50.3c-3.6 0-6.6 3-6.6 6.6 0 3.6 3 6.6 6.6 6.6 3.6 0 6.6-3 6.6-6.6-.1-3.6-3-6.6-6.6-6.6zM513.7 50.3c-3.6 0-6.6 3-6.6 6.6 0 3.6 3 6.6 6.6 6.6 3.6 0 6.6-3 6.6-6.6 0-3.6-3-6.6-6.6-6.6zM549.2 50.3c-3.6 0-6.6 3-6.6 6.6 0 3.6 3 6.6 6.6 6.6 3.6 0 6.6-3 6.6-6.6-.1-3.6-3-6.6-6.6-6.6zM531.4 50.3c-3.6 0-6.6 3-6.6 6.6 0 3.6 3 6.6 6.6 6.6 3.6 0 6.6-3 6.6-6.6 0-3.6-3-6.6-6.6-6.6zM407.3 14.9c-3.6 0-6.6 3-6.6 6.6 0 3.6 3 6.6 6.6 6.6 3.6 0 6.6-3 6.6-6.6 0-3.7-3-6.6-6.6-6.6zM354.1 32.6c-3.6 0-6.6 3-6.6 6.6 0 3.6 3 6.6 6.6 6.6 3.6 0 6.6-3 6.6-6.6 0-3.6-3-6.6-6.6-6.6zM425 14.9c-3.6 0-6.6 3-6.6 6.6 0 3.6 3 6.6 6.6 6.6 3.6 0 6.6-3 6.6-6.6 0-3.7-2.9-6.6-6.6-6.6zM460.5 32.6c-3.6 0-6.6 3-6.6 6.6 0 3.6 3 6.6 6.6 6.6 3.6 0 6.6-3 6.6-6.6 0-3.6-3-6.6-6.6-6.6zM460.5 14.9c-3.6 0-6.6 3-6.6 6.6 0 3.6 3 6.6 6.6 6.6 3.6 0 6.6-3 6.6-6.6 0-3.7-3-6.6-6.6-6.6zM442.8 14.9c-3.6 0-6.6 3-6.6 6.6 0 3.6 3 6.6 6.6 6.6 3.6 0 6.6-3 6.6-6.6-.1-3.7-3-6.6-6.6-6.6zM371.9 32.6c-3.6 0-6.6 3-6.6 6.6 0 3.6 3 6.6 6.6 6.6 3.6 0 6.6-3 6.6-6.6-.1-3.6-3-6.6-6.6-6.6zM478.2 14.9c-3.6 0-6.6 3-6.6 6.6 0 3.6 3 6.6 6.6 6.6 3.6 0 6.6-3 6.6-6.6 0-3.7-3-6.6-6.6-6.6zM478.2 32.6c-3.6 0-6.6 3-6.6 6.6 0 3.6 3 6.6 6.6 6.6 3.6 0 6.6-3 6.6-6.6 0-3.6-3-6.6-6.6-6.6zM496 32.6c-3.6 0-6.6 3-6.6 6.6 0 3.6 3 6.6 6.6 6.6 3.6 0 6.6-3 6.6-6.6-.1-3.6-3-6.6-6.6-6.6zM496 14.9c-3.6 0-6.6 3-6.6 6.6 0 3.6 3 6.6 6.6 6.6 3.6 0 6.6-3 6.6-6.6-.1-3.7-3-6.6-6.6-6.6zM513.7 14.9c-3.6 0-6.6 3-6.6 6.6 0 3.6 3 6.6 6.6 6.6 3.6 0 6.6-3 6.6-6.6 0-3.7-3-6.6-6.6-6.6zM513.7 32.6c-3.6 0-6.6 3-6.6 6.6 0 3.6 3 6.6 6.6 6.6 3.6 0 6.6-3 6.6-6.6 0-3.6-3-6.6-6.6-6.6zM531.4 32.6c-3.6 0-6.6 3-6.6 6.6 0 3.6 3 6.6 6.6 6.6 3.6 0 6.6-3 6.6-6.6 0-3.6-3-6.6-6.6-6.6zM549.2 32.6c-3.6 0-6.6 3-6.6 6.6 0 3.6 3 6.6 6.6 6.6 3.6 0 6.6-3 6.6-6.6-.1-3.6-3-6.6-6.6-6.6zM478.2 139c-3.6 0-6.6 3-6.6 6.6 0 3.6 3 6.6 6.6 6.6 3.6 0 6.6-3 6.6-6.6 0-3.7-3-6.6-6.6-6.6zM531.4 121.2c-3.6 0-6.6 3-6.6 6.6 0 3.6 3 6.6 6.6 6.6 3.6 0 6.6-3 6.6-6.6 0-3.6-3-6.6-6.6-6.6zM549.2 121.2c-3.6 0-6.6 3-6.6 6.6 0 3.6 3 6.6 6.6 6.6 3.6 0 6.6-3 6.6-6.6-.1-3.6-3-6.6-6.6-6.6zM496 103.5c-3.6 0-6.6 3-6.6 6.6 0 3.6 3 6.6 6.6 6.6 3.6 0 6.6-3 6.6-6.6-.1-3.6-3-6.6-6.6-6.6zM513.7 103.5c-3.6 0-6.6 3-6.6 6.6 0 3.6 3 6.6 6.6 6.6 3.6 0 6.6-3 6.6-6.6 0-3.6-3-6.6-6.6-6.6zM531.4 103.5c-3.6 0-6.6 3-6.6 6.6 0 3.6 3 6.6 6.6 6.6 3.6 0 6.6-3 6.6-6.6 0-3.6-3-6.6-6.6-6.6zM549.2 103.5c-3.6 0-6.6 3-6.6 6.6 0 3.6 3 6.6 6.6 6.6 3.6 0 6.6-3 6.6-6.6-.1-3.6-3-6.6-6.6-6.6zM513.7 121.2c-3.6 0-6.6 3-6.6 6.6 0 3.6 3 6.6 6.6 6.6 3.6 0 6.6-3 6.6-6.6 0-3.6-3-6.6-6.6-6.6zM496 121.2c-3.6 0-6.6 3-6.6 6.6 0 3.6 3 6.6 6.6 6.6 3.6 0 6.6-3 6.6-6.6-.1-3.6-3-6.6-6.6-6.6zM496 139c-3.6 0-6.6 3-6.6 6.6 0 3.6 3 6.6 6.6 6.6 3.6 0 6.6-3 6.6-6.6-.1-3.7-3-6.6-6.6-6.6zM513.7 139c-3.6 0-6.6 3-6.6 6.6 0 3.6 3 6.6 6.6 6.6 3.6 0 6.6-3 6.6-6.6 0-3.7-3-6.6-6.6-6.6zM531.4 139c-3.6 0-6.6 3-6.6 6.6 0 3.6 3 6.6 6.6 6.6 3.6 0 6.6-3 6.6-6.6 0-3.7-3-6.6-6.6-6.6zM549.2 139c-3.6 0-6.6 3-6.6 6.6 0 3.6 3 6.6 6.6 6.6 3.6 0 6.6-3 6.6-6.6-.1-3.7-3-6.6-6.6-6.6zM478.2 156.7c-3.6 0-6.6 3-6.6 6.6 0 3.6 3 6.6 6.6 6.6 3.6 0 6.6-3 6.6-6.6 0-3.6-3-6.6-6.6-6.6zM496 156.7c-3.6 0-6.6 3-6.6 6.6 0 3.6 3 6.6 6.6 6.6 3.6 0 6.6-3 6.6-6.6-.1-3.6-3-6.6-6.6-6.6zM513.7 156.7c-3.6 0-6.6 3-6.6 6.6 0 3.6 3 6.6 6.6 6.6 3.6 0 6.6-3 6.6-6.6 0-3.6-3-6.6-6.6-6.6zM531.4 156.7c-3.6 0-6.6 3-6.6 6.6 0 3.6 3 6.6 6.6 6.6 3.6 0 6.6-3 6.6-6.6 0-3.6-3-6.6-6.6-6.6zM549.2 156.7c-3.6 0-6.6 3-6.6 6.6 0 3.6 3 6.6 6.6 6.6 3.6 0 6.6-3 6.6-6.6-.1-3.6-3-6.6-6.6-6.6zM566.9 85.8c-3.6 0-6.6 3-6.6 6.6 0 3.6 3 6.6 6.6 6.6 3.6 0 6.6-3 6.6-6.6 0-3.7-3-6.6-6.6-6.6zM566.9 68.1c-3.6 0-6.6 3-6.6 6.6 0 3.6 3 6.6 6.6 6.6 3.6 0 6.6-3 6.6-6.6 0-3.7-3-6.6-6.6-6.6zM566.9 50.3c-3.6 0-6.6 3-6.6 6.6 0 3.6 3 6.6 6.6 6.6 3.6 0 6.6-3 6.6-6.6 0-3.6-3-6.6-6.6-6.6zM566.9 121.2c-3.6 0-6.6 3-6.6 6.6 0 3.6 3 6.6 6.6 6.6 3.6 0 6.6-3 6.6-6.6 0-3.6-3-6.6-6.6-6.6zM566.9 103.5c-3.6 0-6.6 3-6.6 6.6 0 3.6 3 6.6 6.6 6.6 3.6 0 6.6-3 6.6-6.6 0-3.6-3-6.6-6.6-6.6zM566.9 139c-3.6 0-6.6 3-6.6 6.6 0 3.6 3 6.6 6.6 6.6 3.6 0 6.6-3 6.6-6.6 0-3.7-3-6.6-6.6-6.6zM566.9 156.7c-3.6 0-6.6 3-6.6 6.6 0 3.6 3 6.6 6.6 6.6 3.6 0 6.6-3 6.6-6.6 0-3.6-3-6.6-6.6-6.6zM584.6 121.2c-3.6 0-6.6 3-6.6 6.6 0 3.6 3 6.6 6.6 6.6 3.6 0 6.6-3 6.6-6.6 0-3.6-3-6.6-6.6-6.6zM584.6 103.5c-3.6 0-6.6 3-6.6 6.6 0 3.6 3 6.6 6.6 6.6 3.6 0 6.6-3 6.6-6.6 0-3.6-3-6.6-6.6-6.6zM584.6 68.1c-3.6 0-6.6 3-6.6 6.6 0 3.6 3 6.6 6.6 6.6 3.6 0 6.6-3 6.6-6.6 0-3.7-3-6.6-6.6-6.6zM584.6 85.8c-3.6 0-6.6 3-6.6 6.6 0 3.6 3 6.6 6.6 6.6 3.6 0 6.6-3 6.6-6.6 0-3.7-3-6.6-6.6-6.6zM602.3 85.8c-3.6 0-6.6 3-6.6 6.6 0 3.6 3 6.6 6.6 6.6 3.6 0 6.6-3 6.6-6.6 0-3.7-2.9-6.6-6.6-6.6zM602.3 68.1c-3.6 0-6.6 3-6.6 6.6 0 3.6 3 6.6 6.6 6.6 3.6 0 6.6-3 6.6-6.6 0-3.7-2.9-6.6-6.6-6.6zM620.1 68.1c-3.6 0-6.6 3-6.6 6.6 0 3.6 3 6.6 6.6 6.6 3.6 0 6.6-3 6.6-6.6-.1-3.7-3-6.6-6.6-6.6zM620.1 85.8c-3.6 0-6.6 3-6.6 6.6 0 3.6 3 6.6 6.6 6.6 3.6 0 6.6-3 6.6-6.6-.1-3.7-3-6.6-6.6-6.6zM637.8 85.8c-3.6 0-6.6 3-6.6 6.6 0 3.6 3 6.6 6.6 6.6 3.6 0 6.6-3 6.6-6.6 0-3.7-3-6.6-6.6-6.6zM655.5 85.8c-3.6 0-6.6 3-6.6 6.6 0 3.6 3 6.6 6.6 6.6 3.6 0 6.6-3 6.6-6.6 0-3.7-3-6.6-6.6-6.6zM655.5 68.1c-3.6 0-6.6 3-6.6 6.6 0 3.6 3 6.6 6.6 6.6 3.6 0 6.6-3 6.6-6.6 0-3.7-3-6.6-6.6-6.6zM637.8 68.1c-3.6 0-6.6 3-6.6 6.6 0 3.6 3 6.6 6.6 6.6 3.6 0 6.6-3 6.6-6.6 0-3.7-3-6.6-6.6-6.6zM584.6 50.3c-3.6 0-6.6 3-6.6 6.6 0 3.6 3 6.6 6.6 6.6 3.6 0 6.6-3 6.6-6.6 0-3.6-3-6.6-6.6-6.6zM602.3 50.3c-3.6 0-6.6 3-6.6 6.6 0 3.6 3 6.6 6.6 6.6 3.6 0 6.6-3 6.6-6.6 0-3.6-2.9-6.6-6.6-6.6zM620.1 50.3c-3.6 0-6.6 3-6.6 6.6 0 3.6 3 6.6 6.6 6.6 3.6 0 6.6-3 6.6-6.6-.1-3.6-3-6.6-6.6-6.6zM655.5 50.3c-3.6 0-6.6 3-6.6 6.6 0 3.6 3 6.6 6.6 6.6 3.6 0 6.6-3 6.6-6.6 0-3.6-3-6.6-6.6-6.6zM637.8 50.3c-3.6 0-6.6 3-6.6 6.6 0 3.6 3 6.6 6.6 6.6 3.6 0 6.6-3 6.6-6.6 0-3.6-3-6.6-6.6-6.6zM673.3 68.1c-3.6 0-6.6 3-6.6 6.6 0 3.6 3 6.6 6.6 6.6 3.6 0 6.6-3 6.6-6.6-.1-3.7-3-6.6-6.6-6.6zM673.3 50.3c-3.6 0-6.6 3-6.6 6.6 0 3.6 3 6.6 6.6 6.6 3.6 0 6.6-3 6.6-6.6-.1-3.6-3-6.6-6.6-6.6zM673.3 32.6c-3.6 0-6.6 3-6.6 6.6 0 3.6 3 6.6 6.6 6.6 3.6 0 6.6-3 6.6-6.6-.1-3.6-3-6.6-6.6-6.6zM691 68.1c-3.6 0-6.6 3-6.6 6.6 0 3.6 3 6.6 6.6 6.6 3.6 0 6.6-3 6.6-6.6 0-3.7-3-6.6-6.6-6.6zM691 50.3c-3.6 0-6.6 3-6.6 6.6 0 3.6 3 6.6 6.6 6.6 3.6 0 6.6-3 6.6-6.6 0-3.6-3-6.6-6.6-6.6zM691 32.6c-3.6 0-6.6 3-6.6 6.6 0 3.6 3 6.6 6.6 6.6 3.6 0 6.6-3 6.6-6.6 0-3.6-3-6.6-6.6-6.6zM708.7 50.3c-3.6 0-6.6 3-6.6 6.6 0 3.6 3 6.6 6.6 6.6 3.6 0 6.6-3 6.6-6.6 0-3.6-3-6.6-6.6-6.6zM708.7 68.1c-3.6 0-6.6 3-6.6 6.6 0 3.6 3 6.6 6.6 6.6 3.6 0 6.6-3 6.6-6.6 0-3.7-3-6.6-6.6-6.6zM726.4 68.1c-3.6 0-6.6 3-6.6 6.6 0 3.6 3 6.6 6.6 6.6 3.6 0 6.6-3 6.6-6.6 0-3.7-2.9-6.6-6.6-6.6zM726.4 50.3c-3.6 0-6.6 3-6.6 6.6 0 3.6 3 6.6 6.6 6.6 3.6 0 6.6-3 6.6-6.6 0-3.6-2.9-6.6-6.6-6.6zM744.2 50.3c-3.6 0-6.6 3-6.6 6.6 0 3.6 3 6.6 6.6 6.6 3.6 0 6.6-3 6.6-6.6 0-3.6-3-6.6-6.6-6.6zM744.2 68.1c-3.6 0-6.6 3-6.6 6.6 0 3.6 3 6.6 6.6 6.6 3.6 0 6.6-3 6.6-6.6 0-3.7-3-6.6-6.6-6.6zM761.9 68.1c-3.6 0-6.6 3-6.6 6.6 0 3.6 3 6.6 6.6 6.6 3.6 0 6.6-3 6.6-6.6 0-3.7-3-6.6-6.6-6.6zM779.6 68.1c-3.6 0-6.6 3-6.6 6.6 0 3.6 3 6.6 6.6 6.6 3.6 0 6.6-3 6.6-6.6 0-3.7-2.9-6.6-6.6-6.6zM779.6 50.3c-3.6 0-6.6 3-6.6 6.6 0 3.6 3 6.6 6.6 6.6 3.6 0 6.6-3 6.6-6.6 0-3.6-2.9-6.6-6.6-6.6zM761.9 50.3c-3.6 0-6.6 3-6.6 6.6 0 3.6 3 6.6 6.6 6.6 3.6 0 6.6-3 6.6-6.6 0-3.6-3-6.6-6.6-6.6zM797.4 50.3c-3.6 0-6.6 3-6.6 6.6 0 3.6 3 6.6 6.6 6.6 3.6 0 6.6-3 6.6-6.6-.1-3.6-3-6.6-6.6-6.6zM797.4 68.1c-3.6 0-6.6 3-6.6 6.6 0 3.6 3 6.6 6.6 6.6 3.6 0 6.6-3 6.6-6.6-.1-3.7-3-6.6-6.6-6.6zM815.1 68.1c-3.6 0-6.6 3-6.6 6.6 0 3.6 3 6.6 6.6 6.6 3.6 0 6.6-3 6.6-6.6 0-3.7-3-6.6-6.6-6.6zM744.2 85.8c-3.6 0-6.6 3-6.6 6.6 0 3.6 3 6.6 6.6 6.6 3.6 0 6.6-3 6.6-6.6 0-3.7-3-6.6-6.6-6.6zM761.9 85.8c-3.6 0-6.6 3-6.6 6.6 0 3.6 3 6.6 6.6 6.6 3.6 0 6.6-3 6.6-6.6 0-3.7-3-6.6-6.6-6.6zM744.2 103.5c-3.6 0-6.6 3-6.6 6.6 0 3.6 3 6.6 6.6 6.6 3.6 0 6.6-3 6.6-6.6 0-3.6-3-6.6-6.6-6.6zM726.4 103.5c-3.6 0-6.6 3-6.6 6.6 0 3.6 3 6.6 6.6 6.6 3.6 0 6.6-3 6.6-6.6 0-3.6-2.9-6.6-6.6-6.6zM832.8 50.3c-3.6 0-6.6 3-6.6 6.6 0 3.6 3 6.6 6.6 6.6 3.6 0 6.6-3 6.6-6.6 0-3.6-3-6.6-6.6-6.6zM815.1 50.3c-3.6 0-6.6 3-6.6 6.6 0 3.6 3 6.6 6.6 6.6 3.6 0 6.6-3 6.6-6.6 0-3.6-3-6.6-6.6-6.6zM708.7 32.6c-3.6 0-6.6 3-6.6 6.6 0 3.6 3 6.6 6.6 6.6 3.6 0 6.6-3 6.6-6.6 0-3.6-3-6.6-6.6-6.6zM726.4 32.6c-3.6 0-6.6 3-6.6 6.6 0 3.6 3 6.6 6.6 6.6 3.6 0 6.6-3 6.6-6.6 0-3.6-2.9-6.6-6.6-6.6zM673.3 85.8c-3.6 0-6.6 3-6.6 6.6 0 3.6 3 6.6 6.6 6.6 3.6 0 6.6-3 6.6-6.6-.1-3.7-3-6.6-6.6-6.6zM708.7 85.8c-3.6 0-6.6 3-6.6 6.6 0 3.6 3 6.6 6.6 6.6 3.6 0 6.6-3 6.6-6.6 0-3.7-3-6.6-6.6-6.6zM691 85.8c-3.6 0-6.6 3-6.6 6.6 0 3.6 3 6.6 6.6 6.6 3.6 0 6.6-3 6.6-6.6 0-3.7-3-6.6-6.6-6.6zM566.9 32.6c-3.6 0-6.6 3-6.6 6.6 0 3.6 3 6.6 6.6 6.6 3.6 0 6.6-3 6.6-6.6 0-3.6-3-6.6-6.6-6.6zM584.6 32.6c-3.6 0-6.6 3-6.6 6.6 0 3.6 3 6.6 6.6 6.6 3.6 0 6.6-3 6.6-6.6 0-3.6-3-6.6-6.6-6.6zM566.9 174.4c-3.6 0-6.6 3-6.6 6.6 0 3.6 3 6.6 6.6 6.6 3.6 0 6.6-3 6.6-6.6 0-3.6-3-6.6-6.6-6.6zM584.6 174.4c-3.6 0-6.6 3-6.6 6.6 0 3.6 3 6.6 6.6 6.6 3.6 0 6.6-3 6.6-6.6 0-3.6-3-6.6-6.6-6.6zM637.8 32.6c-3.6 0-6.6 3-6.6 6.6 0 3.6 3 6.6 6.6 6.6 3.6 0 6.6-3 6.6-6.6 0-3.6-3-6.6-6.6-6.6zM655.5 32.6c-3.6 0-6.6 3-6.6 6.6 0 3.6 3 6.6 6.6 6.6 3.6 0 6.6-3 6.6-6.6 0-3.6-3-6.6-6.6-6.6zM584.6 139c-3.6 0-6.6 3-6.6 6.6 0 3.6 3 6.6 6.6 6.6 3.6 0 6.6-3 6.6-6.6 0-3.7-3-6.6-6.6-6.6zM637.8 121.2c-3.6 0-6.6 3-6.6 6.6 0 3.6 3 6.6 6.6 6.6 3.6 0 6.6-3 6.6-6.6 0-3.6-3-6.6-6.6-6.6zM655.5 121.2c-3.6 0-6.6 3-6.6 6.6 0 3.6 3 6.6 6.6 6.6 3.6 0 6.6-3 6.6-6.6 0-3.6-3-6.6-6.6-6.6zM602.3 103.5c-3.6 0-6.6 3-6.6 6.6 0 3.6 3 6.6 6.6 6.6 3.6 0 6.6-3 6.6-6.6 0-3.6-2.9-6.6-6.6-6.6zM620.1 103.5c-3.6 0-6.6 3-6.6 6.6 0 3.6 3 6.6 6.6 6.6 3.6 0 6.6-3 6.6-6.6-.1-3.6-3-6.6-6.6-6.6zM637.8 103.5c-3.6 0-6.6 3-6.6 6.6 0 3.6 3 6.6 6.6 6.6 3.6 0 6.6-3 6.6-6.6 0-3.6-3-6.6-6.6-6.6zM655.5 14.9c-3.6 0-6.6 3-6.6 6.6 0 3.6 3 6.6 6.6 6.6 3.6 0 6.6-3 6.6-6.6 0-3.7-3-6.6-6.6-6.6zM620.1 121.2c-3.6 0-6.6 3-6.6 6.6 0 3.6 3 6.6 6.6 6.6 3.6 0 6.6-3 6.6-6.6-.1-3.6-3-6.6-6.6-6.6zM602.3 121.2c-3.6 0-6.6 3-6.6 6.6 0 3.6 3 6.6 6.6 6.6 3.6 0 6.6-3 6.6-6.6 0-3.6-2.9-6.6-6.6-6.6zM602.3 139c-3.6 0-6.6 3-6.6 6.6 0 3.6 3 6.6 6.6 6.6 3.6 0 6.6-3 6.6-6.6 0-3.7-2.9-6.6-6.6-6.6zM620.1 139c-3.6 0-6.6 3-6.6 6.6 0 3.6 3 6.6 6.6 6.6 3.6 0 6.6-3 6.6-6.6-.1-3.7-3-6.6-6.6-6.6zM637.8 139c-3.6 0-6.6 3-6.6 6.6 0 3.6 3 6.6 6.6 6.6 3.6 0 6.6-3 6.6-6.6 0-3.7-3-6.6-6.6-6.6zM655.5 139c-3.6 0-6.6 3-6.6 6.6 0 3.6 3 6.6 6.6 6.6 3.6 0 6.6-3 6.6-6.6 0-3.7-3-6.6-6.6-6.6zM584.6 156.7c-3.6 0-6.6 3-6.6 6.6 0 3.6 3 6.6 6.6 6.6 3.6 0 6.6-3 6.6-6.6 0-3.6-3-6.6-6.6-6.6zM602.3 156.7c-3.6 0-6.6 3-6.6 6.6 0 3.6 3 6.6 6.6 6.6 3.6 0 6.6-3 6.6-6.6 0-3.6-2.9-6.6-6.6-6.6zM620.1 156.7c-3.6 0-6.6 3-6.6 6.6 0 3.6 3 6.6 6.6 6.6 3.6 0 6.6-3 6.6-6.6-.1-3.6-3-6.6-6.6-6.6zM655.5 156.7c-3.6 0-6.6 3-6.6 6.6 0 3.6 3 6.6 6.6 6.6 3.6 0 6.6-3 6.6-6.6 0-3.6-3-6.6-6.6-6.6zM655.5 174.4c-3.6 0-6.6 3-6.6 6.6 0 3.6 3 6.6 6.6 6.6 3.6 0 6.6-3 6.6-6.6 0-3.6-3-6.6-6.6-6.6zM637.8 192.2c-3.6 0-6.6 3-6.6 6.6 0 3.6 3 6.6 6.6 6.6 3.6 0 6.6-3 6.6-6.6 0-3.7-3-6.6-6.6-6.6zM620.1 209.9c-3.6 0-6.6 3-6.6 6.6 0 3.6 3 6.6 6.6 6.6 3.6 0 6.6-3 6.6-6.6-.1-3.6-3-6.6-6.6-6.6zM531.4 245.4c-3.6 0-6.6 3-6.6 6.6 0 3.6 3 6.6 6.6 6.6 3.6 0 6.6-3 6.6-6.6 0-3.7-3-6.6-6.6-6.6zM513.7 263.1c-3.6 0-6.6 3-6.6 6.6 0 3.6 3 6.6 6.6 6.6 3.6 0 6.6-3 6.6-6.6 0-3.7-3-6.6-6.6-6.6zM531.4 263.1c-3.6 0-6.6 3-6.6 6.6 0 3.6 3 6.6 6.6 6.6 3.6 0 6.6-3 6.6-6.6 0-3.7-3-6.6-6.6-6.6zM549.2 245.4c-3.6 0-6.6 3-6.6 6.6 0 3.6 3 6.6 6.6 6.6 3.6 0 6.6-3 6.6-6.6-.1-3.7-3-6.6-6.6-6.6zM70.5 493.6c-3.6 0-6.6 3-6.6 6.6 0 3.6 3 6.6 6.6 6.6 3.6 0 6.6-3 6.6-6.6-.1-3.7-3-6.6-6.6-6.6zM88.2 493.6c-3.6 0-6.6 3-6.6 6.6 0 3.6 3 6.6 6.6 6.6 3.6 0 6.6-3 6.6-6.6 0-3.7-3-6.6-6.6-6.6zM105.9 493.6c-3.6 0-6.6 3-6.6 6.6 0 3.6 3 6.6 6.6 6.6 3.6 0 6.6-3 6.6-6.6 0-3.7-3-6.6-6.6-6.6zM123.6 493.6c-3.6 0-6.6 3-6.6 6.6 0 3.6 3 6.6 6.6 6.6 3.6 0 6.6-3 6.6-6.6 0-3.7-2.9-6.6-6.6-6.6zM70.5 511.3c-3.6 0-6.6 3-6.6 6.6 0 3.6 3 6.6 6.6 6.6 3.6 0 6.6-3 6.6-6.6-.1-3.6-3-6.6-6.6-6.6zM88.2 511.3c-3.6 0-6.6 3-6.6 6.6 0 3.6 3 6.6 6.6 6.6 3.6 0 6.6-3 6.6-6.6 0-3.6-3-6.6-6.6-6.6zM105.9 511.3c-3.6 0-6.6 3-6.6 6.6 0 3.6 3 6.6 6.6 6.6 3.6 0 6.6-3 6.6-6.6 0-3.6-3-6.6-6.6-6.6zM88.2 529c-3.6 0-6.6 3-6.6 6.6 0 3.6 3 6.6 6.6 6.6 3.6 0 6.6-3 6.6-6.6 0-3.6-3-6.6-6.6-6.6zM105.9 529c-3.6 0-6.6 3-6.6 6.6 0 3.6 3 6.6 6.6 6.6 3.6 0 6.6-3 6.6-6.6 0-3.6-3-6.6-6.6-6.6zM123.6 511.3c-3.6 0-6.6 3-6.6 6.6 0 3.6 3 6.6 6.6 6.6 3.6 0 6.6-3 6.6-6.6 0-3.6-2.9-6.6-6.6-6.6z"/></g><g id="Ebene_1"><path class="st2" d="M267.7 16.4h-426.6c-9.4 0-12.8 5.5-12.8 14.9v292.2H289V31.3c0-9.3-11.9-14.9-21.3-14.9z"/><path class="st2" d="M-158.9 374.7h426.6c9.4 0 21.3-9.8 21.3-19.2v-34.1 17.1-14.9H-171.7v14.9-17.1 34.1c0 9.4 3.4 19.2 12.8 19.2z"/><path class="st3" d="M-154.6 42H272v264.5h-426.6z"/><path class="st4" d="M-133.3 76.1H41.6v12.8h-174.9zM-133.3 123.1H41.6v12.8h-174.9zM-133.3 170H41.6v12.8h-174.9zM-133.3 216.9H41.6v12.8h-174.9zM-133.3 263.8H41.6v12.8h-174.9zM75.7 76.1h174.9v12.8H75.7zM75.7 123.1h174.9v12.8H75.7zM75.7 170h174.9v12.8H75.7zM75.7 216.9h174.9v12.8H75.7zM75.7 263.8h174.9v12.8H75.7z"/><path class="st5" d="M179 176H-16c-14.6 0-27 11.3-27 25.9V375h20v51l-9.4 17.1h153.6L113 426v-51h92V201.9c0-14.6-11.4-25.9-26-25.9z"/><path class="st6" d="M51.3 455.5h38.1v27.2H51.3z"/><path class="st3" d="M-42.4 176.7h223.2v276.6H-42.4z"/><path class="st7" d="M167.5 164h-195c-14.6 0-26.4 11.8-26.4 26.4v286h18.3V182.8h211.3v266.8H-53.7v39.7h221.2c14.6 0 26.4-11.8 26.4-26.4V190.5c.1-14.6-11.8-26.5-26.4-26.5zM70 480.4c-5.8 0-10.5-4.7-10.5-10.5s4.7-10.5 10.5-10.5 10.5 4.7 10.5 10.5c0 5.9-4.7 10.5-10.5 10.5z"/><path class="st4" d="M-10.1 230.6h52.5v12.8h-52.5zM-10.1 276.4h52.5v12.8h-52.5zM-10.1 322.2h52.5V335h-52.5zM-10.1 367.9h52.5v12.8h-52.5z"/><path class="st5" d="M61.5 391h-99.9c-10.2 0-18.6 7.9-18.6 18.1V489H79v-79.9c0-10.2-7.3-18.1-17.5-18.1z"/><path class="st3" d="M-63.7 409.1H64.8v155.4H-63.7z"/><path class="st6" d="M-19.4 391h46.1v14h-46.1z"/><path class="st7" d="M51.2 379.2h-99.9c-10.2 0-18.4 8.3-18.4 18.4v179.8c0 10.2 8.3 18.4 18.4 18.4h99.9c10.2 0 18.4-8.3 18.4-18.4V397.6c0-10.2-8.2-18.4-18.4-18.4zM-11.5 395H14c1.3 0 2.4 1.1 2.4 2.4 0 1.3-1.1 2.4-2.4 2.4h-25.6c-1.3 0-2.4-1.1-2.4-2.4.1-1.4 1.2-2.4 2.5-2.4zm74.2 166.7h-123V413.4h123v148.3z"/><path class="st4" d="M-44.4 434.3h86.8v12.8h-86.8zM-44.4 475.5h86.8v12.8h-86.8zM-44.4 516.7h86.8v12.8h-86.8z"/><path class="st1" d="M156.7 281.6H68.6v-73.2h88.1v73.2zm-84.6-3.5h81.2v-66.4H72.1v66.4zM156.7 373.1H68.6v-73.2h88.1v73.2zm-84.6-3.4h81.2v-66.4H72.1v66.4z"/><path class="st8" d="M252.5 358.2c-6.1 0-11-5-11-11 0-6.1 5-11 11-11 6.1 0 11 5 11 11 0 6.1-4.9 11-11 11z"/><path class="st4" d="M87.8 559H79v17h8.8c3.6 0 6.2-3.5 6.2-7.1V566c0-3.6-2.6-7-6.2-7zM73.7 577.6H76c.6 0 1.1-.5 1.1-1.1v-17.8c0-.6-.5-1.1-1.1-1.1h-2.3c-.6 0-1.1.5-1.1 1.1v17.8c0 .6.5 1.1 1.1 1.1z"/><path class="st4" d="M73.7 577.6H76c.6 0 1.1-.5 1.1-1.1v-17.8c0-.6-.5-1.1-1.1-1.1h-2.3c-.6 0-1.1.5-1.1 1.1v17.8c0 .6.5 1.1 1.1 1.1z"/><path class="st2" d="M79 568v8h8.8c3.6 0 6.2-3.5 6.2-7.1v-.9H79z"/><path class="st4" d="M136 507.7V498h17v9.7c0 3.6-4 6.3-7.6 6.3h-2.9c-3.7 0-6.5-2.7-6.5-6.3zM154.1 492.8v2.3c0 .6-.5 1.1-1.1 1.1h-17.8c-.6 0-1.1-.5-1.1-1.1v-2.3c0-.6.5-1.1 1.1-1.1H153c.6 0 1.1.5 1.1 1.1z"/><path class="st4" d="M154.1 492.8v2.3c0 .6-.5 1.1-1.1 1.1h-17.8c-.6 0-1.1-.5-1.1-1.1v-2.3c0-.6.5-1.1 1.1-1.1H153c.6 0 1.1.5 1.1 1.1z"/><path class="st2" d="M145 498h8v9.7c0 3.6-4 6.3-7.6 6.3h-.4v-16z"/><path class="st9" d="M1 590.3c-6.1 0-11.9-5-11.9-11 0-6.1 5.8-11 11.9-11 6.1 0 11 5 11 11s-4.9 11-11 11z"/><path class="st10" d="M97.8 568.2h381.5c38 0 68.9-30.7 69.1-68.8l.3-41.1v2.3"/><path class="st10" d="M247.5 402.6v92.2c0 22.8 18.5 41.3 41.3 41.3h203.8c30.9 0 56-25.1 56-56v-36.7 17.2"/><path class="st4" d="M239 393.3V384h17v9.3c0 3.6-4 6.7-7.6 6.7h-2.9c-3.7 0-6.5-3.1-6.5-6.7zM257.1 378.3v2.3c0 .6-.5 1.1-1.1 1.1h-17.8c-.6 0-1.1-.5-1.1-1.1v-2.3c0-.6.5-1.1 1.1-1.1H256c.6.1 1.1.6 1.1 1.1z"/><path class="st4" d="M257.1 378.3v2.3c0 .6-.5 1.1-1.1 1.1h-17.8c-.6 0-1.1-.5-1.1-1.1v-2.3c0-.6.5-1.1 1.1-1.1H256c.6.1 1.1.6 1.1 1.1z"/><path class="st2" d="M248 384h8v9.3c0 3.6-4 6.7-7.6 6.7h-.4v-16z"/><path class="st10" d="M144.7 516.7v19.7c0 17.6 14.2 31.8 31.8 31.8h16.2"/><path class="st11" d="M550.7 485.7l55-67.7-67.3 1.5 8.5 60z"/><path class="st1" d="M550.9 485.4h-5.6L493.8 413h108.6z"/><path class="st7" d="M547.8 485h3.1l51.5-71h-38.7z"/></g><g id="Ebene_3"><path class="st4" d="M896.7 412c.2-.9.4-1.7.6-2.6l10.8-2.1c1-8.2-.1-16.3-2.9-23.7l-11 .5c-.8-1.6-1.7-3.2-2.7-4.7l6.1-9.1c-4.9-6.2-11.3-11.3-18.8-14.7l-7.4 8.2c-.8-.3-1.7-.6-2.6-.8s-1.7-.4-2.6-.6l-2.1-10.8c-8.2-1-16.3.1-23.7 2.9l.5 11c-1.6.8-3.2 1.7-4.7 2.7l-9.1-6.1c-6.2 4.9-11.3 11.3-14.7 18.8l8.2 7.4c-.3.8-.6 1.7-.8 2.6s-.4 1.7-.6 2.6l-10.8 2.1c-1 8.2.1 16.3 2.9 23.7l11-.5c.8 1.6 1.7 3.2 2.7 4.7l-6.1 9.1c4.9 6.2 11.3 11.3 18.8 14.7l7.4-8.2c.8.3 1.7.6 2.6.8.9.2 1.7.4 2.6.6l2.1 10.8c8.2 1 16.3-.1 23.7-2.9l-.5-11c1.6-.8 3.2-1.7 4.7-2.7l9.1 6.1c6.2-4.9 11.3-11.3 14.7-18.8l-8.2-7.4c.3-.9.6-1.8.8-2.6zm-45.4 14.3c-13.8-3.8-21.9-18.2-18.1-32 3.8-13.8 18.2-21.9 32-18.1 13.8 3.8 21.9 18.2 18.1 32-3.8 13.9-18.1 22-32 18.1z"/><path class="st12" d="M699 144.5l-161.2 94.3"/><path class="st1" d="M697.425 141.86l3.03 5.18-161.16 94.246-3.03-5.18z"/><path class="st12" d="M699.9 147.4l-161.2 94.2"/><path class="st4" d="M695.8 154.3l5.4-3.2-1.3-3.7-6.7 3.9z"/><path class="st13" d="M701.846 150.804l-13.466 7.874-3.937-6.733 13.466-7.874z"/><path class="st4" d="M682.4 162.1l5.3-3.1-1.3-3.8-6.7 4z"/><path class="st13" d="M688.45 158.585l-13.466 7.875-3.938-6.733 13.466-7.875z"/><path class="st4" d="M668.9 170l5.4-3.1-1.3-3.8-6.7 3.9z"/><path class="st13" d="M675.017 166.502l-13.466 7.875-3.936-6.733 13.465-7.875z"/><path class="st4" d="M655.5 177.8l5.4-3.1-1.3-3.7-6.7 3.9z"/><path class="st13" d="M661.534 174.334l-13.466 7.875-3.937-6.734 13.467-7.875z"/><path class="st4" d="M642.1 185.7l5.3-3.1-1.3-3.8-6.7 3.9z"/><path class="st13" d="M648.188 182.2l-13.466 7.876-3.938-6.733 13.466-7.875z"/><path class="st4" d="M628.6 193.6l5.4-3.2-1.3-3.7-6.7 3.9z"/><path class="st13" d="M634.705 190.034l-13.466 7.875-3.938-6.734 13.465-7.875z"/><g><path class="st4" d="M615.2 201.4l5.4-3.1-1.3-3.8-6.7 3.9z"/><path class="st13" d="M621.222 197.864l-13.466 7.875-3.938-6.734 13.466-7.875z"/></g><g><path class="st4" d="M601.8 209.3l5.3-3.2-1.3-3.7-6.7 3.9z"/><path class="st13" d="M607.876 205.732l-13.466 7.875-3.938-6.733L603.938 199z"/></g><g><path class="st4" d="M588.3 217.1l5.4-3.1-1.3-3.8-6.7 4z"/><path class="st13" d="M594.392 213.563l-13.466 7.875-3.937-6.733 13.465-7.875z"/></g><g><path class="st4" d="M574.9 225l5.4-3.2-1.3-3.7-6.7 3.9z"/><path class="st13" d="M580.96 221.48l-13.466 7.876-3.937-6.733 13.466-7.874z"/></g><g><path class="st4" d="M561.5 232.8l5.3-3.1-1.3-3.8-6.7 4z"/><path class="st13" d="M567.477 229.313l-13.466 7.874-3.936-6.732 13.465-7.875z"/></g><g><path class="st4" d="M548 240.7l5.4-3.2-1.3-3.7-6.7 3.9z"/><path class="st13" d="M554.13 237.18l-13.465 7.875-3.938-6.733 13.466-7.874z"/></g><g><path class="st12" d="M590.8 308.5l135.8-127.9"/><path class="st1" d="M592.842 310.755l-4.114-4.368 135.845-127.933 4.114 4.368z"/><g><path class="st12" d="M589.1 306.2L725 178.3"/><path class="st4" d="M591.6 298.6l-4.6 4.3 2.1 3.3 5.7-5.3z"/><path class="st13" d="M586.45 303.408l11.286-10.625 5.347 5.68-11.285 10.624z"/><path class="st4" d="M602.9 288l-4.6 4.2 2.1 3.4 5.7-5.3z"/><path class="st13" d="M597.797 292.806l11.285-10.625 5.347 5.68-11.286 10.625z"/><path class="st4" d="M614.2 277.3l-4.5 4.3 2.1 3.3 5.6-5.3z"/><path class="st13" d="M609.147 282.062l11.285-10.625 5.347 5.68-11.286 10.624z"/><path class="st4" d="M625.5 266.6l-4.5 4.3 2.1 3.4 5.6-5.4z"/><path class="st13" d="M620.424 271.387l11.285-10.625 5.346 5.68-11.285 10.624z"/><path class="st4" d="M636.8 256l-4.5 4.2 2.1 3.4 5.7-5.3z"/><path class="st13" d="M631.77 260.785l11.286-10.625 5.346 5.68-11.285 10.625z"/><path class="st4" d="M648.2 245.3l-4.6 4.3 2.1 3.3 5.7-5.3z"/><path class="st13" d="M643.047 250.11l11.286-10.626 5.346 5.68-11.286 10.625z"/><g><path class="st4" d="M659.5 234.7l-4.6 4.2 2.1 3.4 5.7-5.3z"/><path class="st13" d="M654.393 239.508l11.286-10.625 5.346 5.68-11.286 10.624z"/></g><g><path class="st4" d="M670.8 224l-4.5 4.3 2.1 3.3 5.6-5.3z"/><path class="st13" d="M665.743 228.764l11.285-10.625 5.347 5.678-11.285 10.625z"/></g><g><path class="st4" d="M682.1 213.3l-4.5 4.3 2.1 3.4 5.6-5.4z"/><path class="st13" d="M677.09 218.162l11.285-10.625 5.347 5.68-11.286 10.624z"/></g><g><path class="st4" d="M693.4 202.7l-4.5 4.3 2.1 3.3 5.7-5.3z"/><path class="st13" d="M688.367 207.488l11.285-10.625 5.347 5.68-11.286 10.624z"/></g><g><path class="st4" d="M704.8 192l-4.6 4.3 2.1 3.4 5.7-5.4z"/><path class="st13" d="M699.643 196.81l11.285-10.625 5.347 5.68-11.285 10.625z"/></g><g><path class="st4" d="M716.1 181.4l-4.6 4.2 2.1 3.4 5.7-5.3z"/><path class="st13" d="M710.99 186.21l11.285-10.625 5.347 5.68-11.286 10.624z"/></g></g></g><path class="st14" d="M626 312.8h23.6c2.8-12.2 3.5-24.4 2.2-36.4l-23.4-2.8c-.8-4.8-2.1-9.5-3.7-14l19.1-13.8c-4.7-11.2-11.4-21.6-19.6-30.7l-20.5 11.5c-3.4-3.4-7.2-6.4-11.2-9.2l7.3-22.4c-5.2-3.1-10.6-5.8-16.4-8.1s-11.7-4-17.5-5.2l-9.9 21.4c-4.8-.7-9.7-1-14.5-.9l-7.2-22.4c-12.3 1.1-24.2 4.2-35.3 9.2l4.6 23.1c-4.3 2.3-8.4 4.8-12.2 7.8l-19-13.9c-9.1 7.9-17 17.3-23.1 28.2l17.3 16c-1.1 2.2-2.1 4.4-3 6.6s-1.7 4.6-2.3 6.9h-23.6c-2.8 12.2-3.5 24.4-2.2 36.4l23.4 2.8c.8 4.8 2.1 9.5 3.7 14l-19.1 13.8c4.7 11.2 11.4 21.6 19.6 30.7l20.5-11.5c3.4 3.4 7.2 6.4 11.2 9.2l-7.3 22.4c5.2 3.1 10.6 5.8 16.4 8.1 5.8 2.3 11.7 4 17.5 5.2l9.9-21.4c4.8.7 9.7 1 14.5.9l7.2 22.4c12.3-1.1 24.2-4.2 35.3-9.2l-4.6-23.1c4.3-2.3 8.4-4.8 12.2-7.8l19 13.9c9.1-7.9 17-17.3 23.1-28.2l-17.3-16c1.1-2.2 2.1-4.4 3-6.6.9-2.3 1.6-4.6 2.3-6.9zm-54-.6c-7.1 8.4-17.4 13.3-28.5 13.3-8.7 0-17.2-3.1-23.9-8.7-15.7-13.2-17.7-36.6-4.6-52.3 7.1-8.4 17.4-13.3 28.5-13.3 8.7 0 17.2 3.1 23.9 8.7 15.7 13.1 17.7 36.6 4.6 52.3z"/><circle class="st15" cx="543.5" cy="288.3" r="43.5"/><circle class="st16" cx="543.5" cy="288.3" r="47.2"/><path class="st14" d="M757.8 170.4c.5-2.9.8-5.8.8-8.8 0-3-.3-5.9-.8-8.8l-17.7-3.1c-1.1-2.8-2.7-5.5-4.5-7.9l6.2-16.9c-4.4-3.8-9.6-6.8-15.2-8.8L715.1 130c-1.5-.2-3-.3-4.5-.3s-3.1.1-4.5.3l-11.5-13.8c-5.6 2-10.8 5-15.2 8.8l6.2 16.9c-1.9 2.4-3.4 5-4.5 7.8l-17.7 3.1c-.5 2.9-.8 5.8-.8 8.8 0 3 .3 5.9.8 8.8l17.7 3.1c1.1 2.8 2.7 5.5 4.5 7.9l-6.2 16.9c4.4 3.8 9.6 6.8 15.2 8.8l11.5-13.8c1.5.2 3 .3 4.5.3s3.1-.1 4.5-.3l11.5 13.8c5.6-2 10.8-5 15.2-8.8l-6.2-16.9c1.9-2.4 3.4-5 4.5-7.8l17.7-3.2zm-47.3 2.6c-6.3 0-11.5-5.2-11.5-11.5s5.2-11.5 11.5-11.5c3.1 0 5.9 1.2 8.1 3.4 2.2 2.2 3.4 5 3.3 8.1.1 6.4-5.1 11.5-11.4 11.5z"/><g><path class="st1" d="M710.5 182.7c-5.7 0-11-2.2-15-6.2s-6.2-9.3-6.2-15c0-11.6 9.5-21.1 21.1-21.1 11.7 0 21.2 9.5 21.1 21.2.1 11.6-9.3 21.1-21 21.1zm0-39c-9.8 0-17.8 8-17.8 17.8 0 4.8 1.8 9.2 5.2 12.6s7.8 5.2 12.6 5.2v1.7-1.7c9.8 0 17.8-8 17.8-17.8s-8-17.7-17.8-17.8z"/></g><g><path class="st1" d="M543.5 358.1c-7.4 0-14.9-1.2-22.3-3.7-19.3-6.5-34.7-21.1-42.4-40L361.4 62.6l6.1-2.8 117.4 252v.1c6.9 17.1 20.9 30.3 38.3 36.3 6.7 2.3 13.5 3.3 20.2 3.3 26.3 0 51-16.6 59.9-42.9 7.4-21.8 2.3-46-13.3-63l-.1-.1L415.2 34.9l5.2-4.3L595 241.1c17.2 18.8 22.8 45.5 14.7 69.6-9.9 29.1-37.1 47.4-66.2 47.4z"/></g><g><path class="st4" d="M374.2 64.3l-2.6-5.6-3.8.9 3.2 7z"/><path class="st13" d="M371.32 57.962l6.505 13.96-7.07 3.294-6.505-13.96z"/><path class="st4" d="M380.8 78.3l-2.6-5.6-3.9.9 3.3 7z"/><path class="st13" d="M377.827 71.942l6.504 13.96-7.07 3.294-6.503-13.96z"/><path class="st4" d="M387.3 92.3l-2.6-5.6-3.9.9 3.3 7z"/><path class="st13" d="M384.375 86.012l6.504 13.96-7.072 3.294-6.503-13.96z"/><path class="st4" d="M393.8 106.3l-2.6-5.6-3.9.9 3.3 7z"/><path class="st13" d="M390.882 99.99l6.503 13.96-7.07 3.295-6.504-13.96z"/><path class="st4" d="M400.3 120.3l-2.6-5.6-3.8.9 3.2 7z"/><path class="st13" d="M397.388 113.97l6.503 13.96-7.07 3.294-6.503-13.96z"/><path class="st4" d="M406.8 134.2l-2.6-5.5-3.8.9 3.2 7z"/><path class="st13" d="M403.894 127.95l6.503 13.96-7.07 3.294-6.504-13.96z"/><path class="st4" d="M413.4 148.2l-2.6-5.6-3.9 1 3.3 7z"/><path class="st13" d="M410.4 141.93l6.504 13.96-7.07 3.293-6.504-13.96z"/><path class="st4" d="M419.9 162.2l-2.6-5.6-3.9 1 3.3 7z"/><path class="st13" d="M416.95 156l6.502 13.96-7.07 3.293-6.504-13.96z"/><path class="st4" d="M426.4 176.2l-2.6-5.6-3.9 1 3.3 7z"/><path class="st13" d="M423.455 169.978l6.504 13.96-7.072 3.294-6.504-13.96z"/><path class="st4" d="M432.9 190.2l-2.6-5.6-3.8 1 3.2 7z"/><path class="st13" d="M429.96 183.958l6.504 13.96-7.07 3.294-6.504-13.96z"/><path class="st4" d="M439.4 204.2l-2.6-5.6-3.8 1 3.2 7z"/><path class="st13" d="M436.468 197.937l6.503 13.96-7.07 3.294-6.503-13.96z"/><path class="st4" d="M446 218.2l-2.6-5.6-3.9 1 3.3 7z"/><path class="st13" d="M442.974 211.916l6.503 13.96-7.07 3.294-6.504-13.96z"/><path class="st4" d="M452.5 232.2l-2.6-5.6-3.9 1 3.3 7z"/><path class="st13" d="M449.522 225.986l6.503 13.96-7.07 3.294-6.504-13.96z"/><path class="st4" d="M459 246.2l-2.6-5.6-3.9 1 3.3 6.9z"/><path class="st13" d="M456.028 239.966l6.504 13.96-7.07 3.294-6.504-13.96z"/><path class="st4" d="M465.5 260.2l-2.6-5.6-3.8.9 3.2 7z"/><path class="st13" d="M462.533 253.945l6.504 13.96-7.07 3.294-6.504-13.96z"/><path class="st4" d="M472 274.2l-2.6-5.6-3.8.9 3.2 7z"/><path class="st13" d="M469.04 267.924l6.504 13.96-7.07 3.294-6.504-13.96z"/><path class="st4" d="M478.6 288.2l-2.7-5.6-3.8.9 3.3 7z"/><path class="st13" d="M475.638 281.86l6.503 13.96-7.07 3.295-6.503-13.96z"/><path class="st4" d="M485.1 302.2l-2.6-5.6-3.9.9 3.3 7z"/><path class="st13" d="M482.186 295.93l6.503 13.96-7.072 3.295-6.503-13.96z"/><path class="st4" d="M491.5 316s-.6-1.3-1.3-2.6c-.6-1.3-1.2-2.7-1.2-2.7-1.1.2-2.1.5-3.2.6-.2 0-.4.1-.7.1l.1.1c.5 1.2 1 2.3 1.5 3.5.6 1.1 1.1 2.3 1.7 3.4 0 0 .8-.6 1.5-1.3.8-.5 1.6-1.1 1.6-1.1z"/><path class="st13" d="M489.4 327.3c-.8-1.1-1.5-2.2-2.3-3.4-.8-1.1-1.4-2.3-2.1-3.5-.7-1.2-1.2-2.4-1.9-3.6-.3-.6-.5-1.2-.8-1.9l-.8-1.8 7.1-3.3.1.2.8 1.8c.2.5.5 1.1.7 1.6.6 1.1 1 2.2 1.6 3.2.6 1 1.2 2.1 1.8 3.1.6 1 1.3 2 2 3l-6.2 4.6z"/><path class="st4" d="M499.8 327.8s-.2-.3-.6-.7c-.4-.4-.8-1-1.3-1.5-.5-.6-.9-1.1-1.3-1.6-.3-.4-.5-.7-.5-.7s-.9.4-1.8.9l-1.8.8s1.1 1.6 2.3 3.1c.6.8 1.2 1.5 1.7 2s.8.9.8.9l1.2-1.6c.7-.8 1.3-1.6 1.3-1.6z"/><path class="st13" d="M500.5 339.3s-3.1-2.6-5.9-5.7c-2.8-3-5.2-6.3-5.2-6.3l6.3-4.5s2.1 3 4.6 5.6c2.5 2.7 5.2 5 5.2 5l-5 5.9z"/><path class="st4" d="M510.7 337.3s-.3-.2-.7-.5c-.4-.3-1-.7-1.6-1.2-.6-.4-1.1-.9-1.6-1.2-.4-.3-.7-.6-.7-.6s-.8.6-1.5 1.3c-.8.6-1.5 1.3-1.5 1.3s.4.3.9.8c.6.4 1.3 1.1 2.1 1.6.8.6 1.6 1.1 2.2 1.5.6.4 1 .7 1 .7s.4-.9.7-1.8c.3-1 .7-1.9.7-1.9z"/><path class="st13" d="M514.2 348.2s-.9-.4-2.3-1.2c-1.3-.8-3.1-1.7-4.8-2.9-.9-.5-1.7-1.1-2.5-1.7-.8-.6-1.5-1.1-2.1-1.6-1.2-1-2-1.6-2-1.6l5-5.9s.7.6 1.8 1.4c.5.4 1.2.9 1.9 1.4.7.5 1.4 1 2.2 1.5 1.5 1 3.1 1.9 4.3 2.6l2 1-3.5 7z"/><path class="st4" d="M523.6 343.8s-.3-.1-.8-.3c-.5-.2-1.2-.4-1.9-.7-.7-.3-1.3-.6-1.8-.8-.5-.2-.8-.4-.8-.4l-1.2 1.6-1.2 1.6s.4.2 1.1.5c.7.3 1.5.7 2.4 1.1.9.4 1.8.7 2.5 1 .7.3 1.1.4 1.1.4s.1-1 .3-2c.2-1.1.3-2 .3-2z"/><path class="st13" d="M529.7 353.6s-1-.2-2.5-.6c-1.5-.4-3.5-1-5.4-1.6-1-.4-1.9-.7-2.8-1-.9-.4-1.7-.7-2.4-1-.7-.3-1.3-.6-1.7-.8l-.6-.3 3.4-7 .6.3c.3.2.9.4 1.5.7.6.3 1.3.6 2.1.9.8.3 1.6.6 2.5.9 1.7.6 3.5 1.1 4.8 1.4 1.3.4 2.2.5 2.2.5l-1.7 7.6z"/><path class="st4" d="M537.7 346.9s-1.4-.1-2.9-.4c-1.4-.2-2.9-.5-2.9-.5s-.4.9-.7 1.8l-.8 1.8s.5.1 1.2.2c.7.2 1.7.3 2.6.4 1 .2 1.9.3 2.6.3.7.1 1.2.1 1.2.1l-.2-2c0-.7-.1-1.7-.1-1.7z"/><path class="st13" d="M546 355H543.4c-1.5 0-3.6-.1-5.6-.2l-3-.3c-1-.1-1.8-.3-2.6-.4l-2.5-.5 1.6-7.6s.9.2 2.2.4c.7.1 1.5.2 2.3.3.8.1 1.7.2 2.6.3 1.8.1 3.6.2 5 .2h2.2l.4 7.8z"/><path class="st4" d="M552.2 346.6s-1.4.2-2.9.4c-1.4.2-2.9.2-2.9.2s-.1 1-.3 2c-.2 1-.3 2-.3 2s.5 0 1.2-.1c.7 0 1.7-.1 2.6-.2 1-.1 1.9-.2 2.6-.3.7-.1 1.2-.2 1.2-.2s-.3-.9-.7-1.9c-.2-1-.5-1.9-.5-1.9z"/><path class="st13" d="M562.1 352.4s-1 .3-2.5.7c-1.5.4-3.5.8-5.5 1.1-1 .1-2 .3-3 .4-1 .1-1.8.2-2.6.3-1.5.1-2.6.1-2.6.1l-.3-7.8s.9 0 2.3-.1c.7-.1 1.5-.1 2.3-.2.8-.1 1.7-.2 2.6-.4 1.8-.3 3.6-.7 4.9-1 1.3-.3 2.2-.6 2.2-.6l2.2 7.5z"/><path class="st4" d="M566.1 342.7s-.3.1-.8.3c-.5.2-1.2.5-1.9.7-.7.2-1.4.5-1.9.7-.5.2-.9.3-.9.3l.2 2 .2 2s.5-.1 1.2-.3c.7-.2 1.6-.5 2.5-.8.9-.3 1.8-.7 2.5-.9.7-.3 1.1-.5 1.1-.5s-.6-.8-1.1-1.6c-.6-1.1-1.1-1.9-1.1-1.9z"/><path class="st13" d="M577.1 345.9s-.2.1-.6.4c-.4.2-.9.5-1.6.9-1.3.7-3.2 1.6-5.1 2.4-.9.4-1.9.8-2.8 1.1-.9.3-1.8.6-2.5.9l-2.4.8-2.2-7.5s.9-.2 2.2-.7c.6-.2 1.4-.5 2.2-.8.8-.3 1.6-.7 2.5-1 1.7-.7 3.3-1.5 4.5-2.2.6-.3 1.1-.6 1.4-.8.3-.2.5-.3.5-.3l3.9 6.8z"/><g><path class="st4" d="M578.7 335.6s-.3.2-.7.5c-.4.3-1 .8-1.6 1.1-.6.4-1.2.8-1.7 1.1-.5.3-.8.5-.8.5s.3.9.7 1.9c.3.9.7 1.9.7 1.9s1.7-1 3.3-2c.8-.5 1.6-1.1 2.2-1.5.6-.4 1-.7 1-.7s-.7-.7-1.5-1.3c-.9-.8-1.6-1.5-1.6-1.5z"/><path class="st13" d="M590.1 336s-2.9 2.9-6.2 5.4c-3.3 2.5-6.8 4.5-6.8 4.5l-3.9-6.7s3.2-1.8 6-4c2.9-2.2 5.5-4.7 5.5-4.7l5.4 5.5z"/></g><g><path class="st4" d="M589.1 325.7s-.2.3-.6.7c-.4.4-.8 1-1.3 1.5s-1 1.1-1.4 1.5l-.6.6s.6.8 1.1 1.6c.5.8 1.1 1.7 1.1 1.7s.3-.3.9-.8c.5-.5 1.2-1.2 1.8-1.9 1.3-1.4 2.5-2.9 2.5-2.9s-.9-.5-1.8-.9c-.8-.7-1.7-1.1-1.7-1.1z"/><path class="st13" d="M600.4 323.3s-2.1 3.5-4.7 6.7-5.5 6.1-5.5 6.1l-5.4-5.6s2.6-2.5 4.9-5.3c2.3-2.8 4.2-5.9 4.2-5.9l6.5 4z"/></g><g><path class="st4" d="M596.8 313.5s-.2.3-.4.8-.5 1.1-.9 1.8c-.3.6-.7 1.3-1 1.7-.3.5-.5.8-.5.8s.7.7 1.5 1.3c.7.7 1.5 1.3 1.5 1.3s.3-.4.6-1c.4-.6.8-1.5 1.3-2.3.5-.8.9-1.7 1.2-2.4.3-.7.5-1.1.5-1.1s-1-.2-1.9-.5c-.9-.2-1.9-.4-1.9-.4z"/><path class="st13" d="M607.1 308.4s-.1.2-.2.7c-.1.4-.3 1-.6 1.8-.3.7-.6 1.6-.9 2.5-.4.9-.8 1.8-1.2 2.8-.4.9-.9 1.8-1.3 2.7-.4.9-.9 1.6-1.3 2.3-.4.7-.7 1.2-.9 1.6-.2.4-.4.6-.4.6l-6.6-4.1s.1-.2.3-.5c.2-.3.5-.8.8-1.4.3-.6.7-1.3 1.1-2l1.2-2.4c.4-.8.7-1.7 1-2.4.3-.8.6-1.5.8-2.2.2-.6.4-1.2.5-1.6.1-.4.2-.6.2-.6l7.5 2.2z"/></g><g><path class="st4" d="M601.4 299.7l-.6 2.8c-.1.7-.4 1.4-.5 1.9-.2.5-.3.9-.3.9s.9.5 1.8.9c.9.5 1.7.9 1.7.9s.1-.5.3-1.2c.2-.7.5-1.6.7-2.6.2-.9.4-1.9.6-2.6.2-.7.2-1.2.2-1.2h-2c-.9.2-1.9.2-1.9.2z"/><path class="st13" d="M610.1 292.3s-.1 1-.2 2.6c-.1 1.5-.5 3.6-.8 5.6-.2 1-.4 2-.6 2.9-.2.9-.4 1.8-.6 2.5-.4 1.5-.7 2.5-.7 2.5l-7.4-2.3s.3-.9.7-2.2c.2-.6.3-1.4.6-2.3.2-.8.4-1.7.6-2.6.3-1.8.6-3.6.7-4.9.1-1.4.2-2.3.2-2.3l7.5.5z"/></g><g><path class="st4" d="M602.4 285.3v.9c0 .5.1 1.3.1 2 0 1.4-.1 2.9-.1 2.9s1 .2 1.9.5c1 .2 1.9.5 1.9.5v-.3-.9c0-.7 0-1.7.1-2.7 0-1-.1-1.9-.1-2.7 0-.7-.1-1.2-.1-1.2s-1 .2-1.9.5c-.9.3-1.8.5-1.8.5z"/><path class="st13" d="M609.1 276s.2 1 .4 2.5c.1.8.2 1.7.3 2.6.1 1 .3 2 .3 3s.1 2 .1 3v5.2l-7.8-.5v-.6-1.6c0-.7.1-1.5 0-2.3 0-.8-.1-1.8-.1-2.7 0-.9-.2-1.8-.2-2.6-.1-.8-.2-1.6-.3-2.3-.2-1.3-.4-2.2-.4-2.2l7.7-1.5z"/></g><g><path class="st4" d="M599.9 271.1s.5 1.4.8 2.8c.2.7.3 1.4.5 1.9.1.3.1.5.1.6v.2h4s-.1-.5-.2-1.2-.4-1.6-.6-2.6c-.2-.9-.5-1.9-.7-2.6-.2-.7-.4-1.1-.4-1.1s-.9.5-1.7.9c-.9.6-1.8 1.1-1.8 1.1z"/><path class="st13" d="M604.1 260.4l.3.6c.2.4.5 1 .7 1.7.6 1.4 1.4 3.3 1.9 5.3.7 1.9 1.1 3.9 1.5 5.4.2.7.3 1.4.4 1.8.1.4.1.7.1.7l-7.6 1.4s0-.2-.1-.6c-.1-.4-.2-.9-.3-1.6-.3-1.3-.7-3.1-1.3-4.8-.5-1.7-1.2-3.4-1.7-4.7-.2-.6-.5-1.2-.6-1.5l-.3-.6 7-3.1z"/></g><g><path class="st4" d="M594 257.9s.2.3.4.8c.3.5.6 1.1 1 1.7.4.6.7 1.3.9 1.8.2.5.4.8.4.8s1-.2 1.9-.5c1-.2 1.9-.5 1.9-.5s-.2-.4-.5-1.1c-.3-.7-.7-1.5-1.2-2.4-.5-.8-.9-1.7-1.3-2.3-.2-.3-.3-.6-.5-.7-.1-.2-.2-.3-.2-.3s-.7.7-1.5 1.3c-.5.7-1.3 1.4-1.3 1.4z"/><path class="st13" d="M595.6 246.5s.2.2.4.6c.3.4.7.9 1.1 1.5.4.6 1 1.3 1.5 2.1s1.1 1.7 1.6 2.5c.6.8 1 1.8 1.5 2.6s.9 1.6 1.3 2.3c.7 1.4 1.1 2.3 1.1 2.3l-7.1 3.2-1-2c-.3-.6-.7-1.3-1.1-2-.4-.7-.8-1.6-1.3-2.3-.5-.8-1-1.5-1.4-2.2-.5-.7-1-1.3-1.4-1.9-.4-.5-.7-1-1-1.3-.2-.3-.4-.5-.4-.5l6.2-4.9z"/></g><g><path class="st4" d="M585.1 246.1l2 2.4c1 1.1 1.9 2.2 1.9 2.2l3.5-1.9s-1.3-1.5-2.5-2.9c-1.2-1.5-2.5-3-2.5-3l-2.4 3.2z"/><path class="st13" d="M585.6 234.6s2.5 3 4.9 5.9c.6.7 1.2 1.5 1.8 2.2.6.7 1.1 1.3 1.6 1.9 1 1.2 1.6 1.9 1.6 1.9l-6.1 4.9s-.6-.7-1.5-1.7c-.5-.6-1-1.2-1.6-1.9-.6-.7-1.2-1.4-1.8-2.2-2.5-3-4.9-5.9-4.9-5.9l6-5.1z"/></g><g><path class="st4" d="M575.2 234.3l3.9 4.7 3.5-1.9-4.9-6z"/><path class="st13" d="M575.7 222.7l9.9 11.9-6 5-9.8-11.9z"/></g><g><path class="st4" d="M565.3 222.4l4 4.7 3.4-1.9-4.9-5.9z"/><path class="st13" d="M565.9 210.8l9.8 11.9-5.9 5-9.9-11.9z"/></g><g><path class="st4" d="M555.5 210.5l3.9 4.7 3.5-1.9-4.9-5.9z"/><path class="st13" d="M556 198.9l9.9 11.9-6 5-9.8-11.9z"/></g><g><path class="st4" d="M545.6 198.6l4 4.8 3.4-2-4.9-5.9z"/><path class="st13" d="M546.1 187l9.9 11.9-5.9 5-9.9-11.8z"/></g><g><path class="st4" d="M535.8 186.7l3.9 4.8 3.5-1.9-5-6z"/><path class="st13" d="M536.3 175.2l9.8 11.8-5.9 5.1-9.9-11.9z"/></g><g><path class="st4" d="M525.9 174.8l3.9 4.8 3.5-1.9-4.9-6z"/><path class="st13" d="M526.4 163.3l9.9 11.9-6 5-9.8-11.9z"/></g><g><path class="st4" d="M516 162.9l4 4.8 3.5-1.9-5-5.9z"/><path class="st13" d="M516.6 151.4l9.8 11.9-5.9 5-9.9-11.9z"/></g><g><path class="st4" d="M506.2 151.1l3.9 4.7 3.5-1.9-4.9-5.9z"/><path class="st13" d="M506.7 139.5l9.9 11.9-6 5-9.8-11.9z"/></g><g><path class="st4" d="M496.3 139.2l4 4.7 3.4-1.9-4.9-5.9z"/><path class="st13" d="M496.9 127.6l9.8 11.9-5.9 5-9.9-11.9z"/></g><g><path class="st4" d="M486.5 127.3l3.9 4.8 3.5-2-4.9-5.9z"/><path class="st13" d="M487 115.8l9.9 11.8-6 5-9.9-11.8z"/></g><g><path class="st4" d="M476.6 115.4l3.9 4.8 3.5-1.9-4.9-6z"/><path class="st13" d="M477.1 103.9l9.9 11.9-6 5-9.8-11.9z"/></g><g><path class="st4" d="M466.7 103.5l4 4.8 3.5-1.9-5-6z"/><path class="st13" d="M467.3 92l9.8 11.9-5.9 5-9.9-11.9z"/></g><g><path class="st4" d="M456.9 91.6l3.9 4.8 3.5-1.9-4.9-5.9z"/><path class="st13" d="M457.4 80.1l9.9 11.9-6 5-9.8-11.9z"/></g><g><path class="st4" d="M447 79.8l4 4.7 3.4-1.9-4.9-5.9z"/><path class="st13" d="M447.6 68.2l9.8 11.9-5.9 5-9.9-11.9z"/></g><g><path class="st4" d="M437.2 67.9l3.9 4.7 3.5-1.9-4.9-5.9z"/><path class="st13" d="M437.7 56.4l9.9 11.8-6 5-9.9-11.9z"/></g><g><path class="st4" d="M427.3 56l4 4.7 3.4-1.8-4.9-6z"/><path class="st13" d="M427.9 44.5l9.8 11.9-6 4.9-9.8-11.8z"/></g><g><path class="st4" d="M417.4 44.1l4 4.8 3.5-1.9-5-6z"/><path class="st13" d="M421.878 49.508l-9.833-11.852 6.003-4.98 9.833 11.852z"/></g></g><path class="st6" d="M466.8 75.7c0-3.3-.3-6.6-.9-9.7l16.4-8.2c-1.5-5.9-3.8-11.4-6.7-16.5L458.3 47c-3.6-5.4-8.2-10.2-13.6-13.9l5.9-17.4c-5.1-3-10.5-5.3-16.3-6.9L426 25.2c-3.1-.6-6.4-1-9.7-1-3.3 0-6.5.3-9.7.9l-8.1-16.5c-5.8 1.5-11.3 3.8-16.4 6.8l5.7 17.5c-5.4 3.6-10.1 8.3-13.7 13.7l-17.3-5.9c-3 5.1-5.3 10.6-6.9 16.5l16.3 8.3c-.6 3.2-1 6.4-1 9.7 0 3.3.3 6.6.9 9.7L349.6 93c1.5 5.9 3.8 11.4 6.7 16.5l17.3-5.7c3.6 5.4 8.2 10.2 13.6 13.9l-5.9 17.4c5.1 3 10.5 5.3 16.3 6.9l8.3-16.4c3.1.6 6.4 1 9.7 1 3.3 0 6.5-.3 9.7-.9l8.1 16.5c5.8-1.5 11.3-3.8 16.4-6.8l-5.7-17.5c5.4-3.6 10.1-8.3 13.7-13.7l17.3 5.9c3-5.1 5.3-10.6 6.9-16.5l-16.3-8.3c.7-3 1.1-6.2 1.1-9.6zm-26.8-.1c-.1 13.3-10.9 24.1-24 24.1h-.1c-6.4 0-12.4-2.6-16.9-7.2-4.5-4.6-7-10.7-6.9-17.2.1-13.3 10.9-24.1 24-24.1h.1c13.2 0 23.9 11 23.8 24.4z"/><g><path class="st1" d="M416 110.6h-.2c-9.3-.1-18.1-3.8-24.6-10.5-6.6-6.7-10.1-15.5-10.1-24.9.1-19.3 15.8-35 34.9-35h.2c19.3.1 34.8 16 34.7 35.4-.1 19.3-15.8 35-34.9 35zm0-65.3c-16.4 0-29.8 13.5-29.9 30 0 8.1 3 15.7 8.6 21.4 5.6 5.7 13.1 8.9 21.1 9h.2c16.4 0 29.8-13.5 29.9-30 .1-16.6-13.2-30.2-29.7-30.3l-.2-.1z"/></g></g></svg>